%TF.GenerationSoftware,KiCad,Pcbnew,7.0.3*%
%TF.CreationDate,2023-05-15T17:39:43+02:00*%
%TF.ProjectId,PRO_MCU,50524f5f-4d43-4552-9e6b-696361645f70,rev?*%
%TF.SameCoordinates,Original*%
%TF.FileFunction,Copper,L1,Top*%
%TF.FilePolarity,Positive*%
%FSLAX45Y45*%
G04 Gerber Fmt 4.5, Leading zero omitted, Abs format (unit mm)*
G04 Created by KiCad (PCBNEW 7.0.3) date 2023-05-15 17:39:43*
%MOMM*%
%LPD*%
G01*
G04 APERTURE LIST*
G04 Aperture macros list*
%AMRoundRect*
0 Rectangle with rounded corners*
0 $1 Rounding radius*
0 $2 $3 $4 $5 $6 $7 $8 $9 X,Y pos of 4 corners*
0 Add a 4 corners polygon primitive as box body*
4,1,4,$2,$3,$4,$5,$6,$7,$8,$9,$2,$3,0*
0 Add four circle primitives for the rounded corners*
1,1,$1+$1,$2,$3*
1,1,$1+$1,$4,$5*
1,1,$1+$1,$6,$7*
1,1,$1+$1,$8,$9*
0 Add four rect primitives between the rounded corners*
20,1,$1+$1,$2,$3,$4,$5,0*
20,1,$1+$1,$4,$5,$6,$7,0*
20,1,$1+$1,$6,$7,$8,$9,0*
20,1,$1+$1,$8,$9,$2,$3,0*%
G04 Aperture macros list end*
%TA.AperFunction,ComponentPad*%
%ADD10C,1.800000*%
%TD*%
%TA.AperFunction,ComponentPad*%
%ADD11R,1.800000X1.800000*%
%TD*%
%TA.AperFunction,SMDPad,CuDef*%
%ADD12RoundRect,0.250000X0.250000X0.475000X-0.250000X0.475000X-0.250000X-0.475000X0.250000X-0.475000X0*%
%TD*%
%TA.AperFunction,ComponentPad*%
%ADD13C,2.200000*%
%TD*%
%TA.AperFunction,ComponentPad*%
%ADD14C,1.300000*%
%TD*%
%TA.AperFunction,ComponentPad*%
%ADD15R,1.300000X1.300000*%
%TD*%
%TA.AperFunction,ComponentPad*%
%ADD16C,1.700000*%
%TD*%
%TA.AperFunction,ComponentPad*%
%ADD17RoundRect,0.250000X-0.600000X-0.600000X0.600000X-0.600000X0.600000X0.600000X-0.600000X0.600000X0*%
%TD*%
%TA.AperFunction,ComponentPad*%
%ADD18RoundRect,0.250000X0.600000X-0.600000X0.600000X0.600000X-0.600000X0.600000X-0.600000X-0.600000X0*%
%TD*%
%TA.AperFunction,ComponentPad*%
%ADD19O,1.600000X1.600000*%
%TD*%
%TA.AperFunction,ComponentPad*%
%ADD20C,1.600000*%
%TD*%
%TA.AperFunction,ComponentPad*%
%ADD21O,1.700000X1.700000*%
%TD*%
%TA.AperFunction,ComponentPad*%
%ADD22R,1.700000X1.700000*%
%TD*%
%TA.AperFunction,ComponentPad*%
%ADD23C,1.750000*%
%TD*%
%TA.AperFunction,ComponentPad*%
%ADD24R,1.750000X1.750000*%
%TD*%
%TA.AperFunction,ComponentPad*%
%ADD25C,4.000000*%
%TD*%
%TA.AperFunction,ViaPad*%
%ADD26C,0.900000*%
%TD*%
%TA.AperFunction,Conductor*%
%ADD27C,0.400000*%
%TD*%
%TA.AperFunction,Conductor*%
%ADD28C,0.500000*%
%TD*%
%TA.AperFunction,Conductor*%
%ADD29C,0.250000*%
%TD*%
%TA.AperFunction,Conductor*%
%ADD30C,0.600000*%
%TD*%
%TA.AperFunction,Conductor*%
%ADD31C,0.300000*%
%TD*%
%TA.AperFunction,Conductor*%
%ADD32C,0.430000*%
%TD*%
G04 APERTURE END LIST*
D10*
%TO.P,D1,2,A*%
%TO.N,Net-(D1-A)*%
X11684000Y-6159500D03*
D11*
%TO.P,D1,1,K*%
%TO.N,GND*%
X11938000Y-6159500D03*
%TD*%
D12*
%TO.P,C2,2*%
%TO.N,GND*%
X7176000Y-3873500D03*
%TO.P,C2,1*%
%TO.N,+3.3V*%
X7366000Y-3873500D03*
%TD*%
D13*
%TO.P,Logo,*%
%TO.N,*%
X12390000Y-7197500D03*
X5290000Y-7197500D03*
%TD*%
D14*
%TO.P,Q1,3,D*%
%TO.N,PUMP_PWR*%
X9906000Y-7048500D03*
%TO.P,Q1,2,G*%
%TO.N,PUMP_CTL*%
X10033000Y-6921500D03*
D15*
%TO.P,Q1,1,S*%
%TO.N,GND*%
X9906000Y-6794500D03*
%TD*%
D12*
%TO.P,C1,2*%
%TO.N,GND*%
X7176000Y-4635500D03*
%TO.P,C1,1*%
%TO.N,+5V*%
X7366000Y-4635500D03*
%TD*%
D16*
%TO.P,U1,8,A*%
%TO.N,LED2*%
X10668000Y-4635500D03*
%TO.P,U1,7,K*%
%TO.N,GND*%
X10414000Y-4635500D03*
%TO.P,U1,6,2*%
%TO.N,BTN2*%
X10668000Y-4381500D03*
%TO.P,U1,5,1*%
%TO.N,GND*%
X10414000Y-4381500D03*
%TO.P,U1,4,A*%
%TO.N,LED1*%
X10668000Y-4127500D03*
%TO.P,U1,3,K*%
%TO.N,GND*%
X10414000Y-4127500D03*
%TO.P,U1,2,2*%
%TO.N,BTN1*%
X10668000Y-3873500D03*
D17*
%TO.P,U1,1,1*%
%TO.N,GND*%
X10414000Y-3873500D03*
%TD*%
D16*
%TO.P,U5,8,BL*%
%TO.N,BL*%
X6350000Y-3619500D03*
%TO.P,U5,7,RST*%
%TO.N,RST*%
X6350000Y-3873500D03*
%TO.P,U5,6,DC*%
%TO.N,DC*%
X6096000Y-3619500D03*
%TO.P,U5,5,CS*%
%TO.N,CS*%
X6096000Y-3873500D03*
%TO.P,U5,4,CLK*%
%TO.N,SCK*%
X5842000Y-3619500D03*
%TO.P,U5,3,DIN*%
%TO.N,MOSI*%
X5842000Y-3873500D03*
%TO.P,U5,2,GND*%
%TO.N,GND*%
X5588000Y-3619500D03*
D18*
%TO.P,U5,1,VCC*%
%TO.N,+3.3V*%
X5588000Y-3873500D03*
%TD*%
D19*
%TO.P,R2,2*%
%TO.N,Net-(D2-A)*%
X11430000Y-6921500D03*
D20*
%TO.P,R2,1*%
%TO.N,PUMP_CTL*%
X10414000Y-6921500D03*
%TD*%
D10*
%TO.P,D2,2,A*%
%TO.N,Net-(D2-A)*%
X11684000Y-6921500D03*
D11*
%TO.P,D2,1,K*%
%TO.N,GND*%
X11938000Y-6921500D03*
%TD*%
D21*
%TO.P,U3,28,VBAT*%
%TO.N,+BATT*%
X9398000Y-3619500D03*
%TO.P,U3,27,GND*%
%TO.N,GND*%
X9398000Y-3873500D03*
%TO.P,U3,26,VBUS*%
%TO.N,unconnected-(U3-VBUS-Pad26)*%
X9398000Y-4127500D03*
%TO.P,U3,25,D13*%
%TO.N,unconnected-(U3-D13-Pad25)*%
X9398000Y-4381500D03*
%TO.P,U3,24,D12*%
%TO.N,BTN2*%
X9398000Y-4635500D03*
%TO.P,U3,23,D11*%
%TO.N,LED2*%
X9398000Y-4889500D03*
%TO.P,U3,22,D10*%
%TO.N,VALVE_CTL*%
X9398000Y-5143500D03*
%TO.P,U3,21,D9*%
%TO.N,PUMP_CTL*%
X9398000Y-5397500D03*
%TO.P,U3,20,D7*%
%TO.N,BTN1*%
X9398000Y-5651500D03*
%TO.P,U3,19,D5_5V*%
%TO.N,LED1*%
X9398000Y-5905500D03*
%TO.P,U3,18,SCL*%
%TO.N,SCL*%
X9398000Y-6159500D03*
%TO.P,U3,17,SDA*%
%TO.N,SDA*%
X9398000Y-6413500D03*
%TO.P,U3,16,RX_D0*%
%TO.N,unconnected-(U3-RX_D0-Pad16)*%
X9398000Y-6667500D03*
%TO.P,U3,15,TX_D1*%
%TO.N,unconnected-(U3-TX_D1-Pad15)*%
X9398000Y-6921500D03*
%TO.P,U3,14,D2*%
%TO.N,unconnected-(U3-D2-Pad14)*%
X7874000Y-6921500D03*
%TO.P,U3,13,MISO*%
%TO.N,MISO*%
X7874000Y-6667500D03*
%TO.P,U3,12,MOSI*%
%TO.N,MOSI*%
X7874000Y-6413500D03*
%TO.P,U3,11,SCK*%
%TO.N,SCK*%
X7874000Y-6159500D03*
%TO.P,U3,10,A5*%
%TO.N,MPRLS_RST*%
X7874000Y-5905500D03*
%TO.P,U3,9,A4*%
%TO.N,EOC*%
X7874000Y-5651500D03*
%TO.P,U3,8,A3*%
%TO.N,CS*%
X7874000Y-5397500D03*
%TO.P,U3,7,A2*%
%TO.N,DC*%
X7874000Y-5143500D03*
%TO.P,U3,6,A1*%
%TO.N,RST*%
X7874000Y-4889500D03*
%TO.P,U3,5,A0*%
%TO.N,BL*%
X7874000Y-4635500D03*
%TO.P,U3,4,VHI*%
%TO.N,+5V*%
X7874000Y-4381500D03*
%TO.P,U3,3,EN*%
%TO.N,unconnected-(U3-EN-Pad3)*%
X7874000Y-4127500D03*
%TO.P,U3,2,3V3*%
%TO.N,+3.3V*%
X7874000Y-3873500D03*
D22*
%TO.P,U3,1,~{RESET}*%
%TO.N,unconnected-(U3-~{RESET}-Pad1)*%
X7874000Y-3619500D03*
%TD*%
D17*
%TO.P,U2,1,P+*%
%TO.N,+5V*%
X11938000Y-3873500D03*
D16*
%TO.P,U2,2,P-*%
%TO.N,PUMP_PWR*%
X12192000Y-3873500D03*
%TO.P,U2,3,V+*%
%TO.N,+5V*%
X11938000Y-4127500D03*
%TO.P,U2,4,V-*%
%TO.N,VALVE_PWR*%
X12192000Y-4127500D03*
%TO.P,U2,5,BAT+*%
%TO.N,+BATT*%
X11938000Y-4381500D03*
%TO.P,U2,6,BAT-*%
%TO.N,GND*%
X12192000Y-4381500D03*
%TD*%
D19*
%TO.P,10k2,2*%
%TO.N,+3.3V*%
X12192000Y-5143500D03*
D20*
%TO.P,10k2,1*%
%TO.N,BTN1*%
X11176000Y-5143500D03*
%TD*%
D19*
%TO.P,10k1,2*%
%TO.N,+3.3V*%
X12192000Y-5651500D03*
D20*
%TO.P,10k1,1*%
%TO.N,BTN2*%
X11176000Y-5651500D03*
%TD*%
D14*
%TO.P,Q2,3,D*%
%TO.N,VALVE_PWR*%
X9906000Y-6286500D03*
%TO.P,Q2,2,G*%
%TO.N,VALVE_CTL*%
X10033000Y-6159500D03*
D15*
%TO.P,Q2,1,S*%
%TO.N,GND*%
X9906000Y-6032500D03*
%TD*%
D19*
%TO.P,R1,2*%
%TO.N,Net-(D1-A)*%
X11430000Y-6159500D03*
D20*
%TO.P,R1,1*%
%TO.N,VALVE_CTL*%
X10414000Y-6159500D03*
%TD*%
D23*
%TO.P,U4,7,RST*%
%TO.N,MPRLS_RST*%
X6604000Y-6921500D03*
%TO.P,U4,6,EOC*%
%TO.N,EOC*%
X6604000Y-6667500D03*
%TO.P,U4,5,SDA*%
%TO.N,SDA*%
X6604000Y-6413500D03*
%TO.P,U4,4,SCL*%
%TO.N,SCL*%
X6604000Y-6159500D03*
%TO.P,U4,3,GND*%
%TO.N,GND*%
X6604000Y-5905500D03*
%TO.P,U4,2,3Vo*%
%TO.N,+3.3V*%
X6604000Y-5651500D03*
D24*
%TO.P,U4,1,VIN*%
%TO.N,unconnected-(U4-VIN-Pad1)*%
X6604000Y-5397500D03*
D25*
%TO.P,U4,*%
%TO.N,*%
X5461000Y-6794500D03*
X5461000Y-5524500D03*
%TD*%
D26*
%TO.N,+3.3V*%
X11430000Y-3619500D03*
%TO.N,+5V*%
X7366000Y-4381500D03*
%TO.N,PUMP_CTL*%
X9652000Y-6413500D03*
%TO.N,SCK*%
X7112000Y-5143500D03*
%TD*%
D27*
%TO.N,+3.3V*%
X11430000Y-3619500D02*
X11430000Y-4381500D01*
D28*
X5588000Y-3873500D02*
X5588000Y-4127500D01*
X6604000Y-5651500D02*
X6858000Y-5651500D01*
X7620000Y-3873500D02*
X7874000Y-3873500D01*
X7620000Y-4889500D02*
X7620000Y-3873500D01*
D27*
X11430000Y-4381500D02*
X12192000Y-5143500D01*
D28*
X7112000Y-4381500D02*
X7366000Y-4127500D01*
X5588000Y-4127500D02*
X5842000Y-4381500D01*
X6858000Y-5651500D02*
X7620000Y-4889500D01*
X5842000Y-4381500D02*
X7112000Y-4381500D01*
X7366000Y-4127500D02*
X7366000Y-3873500D01*
X7366000Y-3873500D02*
X7620000Y-3873500D01*
D29*
%TO.N,BTN1*%
X10668000Y-3873500D02*
X11176000Y-4381500D01*
X11176000Y-4381500D02*
X11176000Y-5143500D01*
D30*
%TO.N,+5V*%
X8128000Y-4381500D02*
X7874000Y-4381500D01*
X11938000Y-3873500D02*
X11938000Y-4127500D01*
X11938000Y-3873500D02*
X11430000Y-3365500D01*
X11430000Y-3365500D02*
X9144000Y-3365500D01*
D28*
X7366000Y-4635500D02*
X7366000Y-4381500D01*
D30*
X9144000Y-3365500D02*
X8128000Y-4381500D01*
D29*
%TO.N,PUMP_CTL*%
X9144000Y-6074499D02*
X9144000Y-5651500D01*
X9356001Y-6286500D02*
X9144000Y-6074499D01*
X9652000Y-6413500D02*
X9525000Y-6286500D01*
X9144000Y-5651500D02*
X9398000Y-5397500D01*
X9525000Y-6286500D02*
X9356001Y-6286500D01*
%TO.N,VALVE_CTL*%
X9271000Y-7302500D02*
X8890000Y-6921500D01*
X8890000Y-5651500D02*
X9398000Y-5143500D01*
X10160000Y-6286500D02*
X10160000Y-7175500D01*
X8890000Y-6921500D02*
X8890000Y-5651500D01*
X10160000Y-7175500D02*
X10033000Y-7302500D01*
X10033000Y-7302500D02*
X9271000Y-7302500D01*
X10033000Y-6159500D02*
X10160000Y-6286500D01*
%TO.N,LED1*%
X9906000Y-4381500D02*
X9906000Y-5651500D01*
X10025500Y-4262000D02*
X9906000Y-4381500D01*
X9906000Y-5651500D02*
X9652000Y-5905500D01*
X9652000Y-5905500D02*
X9398000Y-5905500D01*
X10533500Y-4262000D02*
X10025500Y-4262000D01*
X10668000Y-4127500D02*
X10533500Y-4262000D01*
%TO.N,EOC*%
X6604000Y-6667500D02*
X6858000Y-6667500D01*
X7620000Y-5651500D02*
X7874000Y-5651500D01*
X7112000Y-6413500D02*
X7112000Y-6159500D01*
X7112000Y-6159500D02*
X7620000Y-5651500D01*
X6858000Y-6667500D02*
X7112000Y-6413500D01*
%TO.N,MPRLS_RST*%
X7366000Y-6159500D02*
X7620000Y-5905500D01*
X6604000Y-6921500D02*
X6858000Y-6921500D01*
X6858000Y-6921500D02*
X7366000Y-6413500D01*
X7366000Y-6413500D02*
X7366000Y-6159500D01*
X7620000Y-5905500D02*
X7874000Y-5905500D01*
D31*
%TO.N,SCK*%
X5080000Y-3873500D02*
X5080000Y-3619500D01*
D32*
X5715000Y-3492500D02*
X5842000Y-3619500D01*
D31*
X7112000Y-5143500D02*
X6350000Y-5143500D01*
X5207000Y-3492500D02*
X5715000Y-3492500D01*
X5080000Y-3619500D02*
X5207000Y-3492500D01*
X6350000Y-5143500D02*
X5080000Y-3873500D01*
%TD*%
%TA.AperFunction,Conductor*%
%TO.N,GND*%
G36*
X9088865Y-3321518D02*
G01*
X9093441Y-3326799D01*
X9094435Y-3333715D01*
X9091533Y-3340070D01*
X9090929Y-3340718D01*
X8108829Y-4322818D01*
X8102697Y-4326167D01*
X8100061Y-4326450D01*
X7976507Y-4326450D01*
X7969803Y-4324482D01*
X7966612Y-4321523D01*
X7962663Y-4316295D01*
X7959005Y-4311450D01*
X7955676Y-4307042D01*
X7940604Y-4293302D01*
X7940604Y-4293302D01*
X7923264Y-4282566D01*
X7923263Y-4282565D01*
X7913755Y-4278881D01*
X7904246Y-4275198D01*
X7884198Y-4271450D01*
X7863802Y-4271450D01*
X7843754Y-4275198D01*
X7843754Y-4275198D01*
X7843754Y-4275198D01*
X7824736Y-4282565D01*
X7824736Y-4282566D01*
X7807396Y-4293302D01*
X7807396Y-4293302D01*
X7792324Y-4307042D01*
X7780033Y-4323318D01*
X7770942Y-4341574D01*
X7770942Y-4341575D01*
X7765360Y-4361192D01*
X7763478Y-4381500D01*
X7763478Y-4381500D01*
X7765360Y-4401808D01*
X7770942Y-4421425D01*
X7770942Y-4421426D01*
X7780033Y-4439682D01*
X7792324Y-4455958D01*
X7807396Y-4469698D01*
X7807396Y-4469698D01*
X7817314Y-4475839D01*
X7824736Y-4480435D01*
X7843754Y-4487802D01*
X7863802Y-4491550D01*
X7863803Y-4491550D01*
X7884197Y-4491550D01*
X7884198Y-4491550D01*
X7904246Y-4487802D01*
X7923264Y-4480435D01*
X7940604Y-4469698D01*
X7955676Y-4455958D01*
X7966612Y-4441477D01*
X7972222Y-4437314D01*
X7976507Y-4436550D01*
X8126954Y-4436550D01*
X8127165Y-4436554D01*
X8128136Y-4436587D01*
X8133683Y-4436776D01*
X8137983Y-4435728D01*
X8138605Y-4435610D01*
X8142992Y-4435007D01*
X8144638Y-4434292D01*
X8146642Y-4433618D01*
X8148385Y-4433193D01*
X8152246Y-4431022D01*
X8152809Y-4430743D01*
X8156872Y-4428978D01*
X8158263Y-4427846D01*
X8160012Y-4426656D01*
X8161393Y-4425880D01*
X8161576Y-4425777D01*
X8164706Y-4422646D01*
X8165177Y-4422221D01*
X8168611Y-4419428D01*
X8169646Y-4417962D01*
X8171007Y-4416345D01*
X8205852Y-4381500D01*
X9287479Y-4381500D01*
X9289360Y-4401808D01*
X9294942Y-4421425D01*
X9294942Y-4421426D01*
X9304033Y-4439682D01*
X9316324Y-4455958D01*
X9331396Y-4469698D01*
X9331396Y-4469698D01*
X9341314Y-4475839D01*
X9348736Y-4480435D01*
X9367754Y-4487802D01*
X9387802Y-4491550D01*
X9387803Y-4491550D01*
X9408197Y-4491550D01*
X9408198Y-4491550D01*
X9428246Y-4487802D01*
X9447264Y-4480435D01*
X9464604Y-4469698D01*
X9479676Y-4455958D01*
X9491967Y-4439682D01*
X9501058Y-4421425D01*
X9506640Y-4401808D01*
X9508522Y-4381500D01*
X9507449Y-4369923D01*
X9506640Y-4361192D01*
X9506124Y-4359379D01*
X9501058Y-4341575D01*
X9499527Y-4338501D01*
X9493527Y-4326450D01*
X9491967Y-4323318D01*
X9484736Y-4313742D01*
X9479676Y-4307042D01*
X9464604Y-4293302D01*
X9464604Y-4293302D01*
X9447264Y-4282566D01*
X9447264Y-4282565D01*
X9437755Y-4278881D01*
X9428246Y-4275198D01*
X9408198Y-4271450D01*
X9387802Y-4271450D01*
X9367754Y-4275198D01*
X9367754Y-4275198D01*
X9367754Y-4275198D01*
X9348736Y-4282565D01*
X9348736Y-4282566D01*
X9331396Y-4293302D01*
X9331396Y-4293302D01*
X9316324Y-4307042D01*
X9304033Y-4323318D01*
X9294942Y-4341574D01*
X9294942Y-4341575D01*
X9289360Y-4361192D01*
X9287479Y-4381500D01*
X9287479Y-4381500D01*
X8205852Y-4381500D01*
X8688852Y-3898500D01*
X9264936Y-3898500D01*
X9270657Y-3919849D01*
X9270657Y-3919849D01*
X9280640Y-3941258D01*
X9294189Y-3960608D01*
X9310892Y-3977310D01*
X9330242Y-3990860D01*
X9351651Y-4000843D01*
X9351652Y-4000843D01*
X9355558Y-4001890D01*
X9361524Y-4005527D01*
X9364577Y-4011811D01*
X9363748Y-4018749D01*
X9359299Y-4024137D01*
X9356828Y-4025430D01*
X9348737Y-4028565D01*
X9348736Y-4028565D01*
X9331396Y-4039302D01*
X9331396Y-4039302D01*
X9316324Y-4053042D01*
X9304033Y-4069318D01*
X9294942Y-4087574D01*
X9294942Y-4087575D01*
X9289360Y-4107192D01*
X9287479Y-4127500D01*
X9287479Y-4127500D01*
X9289360Y-4147808D01*
X9294942Y-4167425D01*
X9294942Y-4167426D01*
X9304033Y-4185682D01*
X9316324Y-4201958D01*
X9331396Y-4215698D01*
X9331396Y-4215698D01*
X9335655Y-4218335D01*
X9348736Y-4226435D01*
X9367754Y-4233802D01*
X9387802Y-4237550D01*
X9387803Y-4237550D01*
X9408197Y-4237550D01*
X9408198Y-4237550D01*
X9428246Y-4233802D01*
X9447264Y-4226435D01*
X9464604Y-4215698D01*
X9479676Y-4201958D01*
X9491967Y-4185682D01*
X9501058Y-4167425D01*
X9506640Y-4147808D01*
X9508522Y-4127500D01*
X9506640Y-4107192D01*
X9501058Y-4087575D01*
X9499527Y-4084501D01*
X9496042Y-4077500D01*
X9491967Y-4069318D01*
X9484736Y-4059742D01*
X9479676Y-4053042D01*
X9464604Y-4039302D01*
X9464604Y-4039302D01*
X9447264Y-4028565D01*
X9447264Y-4028565D01*
X9439172Y-4025430D01*
X9433631Y-4021173D01*
X9431272Y-4014596D01*
X9432843Y-4007788D01*
X9437846Y-4002910D01*
X9440442Y-4001890D01*
X9444348Y-4000843D01*
X9444349Y-4000843D01*
X9465758Y-3990860D01*
X9485108Y-3977310D01*
X9501811Y-3960608D01*
X9515360Y-3941258D01*
X9525343Y-3919849D01*
X9525343Y-3919849D01*
X9531064Y-3898500D01*
X9441369Y-3898500D01*
X9443949Y-3894484D01*
X9448000Y-3880689D01*
X9448000Y-3866311D01*
X9443949Y-3852516D01*
X9441369Y-3848500D01*
X9531064Y-3848500D01*
X9531064Y-3848500D01*
X9525343Y-3827151D01*
X9525343Y-3827151D01*
X9515360Y-3805742D01*
X9515360Y-3805742D01*
X9501811Y-3786393D01*
X9501811Y-3786392D01*
X9485108Y-3769689D01*
X9465758Y-3756140D01*
X9444349Y-3746157D01*
X9444348Y-3746156D01*
X9440441Y-3745110D01*
X9434475Y-3741473D01*
X9431423Y-3735188D01*
X9432252Y-3728251D01*
X9436701Y-3722863D01*
X9439171Y-3721570D01*
X9447264Y-3718435D01*
X9464604Y-3707698D01*
X9479676Y-3693958D01*
X9491967Y-3677682D01*
X9501058Y-3659425D01*
X9506640Y-3639808D01*
X9508522Y-3619500D01*
X11359435Y-3619500D01*
X11361486Y-3636387D01*
X11361486Y-3636387D01*
X11367518Y-3652293D01*
X11377181Y-3666293D01*
X11377182Y-3666293D01*
X11377182Y-3666293D01*
X11380773Y-3669474D01*
X11384485Y-3675393D01*
X11384950Y-3678756D01*
X11384950Y-4378622D01*
X11384911Y-4379316D01*
X11384885Y-4379551D01*
X11384473Y-4383204D01*
X11385557Y-4388934D01*
X11385596Y-4389162D01*
X11386465Y-4394929D01*
X11386716Y-4395743D01*
X11386998Y-4396547D01*
X11389723Y-4401704D01*
X11389827Y-4401911D01*
X11392357Y-4407164D01*
X11392836Y-4407867D01*
X11393343Y-4408553D01*
X11393343Y-4408554D01*
X11393344Y-4408554D01*
X11397467Y-4412677D01*
X11397628Y-4412844D01*
X11401595Y-4417120D01*
X11402321Y-4417699D01*
X11402269Y-4417764D01*
X11403493Y-4418703D01*
X12087689Y-5102900D01*
X12091038Y-5109032D01*
X12090787Y-5115267D01*
X12088470Y-5122907D01*
X12086442Y-5143500D01*
X12088470Y-5164093D01*
X12091473Y-5173994D01*
X12094477Y-5183895D01*
X12104231Y-5202145D01*
X12104232Y-5202145D01*
X12117359Y-5218141D01*
X12127021Y-5226070D01*
X12133355Y-5231269D01*
X12151605Y-5241023D01*
X12171407Y-5247030D01*
X12171406Y-5247030D01*
X12173435Y-5247230D01*
X12192000Y-5249058D01*
X12212593Y-5247030D01*
X12232395Y-5241023D01*
X12250645Y-5231269D01*
X12266641Y-5218141D01*
X12279768Y-5202145D01*
X12289523Y-5183895D01*
X12295530Y-5164093D01*
X12297558Y-5143500D01*
X12295530Y-5122907D01*
X12289523Y-5103105D01*
X12279768Y-5084855D01*
X12273750Y-5077521D01*
X12266641Y-5068859D01*
X12250645Y-5055732D01*
X12250645Y-5055732D01*
X12250645Y-5055732D01*
X12232395Y-5045977D01*
X12212593Y-5039970D01*
X12212593Y-5039970D01*
X12212593Y-5039970D01*
X12192000Y-5037942D01*
X12171407Y-5039970D01*
X12171406Y-5039970D01*
X12163767Y-5042287D01*
X12156780Y-5042350D01*
X12151400Y-5039189D01*
X11817463Y-4705253D01*
X11493710Y-4381500D01*
X11827478Y-4381500D01*
X11829360Y-4401808D01*
X11834942Y-4421425D01*
X11834942Y-4421426D01*
X11844033Y-4439682D01*
X11856324Y-4455958D01*
X11871396Y-4469698D01*
X11871396Y-4469698D01*
X11881314Y-4475839D01*
X11888736Y-4480435D01*
X11907754Y-4487802D01*
X11927802Y-4491550D01*
X11927803Y-4491550D01*
X11948197Y-4491550D01*
X11948198Y-4491550D01*
X11968246Y-4487802D01*
X11987264Y-4480435D01*
X12004604Y-4469698D01*
X12019676Y-4455958D01*
X12031967Y-4439682D01*
X12038984Y-4425591D01*
X12040682Y-4422181D01*
X12045432Y-4417058D01*
X12052198Y-4415315D01*
X12058832Y-4417508D01*
X12063228Y-4422939D01*
X12063759Y-4424499D01*
X12064657Y-4427849D01*
X12064657Y-4427849D01*
X12074640Y-4449258D01*
X12074640Y-4449258D01*
X12080507Y-4457637D01*
X12080507Y-4457637D01*
X12143692Y-4394452D01*
X12146051Y-4402484D01*
X12153824Y-4414580D01*
X12164690Y-4423995D01*
X12177768Y-4429968D01*
X12178747Y-4430109D01*
X12115862Y-4492993D01*
X12124242Y-4498860D01*
X12145651Y-4508843D01*
X12145652Y-4508843D01*
X12168467Y-4514957D01*
X12168468Y-4514957D01*
X12192000Y-4517016D01*
X12192000Y-4517016D01*
X12215531Y-4514957D01*
X12215533Y-4514957D01*
X12238348Y-4508843D01*
X12238349Y-4508843D01*
X12259758Y-4498860D01*
X12259758Y-4498860D01*
X12268137Y-4492993D01*
X12268137Y-4492993D01*
X12205253Y-4430109D01*
X12206231Y-4429968D01*
X12219310Y-4423995D01*
X12230176Y-4414580D01*
X12237949Y-4402484D01*
X12240308Y-4394452D01*
X12303492Y-4457637D01*
X12303493Y-4457637D01*
X12309360Y-4449258D01*
X12309360Y-4449258D01*
X12319343Y-4427849D01*
X12319343Y-4427848D01*
X12325457Y-4405033D01*
X12325457Y-4405032D01*
X12327516Y-4381500D01*
X12327516Y-4381500D01*
X12325457Y-4357968D01*
X12325457Y-4357967D01*
X12319343Y-4335152D01*
X12319343Y-4335151D01*
X12309360Y-4313742D01*
X12309360Y-4313742D01*
X12303492Y-4305363D01*
X12303492Y-4305363D01*
X12240308Y-4368548D01*
X12237949Y-4360516D01*
X12230176Y-4348420D01*
X12219310Y-4339005D01*
X12206231Y-4333032D01*
X12205253Y-4332891D01*
X12268137Y-4270007D01*
X12268137Y-4270007D01*
X12259758Y-4264140D01*
X12259758Y-4264140D01*
X12238349Y-4254157D01*
X12238348Y-4254156D01*
X12234441Y-4253110D01*
X12228475Y-4249473D01*
X12225423Y-4243189D01*
X12226252Y-4236251D01*
X12230701Y-4230863D01*
X12233171Y-4229570D01*
X12241264Y-4226435D01*
X12258604Y-4215698D01*
X12273676Y-4201958D01*
X12285967Y-4185682D01*
X12295058Y-4167425D01*
X12300640Y-4147808D01*
X12302521Y-4127500D01*
X12300640Y-4107192D01*
X12295058Y-4087575D01*
X12293527Y-4084501D01*
X12290041Y-4077500D01*
X12285967Y-4069318D01*
X12278736Y-4059742D01*
X12273676Y-4053042D01*
X12258604Y-4039302D01*
X12258604Y-4039302D01*
X12241264Y-4028565D01*
X12241263Y-4028565D01*
X12229832Y-4024137D01*
X12222246Y-4021198D01*
X12202198Y-4017450D01*
X12181802Y-4017450D01*
X12161754Y-4021198D01*
X12161754Y-4021198D01*
X12161754Y-4021198D01*
X12142736Y-4028565D01*
X12142736Y-4028565D01*
X12125396Y-4039302D01*
X12125396Y-4039302D01*
X12110324Y-4053042D01*
X12098033Y-4069318D01*
X12088942Y-4087574D01*
X12088942Y-4087575D01*
X12083360Y-4107192D01*
X12081478Y-4127500D01*
X12081478Y-4127500D01*
X12083360Y-4147808D01*
X12088942Y-4167425D01*
X12088942Y-4167426D01*
X12098033Y-4185682D01*
X12110324Y-4201958D01*
X12125396Y-4215698D01*
X12125396Y-4215698D01*
X12129655Y-4218335D01*
X12142736Y-4226435D01*
X12150828Y-4229570D01*
X12156368Y-4233827D01*
X12158728Y-4240404D01*
X12157156Y-4247212D01*
X12152154Y-4252090D01*
X12149559Y-4253110D01*
X12145652Y-4254157D01*
X12145651Y-4254157D01*
X12124242Y-4264140D01*
X12115862Y-4270007D01*
X12178747Y-4332891D01*
X12177768Y-4333032D01*
X12164690Y-4339005D01*
X12153824Y-4348420D01*
X12146051Y-4360516D01*
X12143692Y-4368548D01*
X12080507Y-4305363D01*
X12074640Y-4313742D01*
X12064657Y-4335151D01*
X12064657Y-4335151D01*
X12063759Y-4338501D01*
X12060123Y-4344467D01*
X12053838Y-4347520D01*
X12046900Y-4346690D01*
X12041513Y-4342242D01*
X12040682Y-4340819D01*
X12033527Y-4326450D01*
X12031967Y-4323318D01*
X12024736Y-4313742D01*
X12019676Y-4307042D01*
X12004604Y-4293302D01*
X12004604Y-4293302D01*
X11987264Y-4282566D01*
X11987263Y-4282565D01*
X11977755Y-4278881D01*
X11968246Y-4275198D01*
X11948198Y-4271450D01*
X11927802Y-4271450D01*
X11907754Y-4275198D01*
X11907754Y-4275198D01*
X11907754Y-4275198D01*
X11888736Y-4282565D01*
X11888736Y-4282566D01*
X11871396Y-4293302D01*
X11871396Y-4293302D01*
X11856324Y-4307042D01*
X11844033Y-4323318D01*
X11834942Y-4341574D01*
X11834942Y-4341575D01*
X11829360Y-4361192D01*
X11827478Y-4381500D01*
X11827478Y-4381500D01*
X11493710Y-4381500D01*
X11478682Y-4366471D01*
X11475333Y-4360339D01*
X11475050Y-4357704D01*
X11475050Y-3678756D01*
X11477018Y-3672052D01*
X11479227Y-3669474D01*
X11482818Y-3666293D01*
X11492482Y-3652293D01*
X11498514Y-3636387D01*
X11500564Y-3619500D01*
X11498514Y-3602613D01*
X11492482Y-3586707D01*
X11492284Y-3586420D01*
X11483125Y-3573152D01*
X11482818Y-3572707D01*
X11470085Y-3561427D01*
X11470085Y-3561426D01*
X11455023Y-3553521D01*
X11438506Y-3549450D01*
X11421494Y-3549450D01*
X11404977Y-3553521D01*
X11389915Y-3561426D01*
X11377182Y-3572707D01*
X11367518Y-3586707D01*
X11361486Y-3602612D01*
X11361486Y-3602613D01*
X11359435Y-3619500D01*
X9508522Y-3619500D01*
X9506640Y-3599192D01*
X9501058Y-3579575D01*
X9497860Y-3573152D01*
X9492021Y-3561427D01*
X9491967Y-3561318D01*
X9479676Y-3545042D01*
X9479676Y-3545042D01*
X9464604Y-3531302D01*
X9464604Y-3531302D01*
X9447264Y-3520565D01*
X9447264Y-3520565D01*
X9435616Y-3516053D01*
X9428246Y-3513198D01*
X9408198Y-3509450D01*
X9387802Y-3509450D01*
X9367754Y-3513198D01*
X9367754Y-3513198D01*
X9367754Y-3513198D01*
X9348736Y-3520565D01*
X9348736Y-3520565D01*
X9331396Y-3531302D01*
X9331396Y-3531302D01*
X9316324Y-3545042D01*
X9304033Y-3561318D01*
X9294942Y-3579574D01*
X9294942Y-3579575D01*
X9289360Y-3599192D01*
X9287479Y-3619500D01*
X9287479Y-3619500D01*
X9289360Y-3639808D01*
X9294942Y-3659425D01*
X9294942Y-3659426D01*
X9304033Y-3677682D01*
X9316324Y-3693958D01*
X9331396Y-3707698D01*
X9331396Y-3707698D01*
X9341314Y-3713839D01*
X9348736Y-3718435D01*
X9356828Y-3721570D01*
X9362369Y-3725827D01*
X9364728Y-3732403D01*
X9363157Y-3739212D01*
X9358154Y-3744089D01*
X9355559Y-3745110D01*
X9351652Y-3746156D01*
X9351651Y-3746157D01*
X9330242Y-3756140D01*
X9330242Y-3756140D01*
X9310893Y-3769689D01*
X9310892Y-3769689D01*
X9294189Y-3786392D01*
X9294189Y-3786393D01*
X9280640Y-3805742D01*
X9280640Y-3805742D01*
X9270657Y-3827151D01*
X9270657Y-3827151D01*
X9264936Y-3848500D01*
X9264936Y-3848500D01*
X9354631Y-3848500D01*
X9352051Y-3852516D01*
X9348000Y-3866311D01*
X9348000Y-3880689D01*
X9352051Y-3894484D01*
X9354631Y-3898500D01*
X9264936Y-3898500D01*
X8688852Y-3898500D01*
X9163171Y-3424182D01*
X9169303Y-3420833D01*
X9171939Y-3420550D01*
X11402061Y-3420550D01*
X11408765Y-3422518D01*
X11410829Y-3424182D01*
X11824318Y-3837671D01*
X11827667Y-3843803D01*
X11827950Y-3846439D01*
X11827950Y-3938287D01*
X11827950Y-3938288D01*
X11828591Y-3944248D01*
X11833620Y-3957733D01*
X11833621Y-3957733D01*
X11842245Y-3969254D01*
X11842245Y-3969255D01*
X11853766Y-3977879D01*
X11853767Y-3977880D01*
X11867252Y-3982909D01*
X11871876Y-3983406D01*
X11878331Y-3986080D01*
X11882315Y-3991819D01*
X11882950Y-3995735D01*
X11882950Y-4025241D01*
X11880981Y-4031945D01*
X11877078Y-4035784D01*
X11871396Y-4039302D01*
X11856324Y-4053042D01*
X11844033Y-4069318D01*
X11834942Y-4087574D01*
X11834942Y-4087575D01*
X11829360Y-4107192D01*
X11827478Y-4127500D01*
X11827478Y-4127500D01*
X11829360Y-4147808D01*
X11834942Y-4167425D01*
X11834942Y-4167426D01*
X11844033Y-4185682D01*
X11856324Y-4201958D01*
X11871396Y-4215698D01*
X11871396Y-4215698D01*
X11875655Y-4218335D01*
X11888736Y-4226435D01*
X11907754Y-4233802D01*
X11927802Y-4237550D01*
X11927803Y-4237550D01*
X11948197Y-4237550D01*
X11948198Y-4237550D01*
X11968246Y-4233802D01*
X11987264Y-4226435D01*
X12004604Y-4215698D01*
X12019676Y-4201958D01*
X12031967Y-4185682D01*
X12041058Y-4167425D01*
X12046640Y-4147808D01*
X12048521Y-4127500D01*
X12046640Y-4107192D01*
X12041058Y-4087575D01*
X12039527Y-4084501D01*
X12036041Y-4077500D01*
X12031967Y-4069318D01*
X12024736Y-4059742D01*
X12019676Y-4053042D01*
X12004604Y-4039302D01*
X12004604Y-4039302D01*
X11998922Y-4035784D01*
X11994259Y-4030581D01*
X11993050Y-4025241D01*
X11993050Y-3995735D01*
X11995018Y-3989031D01*
X12000299Y-3984456D01*
X12004125Y-3983406D01*
X12008748Y-3982909D01*
X12022233Y-3977880D01*
X12033755Y-3969255D01*
X12042380Y-3957733D01*
X12047409Y-3944248D01*
X12048050Y-3938287D01*
X12048050Y-3873500D01*
X12081478Y-3873500D01*
X12083360Y-3893808D01*
X12088942Y-3913425D01*
X12088942Y-3913426D01*
X12098033Y-3931682D01*
X12110324Y-3947958D01*
X12125396Y-3961698D01*
X12125396Y-3961698D01*
X12131394Y-3965412D01*
X12142736Y-3972435D01*
X12161754Y-3979802D01*
X12181802Y-3983550D01*
X12181803Y-3983550D01*
X12202197Y-3983550D01*
X12202198Y-3983550D01*
X12222246Y-3979802D01*
X12241264Y-3972435D01*
X12258604Y-3961698D01*
X12273676Y-3947958D01*
X12285967Y-3931682D01*
X12295058Y-3913425D01*
X12300640Y-3893808D01*
X12302521Y-3873500D01*
X12300640Y-3853192D01*
X12295058Y-3833575D01*
X12285967Y-3815318D01*
X12278444Y-3805356D01*
X12273676Y-3799042D01*
X12258604Y-3785302D01*
X12258604Y-3785302D01*
X12241264Y-3774565D01*
X12241263Y-3774565D01*
X12228677Y-3769689D01*
X12222246Y-3767198D01*
X12202198Y-3763450D01*
X12181802Y-3763450D01*
X12161754Y-3767198D01*
X12161754Y-3767198D01*
X12161754Y-3767198D01*
X12142736Y-3774565D01*
X12142736Y-3774565D01*
X12125396Y-3785302D01*
X12125396Y-3785302D01*
X12110324Y-3799042D01*
X12098033Y-3815318D01*
X12088942Y-3833574D01*
X12088942Y-3833575D01*
X12083360Y-3853192D01*
X12081478Y-3873500D01*
X12081478Y-3873500D01*
X12048050Y-3873500D01*
X12048050Y-3808713D01*
X12047516Y-3803747D01*
X12047409Y-3802752D01*
X12042380Y-3789267D01*
X12042379Y-3789266D01*
X12033755Y-3777745D01*
X12033754Y-3777745D01*
X12022233Y-3769121D01*
X12022233Y-3769120D01*
X12008748Y-3764091D01*
X12008748Y-3764091D01*
X12002788Y-3763450D01*
X12002788Y-3763450D01*
X12002787Y-3763450D01*
X12002786Y-3763450D01*
X11910939Y-3763450D01*
X11904235Y-3761481D01*
X11902171Y-3759818D01*
X11483071Y-3340718D01*
X11479722Y-3334586D01*
X11480220Y-3327617D01*
X11484408Y-3322023D01*
X11490954Y-3319582D01*
X11491839Y-3319550D01*
X12855550Y-3319550D01*
X12862254Y-3321518D01*
X12866829Y-3326799D01*
X12867950Y-3331950D01*
X12867950Y-7363050D01*
X12865981Y-7369754D01*
X12860701Y-7374329D01*
X12855550Y-7375450D01*
X4924450Y-7375450D01*
X4917746Y-7373481D01*
X4913171Y-7368201D01*
X4912050Y-7363050D01*
X4912050Y-7197500D01*
X5154434Y-7197500D01*
X5156494Y-7221040D01*
X5156494Y-7221041D01*
X5162609Y-7243865D01*
X5162610Y-7243866D01*
X5162610Y-7243866D01*
X5170748Y-7261318D01*
X5172597Y-7265283D01*
X5172597Y-7265283D01*
X5183428Y-7280752D01*
X5186151Y-7284640D01*
X5202860Y-7301349D01*
X5212538Y-7308126D01*
X5222217Y-7314903D01*
X5222217Y-7314903D01*
X5222217Y-7314903D01*
X5243634Y-7324890D01*
X5266459Y-7331006D01*
X5285292Y-7332654D01*
X5290000Y-7333066D01*
X5290000Y-7333066D01*
X5290000Y-7333066D01*
X5294327Y-7332687D01*
X5313541Y-7331006D01*
X5336366Y-7324890D01*
X5357783Y-7314903D01*
X5377140Y-7301349D01*
X5393850Y-7284640D01*
X5407404Y-7265283D01*
X5417390Y-7243866D01*
X5423506Y-7221041D01*
X5425566Y-7197500D01*
X5423506Y-7173959D01*
X5418863Y-7156628D01*
X5417391Y-7151134D01*
X5417390Y-7151134D01*
X5417390Y-7151134D01*
X5407404Y-7129717D01*
X5405442Y-7126915D01*
X5393849Y-7110360D01*
X5377140Y-7093651D01*
X5377140Y-7093650D01*
X5357783Y-7080097D01*
X5357783Y-7080096D01*
X5357783Y-7080096D01*
X5336366Y-7070110D01*
X5336366Y-7070110D01*
X5336366Y-7070109D01*
X5313541Y-7063994D01*
X5313540Y-7063994D01*
X5290000Y-7061934D01*
X5290000Y-7061934D01*
X5266460Y-7063994D01*
X5266459Y-7063994D01*
X5243634Y-7070109D01*
X5243634Y-7070110D01*
X5222217Y-7080096D01*
X5222217Y-7080096D01*
X5202860Y-7093650D01*
X5186151Y-7110360D01*
X5172597Y-7129717D01*
X5172596Y-7129717D01*
X5162610Y-7151133D01*
X5162609Y-7151134D01*
X5156494Y-7173959D01*
X5156494Y-7173960D01*
X5154434Y-7197500D01*
X5154434Y-7197500D01*
X4912050Y-7197500D01*
X4912050Y-6794501D01*
X5235467Y-6794501D01*
X5237396Y-6823936D01*
X5237397Y-6823937D01*
X5237397Y-6823938D01*
X5242983Y-6852025D01*
X5243152Y-6852872D01*
X5243152Y-6852873D01*
X5252635Y-6880808D01*
X5265683Y-6907266D01*
X5265683Y-6907267D01*
X5282073Y-6931795D01*
X5301524Y-6953976D01*
X5323704Y-6973427D01*
X5348233Y-6989817D01*
X5348234Y-6989817D01*
X5350582Y-6990975D01*
X5374692Y-7002865D01*
X5402628Y-7012348D01*
X5431562Y-7018103D01*
X5434389Y-7018289D01*
X5460999Y-7020033D01*
X5461000Y-7020033D01*
X5461001Y-7020033D01*
X5484568Y-7018488D01*
X5490438Y-7018103D01*
X5519372Y-7012348D01*
X5547308Y-7002865D01*
X5573767Y-6989817D01*
X5598296Y-6973427D01*
X5620476Y-6953976D01*
X5639927Y-6931796D01*
X5646807Y-6921500D01*
X6490968Y-6921500D01*
X6492892Y-6942269D01*
X6492892Y-6942269D01*
X6492892Y-6942270D01*
X6498601Y-6962332D01*
X6498601Y-6962332D01*
X6504125Y-6973427D01*
X6507898Y-6981004D01*
X6520468Y-6997649D01*
X6535883Y-7011702D01*
X6553617Y-7022682D01*
X6573067Y-7030217D01*
X6593571Y-7034050D01*
X6593571Y-7034050D01*
X6614429Y-7034050D01*
X6614429Y-7034050D01*
X6634933Y-7030217D01*
X6654383Y-7022682D01*
X6672117Y-7011702D01*
X6687532Y-6997649D01*
X6700102Y-6981004D01*
X6705539Y-6970085D01*
X6707611Y-6965923D01*
X6712362Y-6960799D01*
X6718711Y-6959050D01*
X6852820Y-6959050D01*
X6855364Y-6959314D01*
X6855744Y-6959393D01*
X6856427Y-6959537D01*
X6858522Y-6959275D01*
X6859949Y-6959098D01*
X6860717Y-6959050D01*
X6861111Y-6959050D01*
X6861111Y-6959050D01*
X6863289Y-6958686D01*
X6863540Y-6958650D01*
X6868863Y-6957987D01*
X6868863Y-6957986D01*
X6869614Y-6957763D01*
X6870361Y-6957507D01*
X6870361Y-6957506D01*
X6870361Y-6957506D01*
X6875076Y-6954955D01*
X6875300Y-6954839D01*
X6880121Y-6952483D01*
X6880121Y-6952482D01*
X6880759Y-6952027D01*
X6881382Y-6951542D01*
X6881383Y-6951542D01*
X6885016Y-6947594D01*
X6885186Y-6947417D01*
X6911103Y-6921500D01*
X7763478Y-6921500D01*
X7765360Y-6941808D01*
X7770942Y-6961425D01*
X7770942Y-6961426D01*
X7780033Y-6979682D01*
X7792324Y-6995958D01*
X7807396Y-7009698D01*
X7807396Y-7009698D01*
X7811675Y-7012348D01*
X7824736Y-7020435D01*
X7843754Y-7027802D01*
X7863802Y-7031550D01*
X7863803Y-7031550D01*
X7884197Y-7031550D01*
X7884198Y-7031550D01*
X7904246Y-7027802D01*
X7923264Y-7020435D01*
X7940604Y-7009698D01*
X7953821Y-6997649D01*
X7955676Y-6995958D01*
X7955748Y-6995863D01*
X7967967Y-6979682D01*
X7977058Y-6961425D01*
X7982640Y-6941808D01*
X7984521Y-6921500D01*
X7984376Y-6919927D01*
X8851963Y-6919927D01*
X8852402Y-6923449D01*
X8852450Y-6924217D01*
X8852450Y-6924612D01*
X8852813Y-6926786D01*
X8852850Y-6927040D01*
X8853513Y-6932363D01*
X8853737Y-6933115D01*
X8853994Y-6933861D01*
X8855268Y-6936216D01*
X8856545Y-6938575D01*
X8856661Y-6938801D01*
X8859017Y-6943621D01*
X8859474Y-6944261D01*
X8859958Y-6944883D01*
X8863905Y-6948516D01*
X8864087Y-6948691D01*
X9240785Y-7325389D01*
X9242398Y-7327375D01*
X9242992Y-7328284D01*
X9245793Y-7330464D01*
X9246369Y-7330973D01*
X9246648Y-7331252D01*
X9246649Y-7331252D01*
X9248444Y-7332534D01*
X9248649Y-7332687D01*
X9252847Y-7335955D01*
X9252881Y-7335981D01*
X9252882Y-7335981D01*
X9253572Y-7336355D01*
X9254280Y-7336701D01*
X9254280Y-7336701D01*
X9259422Y-7338232D01*
X9259658Y-7338307D01*
X9264734Y-7340050D01*
X9264734Y-7340050D01*
X9265507Y-7340179D01*
X9266291Y-7340277D01*
X9266291Y-7340277D01*
X9266291Y-7340277D01*
X9266291Y-7340277D01*
X9268741Y-7340175D01*
X9271648Y-7340055D01*
X9271903Y-7340050D01*
X10027820Y-7340050D01*
X10030364Y-7340314D01*
X10030744Y-7340393D01*
X10031427Y-7340537D01*
X10033523Y-7340275D01*
X10034949Y-7340098D01*
X10035717Y-7340050D01*
X10036111Y-7340050D01*
X10036111Y-7340050D01*
X10038290Y-7339686D01*
X10038540Y-7339650D01*
X10043863Y-7338987D01*
X10043863Y-7338986D01*
X10044614Y-7338763D01*
X10045361Y-7338507D01*
X10045361Y-7338506D01*
X10045361Y-7338506D01*
X10050076Y-7335955D01*
X10050300Y-7335839D01*
X10055121Y-7333483D01*
X10055121Y-7333482D01*
X10055759Y-7333027D01*
X10056382Y-7332542D01*
X10056383Y-7332542D01*
X10060016Y-7328594D01*
X10060187Y-7328417D01*
X10182889Y-7205715D01*
X10184875Y-7204102D01*
X10185784Y-7203508D01*
X10187964Y-7200707D01*
X10188473Y-7200130D01*
X10188752Y-7199852D01*
X10190037Y-7198051D01*
X10190184Y-7197854D01*
X10190460Y-7197500D01*
X12254434Y-7197500D01*
X12256494Y-7221040D01*
X12256494Y-7221041D01*
X12262609Y-7243865D01*
X12262610Y-7243866D01*
X12262610Y-7243866D01*
X12270748Y-7261318D01*
X12272596Y-7265283D01*
X12272597Y-7265283D01*
X12283428Y-7280752D01*
X12286150Y-7284640D01*
X12302860Y-7301349D01*
X12312538Y-7308126D01*
X12322216Y-7314903D01*
X12322217Y-7314903D01*
X12322217Y-7314903D01*
X12343634Y-7324890D01*
X12366459Y-7331006D01*
X12385292Y-7332654D01*
X12390000Y-7333066D01*
X12390000Y-7333066D01*
X12390000Y-7333066D01*
X12394327Y-7332687D01*
X12413541Y-7331006D01*
X12436366Y-7324890D01*
X12457783Y-7314903D01*
X12477140Y-7301349D01*
X12493849Y-7284640D01*
X12507403Y-7265283D01*
X12517390Y-7243866D01*
X12523506Y-7221041D01*
X12525566Y-7197500D01*
X12523506Y-7173959D01*
X12518863Y-7156628D01*
X12517390Y-7151134D01*
X12517390Y-7151134D01*
X12517390Y-7151134D01*
X12507403Y-7129717D01*
X12505442Y-7126915D01*
X12493849Y-7110360D01*
X12477140Y-7093651D01*
X12477139Y-7093650D01*
X12457783Y-7080097D01*
X12457783Y-7080096D01*
X12457783Y-7080096D01*
X12436366Y-7070110D01*
X12436366Y-7070110D01*
X12436365Y-7070109D01*
X12413541Y-7063994D01*
X12413540Y-7063994D01*
X12390000Y-7061934D01*
X12390000Y-7061934D01*
X12366460Y-7063994D01*
X12366459Y-7063994D01*
X12343634Y-7070109D01*
X12343633Y-7070110D01*
X12322217Y-7080096D01*
X12322217Y-7080096D01*
X12302860Y-7093650D01*
X12286150Y-7110360D01*
X12272596Y-7129717D01*
X12272596Y-7129717D01*
X12262610Y-7151133D01*
X12262609Y-7151134D01*
X12256494Y-7173959D01*
X12256494Y-7173960D01*
X12254434Y-7197500D01*
X12254434Y-7197500D01*
X10190460Y-7197500D01*
X10193481Y-7193619D01*
X10193481Y-7193618D01*
X10193855Y-7192928D01*
X10194201Y-7192220D01*
X10194201Y-7192220D01*
X10195732Y-7187077D01*
X10195808Y-7186841D01*
X10197550Y-7181766D01*
X10197550Y-7181766D01*
X10197550Y-7181766D01*
X10197679Y-7180992D01*
X10197777Y-7180209D01*
X10197555Y-7174853D01*
X10197550Y-7174596D01*
X10197550Y-6921500D01*
X10308442Y-6921500D01*
X10310470Y-6942093D01*
X10310470Y-6942093D01*
X10316477Y-6961895D01*
X10326232Y-6980145D01*
X10326936Y-6981004D01*
X10339359Y-6996141D01*
X10347552Y-7002865D01*
X10355355Y-7009268D01*
X10373605Y-7019023D01*
X10393407Y-7025030D01*
X10393407Y-7025030D01*
X10395253Y-7025212D01*
X10414000Y-7027058D01*
X10434593Y-7025030D01*
X10454395Y-7019023D01*
X10472645Y-7009268D01*
X10488641Y-6996141D01*
X10501769Y-6980145D01*
X10511523Y-6961895D01*
X10517530Y-6942093D01*
X10519558Y-6921500D01*
X11324442Y-6921500D01*
X11326470Y-6942093D01*
X11326470Y-6942093D01*
X11332477Y-6961895D01*
X11342231Y-6980145D01*
X11342936Y-6981004D01*
X11355359Y-6996141D01*
X11363552Y-7002865D01*
X11371355Y-7009268D01*
X11389605Y-7019023D01*
X11409407Y-7025030D01*
X11409406Y-7025030D01*
X11411253Y-7025212D01*
X11430000Y-7027058D01*
X11450593Y-7025030D01*
X11470395Y-7019023D01*
X11488645Y-7009268D01*
X11504641Y-6996141D01*
X11517768Y-6980145D01*
X11527523Y-6961895D01*
X11533530Y-6942093D01*
X11535558Y-6921500D01*
X11568457Y-6921500D01*
X11569602Y-6933861D01*
X11570424Y-6942731D01*
X11576017Y-6962386D01*
X11576260Y-6963239D01*
X11576260Y-6963239D01*
X11585763Y-6982325D01*
X11597335Y-6997649D01*
X11598613Y-6999341D01*
X11614370Y-7013705D01*
X11632498Y-7024930D01*
X11652380Y-7032632D01*
X11673339Y-7036550D01*
X11673339Y-7036550D01*
X11694661Y-7036550D01*
X11694661Y-7036550D01*
X11715620Y-7032632D01*
X11735502Y-7024930D01*
X11753630Y-7013705D01*
X11769387Y-6999341D01*
X11775705Y-6990975D01*
X11781315Y-6986811D01*
X11788287Y-6986342D01*
X11794405Y-6989717D01*
X11797728Y-6995863D01*
X11798000Y-6998448D01*
X11798000Y-7016284D01*
X11798640Y-7022237D01*
X11798640Y-7022238D01*
X11803664Y-7035709D01*
X11803665Y-7035709D01*
X11812281Y-7047219D01*
X11812281Y-7047219D01*
X11823791Y-7055835D01*
X11823791Y-7055835D01*
X11837262Y-7060860D01*
X11837263Y-7060860D01*
X11843215Y-7061500D01*
X11843217Y-7061500D01*
X11913000Y-7061500D01*
X11913000Y-6958919D01*
X11918255Y-6962502D01*
X11931217Y-6966500D01*
X11941372Y-6966500D01*
X11951414Y-6964986D01*
X11963000Y-6959407D01*
X11963000Y-7061500D01*
X12032783Y-7061500D01*
X12032784Y-7061500D01*
X12038737Y-7060860D01*
X12038738Y-7060860D01*
X12052209Y-7055835D01*
X12052209Y-7055835D01*
X12063719Y-7047219D01*
X12063719Y-7047219D01*
X12072335Y-7035709D01*
X12072335Y-7035709D01*
X12077360Y-7022238D01*
X12077360Y-7022237D01*
X12078000Y-7016284D01*
X12078000Y-7016283D01*
X12078000Y-6946500D01*
X11975528Y-6946500D01*
X11980362Y-6938126D01*
X11983381Y-6924901D01*
X11982367Y-6911373D01*
X11977411Y-6898746D01*
X11975620Y-6896500D01*
X12078000Y-6896500D01*
X12078000Y-6826717D01*
X12078000Y-6826715D01*
X12077360Y-6820763D01*
X12077360Y-6820762D01*
X12072335Y-6807291D01*
X12072335Y-6807291D01*
X12063719Y-6795781D01*
X12063719Y-6795781D01*
X12052209Y-6787165D01*
X12052209Y-6787164D01*
X12038738Y-6782140D01*
X12038737Y-6782140D01*
X12032784Y-6781500D01*
X11963000Y-6781500D01*
X11963000Y-6884081D01*
X11957745Y-6880498D01*
X11944783Y-6876500D01*
X11934628Y-6876500D01*
X11924586Y-6878013D01*
X11913000Y-6883593D01*
X11913000Y-6781500D01*
X11843215Y-6781500D01*
X11837263Y-6782140D01*
X11837262Y-6782140D01*
X11823791Y-6787164D01*
X11823791Y-6787165D01*
X11812281Y-6795781D01*
X11812281Y-6795781D01*
X11803665Y-6807291D01*
X11803664Y-6807291D01*
X11798640Y-6820762D01*
X11798640Y-6820763D01*
X11798000Y-6826715D01*
X11798000Y-6826717D01*
X11798000Y-6844552D01*
X11796031Y-6851256D01*
X11790751Y-6855832D01*
X11783835Y-6856826D01*
X11777480Y-6853923D01*
X11775705Y-6852025D01*
X11769387Y-6843659D01*
X11753630Y-6829295D01*
X11735502Y-6818070D01*
X11735502Y-6818070D01*
X11721853Y-6812783D01*
X11715620Y-6810368D01*
X11694661Y-6806450D01*
X11673339Y-6806450D01*
X11652380Y-6810368D01*
X11652380Y-6810368D01*
X11652380Y-6810368D01*
X11632498Y-6818070D01*
X11632498Y-6818070D01*
X11614370Y-6829295D01*
X11598613Y-6843659D01*
X11585763Y-6860675D01*
X11576260Y-6879760D01*
X11576260Y-6879761D01*
X11570424Y-6900269D01*
X11568457Y-6921500D01*
X11568457Y-6921500D01*
X11535558Y-6921500D01*
X11533530Y-6900907D01*
X11527523Y-6881105D01*
X11517768Y-6862855D01*
X11510439Y-6853923D01*
X11504641Y-6846859D01*
X11492868Y-6837197D01*
X11488645Y-6833731D01*
X11470395Y-6823977D01*
X11450593Y-6817970D01*
X11450593Y-6817970D01*
X11450593Y-6817970D01*
X11431846Y-6816123D01*
X11430000Y-6815942D01*
X11430000Y-6815942D01*
X11409407Y-6817970D01*
X11389604Y-6823977D01*
X11379656Y-6829295D01*
X11371355Y-6833731D01*
X11371355Y-6833732D01*
X11371355Y-6833732D01*
X11355359Y-6846859D01*
X11342719Y-6862261D01*
X11342231Y-6862855D01*
X11340424Y-6866237D01*
X11332477Y-6881104D01*
X11332477Y-6881104D01*
X11332477Y-6881105D01*
X11332211Y-6881981D01*
X11326470Y-6900907D01*
X11324442Y-6921500D01*
X10519558Y-6921500D01*
X10517530Y-6900907D01*
X10511523Y-6881105D01*
X10501769Y-6862855D01*
X10494439Y-6853923D01*
X10488641Y-6846859D01*
X10476868Y-6837197D01*
X10472645Y-6833731D01*
X10454395Y-6823977D01*
X10434593Y-6817970D01*
X10434593Y-6817970D01*
X10434593Y-6817970D01*
X10414000Y-6815942D01*
X10393407Y-6817970D01*
X10373604Y-6823977D01*
X10363656Y-6829295D01*
X10355355Y-6833731D01*
X10355355Y-6833732D01*
X10355355Y-6833732D01*
X10339359Y-6846859D01*
X10326719Y-6862261D01*
X10326232Y-6862855D01*
X10324424Y-6866237D01*
X10316477Y-6881104D01*
X10316477Y-6881104D01*
X10316477Y-6881105D01*
X10316211Y-6881981D01*
X10310470Y-6900907D01*
X10308442Y-6921500D01*
X10197550Y-6921500D01*
X10197550Y-6291680D01*
X10197814Y-6289136D01*
X10197879Y-6288827D01*
X10198037Y-6288073D01*
X10197841Y-6286500D01*
X10197598Y-6284551D01*
X10197550Y-6283783D01*
X10197550Y-6283389D01*
X10197550Y-6283388D01*
X10197187Y-6281214D01*
X10197150Y-6280960D01*
X10196487Y-6275638D01*
X10196487Y-6275637D01*
X10196486Y-6275637D01*
X10196262Y-6274884D01*
X10196007Y-6274139D01*
X10196007Y-6274139D01*
X10193454Y-6269422D01*
X10193340Y-6269202D01*
X10190983Y-6264379D01*
X10190982Y-6264379D01*
X10190982Y-6264379D01*
X10190528Y-6263742D01*
X10190042Y-6263118D01*
X10190042Y-6263117D01*
X10187434Y-6260716D01*
X10186097Y-6259486D01*
X10185915Y-6259311D01*
X10122860Y-6196256D01*
X10119512Y-6190124D01*
X10119835Y-6183657D01*
X10121567Y-6178326D01*
X10123546Y-6159500D01*
X10308442Y-6159500D01*
X10310470Y-6180093D01*
X10310523Y-6180269D01*
X10316477Y-6199895D01*
X10326232Y-6218145D01*
X10326232Y-6218145D01*
X10339359Y-6234141D01*
X10346015Y-6239603D01*
X10355355Y-6247268D01*
X10373605Y-6257023D01*
X10393407Y-6263030D01*
X10393407Y-6263030D01*
X10395253Y-6263212D01*
X10414000Y-6265058D01*
X10434593Y-6263030D01*
X10454395Y-6257023D01*
X10472645Y-6247268D01*
X10488641Y-6234141D01*
X10501769Y-6218145D01*
X10511523Y-6199895D01*
X10517530Y-6180093D01*
X10519558Y-6159500D01*
X11324442Y-6159500D01*
X11326470Y-6180093D01*
X11326523Y-6180269D01*
X11332477Y-6199895D01*
X11342231Y-6218145D01*
X11342232Y-6218145D01*
X11355359Y-6234141D01*
X11362015Y-6239603D01*
X11371355Y-6247268D01*
X11389605Y-6257023D01*
X11409407Y-6263030D01*
X11409406Y-6263030D01*
X11411435Y-6263230D01*
X11430000Y-6265058D01*
X11450593Y-6263030D01*
X11470395Y-6257023D01*
X11488645Y-6247268D01*
X11504641Y-6234141D01*
X11517768Y-6218145D01*
X11527523Y-6199895D01*
X11533530Y-6180093D01*
X11535558Y-6159500D01*
X11568457Y-6159500D01*
X11569898Y-6175054D01*
X11570424Y-6180731D01*
X11576017Y-6200386D01*
X11576260Y-6201239D01*
X11576260Y-6201239D01*
X11585763Y-6220325D01*
X11596683Y-6234785D01*
X11598613Y-6237341D01*
X11614370Y-6251705D01*
X11632498Y-6262930D01*
X11652380Y-6270632D01*
X11673339Y-6274550D01*
X11673339Y-6274550D01*
X11694661Y-6274550D01*
X11694661Y-6274550D01*
X11715620Y-6270632D01*
X11735502Y-6262930D01*
X11753630Y-6251705D01*
X11769387Y-6237341D01*
X11775705Y-6228975D01*
X11781315Y-6224811D01*
X11788287Y-6224342D01*
X11794405Y-6227717D01*
X11797728Y-6233863D01*
X11798000Y-6236448D01*
X11798000Y-6254284D01*
X11798640Y-6260237D01*
X11798640Y-6260238D01*
X11803664Y-6273709D01*
X11803665Y-6273709D01*
X11812281Y-6285219D01*
X11812281Y-6285219D01*
X11823791Y-6293835D01*
X11823791Y-6293835D01*
X11837262Y-6298860D01*
X11837263Y-6298860D01*
X11843215Y-6299500D01*
X11843217Y-6299500D01*
X11913000Y-6299500D01*
X11913000Y-6196919D01*
X11918255Y-6200502D01*
X11931217Y-6204500D01*
X11941372Y-6204500D01*
X11951414Y-6202986D01*
X11963000Y-6197407D01*
X11963000Y-6299500D01*
X12032783Y-6299500D01*
X12032784Y-6299500D01*
X12038737Y-6298860D01*
X12038738Y-6298860D01*
X12052209Y-6293835D01*
X12052209Y-6293835D01*
X12063719Y-6285219D01*
X12063719Y-6285219D01*
X12072335Y-6273709D01*
X12072335Y-6273709D01*
X12077360Y-6260238D01*
X12077360Y-6260237D01*
X12078000Y-6254284D01*
X12078000Y-6254283D01*
X12078000Y-6184500D01*
X11975528Y-6184500D01*
X11980362Y-6176126D01*
X11983381Y-6162901D01*
X11982367Y-6149373D01*
X11977411Y-6136746D01*
X11975620Y-6134500D01*
X12078000Y-6134500D01*
X12078000Y-6064717D01*
X12078000Y-6064715D01*
X12077360Y-6058763D01*
X12077360Y-6058762D01*
X12072335Y-6045291D01*
X12072335Y-6045291D01*
X12063719Y-6033781D01*
X12063719Y-6033781D01*
X12052209Y-6025165D01*
X12052209Y-6025164D01*
X12038738Y-6020140D01*
X12038737Y-6020140D01*
X12032784Y-6019500D01*
X11963000Y-6019500D01*
X11963000Y-6122081D01*
X11957745Y-6118498D01*
X11944783Y-6114500D01*
X11934628Y-6114500D01*
X11924586Y-6116013D01*
X11913000Y-6121593D01*
X11913000Y-6019500D01*
X11843215Y-6019500D01*
X11837263Y-6020140D01*
X11837262Y-6020140D01*
X11823791Y-6025164D01*
X11823791Y-6025165D01*
X11812281Y-6033781D01*
X11812281Y-6033781D01*
X11803665Y-6045291D01*
X11803664Y-6045291D01*
X11798640Y-6058762D01*
X11798640Y-6058763D01*
X11798000Y-6064715D01*
X11798000Y-6064717D01*
X11798000Y-6082552D01*
X11796031Y-6089256D01*
X11790751Y-6093832D01*
X11783835Y-6094826D01*
X11777480Y-6091923D01*
X11775705Y-6090025D01*
X11769387Y-6081659D01*
X11753630Y-6067295D01*
X11735502Y-6056070D01*
X11735502Y-6056070D01*
X11723860Y-6051560D01*
X11715620Y-6048368D01*
X11694661Y-6044450D01*
X11673339Y-6044450D01*
X11652380Y-6048368D01*
X11652380Y-6048368D01*
X11652380Y-6048368D01*
X11632498Y-6056070D01*
X11632498Y-6056070D01*
X11614370Y-6067295D01*
X11598613Y-6081659D01*
X11585763Y-6098675D01*
X11576260Y-6117760D01*
X11576260Y-6117761D01*
X11570424Y-6138269D01*
X11568457Y-6159500D01*
X11568457Y-6159500D01*
X11535558Y-6159500D01*
X11533530Y-6138907D01*
X11527523Y-6119105D01*
X11517768Y-6100855D01*
X11510150Y-6091572D01*
X11504641Y-6084859D01*
X11492868Y-6075197D01*
X11488645Y-6071731D01*
X11470395Y-6061977D01*
X11450593Y-6055970D01*
X11450593Y-6055970D01*
X11450593Y-6055970D01*
X11430000Y-6053942D01*
X11409407Y-6055970D01*
X11389604Y-6061977D01*
X11379656Y-6067295D01*
X11371355Y-6071731D01*
X11371355Y-6071732D01*
X11371355Y-6071732D01*
X11355359Y-6084859D01*
X11342232Y-6100855D01*
X11342231Y-6100855D01*
X11341467Y-6102284D01*
X11332477Y-6119104D01*
X11332477Y-6119104D01*
X11332477Y-6119105D01*
X11331790Y-6121369D01*
X11326470Y-6138907D01*
X11324442Y-6159500D01*
X10519558Y-6159500D01*
X10517530Y-6138907D01*
X10511523Y-6119105D01*
X10501769Y-6100855D01*
X10494150Y-6091572D01*
X10488641Y-6084859D01*
X10476868Y-6075197D01*
X10472645Y-6071731D01*
X10454395Y-6061977D01*
X10434593Y-6055970D01*
X10434593Y-6055970D01*
X10434593Y-6055970D01*
X10414000Y-6053942D01*
X10393407Y-6055970D01*
X10373604Y-6061977D01*
X10363656Y-6067295D01*
X10355355Y-6071731D01*
X10355355Y-6071732D01*
X10355355Y-6071732D01*
X10339359Y-6084859D01*
X10326232Y-6100855D01*
X10326232Y-6100855D01*
X10325468Y-6102284D01*
X10316477Y-6119104D01*
X10316477Y-6119104D01*
X10316477Y-6119105D01*
X10315790Y-6121369D01*
X10310470Y-6138907D01*
X10308442Y-6159500D01*
X10123546Y-6159500D01*
X10121567Y-6140674D01*
X10115718Y-6122672D01*
X10106253Y-6106278D01*
X10093587Y-6092211D01*
X10093191Y-6091923D01*
X10078273Y-6081085D01*
X10078273Y-6081085D01*
X10060981Y-6073386D01*
X10060980Y-6073385D01*
X10046400Y-6070286D01*
X10042465Y-6069450D01*
X10033400Y-6069450D01*
X10026696Y-6067481D01*
X10022121Y-6062201D01*
X10021125Y-6057625D01*
X10021000Y-6057500D01*
X9933956Y-6057500D01*
X9937828Y-6053294D01*
X9942855Y-6041833D01*
X9943889Y-6029360D01*
X9940816Y-6017228D01*
X9934461Y-6007500D01*
X10021000Y-6007500D01*
X10021000Y-5962717D01*
X10021000Y-5962715D01*
X10020360Y-5956763D01*
X10020360Y-5956762D01*
X10015335Y-5943291D01*
X10015335Y-5943291D01*
X10006719Y-5931781D01*
X10006719Y-5931781D01*
X9995209Y-5923165D01*
X9995209Y-5923164D01*
X9981738Y-5918140D01*
X9981737Y-5918140D01*
X9975784Y-5917500D01*
X9931000Y-5917500D01*
X9931000Y-6004438D01*
X9924095Y-5999064D01*
X9912258Y-5995000D01*
X9902893Y-5995000D01*
X9893655Y-5996541D01*
X9882649Y-6002498D01*
X9881000Y-6004289D01*
X9881000Y-5917500D01*
X9836216Y-5917500D01*
X9830263Y-5918140D01*
X9830262Y-5918140D01*
X9816791Y-5923164D01*
X9816791Y-5923165D01*
X9805281Y-5931781D01*
X9805281Y-5931781D01*
X9796665Y-5943291D01*
X9796665Y-5943291D01*
X9791640Y-5956762D01*
X9791640Y-5956763D01*
X9791000Y-5962715D01*
X9791000Y-6007500D01*
X9878044Y-6007500D01*
X9874172Y-6011706D01*
X9869145Y-6023167D01*
X9868111Y-6035639D01*
X9871184Y-6047772D01*
X9877539Y-6057500D01*
X9791000Y-6057500D01*
X9791000Y-6102284D01*
X9791640Y-6108237D01*
X9791640Y-6108238D01*
X9796665Y-6121709D01*
X9796665Y-6121709D01*
X9805281Y-6133219D01*
X9805281Y-6133219D01*
X9816791Y-6141835D01*
X9816791Y-6141835D01*
X9830262Y-6146860D01*
X9830263Y-6146860D01*
X9836216Y-6147500D01*
X9836217Y-6147500D01*
X9881000Y-6147500D01*
X9881000Y-6060562D01*
X9887905Y-6065936D01*
X9899742Y-6070000D01*
X9909107Y-6070000D01*
X9918345Y-6068459D01*
X9929351Y-6062502D01*
X9931000Y-6060711D01*
X9931000Y-6147500D01*
X9931393Y-6147893D01*
X9936758Y-6149468D01*
X9941333Y-6154749D01*
X9942230Y-6158870D01*
X9942386Y-6158854D01*
X9942454Y-6159500D01*
X9942454Y-6159500D01*
X9944433Y-6178326D01*
X9944433Y-6178326D01*
X9946271Y-6183982D01*
X9946470Y-6190966D01*
X9942862Y-6196950D01*
X9936592Y-6200033D01*
X9931900Y-6199943D01*
X9929286Y-6199388D01*
X9915465Y-6196450D01*
X9896535Y-6196450D01*
X9894184Y-6196950D01*
X9878020Y-6200385D01*
X9878019Y-6200386D01*
X9860727Y-6208085D01*
X9860727Y-6208085D01*
X9845413Y-6219211D01*
X9832747Y-6233278D01*
X9823282Y-6249671D01*
X9823282Y-6249672D01*
X9817433Y-6267674D01*
X9817433Y-6267674D01*
X9815454Y-6286500D01*
X9817433Y-6305326D01*
X9817433Y-6305326D01*
X9823282Y-6323328D01*
X9823282Y-6323328D01*
X9832747Y-6339722D01*
X9845413Y-6353789D01*
X9845413Y-6353789D01*
X9860727Y-6364915D01*
X9860727Y-6364915D01*
X9878019Y-6372614D01*
X9878020Y-6372614D01*
X9896535Y-6376550D01*
X9896536Y-6376550D01*
X9915464Y-6376550D01*
X9915465Y-6376550D01*
X9933980Y-6372614D01*
X9951273Y-6364915D01*
X9966587Y-6353789D01*
X9979253Y-6339722D01*
X9988718Y-6323328D01*
X9994567Y-6305326D01*
X9996546Y-6286500D01*
X9994567Y-6267674D01*
X9992729Y-6262017D01*
X9992530Y-6255033D01*
X9996138Y-6249050D01*
X10002408Y-6245967D01*
X10007101Y-6246057D01*
X10012800Y-6247268D01*
X10023535Y-6249550D01*
X10023536Y-6249550D01*
X10042464Y-6249550D01*
X10042465Y-6249550D01*
X10058544Y-6246132D01*
X10065510Y-6246664D01*
X10069890Y-6249493D01*
X10118818Y-6298422D01*
X10122167Y-6304554D01*
X10122450Y-6307190D01*
X10122450Y-6853963D01*
X10120482Y-6860667D01*
X10115201Y-6865243D01*
X10108285Y-6866237D01*
X10101930Y-6863335D01*
X10100835Y-6862261D01*
X10093587Y-6854211D01*
X10093587Y-6854211D01*
X10078273Y-6843085D01*
X10078273Y-6843085D01*
X10060981Y-6835386D01*
X10060980Y-6835385D01*
X10046400Y-6832286D01*
X10042465Y-6831450D01*
X10033400Y-6831450D01*
X10026696Y-6829481D01*
X10022121Y-6824201D01*
X10021125Y-6819625D01*
X10021000Y-6819500D01*
X9933956Y-6819500D01*
X9937828Y-6815294D01*
X9942855Y-6803833D01*
X9943889Y-6791360D01*
X9940816Y-6779228D01*
X9934461Y-6769500D01*
X10021000Y-6769500D01*
X10021000Y-6724717D01*
X10021000Y-6724715D01*
X10020360Y-6718763D01*
X10020360Y-6718762D01*
X10015335Y-6705291D01*
X10015335Y-6705291D01*
X10006719Y-6693781D01*
X10006719Y-6693781D01*
X9995209Y-6685165D01*
X9995209Y-6685164D01*
X9981738Y-6680140D01*
X9981737Y-6680140D01*
X9975784Y-6679500D01*
X9931000Y-6679500D01*
X9931000Y-6766438D01*
X9924095Y-6761064D01*
X9912258Y-6757000D01*
X9902893Y-6757000D01*
X9893655Y-6758541D01*
X9882649Y-6764498D01*
X9881000Y-6766289D01*
X9881000Y-6679500D01*
X9836216Y-6679500D01*
X9830263Y-6680140D01*
X9830262Y-6680140D01*
X9816791Y-6685164D01*
X9816791Y-6685165D01*
X9805281Y-6693781D01*
X9805281Y-6693781D01*
X9796665Y-6705291D01*
X9796665Y-6705291D01*
X9791640Y-6718762D01*
X9791640Y-6718763D01*
X9791000Y-6724715D01*
X9791000Y-6769500D01*
X9878044Y-6769500D01*
X9874172Y-6773706D01*
X9869145Y-6785167D01*
X9868111Y-6797639D01*
X9871184Y-6809772D01*
X9877539Y-6819500D01*
X9791000Y-6819500D01*
X9791000Y-6864284D01*
X9791640Y-6870237D01*
X9791640Y-6870238D01*
X9796665Y-6883709D01*
X9796665Y-6883709D01*
X9805281Y-6895219D01*
X9805281Y-6895219D01*
X9816791Y-6903835D01*
X9816791Y-6903835D01*
X9830262Y-6908860D01*
X9830263Y-6908860D01*
X9836216Y-6909500D01*
X9836217Y-6909500D01*
X9881000Y-6909500D01*
X9881000Y-6822562D01*
X9887905Y-6827936D01*
X9899742Y-6832000D01*
X9909107Y-6832000D01*
X9918345Y-6830459D01*
X9929351Y-6824502D01*
X9931000Y-6822711D01*
X9931000Y-6909500D01*
X9931393Y-6909893D01*
X9936758Y-6911468D01*
X9941333Y-6916749D01*
X9942230Y-6920870D01*
X9942386Y-6920854D01*
X9942454Y-6921500D01*
X9942454Y-6921500D01*
X9944433Y-6940326D01*
X9944433Y-6940326D01*
X9946271Y-6945982D01*
X9946470Y-6952966D01*
X9942862Y-6958950D01*
X9936592Y-6962033D01*
X9931900Y-6961943D01*
X9926516Y-6960799D01*
X9915465Y-6958450D01*
X9896535Y-6958450D01*
X9895421Y-6958687D01*
X9878020Y-6962385D01*
X9878019Y-6962386D01*
X9860727Y-6970085D01*
X9860727Y-6970085D01*
X9845413Y-6981211D01*
X9832747Y-6995278D01*
X9823282Y-7011671D01*
X9823282Y-7011672D01*
X9817433Y-7029674D01*
X9817433Y-7029674D01*
X9815454Y-7048500D01*
X9817433Y-7067326D01*
X9817433Y-7067326D01*
X9823282Y-7085328D01*
X9823282Y-7085328D01*
X9832747Y-7101722D01*
X9840525Y-7110360D01*
X9845413Y-7115789D01*
X9860727Y-7126915D01*
X9860727Y-7126915D01*
X9878019Y-7134614D01*
X9878020Y-7134614D01*
X9896535Y-7138550D01*
X9896536Y-7138550D01*
X9915464Y-7138550D01*
X9915465Y-7138550D01*
X9933980Y-7134614D01*
X9951273Y-7126915D01*
X9966587Y-7115789D01*
X9979253Y-7101722D01*
X9988718Y-7085328D01*
X9994567Y-7067326D01*
X9996546Y-7048500D01*
X9994567Y-7029674D01*
X9992729Y-7024017D01*
X9992530Y-7017033D01*
X9996138Y-7011050D01*
X10002408Y-7007967D01*
X10007101Y-7008057D01*
X10012800Y-7009268D01*
X10023535Y-7011550D01*
X10023536Y-7011550D01*
X10042464Y-7011550D01*
X10042465Y-7011550D01*
X10060980Y-7007614D01*
X10078273Y-6999915D01*
X10093587Y-6988789D01*
X10100835Y-6980739D01*
X10106784Y-6977074D01*
X10113769Y-6977207D01*
X10119574Y-6981096D01*
X10122355Y-6987506D01*
X10122450Y-6989036D01*
X10122450Y-7154810D01*
X10120482Y-7161514D01*
X10118818Y-7163578D01*
X10021078Y-7261318D01*
X10014946Y-7264667D01*
X10012310Y-7264950D01*
X9291690Y-7264950D01*
X9284986Y-7262981D01*
X9282922Y-7261318D01*
X8943104Y-6921500D01*
X9287479Y-6921500D01*
X9289360Y-6941808D01*
X9294942Y-6961425D01*
X9294942Y-6961426D01*
X9304033Y-6979682D01*
X9316324Y-6995958D01*
X9331396Y-7009698D01*
X9331396Y-7009698D01*
X9335675Y-7012348D01*
X9348736Y-7020435D01*
X9367754Y-7027802D01*
X9387802Y-7031550D01*
X9387803Y-7031550D01*
X9408197Y-7031550D01*
X9408198Y-7031550D01*
X9428246Y-7027802D01*
X9447264Y-7020435D01*
X9464604Y-7009698D01*
X9477821Y-6997649D01*
X9479676Y-6995958D01*
X9479748Y-6995863D01*
X9491967Y-6979682D01*
X9501058Y-6961425D01*
X9506640Y-6941808D01*
X9508522Y-6921500D01*
X9508277Y-6918864D01*
X9506640Y-6901192D01*
X9504345Y-6893126D01*
X9501058Y-6881575D01*
X9500824Y-6881104D01*
X9494437Y-6868278D01*
X9491967Y-6863318D01*
X9486070Y-6855509D01*
X9479676Y-6847042D01*
X9464604Y-6833302D01*
X9464604Y-6833302D01*
X9447264Y-6822565D01*
X9447264Y-6822565D01*
X9435402Y-6817970D01*
X9428246Y-6815198D01*
X9408198Y-6811450D01*
X9387802Y-6811450D01*
X9367754Y-6815198D01*
X9367754Y-6815198D01*
X9367754Y-6815198D01*
X9348736Y-6822565D01*
X9348736Y-6822565D01*
X9331396Y-6833302D01*
X9331396Y-6833302D01*
X9316324Y-6847042D01*
X9304033Y-6863318D01*
X9294942Y-6881574D01*
X9294942Y-6881575D01*
X9289360Y-6901192D01*
X9287479Y-6921500D01*
X9287479Y-6921500D01*
X8943104Y-6921500D01*
X8931182Y-6909578D01*
X8927833Y-6903446D01*
X8927550Y-6900810D01*
X8927550Y-6667500D01*
X9287479Y-6667500D01*
X9289360Y-6687808D01*
X9294942Y-6707425D01*
X9294942Y-6707426D01*
X9304033Y-6725682D01*
X9316324Y-6741958D01*
X9331396Y-6755698D01*
X9331396Y-6755698D01*
X9335988Y-6758541D01*
X9348736Y-6766435D01*
X9367754Y-6773802D01*
X9387802Y-6777550D01*
X9387803Y-6777550D01*
X9408197Y-6777550D01*
X9408198Y-6777550D01*
X9428246Y-6773802D01*
X9447264Y-6766435D01*
X9464604Y-6755698D01*
X9479676Y-6741958D01*
X9491967Y-6725682D01*
X9501058Y-6707425D01*
X9506640Y-6687808D01*
X9508522Y-6667500D01*
X9506640Y-6647192D01*
X9501058Y-6627575D01*
X9500607Y-6626668D01*
X9496627Y-6618676D01*
X9491967Y-6609318D01*
X9483345Y-6597900D01*
X9479676Y-6593042D01*
X9464604Y-6579302D01*
X9464604Y-6579302D01*
X9447264Y-6568565D01*
X9447264Y-6568565D01*
X9437755Y-6564881D01*
X9428246Y-6561198D01*
X9408198Y-6557450D01*
X9387802Y-6557450D01*
X9367754Y-6561198D01*
X9367754Y-6561198D01*
X9367754Y-6561198D01*
X9348736Y-6568565D01*
X9348736Y-6568565D01*
X9331396Y-6579302D01*
X9331396Y-6579302D01*
X9316324Y-6593042D01*
X9304033Y-6609318D01*
X9294942Y-6627574D01*
X9294942Y-6627575D01*
X9289360Y-6647192D01*
X9287479Y-6667500D01*
X9287479Y-6667500D01*
X8927550Y-6667500D01*
X8927550Y-6072926D01*
X9105963Y-6072926D01*
X9106402Y-6076448D01*
X9106450Y-6077215D01*
X9106450Y-6077610D01*
X9106813Y-6079785D01*
X9106850Y-6080038D01*
X9107513Y-6085361D01*
X9107737Y-6086113D01*
X9107994Y-6086860D01*
X9109268Y-6089214D01*
X9110545Y-6091574D01*
X9110661Y-6091800D01*
X9113017Y-6096619D01*
X9113474Y-6097259D01*
X9113958Y-6097881D01*
X9117905Y-6101515D01*
X9118087Y-6101690D01*
X9325786Y-6309389D01*
X9327399Y-6311375D01*
X9328555Y-6313144D01*
X9328321Y-6313297D01*
X9330714Y-6318145D01*
X9329929Y-6325088D01*
X9326853Y-6329443D01*
X9316324Y-6339042D01*
X9304033Y-6355318D01*
X9294942Y-6373574D01*
X9294942Y-6373575D01*
X9289360Y-6393192D01*
X9287479Y-6413500D01*
X9287479Y-6413500D01*
X9289360Y-6433808D01*
X9294942Y-6453425D01*
X9294942Y-6453426D01*
X9304033Y-6471682D01*
X9316324Y-6487958D01*
X9331396Y-6501698D01*
X9331396Y-6501698D01*
X9341314Y-6507839D01*
X9348736Y-6512435D01*
X9367754Y-6519802D01*
X9387802Y-6523550D01*
X9387803Y-6523550D01*
X9408197Y-6523550D01*
X9408198Y-6523550D01*
X9428246Y-6519802D01*
X9447264Y-6512435D01*
X9464604Y-6501698D01*
X9479676Y-6487958D01*
X9491967Y-6471682D01*
X9501058Y-6453425D01*
X9506640Y-6433808D01*
X9508522Y-6413500D01*
X9506640Y-6393192D01*
X9501058Y-6373575D01*
X9500607Y-6372668D01*
X9496627Y-6364676D01*
X9491967Y-6355318D01*
X9483362Y-6343922D01*
X9480893Y-6337387D01*
X9482349Y-6330553D01*
X9487269Y-6325592D01*
X9493257Y-6324050D01*
X9504310Y-6324050D01*
X9511014Y-6326018D01*
X9513078Y-6327682D01*
X9579057Y-6393660D01*
X9582405Y-6399793D01*
X9582598Y-6403923D01*
X9581436Y-6413500D01*
X9581436Y-6413500D01*
X9583486Y-6430387D01*
X9583486Y-6430387D01*
X9589518Y-6446293D01*
X9594441Y-6453425D01*
X9599182Y-6460293D01*
X9609751Y-6469656D01*
X9611915Y-6471574D01*
X9626977Y-6479479D01*
X9626978Y-6479479D01*
X9643494Y-6483550D01*
X9660506Y-6483550D01*
X9677023Y-6479479D01*
X9684969Y-6475308D01*
X9692085Y-6471574D01*
X9692085Y-6471573D01*
X9692085Y-6471573D01*
X9704818Y-6460293D01*
X9714482Y-6446293D01*
X9720514Y-6430387D01*
X9722565Y-6413500D01*
X9720514Y-6396613D01*
X9714482Y-6380707D01*
X9704818Y-6366707D01*
X9692085Y-6355427D01*
X9692085Y-6355426D01*
X9677023Y-6347521D01*
X9660506Y-6343450D01*
X9643494Y-6343450D01*
X9643494Y-6343450D01*
X9642750Y-6343540D01*
X9642734Y-6343411D01*
X9636531Y-6343138D01*
X9631778Y-6340174D01*
X9555215Y-6263611D01*
X9553602Y-6261625D01*
X9553009Y-6260717D01*
X9553008Y-6260716D01*
X9550207Y-6258536D01*
X9549631Y-6258027D01*
X9549352Y-6257748D01*
X9547555Y-6256465D01*
X9547351Y-6256313D01*
X9543119Y-6253019D01*
X9543119Y-6253019D01*
X9542427Y-6252645D01*
X9541720Y-6252299D01*
X9536582Y-6250769D01*
X9536338Y-6250691D01*
X9531266Y-6248950D01*
X9530492Y-6248821D01*
X9529709Y-6248723D01*
X9524783Y-6248927D01*
X9524352Y-6248945D01*
X9524097Y-6248950D01*
X9493257Y-6248950D01*
X9486554Y-6246981D01*
X9481978Y-6241701D01*
X9480984Y-6234785D01*
X9483362Y-6229077D01*
X9491967Y-6217682D01*
X9501058Y-6199425D01*
X9506640Y-6179808D01*
X9508522Y-6159500D01*
X9506640Y-6139192D01*
X9501058Y-6119575D01*
X9500824Y-6119104D01*
X9495413Y-6108237D01*
X9491967Y-6101318D01*
X9486070Y-6093509D01*
X9479676Y-6085042D01*
X9464604Y-6071302D01*
X9464604Y-6071302D01*
X9447264Y-6060565D01*
X9447264Y-6060565D01*
X9437755Y-6056881D01*
X9428246Y-6053198D01*
X9408198Y-6049450D01*
X9387802Y-6049450D01*
X9367754Y-6053198D01*
X9367754Y-6053198D01*
X9367754Y-6053198D01*
X9348736Y-6060565D01*
X9348736Y-6060565D01*
X9331396Y-6071302D01*
X9331396Y-6071302D01*
X9316324Y-6085042D01*
X9304033Y-6101318D01*
X9294942Y-6119574D01*
X9294942Y-6119575D01*
X9289360Y-6139192D01*
X9289342Y-6139291D01*
X9289320Y-6139334D01*
X9289203Y-6139743D01*
X9289123Y-6139720D01*
X9286174Y-6145519D01*
X9280143Y-6149046D01*
X9273162Y-6148752D01*
X9268385Y-6145780D01*
X9230843Y-6108238D01*
X9185182Y-6062577D01*
X9181833Y-6056444D01*
X9181550Y-6053809D01*
X9181550Y-5905500D01*
X9287479Y-5905500D01*
X9289360Y-5925808D01*
X9294942Y-5945425D01*
X9294942Y-5945426D01*
X9304033Y-5963682D01*
X9316324Y-5979958D01*
X9331396Y-5993698D01*
X9331396Y-5993698D01*
X9333499Y-5995000D01*
X9348736Y-6004435D01*
X9367754Y-6011802D01*
X9387802Y-6015550D01*
X9387803Y-6015550D01*
X9408197Y-6015550D01*
X9408198Y-6015550D01*
X9428246Y-6011802D01*
X9447264Y-6004435D01*
X9464604Y-5993698D01*
X9479676Y-5979958D01*
X9491967Y-5963682D01*
X9498819Y-5949923D01*
X9503569Y-5944799D01*
X9509919Y-5943050D01*
X9646820Y-5943050D01*
X9649364Y-5943314D01*
X9649744Y-5943393D01*
X9650427Y-5943537D01*
X9652523Y-5943275D01*
X9653949Y-5943098D01*
X9654717Y-5943050D01*
X9655111Y-5943050D01*
X9655111Y-5943050D01*
X9657290Y-5942686D01*
X9657540Y-5942650D01*
X9662863Y-5941987D01*
X9662863Y-5941986D01*
X9663614Y-5941763D01*
X9664361Y-5941507D01*
X9664361Y-5941506D01*
X9664361Y-5941506D01*
X9669076Y-5938955D01*
X9669300Y-5938839D01*
X9674121Y-5936483D01*
X9674121Y-5936482D01*
X9674759Y-5936027D01*
X9675382Y-5935542D01*
X9675383Y-5935542D01*
X9679016Y-5931594D01*
X9679187Y-5931417D01*
X9928889Y-5681715D01*
X9930875Y-5680102D01*
X9931784Y-5679508D01*
X9933964Y-5676707D01*
X9934473Y-5676130D01*
X9934752Y-5675852D01*
X9936037Y-5674051D01*
X9936184Y-5673854D01*
X9939481Y-5669619D01*
X9939481Y-5669618D01*
X9939855Y-5668928D01*
X9940201Y-5668220D01*
X9940201Y-5668220D01*
X9941732Y-5663077D01*
X9941808Y-5662841D01*
X9943550Y-5657766D01*
X9943550Y-5657766D01*
X9943550Y-5657766D01*
X9943679Y-5656992D01*
X9943777Y-5656209D01*
X9943582Y-5651500D01*
X11070442Y-5651500D01*
X11072470Y-5672093D01*
X11075113Y-5680805D01*
X11078477Y-5691895D01*
X11088232Y-5710145D01*
X11088232Y-5710145D01*
X11101359Y-5726141D01*
X11109552Y-5732865D01*
X11117355Y-5739268D01*
X11135605Y-5749023D01*
X11155407Y-5755030D01*
X11155407Y-5755030D01*
X11157253Y-5755212D01*
X11176000Y-5757058D01*
X11196593Y-5755030D01*
X11216395Y-5749023D01*
X11234645Y-5739268D01*
X11250641Y-5726141D01*
X11263768Y-5710145D01*
X11273523Y-5691895D01*
X11279530Y-5672093D01*
X11281558Y-5651500D01*
X12086442Y-5651500D01*
X12088470Y-5672093D01*
X12091113Y-5680805D01*
X12094477Y-5691895D01*
X12104231Y-5710145D01*
X12104232Y-5710145D01*
X12117359Y-5726141D01*
X12125552Y-5732865D01*
X12133355Y-5739268D01*
X12151605Y-5749023D01*
X12171407Y-5755030D01*
X12171406Y-5755030D01*
X12173253Y-5755212D01*
X12192000Y-5757058D01*
X12212593Y-5755030D01*
X12232395Y-5749023D01*
X12250645Y-5739268D01*
X12266641Y-5726141D01*
X12279768Y-5710145D01*
X12289523Y-5691895D01*
X12295530Y-5672093D01*
X12297558Y-5651500D01*
X12295530Y-5630907D01*
X12289523Y-5611105D01*
X12279768Y-5592855D01*
X12274570Y-5586521D01*
X12266641Y-5576859D01*
X12250645Y-5563732D01*
X12250645Y-5563732D01*
X12250645Y-5563732D01*
X12232395Y-5553977D01*
X12212593Y-5547970D01*
X12212593Y-5547970D01*
X12212593Y-5547970D01*
X12192000Y-5545942D01*
X12171407Y-5547970D01*
X12151604Y-5553977D01*
X12140590Y-5559864D01*
X12133355Y-5563732D01*
X12133355Y-5563732D01*
X12133355Y-5563732D01*
X12117359Y-5576859D01*
X12104232Y-5592855D01*
X12104231Y-5592855D01*
X12100689Y-5599481D01*
X12094477Y-5611104D01*
X12094477Y-5611104D01*
X12094477Y-5611105D01*
X12094144Y-5612201D01*
X12088470Y-5630907D01*
X12086442Y-5651500D01*
X11281558Y-5651500D01*
X11279530Y-5630907D01*
X11273523Y-5611105D01*
X11263768Y-5592855D01*
X11258570Y-5586521D01*
X11250641Y-5576859D01*
X11234645Y-5563732D01*
X11234645Y-5563732D01*
X11234645Y-5563732D01*
X11216395Y-5553977D01*
X11196593Y-5547970D01*
X11196593Y-5547970D01*
X11196593Y-5547970D01*
X11176000Y-5545942D01*
X11155407Y-5547970D01*
X11135604Y-5553977D01*
X11124590Y-5559864D01*
X11117355Y-5563732D01*
X11117355Y-5563732D01*
X11117355Y-5563732D01*
X11101359Y-5576859D01*
X11088232Y-5592855D01*
X11088232Y-5592855D01*
X11084690Y-5599481D01*
X11078477Y-5611104D01*
X11078477Y-5611104D01*
X11078477Y-5611105D01*
X11078144Y-5612201D01*
X11072470Y-5630907D01*
X11070442Y-5651500D01*
X9943582Y-5651500D01*
X9943555Y-5650853D01*
X9943550Y-5650596D01*
X9943550Y-4402190D01*
X9945519Y-4395486D01*
X9947182Y-4393422D01*
X10037422Y-4303182D01*
X10043554Y-4299833D01*
X10046190Y-4299550D01*
X10283794Y-4299550D01*
X10290498Y-4301519D01*
X10295073Y-4306799D01*
X10296068Y-4313715D01*
X10295032Y-4317191D01*
X10286657Y-4335151D01*
X10286657Y-4335152D01*
X10280543Y-4357967D01*
X10280543Y-4357968D01*
X10278484Y-4381500D01*
X10278484Y-4381500D01*
X10280543Y-4405032D01*
X10280543Y-4405033D01*
X10286657Y-4427848D01*
X10286657Y-4427849D01*
X10296640Y-4449258D01*
X10296640Y-4449258D01*
X10302507Y-4457637D01*
X10302507Y-4457637D01*
X10365692Y-4394452D01*
X10368051Y-4402484D01*
X10375824Y-4414580D01*
X10386690Y-4423995D01*
X10399769Y-4429968D01*
X10400747Y-4430109D01*
X10337863Y-4492993D01*
X10345503Y-4498343D01*
X10349866Y-4503800D01*
X10350585Y-4510750D01*
X10347433Y-4516986D01*
X10345503Y-4518658D01*
X10337863Y-4524007D01*
X10400747Y-4586891D01*
X10399769Y-4587032D01*
X10386690Y-4593005D01*
X10375824Y-4602420D01*
X10368051Y-4614516D01*
X10365692Y-4622548D01*
X10302507Y-4559363D01*
X10302507Y-4559363D01*
X10296640Y-4567742D01*
X10286657Y-4589151D01*
X10286657Y-4589152D01*
X10280543Y-4611967D01*
X10280543Y-4611968D01*
X10278484Y-4635500D01*
X10278484Y-4635500D01*
X10280543Y-4659032D01*
X10280543Y-4659033D01*
X10286657Y-4681848D01*
X10286657Y-4681849D01*
X10296640Y-4703258D01*
X10296640Y-4703258D01*
X10302507Y-4711637D01*
X10302507Y-4711637D01*
X10365692Y-4648452D01*
X10368051Y-4656484D01*
X10375824Y-4668580D01*
X10386690Y-4677995D01*
X10399769Y-4683968D01*
X10400747Y-4684109D01*
X10337863Y-4746993D01*
X10346242Y-4752860D01*
X10367651Y-4762843D01*
X10367652Y-4762843D01*
X10390467Y-4768957D01*
X10390468Y-4768957D01*
X10414000Y-4771016D01*
X10414000Y-4771016D01*
X10437532Y-4768957D01*
X10437533Y-4768957D01*
X10460348Y-4762843D01*
X10460349Y-4762843D01*
X10481758Y-4752860D01*
X10481758Y-4752860D01*
X10490137Y-4746993D01*
X10490137Y-4746993D01*
X10427253Y-4684109D01*
X10428232Y-4683968D01*
X10441310Y-4677995D01*
X10452176Y-4668580D01*
X10459949Y-4656484D01*
X10462308Y-4648452D01*
X10525493Y-4711637D01*
X10525493Y-4711637D01*
X10531360Y-4703258D01*
X10531360Y-4703258D01*
X10541343Y-4681849D01*
X10541343Y-4681849D01*
X10542241Y-4678499D01*
X10545877Y-4672533D01*
X10552162Y-4669480D01*
X10559099Y-4670309D01*
X10564487Y-4674758D01*
X10565318Y-4676181D01*
X10574033Y-4693682D01*
X10586324Y-4709958D01*
X10601396Y-4723698D01*
X10601396Y-4723698D01*
X10607342Y-4727380D01*
X10618736Y-4734435D01*
X10637754Y-4741802D01*
X10657802Y-4745550D01*
X10657803Y-4745550D01*
X10678197Y-4745550D01*
X10678198Y-4745550D01*
X10698246Y-4741802D01*
X10717264Y-4734435D01*
X10734604Y-4723698D01*
X10749676Y-4709958D01*
X10761967Y-4693682D01*
X10771058Y-4675425D01*
X10776640Y-4655808D01*
X10778522Y-4635500D01*
X10776640Y-4615192D01*
X10771058Y-4595575D01*
X10769527Y-4592501D01*
X10764797Y-4583001D01*
X10761967Y-4577318D01*
X10754736Y-4567742D01*
X10749676Y-4561042D01*
X10734604Y-4547302D01*
X10734604Y-4547302D01*
X10717264Y-4536566D01*
X10717264Y-4536565D01*
X10707755Y-4532881D01*
X10698246Y-4529198D01*
X10678198Y-4525450D01*
X10657802Y-4525450D01*
X10637754Y-4529198D01*
X10637754Y-4529198D01*
X10637754Y-4529198D01*
X10618736Y-4536565D01*
X10618736Y-4536566D01*
X10601396Y-4547302D01*
X10601396Y-4547302D01*
X10586324Y-4561042D01*
X10574033Y-4577318D01*
X10565318Y-4594819D01*
X10560568Y-4599943D01*
X10553802Y-4601685D01*
X10547168Y-4599492D01*
X10542772Y-4594061D01*
X10542241Y-4592501D01*
X10541343Y-4589152D01*
X10541343Y-4589151D01*
X10531360Y-4567742D01*
X10531360Y-4567742D01*
X10525493Y-4559363D01*
X10525493Y-4559363D01*
X10462308Y-4622547D01*
X10459949Y-4614516D01*
X10452176Y-4602420D01*
X10441310Y-4593005D01*
X10428232Y-4587032D01*
X10427253Y-4586891D01*
X10490137Y-4524007D01*
X10482497Y-4518658D01*
X10478134Y-4513200D01*
X10477415Y-4506250D01*
X10480567Y-4500015D01*
X10482497Y-4498343D01*
X10490137Y-4492993D01*
X10427253Y-4430109D01*
X10428232Y-4429968D01*
X10441310Y-4423995D01*
X10452176Y-4414580D01*
X10459949Y-4402484D01*
X10462308Y-4394452D01*
X10525493Y-4457637D01*
X10525493Y-4457637D01*
X10531360Y-4449258D01*
X10531360Y-4449258D01*
X10541343Y-4427849D01*
X10541343Y-4427849D01*
X10542241Y-4424499D01*
X10545877Y-4418533D01*
X10552162Y-4415480D01*
X10559099Y-4416309D01*
X10564487Y-4420758D01*
X10565318Y-4422181D01*
X10574033Y-4439682D01*
X10586324Y-4455958D01*
X10601396Y-4469698D01*
X10601396Y-4469698D01*
X10611314Y-4475839D01*
X10618736Y-4480435D01*
X10637754Y-4487802D01*
X10657802Y-4491550D01*
X10657803Y-4491550D01*
X10678197Y-4491550D01*
X10678198Y-4491550D01*
X10698246Y-4487802D01*
X10717264Y-4480435D01*
X10734604Y-4469698D01*
X10749676Y-4455958D01*
X10761967Y-4439682D01*
X10771058Y-4421425D01*
X10776640Y-4401808D01*
X10778522Y-4381500D01*
X10777449Y-4369923D01*
X10776640Y-4361192D01*
X10776124Y-4359379D01*
X10771058Y-4341575D01*
X10769527Y-4338501D01*
X10763527Y-4326450D01*
X10761967Y-4323318D01*
X10754736Y-4313742D01*
X10749676Y-4307042D01*
X10734604Y-4293302D01*
X10734604Y-4293302D01*
X10717264Y-4282566D01*
X10717264Y-4282565D01*
X10707755Y-4278881D01*
X10698246Y-4275198D01*
X10678198Y-4271450D01*
X10657802Y-4271450D01*
X10637754Y-4275198D01*
X10637754Y-4275198D01*
X10637754Y-4275198D01*
X10618736Y-4282565D01*
X10618736Y-4282566D01*
X10601396Y-4293302D01*
X10601396Y-4293302D01*
X10586324Y-4307042D01*
X10574033Y-4323318D01*
X10565318Y-4340819D01*
X10560568Y-4345943D01*
X10553802Y-4347685D01*
X10547168Y-4345492D01*
X10542772Y-4340061D01*
X10542241Y-4338501D01*
X10541343Y-4335152D01*
X10541343Y-4335151D01*
X10532550Y-4316295D01*
X10531501Y-4309387D01*
X10534353Y-4303008D01*
X10540201Y-4299185D01*
X10542255Y-4298749D01*
X10542296Y-4298744D01*
X10544363Y-4298487D01*
X10544363Y-4298486D01*
X10545114Y-4298263D01*
X10545861Y-4298007D01*
X10545861Y-4298007D01*
X10545861Y-4298007D01*
X10550576Y-4295455D01*
X10550800Y-4295339D01*
X10555621Y-4292983D01*
X10555621Y-4292982D01*
X10556259Y-4292527D01*
X10556882Y-4292042D01*
X10556883Y-4292042D01*
X10560516Y-4288094D01*
X10560687Y-4287917D01*
X10615497Y-4233106D01*
X10621629Y-4229758D01*
X10628599Y-4230256D01*
X10628744Y-4230312D01*
X10637754Y-4233802D01*
X10657802Y-4237550D01*
X10657803Y-4237550D01*
X10678197Y-4237550D01*
X10678198Y-4237550D01*
X10698246Y-4233802D01*
X10717264Y-4226435D01*
X10734604Y-4215698D01*
X10749676Y-4201958D01*
X10761967Y-4185682D01*
X10771058Y-4167425D01*
X10776640Y-4147808D01*
X10778522Y-4127500D01*
X10776640Y-4107192D01*
X10771058Y-4087575D01*
X10769527Y-4084501D01*
X10766042Y-4077500D01*
X10761967Y-4069318D01*
X10754736Y-4059742D01*
X10749676Y-4053042D01*
X10734604Y-4039302D01*
X10734604Y-4039302D01*
X10717264Y-4028565D01*
X10717264Y-4028565D01*
X10705832Y-4024137D01*
X10698246Y-4021198D01*
X10678198Y-4017450D01*
X10657802Y-4017450D01*
X10637754Y-4021198D01*
X10637754Y-4021198D01*
X10637754Y-4021198D01*
X10618736Y-4028565D01*
X10618736Y-4028565D01*
X10601396Y-4039302D01*
X10601396Y-4039302D01*
X10586324Y-4053042D01*
X10574033Y-4069318D01*
X10565318Y-4086819D01*
X10560568Y-4091942D01*
X10553802Y-4093685D01*
X10547168Y-4091492D01*
X10542772Y-4086061D01*
X10542241Y-4084501D01*
X10541343Y-4081152D01*
X10541343Y-4081151D01*
X10531360Y-4059742D01*
X10531360Y-4059742D01*
X10525493Y-4051363D01*
X10525493Y-4051362D01*
X10462308Y-4114547D01*
X10459949Y-4106516D01*
X10452176Y-4094420D01*
X10441310Y-4085005D01*
X10428232Y-4079032D01*
X10427253Y-4078891D01*
X10490561Y-4015584D01*
X10491617Y-4010329D01*
X10496478Y-4005311D01*
X10498692Y-4004328D01*
X10505912Y-4001936D01*
X10505912Y-4001936D01*
X10520835Y-3992731D01*
X10533232Y-3980334D01*
X10542436Y-3965412D01*
X10542436Y-3965412D01*
X10547951Y-3948770D01*
X10547951Y-3948769D01*
X10549000Y-3938499D01*
X10549000Y-3934131D01*
X10550968Y-3927427D01*
X10556249Y-3922852D01*
X10563164Y-3921857D01*
X10569520Y-3924760D01*
X10572500Y-3928604D01*
X10574033Y-3931682D01*
X10586324Y-3947958D01*
X10601396Y-3961698D01*
X10601396Y-3961698D01*
X10607394Y-3965412D01*
X10618736Y-3972435D01*
X10637754Y-3979802D01*
X10657802Y-3983550D01*
X10657803Y-3983550D01*
X10678197Y-3983550D01*
X10678198Y-3983550D01*
X10698246Y-3979802D01*
X10707256Y-3976312D01*
X10714217Y-3975726D01*
X10720391Y-3978996D01*
X10720503Y-3979106D01*
X11134818Y-4393422D01*
X11138167Y-4399554D01*
X11138450Y-4402190D01*
X11138450Y-5037024D01*
X11136482Y-5043728D01*
X11131895Y-5047959D01*
X11117355Y-5055732D01*
X11117355Y-5055732D01*
X11117355Y-5055732D01*
X11101359Y-5068859D01*
X11088232Y-5084855D01*
X11088232Y-5084855D01*
X11087926Y-5085427D01*
X11078477Y-5103104D01*
X11078477Y-5103105D01*
X11078477Y-5103105D01*
X11077790Y-5105369D01*
X11072470Y-5122907D01*
X11070442Y-5143500D01*
X11072470Y-5164093D01*
X11075473Y-5173994D01*
X11078477Y-5183895D01*
X11088232Y-5202145D01*
X11088232Y-5202145D01*
X11101359Y-5218141D01*
X11111021Y-5226070D01*
X11117355Y-5231269D01*
X11135605Y-5241023D01*
X11155407Y-5247030D01*
X11155407Y-5247030D01*
X11157253Y-5247212D01*
X11176000Y-5249058D01*
X11196593Y-5247030D01*
X11216395Y-5241023D01*
X11234645Y-5231269D01*
X11250641Y-5218141D01*
X11263768Y-5202145D01*
X11273523Y-5183895D01*
X11279530Y-5164093D01*
X11281558Y-5143500D01*
X11279530Y-5122907D01*
X11273523Y-5103105D01*
X11263768Y-5084855D01*
X11257750Y-5077521D01*
X11250641Y-5068859D01*
X11234645Y-5055732D01*
X11234645Y-5055732D01*
X11234645Y-5055732D01*
X11220105Y-5047959D01*
X11215120Y-5043063D01*
X11213550Y-5037024D01*
X11213550Y-4386680D01*
X11213814Y-4384136D01*
X11213878Y-4383828D01*
X11214037Y-4383073D01*
X11213841Y-4381500D01*
X11213598Y-4379551D01*
X11213550Y-4378783D01*
X11213550Y-4378389D01*
X11213550Y-4378388D01*
X11213283Y-4376791D01*
X11213187Y-4376212D01*
X11213150Y-4375960D01*
X11212487Y-4370638D01*
X11212487Y-4370637D01*
X11212486Y-4370637D01*
X11212262Y-4369884D01*
X11212006Y-4369140D01*
X11212006Y-4369139D01*
X11209454Y-4364422D01*
X11209340Y-4364202D01*
X11206983Y-4359379D01*
X11206982Y-4359379D01*
X11206982Y-4359379D01*
X11206527Y-4358740D01*
X11206042Y-4358117D01*
X11202097Y-4354486D01*
X11201915Y-4354311D01*
X10773971Y-3926367D01*
X10770623Y-3920235D01*
X10771067Y-3914023D01*
X10770901Y-3913976D01*
X10771058Y-3913425D01*
X10776640Y-3893808D01*
X10778522Y-3873500D01*
X10776640Y-3853192D01*
X10771058Y-3833575D01*
X10761967Y-3815318D01*
X10754445Y-3805356D01*
X10749676Y-3799042D01*
X10734604Y-3785302D01*
X10734604Y-3785302D01*
X10717264Y-3774565D01*
X10717264Y-3774565D01*
X10704677Y-3769689D01*
X10698246Y-3767198D01*
X10678198Y-3763450D01*
X10657802Y-3763450D01*
X10637754Y-3767198D01*
X10637754Y-3767198D01*
X10637754Y-3767198D01*
X10618736Y-3774565D01*
X10618736Y-3774565D01*
X10601396Y-3785302D01*
X10601396Y-3785302D01*
X10586324Y-3799042D01*
X10574033Y-3815318D01*
X10572500Y-3818396D01*
X10567750Y-3823520D01*
X10560983Y-3825262D01*
X10554349Y-3823069D01*
X10549954Y-3817638D01*
X10549000Y-3812869D01*
X10549000Y-3808503D01*
X10549000Y-3808501D01*
X10547951Y-3798230D01*
X10542436Y-3781588D01*
X10542436Y-3781587D01*
X10533232Y-3766665D01*
X10520835Y-3754268D01*
X10505912Y-3745064D01*
X10505912Y-3745064D01*
X10489270Y-3739549D01*
X10489269Y-3739549D01*
X10478999Y-3738500D01*
X10439000Y-3738500D01*
X10439000Y-3829950D01*
X10428232Y-3825032D01*
X10417576Y-3823500D01*
X10410424Y-3823500D01*
X10399769Y-3825032D01*
X10389000Y-3829950D01*
X10389000Y-3738500D01*
X10349003Y-3738500D01*
X10349001Y-3738500D01*
X10338730Y-3739549D01*
X10322088Y-3745064D01*
X10322088Y-3745064D01*
X10307165Y-3754268D01*
X10294768Y-3766665D01*
X10285564Y-3781587D01*
X10285564Y-3781588D01*
X10280049Y-3798230D01*
X10280049Y-3798231D01*
X10279000Y-3808501D01*
X10279000Y-3848500D01*
X10370631Y-3848500D01*
X10368051Y-3852516D01*
X10364000Y-3866311D01*
X10364000Y-3880689D01*
X10368051Y-3894484D01*
X10370631Y-3898500D01*
X10279000Y-3898500D01*
X10279000Y-3938499D01*
X10280049Y-3948770D01*
X10285564Y-3965412D01*
X10285564Y-3965412D01*
X10294768Y-3980334D01*
X10307165Y-3992731D01*
X10322088Y-4001936D01*
X10322088Y-4001936D01*
X10329308Y-4004328D01*
X10335052Y-4008305D01*
X10337734Y-4014757D01*
X10337746Y-4015891D01*
X10400747Y-4078891D01*
X10399769Y-4079032D01*
X10386690Y-4085005D01*
X10375824Y-4094420D01*
X10368051Y-4106516D01*
X10365692Y-4114548D01*
X10302507Y-4051362D01*
X10296640Y-4059742D01*
X10286657Y-4081151D01*
X10286657Y-4081152D01*
X10280543Y-4103967D01*
X10280543Y-4103968D01*
X10278484Y-4127500D01*
X10278484Y-4127500D01*
X10280543Y-4151031D01*
X10280543Y-4151033D01*
X10286657Y-4173848D01*
X10286657Y-4173849D01*
X10296640Y-4195258D01*
X10303418Y-4204938D01*
X10305651Y-4211558D01*
X10303950Y-4218335D01*
X10298855Y-4223116D01*
X10293260Y-4224450D01*
X10030680Y-4224450D01*
X10028136Y-4224186D01*
X10027073Y-4223963D01*
X10027073Y-4223963D01*
X10023551Y-4224402D01*
X10022783Y-4224450D01*
X10022389Y-4224450D01*
X10020213Y-4224813D01*
X10019960Y-4224850D01*
X10014637Y-4225513D01*
X10013886Y-4225737D01*
X10013139Y-4225994D01*
X10008425Y-4228545D01*
X10008197Y-4228662D01*
X10003379Y-4231017D01*
X10002738Y-4231475D01*
X10002118Y-4231958D01*
X9998485Y-4235904D01*
X9998308Y-4236088D01*
X9883111Y-4351285D01*
X9881125Y-4352898D01*
X9880217Y-4353491D01*
X9880216Y-4353492D01*
X9878036Y-4356292D01*
X9877529Y-4356867D01*
X9877248Y-4357148D01*
X9877247Y-4357149D01*
X9875966Y-4358944D01*
X9875813Y-4359149D01*
X9872519Y-4363381D01*
X9872145Y-4364073D01*
X9871799Y-4364780D01*
X9870269Y-4369918D01*
X9870191Y-4370162D01*
X9868450Y-4375234D01*
X9868321Y-4376009D01*
X9868223Y-4376791D01*
X9868445Y-4382147D01*
X9868450Y-4382403D01*
X9868450Y-5630810D01*
X9866482Y-5637514D01*
X9864818Y-5639578D01*
X9640078Y-5864318D01*
X9633946Y-5867667D01*
X9631310Y-5867950D01*
X9509919Y-5867950D01*
X9503215Y-5865981D01*
X9498819Y-5861077D01*
X9491967Y-5847318D01*
X9479676Y-5831042D01*
X9479676Y-5831042D01*
X9464604Y-5817302D01*
X9464604Y-5817302D01*
X9447264Y-5806565D01*
X9447264Y-5806565D01*
X9437755Y-5802881D01*
X9428246Y-5799198D01*
X9408198Y-5795450D01*
X9387802Y-5795450D01*
X9367754Y-5799198D01*
X9367754Y-5799198D01*
X9367754Y-5799198D01*
X9348736Y-5806565D01*
X9348736Y-5806565D01*
X9331396Y-5817302D01*
X9331396Y-5817302D01*
X9316324Y-5831042D01*
X9304033Y-5847318D01*
X9294942Y-5865574D01*
X9294942Y-5865575D01*
X9289360Y-5885192D01*
X9287479Y-5905500D01*
X9287479Y-5905500D01*
X9181550Y-5905500D01*
X9181550Y-5672190D01*
X9183519Y-5665486D01*
X9185181Y-5663422D01*
X9197104Y-5651500D01*
X9287479Y-5651500D01*
X9289360Y-5671808D01*
X9294942Y-5691425D01*
X9294942Y-5691426D01*
X9304033Y-5709682D01*
X9316324Y-5725958D01*
X9331396Y-5739698D01*
X9331396Y-5739698D01*
X9335675Y-5742348D01*
X9348736Y-5750435D01*
X9367754Y-5757802D01*
X9387802Y-5761550D01*
X9387803Y-5761550D01*
X9408197Y-5761550D01*
X9408198Y-5761550D01*
X9428246Y-5757802D01*
X9447264Y-5750435D01*
X9464604Y-5739698D01*
X9477821Y-5727649D01*
X9479676Y-5725958D01*
X9479676Y-5725958D01*
X9491967Y-5709682D01*
X9501058Y-5691425D01*
X9506640Y-5671808D01*
X9508522Y-5651500D01*
X9506640Y-5631192D01*
X9501058Y-5611575D01*
X9500824Y-5611104D01*
X9494208Y-5597818D01*
X9491967Y-5593318D01*
X9479676Y-5577042D01*
X9479676Y-5577042D01*
X9464604Y-5563302D01*
X9464604Y-5563302D01*
X9447264Y-5552566D01*
X9447264Y-5552565D01*
X9435402Y-5547970D01*
X9428246Y-5545198D01*
X9408198Y-5541450D01*
X9387802Y-5541450D01*
X9367754Y-5545198D01*
X9367754Y-5545198D01*
X9367754Y-5545198D01*
X9348736Y-5552565D01*
X9348736Y-5552566D01*
X9331396Y-5563302D01*
X9331396Y-5563302D01*
X9316324Y-5577042D01*
X9304033Y-5593318D01*
X9294942Y-5611574D01*
X9294942Y-5611575D01*
X9289360Y-5631192D01*
X9287479Y-5651500D01*
X9287479Y-5651500D01*
X9197104Y-5651500D01*
X9345497Y-5503106D01*
X9351629Y-5499758D01*
X9358599Y-5500256D01*
X9358744Y-5500312D01*
X9367754Y-5503802D01*
X9387802Y-5507550D01*
X9387803Y-5507550D01*
X9408197Y-5507550D01*
X9408198Y-5507550D01*
X9428246Y-5503802D01*
X9447264Y-5496435D01*
X9464604Y-5485698D01*
X9479676Y-5471958D01*
X9491967Y-5455682D01*
X9501058Y-5437425D01*
X9506640Y-5417808D01*
X9508522Y-5397500D01*
X9506640Y-5377192D01*
X9501058Y-5357575D01*
X9491967Y-5339318D01*
X9479676Y-5323042D01*
X9479676Y-5323042D01*
X9464604Y-5309302D01*
X9464604Y-5309302D01*
X9447264Y-5298566D01*
X9447264Y-5298565D01*
X9430162Y-5291940D01*
X9428246Y-5291198D01*
X9408198Y-5287450D01*
X9387802Y-5287450D01*
X9367754Y-5291198D01*
X9367754Y-5291198D01*
X9367754Y-5291198D01*
X9348736Y-5298565D01*
X9348736Y-5298566D01*
X9331396Y-5309302D01*
X9331396Y-5309302D01*
X9316324Y-5323042D01*
X9304033Y-5339318D01*
X9294942Y-5357574D01*
X9294942Y-5357575D01*
X9289360Y-5377192D01*
X9287479Y-5397500D01*
X9287479Y-5397500D01*
X9289360Y-5417808D01*
X9293050Y-5430776D01*
X9294942Y-5437425D01*
X9295099Y-5437976D01*
X9294901Y-5438032D01*
X9295409Y-5444086D01*
X9292136Y-5450259D01*
X9292029Y-5450367D01*
X9121111Y-5621285D01*
X9119125Y-5622898D01*
X9118217Y-5623491D01*
X9118216Y-5623491D01*
X9116036Y-5626292D01*
X9115529Y-5626867D01*
X9115248Y-5627148D01*
X9115247Y-5627149D01*
X9113966Y-5628944D01*
X9113813Y-5629149D01*
X9110519Y-5633381D01*
X9110145Y-5634073D01*
X9109799Y-5634780D01*
X9108269Y-5639918D01*
X9108191Y-5640162D01*
X9106450Y-5645234D01*
X9106321Y-5646009D01*
X9106223Y-5646791D01*
X9106445Y-5652147D01*
X9106450Y-5652403D01*
X9106450Y-6069318D01*
X9106186Y-6071862D01*
X9105963Y-6072925D01*
X9105963Y-6072925D01*
X9105963Y-6072926D01*
X8927550Y-6072926D01*
X8927550Y-5672190D01*
X8929519Y-5665486D01*
X8931181Y-5663422D01*
X9345497Y-5249106D01*
X9351629Y-5245758D01*
X9358599Y-5246256D01*
X9358744Y-5246312D01*
X9367754Y-5249802D01*
X9387802Y-5253550D01*
X9387803Y-5253550D01*
X9408197Y-5253550D01*
X9408198Y-5253550D01*
X9428246Y-5249802D01*
X9447264Y-5242435D01*
X9464604Y-5231698D01*
X9477412Y-5220022D01*
X9479676Y-5217958D01*
X9479676Y-5217958D01*
X9491967Y-5201682D01*
X9501058Y-5183425D01*
X9506640Y-5163808D01*
X9508522Y-5143500D01*
X9506640Y-5123192D01*
X9501058Y-5103575D01*
X9500824Y-5103104D01*
X9492021Y-5085427D01*
X9491967Y-5085318D01*
X9479676Y-5069042D01*
X9479676Y-5069042D01*
X9464604Y-5055302D01*
X9464604Y-5055302D01*
X9447264Y-5044566D01*
X9447264Y-5044565D01*
X9433387Y-5039189D01*
X9428246Y-5037198D01*
X9408198Y-5033450D01*
X9387802Y-5033450D01*
X9367754Y-5037198D01*
X9367754Y-5037198D01*
X9367754Y-5037198D01*
X9348736Y-5044565D01*
X9348736Y-5044566D01*
X9331396Y-5055302D01*
X9331396Y-5055302D01*
X9316324Y-5069042D01*
X9304033Y-5085318D01*
X9294942Y-5103574D01*
X9294942Y-5103575D01*
X9289360Y-5123192D01*
X9287479Y-5143500D01*
X9287479Y-5143500D01*
X9289360Y-5163808D01*
X9290364Y-5167334D01*
X9294942Y-5183425D01*
X9295099Y-5183976D01*
X9294900Y-5184033D01*
X9295410Y-5190082D01*
X9292139Y-5196256D01*
X9292029Y-5196367D01*
X8867111Y-5621285D01*
X8865125Y-5622898D01*
X8864217Y-5623491D01*
X8864216Y-5623491D01*
X8862036Y-5626292D01*
X8861529Y-5626867D01*
X8861248Y-5627148D01*
X8861247Y-5627149D01*
X8859966Y-5628944D01*
X8859813Y-5629149D01*
X8856519Y-5633381D01*
X8856145Y-5634073D01*
X8855799Y-5634780D01*
X8854269Y-5639918D01*
X8854191Y-5640162D01*
X8852450Y-5645234D01*
X8852321Y-5646009D01*
X8852223Y-5646791D01*
X8852445Y-5652147D01*
X8852450Y-5652403D01*
X8852450Y-6916320D01*
X8852186Y-6918863D01*
X8851963Y-6919927D01*
X8851963Y-6919927D01*
X8851963Y-6919927D01*
X7984376Y-6919927D01*
X7984277Y-6918864D01*
X7982640Y-6901192D01*
X7980345Y-6893126D01*
X7977058Y-6881575D01*
X7976824Y-6881104D01*
X7970437Y-6868278D01*
X7967967Y-6863318D01*
X7962070Y-6855509D01*
X7955676Y-6847042D01*
X7940604Y-6833302D01*
X7940604Y-6833302D01*
X7923264Y-6822565D01*
X7923263Y-6822565D01*
X7911402Y-6817970D01*
X7904246Y-6815198D01*
X7884198Y-6811450D01*
X7863802Y-6811450D01*
X7843754Y-6815198D01*
X7843754Y-6815198D01*
X7843754Y-6815198D01*
X7824736Y-6822565D01*
X7824736Y-6822565D01*
X7807396Y-6833302D01*
X7807396Y-6833302D01*
X7792324Y-6847042D01*
X7780033Y-6863318D01*
X7770942Y-6881574D01*
X7770942Y-6881575D01*
X7765360Y-6901192D01*
X7763478Y-6921500D01*
X7763478Y-6921500D01*
X6911103Y-6921500D01*
X7165104Y-6667500D01*
X7763478Y-6667500D01*
X7765360Y-6687808D01*
X7770942Y-6707425D01*
X7770942Y-6707426D01*
X7780033Y-6725682D01*
X7792324Y-6741958D01*
X7807396Y-6755698D01*
X7807396Y-6755698D01*
X7811988Y-6758541D01*
X7824736Y-6766435D01*
X7843754Y-6773802D01*
X7863802Y-6777550D01*
X7863803Y-6777550D01*
X7884197Y-6777550D01*
X7884198Y-6777550D01*
X7904246Y-6773802D01*
X7923264Y-6766435D01*
X7940604Y-6755698D01*
X7955676Y-6741958D01*
X7967967Y-6725682D01*
X7977058Y-6707425D01*
X7982640Y-6687808D01*
X7984521Y-6667500D01*
X7982640Y-6647192D01*
X7977058Y-6627575D01*
X7976607Y-6626668D01*
X7972627Y-6618676D01*
X7967967Y-6609318D01*
X7959345Y-6597900D01*
X7955676Y-6593042D01*
X7940604Y-6579302D01*
X7940604Y-6579302D01*
X7923264Y-6568565D01*
X7923263Y-6568565D01*
X7913755Y-6564881D01*
X7904246Y-6561198D01*
X7884198Y-6557450D01*
X7863802Y-6557450D01*
X7843754Y-6561198D01*
X7843754Y-6561198D01*
X7843754Y-6561198D01*
X7824736Y-6568565D01*
X7824736Y-6568565D01*
X7807396Y-6579302D01*
X7807396Y-6579302D01*
X7792324Y-6593042D01*
X7780033Y-6609318D01*
X7770942Y-6627574D01*
X7770942Y-6627575D01*
X7765360Y-6647192D01*
X7763478Y-6667500D01*
X7763478Y-6667500D01*
X7165104Y-6667500D01*
X7388889Y-6443714D01*
X7390874Y-6442102D01*
X7391784Y-6441508D01*
X7393964Y-6438706D01*
X7394472Y-6438132D01*
X7394752Y-6437852D01*
X7396035Y-6436054D01*
X7396188Y-6435850D01*
X7399481Y-6431619D01*
X7399855Y-6430928D01*
X7400201Y-6430220D01*
X7400201Y-6430220D01*
X7401732Y-6425077D01*
X7401807Y-6424842D01*
X7403550Y-6419766D01*
X7403550Y-6419766D01*
X7403679Y-6418992D01*
X7403777Y-6418208D01*
X7403582Y-6413500D01*
X7763478Y-6413500D01*
X7765360Y-6433808D01*
X7770942Y-6453425D01*
X7770942Y-6453426D01*
X7780033Y-6471682D01*
X7792324Y-6487958D01*
X7807396Y-6501698D01*
X7807396Y-6501698D01*
X7817314Y-6507839D01*
X7824736Y-6512435D01*
X7843754Y-6519802D01*
X7863802Y-6523550D01*
X7863803Y-6523550D01*
X7884197Y-6523550D01*
X7884198Y-6523550D01*
X7904246Y-6519802D01*
X7923264Y-6512435D01*
X7940604Y-6501698D01*
X7955676Y-6487958D01*
X7967967Y-6471682D01*
X7977058Y-6453425D01*
X7982640Y-6433808D01*
X7984521Y-6413500D01*
X7982640Y-6393192D01*
X7977058Y-6373575D01*
X7976607Y-6372668D01*
X7972627Y-6364676D01*
X7967967Y-6355318D01*
X7959005Y-6343450D01*
X7955676Y-6339042D01*
X7940604Y-6325302D01*
X7940604Y-6325302D01*
X7923264Y-6314565D01*
X7923263Y-6314565D01*
X7912249Y-6310298D01*
X7904246Y-6307198D01*
X7884198Y-6303450D01*
X7863802Y-6303450D01*
X7843754Y-6307198D01*
X7843754Y-6307198D01*
X7843754Y-6307198D01*
X7824736Y-6314565D01*
X7824736Y-6314565D01*
X7807396Y-6325302D01*
X7807396Y-6325302D01*
X7792324Y-6339042D01*
X7780033Y-6355318D01*
X7770942Y-6373574D01*
X7770942Y-6373575D01*
X7765360Y-6393192D01*
X7763478Y-6413500D01*
X7763478Y-6413500D01*
X7403582Y-6413500D01*
X7403555Y-6412853D01*
X7403550Y-6412596D01*
X7403550Y-6180190D01*
X7405518Y-6173486D01*
X7407182Y-6171422D01*
X7419104Y-6159500D01*
X7763478Y-6159500D01*
X7765360Y-6179808D01*
X7770942Y-6199425D01*
X7770942Y-6199426D01*
X7780033Y-6217682D01*
X7792324Y-6233958D01*
X7807396Y-6247698D01*
X7807396Y-6247698D01*
X7812356Y-6250769D01*
X7824736Y-6258435D01*
X7843754Y-6265802D01*
X7863802Y-6269550D01*
X7863803Y-6269550D01*
X7884197Y-6269550D01*
X7884198Y-6269550D01*
X7904246Y-6265802D01*
X7923264Y-6258435D01*
X7940604Y-6247698D01*
X7954769Y-6234785D01*
X7955676Y-6233958D01*
X7955748Y-6233863D01*
X7967967Y-6217682D01*
X7977058Y-6199425D01*
X7982640Y-6179808D01*
X7984521Y-6159500D01*
X7982640Y-6139192D01*
X7977058Y-6119575D01*
X7976824Y-6119104D01*
X7971413Y-6108237D01*
X7967967Y-6101318D01*
X7962070Y-6093509D01*
X7955676Y-6085042D01*
X7940604Y-6071302D01*
X7940604Y-6071302D01*
X7923264Y-6060565D01*
X7923263Y-6060565D01*
X7913755Y-6056881D01*
X7904246Y-6053198D01*
X7884198Y-6049450D01*
X7863802Y-6049450D01*
X7843754Y-6053198D01*
X7843754Y-6053198D01*
X7843754Y-6053198D01*
X7824736Y-6060565D01*
X7824736Y-6060565D01*
X7807396Y-6071302D01*
X7807396Y-6071302D01*
X7792324Y-6085042D01*
X7780033Y-6101318D01*
X7770942Y-6119574D01*
X7770942Y-6119575D01*
X7765360Y-6139192D01*
X7763478Y-6159500D01*
X7763478Y-6159500D01*
X7419104Y-6159500D01*
X7631922Y-5946682D01*
X7638054Y-5943333D01*
X7640690Y-5943050D01*
X7762081Y-5943050D01*
X7768785Y-5945018D01*
X7773181Y-5949922D01*
X7780033Y-5963682D01*
X7780033Y-5963682D01*
X7792324Y-5979958D01*
X7807396Y-5993698D01*
X7807396Y-5993698D01*
X7809498Y-5995000D01*
X7824736Y-6004435D01*
X7843754Y-6011802D01*
X7863802Y-6015550D01*
X7863803Y-6015550D01*
X7884197Y-6015550D01*
X7884198Y-6015550D01*
X7904246Y-6011802D01*
X7923264Y-6004435D01*
X7940604Y-5993698D01*
X7955676Y-5979958D01*
X7967967Y-5963682D01*
X7977058Y-5945425D01*
X7982640Y-5925808D01*
X7984521Y-5905500D01*
X7982640Y-5885192D01*
X7977058Y-5865575D01*
X7976432Y-5864318D01*
X7972041Y-5855500D01*
X7967967Y-5847318D01*
X7955676Y-5831042D01*
X7955676Y-5831042D01*
X7940604Y-5817302D01*
X7940604Y-5817302D01*
X7923264Y-5806565D01*
X7923263Y-5806565D01*
X7913755Y-5802881D01*
X7904246Y-5799198D01*
X7884198Y-5795450D01*
X7863802Y-5795450D01*
X7843754Y-5799198D01*
X7843754Y-5799198D01*
X7843754Y-5799198D01*
X7824736Y-5806565D01*
X7824736Y-5806565D01*
X7807396Y-5817302D01*
X7807396Y-5817302D01*
X7792324Y-5831042D01*
X7780033Y-5847318D01*
X7780033Y-5847318D01*
X7773181Y-5861077D01*
X7768431Y-5866201D01*
X7762081Y-5867950D01*
X7625180Y-5867950D01*
X7622636Y-5867686D01*
X7622371Y-5867631D01*
X7621573Y-5867463D01*
X7618051Y-5867902D01*
X7617283Y-5867950D01*
X7616888Y-5867950D01*
X7614710Y-5868313D01*
X7614457Y-5868350D01*
X7609137Y-5869013D01*
X7608384Y-5869237D01*
X7607639Y-5869493D01*
X7602923Y-5872045D01*
X7602696Y-5872162D01*
X7597879Y-5874517D01*
X7597240Y-5874973D01*
X7596617Y-5875458D01*
X7592986Y-5879402D01*
X7592809Y-5879587D01*
X7343111Y-6129285D01*
X7341125Y-6130898D01*
X7340216Y-6131491D01*
X7340216Y-6131491D01*
X7338036Y-6134292D01*
X7337529Y-6134867D01*
X7337248Y-6135148D01*
X7337247Y-6135149D01*
X7335966Y-6136944D01*
X7335813Y-6137149D01*
X7332519Y-6141381D01*
X7332145Y-6142073D01*
X7331799Y-6142780D01*
X7330269Y-6147918D01*
X7330191Y-6148162D01*
X7328450Y-6153234D01*
X7328321Y-6154009D01*
X7328223Y-6154791D01*
X7328445Y-6160147D01*
X7328450Y-6160403D01*
X7328450Y-6392810D01*
X7326481Y-6399514D01*
X7324818Y-6401578D01*
X6846078Y-6880318D01*
X6839946Y-6883667D01*
X6837310Y-6883950D01*
X6718711Y-6883950D01*
X6712007Y-6881981D01*
X6707611Y-6877077D01*
X6702214Y-6866237D01*
X6700102Y-6861996D01*
X6687532Y-6845351D01*
X6685046Y-6843085D01*
X6672117Y-6831298D01*
X6672117Y-6831298D01*
X6654383Y-6820318D01*
X6654383Y-6820318D01*
X6640161Y-6814808D01*
X6634933Y-6812783D01*
X6614429Y-6808950D01*
X6593571Y-6808950D01*
X6573067Y-6812783D01*
X6573067Y-6812783D01*
X6573067Y-6812783D01*
X6553617Y-6820318D01*
X6553617Y-6820318D01*
X6535883Y-6831298D01*
X6520468Y-6845350D01*
X6507898Y-6861996D01*
X6498601Y-6880668D01*
X6497735Y-6883709D01*
X6494096Y-6896500D01*
X6492892Y-6900731D01*
X6490968Y-6921500D01*
X6490968Y-6921500D01*
X5646807Y-6921500D01*
X5656317Y-6907266D01*
X5669365Y-6880808D01*
X5678848Y-6852872D01*
X5684603Y-6823938D01*
X5685422Y-6811450D01*
X5686533Y-6794501D01*
X5686533Y-6794499D01*
X5684603Y-6765064D01*
X5684603Y-6765062D01*
X5678848Y-6736128D01*
X5669365Y-6708192D01*
X5656317Y-6681734D01*
X5646807Y-6667500D01*
X6490968Y-6667500D01*
X6492892Y-6688269D01*
X6492892Y-6688269D01*
X6492892Y-6688270D01*
X6498561Y-6708192D01*
X6498601Y-6708332D01*
X6503794Y-6718762D01*
X6507898Y-6727004D01*
X6520468Y-6743649D01*
X6535883Y-6757702D01*
X6553617Y-6768682D01*
X6573067Y-6776217D01*
X6593571Y-6780050D01*
X6593571Y-6780050D01*
X6614429Y-6780050D01*
X6614429Y-6780050D01*
X6634933Y-6776217D01*
X6654383Y-6768682D01*
X6672117Y-6757702D01*
X6687532Y-6743649D01*
X6700102Y-6727004D01*
X6704932Y-6717303D01*
X6707611Y-6711923D01*
X6712362Y-6706799D01*
X6718711Y-6705050D01*
X6852820Y-6705050D01*
X6855364Y-6705314D01*
X6855744Y-6705393D01*
X6856427Y-6705537D01*
X6858522Y-6705275D01*
X6859949Y-6705098D01*
X6860717Y-6705050D01*
X6861111Y-6705050D01*
X6861111Y-6705050D01*
X6863289Y-6704686D01*
X6863540Y-6704650D01*
X6868863Y-6703987D01*
X6868863Y-6703986D01*
X6869614Y-6703763D01*
X6870361Y-6703507D01*
X6870361Y-6703506D01*
X6870361Y-6703506D01*
X6875076Y-6700955D01*
X6875300Y-6700839D01*
X6880121Y-6698483D01*
X6880121Y-6698482D01*
X6880759Y-6698027D01*
X6881382Y-6697542D01*
X6881383Y-6697542D01*
X6885016Y-6693594D01*
X6885186Y-6693417D01*
X7134889Y-6443715D01*
X7136875Y-6442102D01*
X7137784Y-6441508D01*
X7139964Y-6438707D01*
X7140473Y-6438130D01*
X7140474Y-6438129D01*
X7140752Y-6437852D01*
X7142037Y-6436051D01*
X7142184Y-6435854D01*
X7145481Y-6431619D01*
X7145481Y-6431618D01*
X7145855Y-6430928D01*
X7146201Y-6430220D01*
X7146201Y-6430220D01*
X7147732Y-6425077D01*
X7147808Y-6424841D01*
X7149550Y-6419766D01*
X7149550Y-6419766D01*
X7149550Y-6419766D01*
X7149679Y-6418992D01*
X7149777Y-6418209D01*
X7149555Y-6412853D01*
X7149550Y-6412596D01*
X7149550Y-6180190D01*
X7151518Y-6173486D01*
X7153182Y-6171422D01*
X7631922Y-5692682D01*
X7638054Y-5689333D01*
X7640690Y-5689050D01*
X7762081Y-5689050D01*
X7768785Y-5691018D01*
X7773181Y-5695922D01*
X7780033Y-5709682D01*
X7781031Y-5711004D01*
X7792324Y-5725958D01*
X7807396Y-5739698D01*
X7807396Y-5739698D01*
X7811675Y-5742348D01*
X7824736Y-5750435D01*
X7843754Y-5757802D01*
X7863802Y-5761550D01*
X7863803Y-5761550D01*
X7884197Y-5761550D01*
X7884198Y-5761550D01*
X7904246Y-5757802D01*
X7923264Y-5750435D01*
X7940604Y-5739698D01*
X7953821Y-5727649D01*
X7955676Y-5725958D01*
X7955676Y-5725958D01*
X7967967Y-5709682D01*
X7977058Y-5691425D01*
X7982640Y-5671808D01*
X7984521Y-5651500D01*
X7982640Y-5631192D01*
X7977058Y-5611575D01*
X7976824Y-5611104D01*
X7970208Y-5597818D01*
X7967967Y-5593318D01*
X7955676Y-5577042D01*
X7955676Y-5577042D01*
X7940604Y-5563302D01*
X7940604Y-5563302D01*
X7923264Y-5552566D01*
X7923263Y-5552565D01*
X7911402Y-5547970D01*
X7904246Y-5545198D01*
X7884198Y-5541450D01*
X7863802Y-5541450D01*
X7843754Y-5545198D01*
X7843754Y-5545198D01*
X7843754Y-5545198D01*
X7824736Y-5552565D01*
X7824736Y-5552566D01*
X7807396Y-5563302D01*
X7807396Y-5563302D01*
X7792324Y-5577042D01*
X7780033Y-5593318D01*
X7780033Y-5593318D01*
X7773181Y-5607077D01*
X7768431Y-5612201D01*
X7762081Y-5613950D01*
X7625180Y-5613950D01*
X7622636Y-5613686D01*
X7621573Y-5613463D01*
X7621573Y-5613463D01*
X7618051Y-5613902D01*
X7617283Y-5613950D01*
X7616889Y-5613950D01*
X7614713Y-5614313D01*
X7614460Y-5614350D01*
X7609137Y-5615013D01*
X7608386Y-5615237D01*
X7607639Y-5615493D01*
X7602925Y-5618045D01*
X7602697Y-5618162D01*
X7597879Y-5620517D01*
X7597237Y-5620975D01*
X7596617Y-5621458D01*
X7592985Y-5625404D01*
X7592808Y-5625588D01*
X7089111Y-6129285D01*
X7087125Y-6130898D01*
X7086216Y-6131491D01*
X7086216Y-6131491D01*
X7084036Y-6134292D01*
X7083529Y-6134867D01*
X7083248Y-6135148D01*
X7083247Y-6135149D01*
X7081966Y-6136944D01*
X7081813Y-6137149D01*
X7078519Y-6141381D01*
X7078145Y-6142073D01*
X7077799Y-6142780D01*
X7076269Y-6147918D01*
X7076191Y-6148162D01*
X7074450Y-6153234D01*
X7074321Y-6154009D01*
X7074223Y-6154791D01*
X7074445Y-6160147D01*
X7074450Y-6160403D01*
X7074450Y-6392810D01*
X7072481Y-6399514D01*
X7070818Y-6401578D01*
X6846078Y-6626318D01*
X6839946Y-6629667D01*
X6837310Y-6629950D01*
X6718711Y-6629950D01*
X6712007Y-6627981D01*
X6707611Y-6623077D01*
X6700760Y-6609318D01*
X6700102Y-6607996D01*
X6687532Y-6591351D01*
X6672117Y-6577298D01*
X6654383Y-6566318D01*
X6654383Y-6566318D01*
X6640161Y-6560808D01*
X6634933Y-6558783D01*
X6614429Y-6554950D01*
X6593571Y-6554950D01*
X6573067Y-6558783D01*
X6573067Y-6558783D01*
X6573067Y-6558783D01*
X6553617Y-6566318D01*
X6553617Y-6566318D01*
X6535883Y-6577298D01*
X6520468Y-6591350D01*
X6507898Y-6607996D01*
X6498601Y-6626668D01*
X6492892Y-6646731D01*
X6490968Y-6667500D01*
X6490968Y-6667500D01*
X5646807Y-6667500D01*
X5639927Y-6657204D01*
X5630742Y-6646730D01*
X5620476Y-6635024D01*
X5598295Y-6615572D01*
X5573767Y-6599183D01*
X5573766Y-6599182D01*
X5547308Y-6586135D01*
X5519373Y-6576652D01*
X5519372Y-6576652D01*
X5519372Y-6576652D01*
X5490438Y-6570897D01*
X5490437Y-6570896D01*
X5490436Y-6570896D01*
X5461001Y-6568967D01*
X5460999Y-6568967D01*
X5431564Y-6570896D01*
X5431562Y-6570896D01*
X5431562Y-6570897D01*
X5431561Y-6570897D01*
X5431561Y-6570897D01*
X5402628Y-6576652D01*
X5402627Y-6576652D01*
X5374692Y-6586135D01*
X5348233Y-6599183D01*
X5323704Y-6615573D01*
X5301524Y-6635024D01*
X5282073Y-6657204D01*
X5265683Y-6681733D01*
X5252635Y-6708192D01*
X5243152Y-6736127D01*
X5243152Y-6736128D01*
X5237397Y-6765061D01*
X5237396Y-6765064D01*
X5235467Y-6794499D01*
X5235467Y-6794501D01*
X4912050Y-6794501D01*
X4912050Y-6155850D01*
X5564599Y-6155850D01*
X5566603Y-6197918D01*
X5572596Y-6239603D01*
X5582525Y-6280531D01*
X5596299Y-6320328D01*
X5596300Y-6320331D01*
X5597999Y-6324050D01*
X5612328Y-6355426D01*
X5613795Y-6358639D01*
X5622418Y-6373575D01*
X5633523Y-6392810D01*
X5634852Y-6395112D01*
X5634853Y-6395113D01*
X5659281Y-6429417D01*
X5686035Y-6460293D01*
X5686861Y-6461245D01*
X5717340Y-6490308D01*
X5750445Y-6516342D01*
X5750445Y-6516342D01*
X5750446Y-6516342D01*
X5750446Y-6516343D01*
X5785874Y-6539110D01*
X5785874Y-6539111D01*
X5823307Y-6558409D01*
X5862406Y-6574061D01*
X5902815Y-6585926D01*
X5903895Y-6586135D01*
X5930957Y-6591350D01*
X5944168Y-6593897D01*
X5986093Y-6597900D01*
X5986093Y-6597900D01*
X6028207Y-6597900D01*
X6028207Y-6597900D01*
X6070132Y-6593897D01*
X6111485Y-6585926D01*
X6151894Y-6574061D01*
X6190992Y-6558409D01*
X6228426Y-6539111D01*
X6258756Y-6519618D01*
X6263854Y-6516342D01*
X6263854Y-6516342D01*
X6263855Y-6516342D01*
X6296959Y-6490308D01*
X6327439Y-6461245D01*
X6355019Y-6429417D01*
X6366353Y-6413500D01*
X6490968Y-6413500D01*
X6492892Y-6434269D01*
X6492892Y-6434269D01*
X6492892Y-6434270D01*
X6498601Y-6454332D01*
X6498601Y-6454332D01*
X6502043Y-6461245D01*
X6507898Y-6473004D01*
X6520468Y-6489649D01*
X6535883Y-6503702D01*
X6553617Y-6514682D01*
X6573067Y-6522217D01*
X6593571Y-6526050D01*
X6593571Y-6526050D01*
X6614429Y-6526050D01*
X6614429Y-6526050D01*
X6634933Y-6522217D01*
X6654383Y-6514682D01*
X6672117Y-6503702D01*
X6687532Y-6489649D01*
X6700102Y-6473004D01*
X6709399Y-6454332D01*
X6715108Y-6434270D01*
X6717032Y-6413500D01*
X6715108Y-6392730D01*
X6709399Y-6372668D01*
X6700102Y-6353996D01*
X6687532Y-6337351D01*
X6672117Y-6323298D01*
X6654383Y-6312318D01*
X6654383Y-6312318D01*
X6640161Y-6306808D01*
X6634933Y-6304783D01*
X6614429Y-6300950D01*
X6593571Y-6300950D01*
X6573067Y-6304783D01*
X6573067Y-6304783D01*
X6573067Y-6304783D01*
X6553617Y-6312318D01*
X6553617Y-6312318D01*
X6535883Y-6323298D01*
X6520468Y-6337350D01*
X6507898Y-6353996D01*
X6498601Y-6372668D01*
X6492892Y-6392731D01*
X6490968Y-6413500D01*
X6490968Y-6413500D01*
X6366353Y-6413500D01*
X6379448Y-6395111D01*
X6400505Y-6358639D01*
X6418000Y-6320330D01*
X6431775Y-6280531D01*
X6441704Y-6239603D01*
X6447697Y-6197917D01*
X6449701Y-6155850D01*
X6447697Y-6113783D01*
X6441704Y-6072097D01*
X6431775Y-6031169D01*
X6418000Y-5991370D01*
X6400505Y-5953061D01*
X6379448Y-5916589D01*
X6379447Y-5916588D01*
X6379447Y-5916587D01*
X6355019Y-5882283D01*
X6327440Y-5850455D01*
X6307080Y-5831042D01*
X6296959Y-5821392D01*
X6263855Y-5795358D01*
X6263855Y-5795358D01*
X6263854Y-5795358D01*
X6228425Y-5772589D01*
X6204427Y-5760217D01*
X6190992Y-5753291D01*
X6190992Y-5753291D01*
X6190992Y-5753291D01*
X6190992Y-5753291D01*
X6151895Y-5737639D01*
X6111486Y-5725774D01*
X6111484Y-5725773D01*
X6070133Y-5717803D01*
X6070132Y-5717803D01*
X6057554Y-5716602D01*
X6028207Y-5713800D01*
X5986093Y-5713800D01*
X5959413Y-5716347D01*
X5944168Y-5717803D01*
X5944167Y-5717803D01*
X5902816Y-5725773D01*
X5902814Y-5725774D01*
X5862405Y-5737639D01*
X5823308Y-5753291D01*
X5823308Y-5753291D01*
X5785874Y-5772589D01*
X5785874Y-5772590D01*
X5750446Y-5795357D01*
X5750446Y-5795357D01*
X5717341Y-5821391D01*
X5717339Y-5821393D01*
X5686860Y-5850455D01*
X5659281Y-5882283D01*
X5634853Y-5916587D01*
X5634852Y-5916588D01*
X5613795Y-5953061D01*
X5596300Y-5991369D01*
X5596299Y-5991372D01*
X5582525Y-6031169D01*
X5572596Y-6072097D01*
X5566603Y-6113782D01*
X5564599Y-6155850D01*
X4912050Y-6155850D01*
X4912050Y-5524501D01*
X5235467Y-5524501D01*
X5237396Y-5553936D01*
X5237397Y-5553937D01*
X5237397Y-5553938D01*
X5241992Y-5577042D01*
X5243152Y-5582872D01*
X5243152Y-5582873D01*
X5252635Y-5610808D01*
X5265683Y-5637266D01*
X5265683Y-5637267D01*
X5282073Y-5661795D01*
X5301524Y-5683976D01*
X5323704Y-5703427D01*
X5333758Y-5710145D01*
X5348234Y-5719817D01*
X5374692Y-5732865D01*
X5402628Y-5742348D01*
X5431562Y-5748103D01*
X5434389Y-5748289D01*
X5460999Y-5750033D01*
X5461000Y-5750033D01*
X5461001Y-5750033D01*
X5484568Y-5748488D01*
X5490438Y-5748103D01*
X5519372Y-5742348D01*
X5547308Y-5732865D01*
X5573767Y-5719817D01*
X5598296Y-5703427D01*
X5620476Y-5683976D01*
X5639927Y-5661796D01*
X5656317Y-5637266D01*
X5669365Y-5610808D01*
X5678848Y-5582872D01*
X5684603Y-5553938D01*
X5686533Y-5524500D01*
X5686533Y-5524499D01*
X5684603Y-5495064D01*
X5684603Y-5495062D01*
X5683093Y-5487468D01*
X6491450Y-5487468D01*
X6492903Y-5494774D01*
X6492903Y-5494774D01*
X6492903Y-5494774D01*
X6498440Y-5503060D01*
X6506726Y-5508597D01*
X6506726Y-5508597D01*
X6514032Y-5510050D01*
X6514032Y-5510050D01*
X6514033Y-5510050D01*
X6693968Y-5510050D01*
X6693968Y-5510050D01*
X6701274Y-5508597D01*
X6709560Y-5503060D01*
X6715097Y-5494774D01*
X6716550Y-5487467D01*
X6716550Y-5307533D01*
X6716550Y-5307532D01*
X6716550Y-5307532D01*
X6715097Y-5300226D01*
X6715097Y-5300226D01*
X6713987Y-5298565D01*
X6709560Y-5291940D01*
X6701274Y-5286403D01*
X6701274Y-5286403D01*
X6701273Y-5286403D01*
X6693968Y-5284950D01*
X6693967Y-5284950D01*
X6514033Y-5284950D01*
X6514032Y-5284950D01*
X6506726Y-5286403D01*
X6506726Y-5286403D01*
X6498440Y-5291940D01*
X6492903Y-5300226D01*
X6492903Y-5300226D01*
X6491450Y-5307532D01*
X6491450Y-5487468D01*
X5683093Y-5487468D01*
X5678848Y-5466128D01*
X5669365Y-5438192D01*
X5656317Y-5411734D01*
X5639927Y-5387204D01*
X5631146Y-5377192D01*
X5620476Y-5365024D01*
X5598295Y-5345573D01*
X5573767Y-5329183D01*
X5573766Y-5329183D01*
X5547308Y-5316135D01*
X5519373Y-5306652D01*
X5519372Y-5306652D01*
X5519372Y-5306652D01*
X5490438Y-5300897D01*
X5490437Y-5300897D01*
X5490436Y-5300896D01*
X5461001Y-5298967D01*
X5460999Y-5298967D01*
X5431564Y-5300896D01*
X5431562Y-5300897D01*
X5431562Y-5300897D01*
X5431561Y-5300897D01*
X5431561Y-5300897D01*
X5402628Y-5306652D01*
X5402627Y-5306652D01*
X5374692Y-5316135D01*
X5348233Y-5329183D01*
X5323704Y-5345573D01*
X5301524Y-5365024D01*
X5282073Y-5387204D01*
X5265683Y-5411733D01*
X5252635Y-5438192D01*
X5243152Y-5466127D01*
X5243152Y-5466128D01*
X5237397Y-5495061D01*
X5237396Y-5495064D01*
X5235467Y-5524499D01*
X5235467Y-5524501D01*
X4912050Y-5524501D01*
X4912050Y-3879843D01*
X5039950Y-3879843D01*
X5039950Y-3879844D01*
X5040635Y-3881951D01*
X5041089Y-3883842D01*
X5041435Y-3886030D01*
X5041436Y-3886031D01*
X5042441Y-3888004D01*
X5043186Y-3889802D01*
X5043870Y-3891909D01*
X5045173Y-3893701D01*
X5046189Y-3895360D01*
X5047195Y-3897334D01*
X5049286Y-3899426D01*
X5049289Y-3899429D01*
X6013493Y-4863632D01*
X6317195Y-5167334D01*
X6326166Y-5176305D01*
X6328139Y-5177311D01*
X6329798Y-5178327D01*
X6331591Y-5179630D01*
X6331591Y-5179630D01*
X6331591Y-5179630D01*
X6333697Y-5180314D01*
X6335495Y-5181059D01*
X6337470Y-5182065D01*
X6339658Y-5182411D01*
X6341550Y-5182865D01*
X6343657Y-5183550D01*
X6346592Y-5183550D01*
X6346595Y-5183550D01*
X6346848Y-5183550D01*
X7048019Y-5183550D01*
X7054723Y-5185519D01*
X7058224Y-5188906D01*
X7059182Y-5190293D01*
X7071915Y-5201574D01*
X7086977Y-5209479D01*
X7086977Y-5209479D01*
X7103494Y-5213550D01*
X7120506Y-5213550D01*
X7137022Y-5209479D01*
X7144969Y-5205308D01*
X7152085Y-5201574D01*
X7152085Y-5201573D01*
X7152085Y-5201573D01*
X7164818Y-5190293D01*
X7174482Y-5176293D01*
X7180514Y-5160387D01*
X7182564Y-5143500D01*
X7180514Y-5126613D01*
X7174482Y-5110707D01*
X7172720Y-5108155D01*
X7168812Y-5102493D01*
X7164818Y-5096707D01*
X7152085Y-5085427D01*
X7152085Y-5085426D01*
X7137023Y-5077521D01*
X7120506Y-5073450D01*
X7103494Y-5073450D01*
X7086977Y-5077521D01*
X7071915Y-5085426D01*
X7059182Y-5096707D01*
X7058224Y-5098094D01*
X7052796Y-5102493D01*
X7048019Y-5103450D01*
X6371725Y-5103450D01*
X6365021Y-5101482D01*
X6362957Y-5099818D01*
X5923639Y-4660500D01*
X7076000Y-4660500D01*
X7076000Y-4687999D01*
X7077049Y-4698270D01*
X7082564Y-4714912D01*
X7082564Y-4714912D01*
X7091768Y-4729835D01*
X7104165Y-4742232D01*
X7119087Y-4751436D01*
X7119088Y-4751436D01*
X7135730Y-4756951D01*
X7135731Y-4756951D01*
X7146002Y-4758000D01*
X7201000Y-4758000D01*
X7205997Y-4758000D01*
X7205999Y-4758000D01*
X7216270Y-4756951D01*
X7232912Y-4751436D01*
X7232912Y-4751436D01*
X7247834Y-4742232D01*
X7260231Y-4729835D01*
X7269436Y-4714912D01*
X7269436Y-4714912D01*
X7272493Y-4705686D01*
X7276470Y-4699942D01*
X7282922Y-4697259D01*
X7289799Y-4698491D01*
X7294919Y-4703245D01*
X7295882Y-4705253D01*
X7296620Y-4707233D01*
X7296621Y-4707234D01*
X7305245Y-4718754D01*
X7305245Y-4718755D01*
X7316766Y-4727379D01*
X7316767Y-4727380D01*
X7321262Y-4729056D01*
X7330252Y-4732409D01*
X7336213Y-4733050D01*
X7395787Y-4733050D01*
X7401748Y-4732409D01*
X7415233Y-4727380D01*
X7426755Y-4718755D01*
X7435380Y-4707233D01*
X7440409Y-4693748D01*
X7441050Y-4687787D01*
X7441050Y-4583213D01*
X7440409Y-4577252D01*
X7438204Y-4571340D01*
X7435380Y-4563767D01*
X7435379Y-4563766D01*
X7426755Y-4552246D01*
X7426755Y-4552245D01*
X7426754Y-4552245D01*
X7421019Y-4547952D01*
X7416832Y-4542358D01*
X7416050Y-4538025D01*
X7416050Y-4436120D01*
X7418018Y-4429417D01*
X7418398Y-4428915D01*
X7418392Y-4428910D01*
X7422514Y-4422939D01*
X7428482Y-4414293D01*
X7434514Y-4398387D01*
X7436564Y-4381500D01*
X7434514Y-4364613D01*
X7434309Y-4364073D01*
X7432287Y-4358740D01*
X7428482Y-4348707D01*
X7428284Y-4348420D01*
X7421437Y-4338501D01*
X7418818Y-4334707D01*
X7409178Y-4326167D01*
X7406085Y-4323426D01*
X7391023Y-4315521D01*
X7374506Y-4311450D01*
X7357494Y-4311450D01*
X7340977Y-4315521D01*
X7325915Y-4323426D01*
X7313182Y-4334707D01*
X7303518Y-4348707D01*
X7297486Y-4364613D01*
X7297486Y-4364613D01*
X7295435Y-4381500D01*
X7297486Y-4398387D01*
X7297486Y-4398387D01*
X7303518Y-4414293D01*
X7313608Y-4428910D01*
X7313381Y-4429067D01*
X7315803Y-4434219D01*
X7315950Y-4436120D01*
X7315950Y-4538025D01*
X7313981Y-4544729D01*
X7310981Y-4547952D01*
X7305246Y-4552245D01*
X7305245Y-4552246D01*
X7296621Y-4563766D01*
X7296620Y-4563767D01*
X7295882Y-4565747D01*
X7291694Y-4571340D01*
X7285148Y-4573782D01*
X7278321Y-4572297D01*
X7273380Y-4567356D01*
X7272493Y-4565314D01*
X7269436Y-4556088D01*
X7269436Y-4556088D01*
X7260231Y-4541165D01*
X7247834Y-4528768D01*
X7232912Y-4519564D01*
X7232912Y-4519564D01*
X7216270Y-4514049D01*
X7216269Y-4514049D01*
X7205999Y-4513000D01*
X7201000Y-4513000D01*
X7201000Y-4758000D01*
X7146002Y-4758000D01*
X7151000Y-4758000D01*
X7151000Y-4758000D01*
X7151000Y-4660500D01*
X7076000Y-4660500D01*
X5923639Y-4660500D01*
X5873639Y-4610500D01*
X7076000Y-4610500D01*
X7151000Y-4610500D01*
X7151000Y-4513000D01*
X7151000Y-4513000D01*
X7146003Y-4513000D01*
X7146001Y-4513000D01*
X7135730Y-4514049D01*
X7119088Y-4519564D01*
X7119087Y-4519564D01*
X7104165Y-4528768D01*
X7091768Y-4541165D01*
X7082564Y-4556088D01*
X7082564Y-4556088D01*
X7077049Y-4572730D01*
X7077049Y-4572731D01*
X7076000Y-4583001D01*
X7076000Y-4610500D01*
X5873639Y-4610500D01*
X5123682Y-3860543D01*
X5120333Y-3854410D01*
X5120050Y-3851774D01*
X5120050Y-3641225D01*
X5122019Y-3634521D01*
X5123682Y-3632457D01*
X5219957Y-3536182D01*
X5226090Y-3532833D01*
X5228725Y-3532550D01*
X5460258Y-3532550D01*
X5466962Y-3534518D01*
X5471538Y-3539799D01*
X5472532Y-3546715D01*
X5470762Y-3551188D01*
X5470911Y-3551273D01*
X5470640Y-3551742D01*
X5460657Y-3573151D01*
X5460657Y-3573152D01*
X5454543Y-3595967D01*
X5454543Y-3595968D01*
X5452484Y-3619500D01*
X5452484Y-3619500D01*
X5454543Y-3643031D01*
X5454543Y-3643033D01*
X5460657Y-3665848D01*
X5460657Y-3665849D01*
X5470640Y-3687258D01*
X5470640Y-3687258D01*
X5476507Y-3695637D01*
X5476507Y-3695637D01*
X5539692Y-3632452D01*
X5542051Y-3640484D01*
X5549824Y-3652580D01*
X5560690Y-3661995D01*
X5573769Y-3667968D01*
X5574747Y-3668109D01*
X5511863Y-3730992D01*
X5520242Y-3736860D01*
X5526800Y-3739918D01*
X5532044Y-3744535D01*
X5533959Y-3751255D01*
X5531938Y-3757943D01*
X5526621Y-3762476D01*
X5522885Y-3763485D01*
X5517252Y-3764091D01*
X5503767Y-3769120D01*
X5503766Y-3769121D01*
X5492246Y-3777745D01*
X5492245Y-3777745D01*
X5483621Y-3789266D01*
X5483620Y-3789267D01*
X5478591Y-3802752D01*
X5477950Y-3808712D01*
X5477950Y-3808712D01*
X5477950Y-3808713D01*
X5477950Y-3938287D01*
X5477950Y-3938288D01*
X5478591Y-3944248D01*
X5483620Y-3957733D01*
X5483621Y-3957733D01*
X5492245Y-3969254D01*
X5492246Y-3969255D01*
X5503766Y-3977879D01*
X5503767Y-3977880D01*
X5507056Y-3979106D01*
X5517252Y-3982909D01*
X5523213Y-3983550D01*
X5525550Y-3983550D01*
X5532254Y-3985518D01*
X5536829Y-3990798D01*
X5537950Y-3995950D01*
X5537950Y-4120786D01*
X5537667Y-4123421D01*
X5537564Y-4123893D01*
X5537564Y-4123893D01*
X5537564Y-4123893D01*
X5537934Y-4129067D01*
X5537950Y-4129509D01*
X5537950Y-4131080D01*
X5538173Y-4132634D01*
X5538221Y-4133074D01*
X5538591Y-4138248D01*
X5538759Y-4138700D01*
X5539415Y-4141268D01*
X5539483Y-4141745D01*
X5539484Y-4141746D01*
X5541638Y-4146464D01*
X5541807Y-4146872D01*
X5543620Y-4151733D01*
X5543620Y-4151733D01*
X5543909Y-4152118D01*
X5543910Y-4152119D01*
X5545262Y-4154398D01*
X5545462Y-4154837D01*
X5545462Y-4154837D01*
X5545462Y-4154837D01*
X5548860Y-4158758D01*
X5549136Y-4159101D01*
X5550078Y-4160359D01*
X5550078Y-4160360D01*
X5551189Y-4161470D01*
X5551490Y-4161793D01*
X5554281Y-4165015D01*
X5554887Y-4165714D01*
X5554887Y-4165714D01*
X5555293Y-4165975D01*
X5557357Y-4167638D01*
X5801861Y-4412143D01*
X5803525Y-4414207D01*
X5803785Y-4414613D01*
X5803786Y-4414613D01*
X5807705Y-4418009D01*
X5808030Y-4418311D01*
X5809140Y-4419421D01*
X5809140Y-4419422D01*
X5809141Y-4419422D01*
X5810398Y-4420363D01*
X5810742Y-4420640D01*
X5814663Y-4424038D01*
X5815101Y-4424238D01*
X5817381Y-4425591D01*
X5817767Y-4425880D01*
X5821243Y-4427176D01*
X5822627Y-4427692D01*
X5823036Y-4427862D01*
X5825332Y-4428910D01*
X5827754Y-4430017D01*
X5828232Y-4430085D01*
X5830800Y-4430741D01*
X5831252Y-4430909D01*
X5836424Y-4431279D01*
X5836865Y-4431326D01*
X5838420Y-4431550D01*
X5838420Y-4431550D01*
X5839991Y-4431550D01*
X5840434Y-4431566D01*
X5845607Y-4431936D01*
X5845930Y-4431866D01*
X5846078Y-4431833D01*
X5848714Y-4431550D01*
X7105286Y-4431550D01*
X7107921Y-4431833D01*
X7108393Y-4431936D01*
X7113567Y-4431566D01*
X7114009Y-4431550D01*
X7115580Y-4431550D01*
X7117134Y-4431326D01*
X7117574Y-4431279D01*
X7122748Y-4430909D01*
X7123199Y-4430741D01*
X7125768Y-4430085D01*
X7126246Y-4430017D01*
X7130965Y-4427861D01*
X7131373Y-4427692D01*
X7134264Y-4426614D01*
X7136233Y-4425880D01*
X7136233Y-4425880D01*
X7136233Y-4425880D01*
X7136619Y-4425591D01*
X7138899Y-4424238D01*
X7139337Y-4424038D01*
X7143256Y-4420642D01*
X7143601Y-4420364D01*
X7143893Y-4420145D01*
X7144859Y-4419422D01*
X7145972Y-4418309D01*
X7146292Y-4418011D01*
X7150214Y-4414613D01*
X7150475Y-4414207D01*
X7152138Y-4412143D01*
X7396643Y-4167638D01*
X7398707Y-4165975D01*
X7399113Y-4165714D01*
X7402510Y-4161794D01*
X7402811Y-4161471D01*
X7402811Y-4161470D01*
X7403922Y-4160359D01*
X7404865Y-4159100D01*
X7405141Y-4158757D01*
X7405142Y-4158756D01*
X7406718Y-4156937D01*
X7408537Y-4154838D01*
X7408537Y-4154837D01*
X7408538Y-4154837D01*
X7408738Y-4154399D01*
X7410091Y-4152118D01*
X7410379Y-4151733D01*
X7412192Y-4146873D01*
X7412361Y-4146465D01*
X7412706Y-4145710D01*
X7414516Y-4141746D01*
X7414585Y-4141268D01*
X7415241Y-4138700D01*
X7415409Y-4138248D01*
X7415409Y-4138248D01*
X7415409Y-4138248D01*
X7415664Y-4134689D01*
X7415779Y-4133073D01*
X7415826Y-4132638D01*
X7416050Y-4131080D01*
X7416050Y-4129508D01*
X7416066Y-4129066D01*
X7416436Y-4123893D01*
X7416436Y-4123892D01*
X7416333Y-4123422D01*
X7416050Y-4120786D01*
X7416050Y-3970975D01*
X7418018Y-3964271D01*
X7421019Y-3961048D01*
X7425447Y-3957733D01*
X7426755Y-3956755D01*
X7435380Y-3945233D01*
X7437970Y-3938287D01*
X7440458Y-3931617D01*
X7444645Y-3926023D01*
X7451192Y-3923582D01*
X7452076Y-3923550D01*
X7557550Y-3923550D01*
X7564254Y-3925518D01*
X7568829Y-3930799D01*
X7569950Y-3935950D01*
X7569950Y-4863632D01*
X7567981Y-4870336D01*
X7566318Y-4872400D01*
X6840900Y-5597818D01*
X6834768Y-5601167D01*
X6832132Y-5601450D01*
X6712487Y-5601450D01*
X6705783Y-5599481D01*
X6701387Y-5594577D01*
X6700529Y-5592855D01*
X6700102Y-5591996D01*
X6687532Y-5575351D01*
X6672117Y-5561298D01*
X6654383Y-5550318D01*
X6654383Y-5550318D01*
X6640161Y-5544808D01*
X6634933Y-5542783D01*
X6614429Y-5538950D01*
X6593571Y-5538950D01*
X6573067Y-5542783D01*
X6573067Y-5542783D01*
X6573067Y-5542783D01*
X6553617Y-5550318D01*
X6553617Y-5550318D01*
X6535883Y-5561299D01*
X6520468Y-5575351D01*
X6507898Y-5591996D01*
X6498601Y-5610668D01*
X6498600Y-5610668D01*
X6498601Y-5610668D01*
X6494155Y-5626292D01*
X6492892Y-5630731D01*
X6490968Y-5651500D01*
X6490968Y-5651500D01*
X6492892Y-5672269D01*
X6492892Y-5672269D01*
X6492892Y-5672270D01*
X6498476Y-5691895D01*
X6498601Y-5692332D01*
X6504125Y-5703427D01*
X6507898Y-5711004D01*
X6520468Y-5727649D01*
X6535883Y-5741702D01*
X6553617Y-5752682D01*
X6553617Y-5752682D01*
X6553618Y-5752683D01*
X6555809Y-5753532D01*
X6561350Y-5757789D01*
X6563709Y-5764365D01*
X6562138Y-5771173D01*
X6557135Y-5776051D01*
X6555357Y-5776822D01*
X6548578Y-5779150D01*
X6548577Y-5779150D01*
X6528537Y-5789995D01*
X6525902Y-5792046D01*
X6590747Y-5856891D01*
X6589768Y-5857032D01*
X6576690Y-5863005D01*
X6565824Y-5872420D01*
X6558051Y-5884516D01*
X6555692Y-5892547D01*
X6490687Y-5827543D01*
X6482658Y-5839833D01*
X6482658Y-5839833D01*
X6473504Y-5860701D01*
X6467910Y-5882791D01*
X6467910Y-5882791D01*
X6466029Y-5905499D01*
X6466029Y-5905501D01*
X6467910Y-5928208D01*
X6467910Y-5928209D01*
X6473504Y-5950299D01*
X6482658Y-5971166D01*
X6482658Y-5971167D01*
X6490687Y-5983457D01*
X6555692Y-5918452D01*
X6558051Y-5926484D01*
X6565824Y-5938580D01*
X6576690Y-5947995D01*
X6589768Y-5953968D01*
X6590747Y-5954109D01*
X6525901Y-6018954D01*
X6525902Y-6018954D01*
X6528537Y-6021005D01*
X6528537Y-6021005D01*
X6548577Y-6031850D01*
X6548578Y-6031850D01*
X6555356Y-6034177D01*
X6561058Y-6038216D01*
X6563671Y-6044696D01*
X6562366Y-6051560D01*
X6557557Y-6056629D01*
X6555810Y-6057468D01*
X6553617Y-6058317D01*
X6553617Y-6058318D01*
X6535883Y-6069298D01*
X6520468Y-6083350D01*
X6507898Y-6099996D01*
X6498601Y-6118668D01*
X6498600Y-6118668D01*
X6498601Y-6118668D01*
X6494096Y-6134500D01*
X6492892Y-6138731D01*
X6490968Y-6159500D01*
X6490968Y-6159500D01*
X6492892Y-6180269D01*
X6492892Y-6180269D01*
X6492892Y-6180270D01*
X6498601Y-6200332D01*
X6498601Y-6200332D01*
X6502461Y-6208085D01*
X6507898Y-6219004D01*
X6520468Y-6235649D01*
X6535883Y-6249702D01*
X6553617Y-6260682D01*
X6573067Y-6268217D01*
X6593571Y-6272050D01*
X6593571Y-6272050D01*
X6614429Y-6272050D01*
X6614429Y-6272050D01*
X6634933Y-6268217D01*
X6654383Y-6260682D01*
X6672117Y-6249702D01*
X6687532Y-6235649D01*
X6700102Y-6219004D01*
X6709399Y-6200332D01*
X6715108Y-6180270D01*
X6717032Y-6159500D01*
X6715108Y-6138730D01*
X6709399Y-6118668D01*
X6700102Y-6099996D01*
X6687532Y-6083351D01*
X6685046Y-6081085D01*
X6672117Y-6069298D01*
X6672117Y-6069298D01*
X6654383Y-6058318D01*
X6654382Y-6058317D01*
X6652190Y-6057468D01*
X6646650Y-6053211D01*
X6644291Y-6046634D01*
X6645862Y-6039826D01*
X6650865Y-6034948D01*
X6652643Y-6034177D01*
X6659423Y-6031850D01*
X6659423Y-6031850D01*
X6679463Y-6021005D01*
X6682098Y-6018954D01*
X6682098Y-6018954D01*
X6617253Y-5954109D01*
X6618231Y-5953968D01*
X6631310Y-5947995D01*
X6642176Y-5938580D01*
X6649949Y-5926484D01*
X6652308Y-5918452D01*
X6717312Y-5983457D01*
X6725342Y-5971167D01*
X6734495Y-5950299D01*
X6740089Y-5928209D01*
X6740090Y-5928208D01*
X6741971Y-5905501D01*
X6741971Y-5905499D01*
X6740090Y-5882791D01*
X6740089Y-5882791D01*
X6734495Y-5860701D01*
X6725342Y-5839833D01*
X6717312Y-5827543D01*
X6652308Y-5892547D01*
X6649949Y-5884516D01*
X6642176Y-5872420D01*
X6631310Y-5863005D01*
X6618231Y-5857032D01*
X6617253Y-5856891D01*
X6682098Y-5792046D01*
X6682098Y-5792046D01*
X6679463Y-5789995D01*
X6679463Y-5789995D01*
X6659423Y-5779150D01*
X6659422Y-5779150D01*
X6652643Y-5776822D01*
X6646942Y-5772784D01*
X6644329Y-5766304D01*
X6645634Y-5759440D01*
X6650443Y-5754371D01*
X6652190Y-5753532D01*
X6654383Y-5752682D01*
X6672117Y-5741702D01*
X6687532Y-5727649D01*
X6700102Y-5711004D01*
X6701387Y-5708423D01*
X6706137Y-5703299D01*
X6712487Y-5701550D01*
X6851286Y-5701550D01*
X6853921Y-5701833D01*
X6854393Y-5701936D01*
X6859567Y-5701566D01*
X6860009Y-5701550D01*
X6861580Y-5701550D01*
X6863134Y-5701326D01*
X6863574Y-5701279D01*
X6868748Y-5700909D01*
X6869199Y-5700741D01*
X6871768Y-5700085D01*
X6872246Y-5700016D01*
X6876965Y-5697861D01*
X6877373Y-5697692D01*
X6880264Y-5696614D01*
X6882233Y-5695880D01*
X6882233Y-5695880D01*
X6882233Y-5695880D01*
X6882619Y-5695591D01*
X6884899Y-5694237D01*
X6885337Y-5694038D01*
X6889256Y-5690642D01*
X6889601Y-5690364D01*
X6889893Y-5690145D01*
X6890859Y-5689422D01*
X6891972Y-5688309D01*
X6892292Y-5688011D01*
X6896214Y-5684613D01*
X6896475Y-5684207D01*
X6898138Y-5682143D01*
X7182781Y-5397500D01*
X7763478Y-5397500D01*
X7765360Y-5417808D01*
X7770942Y-5437425D01*
X7770942Y-5437426D01*
X7780033Y-5455682D01*
X7792324Y-5471958D01*
X7807396Y-5485698D01*
X7807396Y-5485698D01*
X7817314Y-5491839D01*
X7824736Y-5496435D01*
X7843754Y-5503802D01*
X7863802Y-5507550D01*
X7863803Y-5507550D01*
X7884197Y-5507550D01*
X7884198Y-5507550D01*
X7904246Y-5503802D01*
X7923264Y-5496435D01*
X7940604Y-5485698D01*
X7955676Y-5471958D01*
X7967967Y-5455682D01*
X7977058Y-5437425D01*
X7982640Y-5417808D01*
X7984521Y-5397500D01*
X7982640Y-5377192D01*
X7977058Y-5357575D01*
X7967967Y-5339318D01*
X7955676Y-5323042D01*
X7955676Y-5323042D01*
X7940604Y-5309302D01*
X7940604Y-5309302D01*
X7923264Y-5298566D01*
X7923263Y-5298565D01*
X7906162Y-5291940D01*
X7904246Y-5291198D01*
X7884198Y-5287450D01*
X7863802Y-5287450D01*
X7843754Y-5291198D01*
X7843754Y-5291198D01*
X7843754Y-5291198D01*
X7824736Y-5298565D01*
X7824736Y-5298566D01*
X7807396Y-5309302D01*
X7807396Y-5309302D01*
X7792324Y-5323042D01*
X7780033Y-5339318D01*
X7770942Y-5357574D01*
X7770942Y-5357575D01*
X7765360Y-5377192D01*
X7763478Y-5397500D01*
X7763478Y-5397500D01*
X7182781Y-5397500D01*
X7436781Y-5143500D01*
X7763478Y-5143500D01*
X7765360Y-5163808D01*
X7770942Y-5183425D01*
X7770942Y-5183426D01*
X7780033Y-5201682D01*
X7792324Y-5217958D01*
X7807396Y-5231698D01*
X7807396Y-5231698D01*
X7817314Y-5237839D01*
X7824736Y-5242435D01*
X7843754Y-5249802D01*
X7863802Y-5253550D01*
X7863803Y-5253550D01*
X7884197Y-5253550D01*
X7884198Y-5253550D01*
X7904246Y-5249802D01*
X7923264Y-5242435D01*
X7940604Y-5231698D01*
X7953412Y-5220022D01*
X7955676Y-5217958D01*
X7955676Y-5217958D01*
X7967967Y-5201682D01*
X7977058Y-5183425D01*
X7982640Y-5163808D01*
X7984521Y-5143500D01*
X7982640Y-5123192D01*
X7977058Y-5103575D01*
X7976824Y-5103104D01*
X7968021Y-5085427D01*
X7967967Y-5085318D01*
X7955676Y-5069042D01*
X7955676Y-5069042D01*
X7940604Y-5055302D01*
X7940604Y-5055302D01*
X7923264Y-5044566D01*
X7923263Y-5044565D01*
X7909387Y-5039189D01*
X7904246Y-5037198D01*
X7884198Y-5033450D01*
X7863802Y-5033450D01*
X7843754Y-5037198D01*
X7843754Y-5037198D01*
X7843754Y-5037198D01*
X7824736Y-5044565D01*
X7824736Y-5044566D01*
X7807396Y-5055302D01*
X7807396Y-5055302D01*
X7792324Y-5069042D01*
X7780033Y-5085318D01*
X7770942Y-5103574D01*
X7770942Y-5103575D01*
X7765360Y-5123192D01*
X7763478Y-5143500D01*
X7763478Y-5143500D01*
X7436781Y-5143500D01*
X7650643Y-4929638D01*
X7652707Y-4927975D01*
X7653113Y-4927714D01*
X7656513Y-4923790D01*
X7656810Y-4923471D01*
X7657922Y-4922359D01*
X7658864Y-4921100D01*
X7659139Y-4920759D01*
X7662538Y-4916837D01*
X7662737Y-4916400D01*
X7664091Y-4914119D01*
X7664380Y-4913733D01*
X7666192Y-4908873D01*
X7666361Y-4908465D01*
X7668516Y-4903746D01*
X7668585Y-4903269D01*
X7669241Y-4900699D01*
X7669409Y-4900248D01*
X7669779Y-4895074D01*
X7669826Y-4894634D01*
X7670050Y-4893080D01*
X7670050Y-4891509D01*
X7670066Y-4891067D01*
X7670178Y-4889500D01*
X7763478Y-4889500D01*
X7765360Y-4909808D01*
X7770942Y-4929425D01*
X7770942Y-4929426D01*
X7780033Y-4947682D01*
X7792324Y-4963958D01*
X7807396Y-4977698D01*
X7807396Y-4977698D01*
X7817314Y-4983839D01*
X7824736Y-4988435D01*
X7843754Y-4995802D01*
X7863802Y-4999550D01*
X7863803Y-4999550D01*
X7884197Y-4999550D01*
X7884198Y-4999550D01*
X7904246Y-4995802D01*
X7923264Y-4988435D01*
X7940604Y-4977698D01*
X7955676Y-4963958D01*
X7967967Y-4947682D01*
X7977058Y-4929425D01*
X7982640Y-4909808D01*
X7984521Y-4889500D01*
X9287479Y-4889500D01*
X9289360Y-4909808D01*
X9294942Y-4929425D01*
X9294942Y-4929426D01*
X9304033Y-4947682D01*
X9316324Y-4963958D01*
X9331396Y-4977698D01*
X9331396Y-4977698D01*
X9341314Y-4983839D01*
X9348736Y-4988435D01*
X9367754Y-4995802D01*
X9387802Y-4999550D01*
X9387803Y-4999550D01*
X9408197Y-4999550D01*
X9408198Y-4999550D01*
X9428246Y-4995802D01*
X9447264Y-4988435D01*
X9464604Y-4977698D01*
X9479676Y-4963958D01*
X9491967Y-4947682D01*
X9501058Y-4929425D01*
X9506640Y-4909808D01*
X9508522Y-4889500D01*
X9506640Y-4869192D01*
X9501058Y-4849575D01*
X9491967Y-4831318D01*
X9479676Y-4815042D01*
X9479676Y-4815042D01*
X9464604Y-4801302D01*
X9464604Y-4801302D01*
X9447264Y-4790566D01*
X9447264Y-4790565D01*
X9437755Y-4786881D01*
X9428246Y-4783198D01*
X9408198Y-4779450D01*
X9387802Y-4779450D01*
X9367754Y-4783198D01*
X9367754Y-4783198D01*
X9367754Y-4783198D01*
X9348736Y-4790565D01*
X9348736Y-4790566D01*
X9331396Y-4801302D01*
X9331396Y-4801302D01*
X9316324Y-4815042D01*
X9304033Y-4831318D01*
X9294942Y-4849574D01*
X9294942Y-4849575D01*
X9289360Y-4869192D01*
X9287479Y-4889500D01*
X9287479Y-4889500D01*
X7984521Y-4889500D01*
X7982640Y-4869192D01*
X7977058Y-4849575D01*
X7967967Y-4831318D01*
X7955676Y-4815042D01*
X7955676Y-4815042D01*
X7940604Y-4801302D01*
X7940604Y-4801302D01*
X7923264Y-4790566D01*
X7923263Y-4790565D01*
X7913755Y-4786881D01*
X7904246Y-4783198D01*
X7884198Y-4779450D01*
X7863802Y-4779450D01*
X7843754Y-4783198D01*
X7843754Y-4783198D01*
X7843754Y-4783198D01*
X7824736Y-4790565D01*
X7824736Y-4790566D01*
X7807396Y-4801302D01*
X7807396Y-4801302D01*
X7792324Y-4815042D01*
X7780033Y-4831318D01*
X7770942Y-4849574D01*
X7770942Y-4849575D01*
X7765360Y-4869192D01*
X7763478Y-4889500D01*
X7763478Y-4889500D01*
X7670178Y-4889500D01*
X7670178Y-4889500D01*
X7670436Y-4885893D01*
X7670333Y-4885421D01*
X7670050Y-4882786D01*
X7670050Y-4635500D01*
X7763478Y-4635500D01*
X7765360Y-4655808D01*
X7770942Y-4675425D01*
X7770942Y-4675426D01*
X7780033Y-4693682D01*
X7792324Y-4709958D01*
X7807396Y-4723698D01*
X7807396Y-4723698D01*
X7813342Y-4727380D01*
X7824736Y-4734435D01*
X7843754Y-4741802D01*
X7863802Y-4745550D01*
X7863803Y-4745550D01*
X7884197Y-4745550D01*
X7884198Y-4745550D01*
X7904246Y-4741802D01*
X7923264Y-4734435D01*
X7940604Y-4723698D01*
X7955676Y-4709958D01*
X7967967Y-4693682D01*
X7977058Y-4675425D01*
X7982640Y-4655808D01*
X7984521Y-4635500D01*
X9287479Y-4635500D01*
X9289360Y-4655808D01*
X9294942Y-4675425D01*
X9294942Y-4675426D01*
X9304033Y-4693682D01*
X9316324Y-4709958D01*
X9331396Y-4723698D01*
X9331396Y-4723698D01*
X9337342Y-4727380D01*
X9348736Y-4734435D01*
X9367754Y-4741802D01*
X9387802Y-4745550D01*
X9387803Y-4745550D01*
X9408197Y-4745550D01*
X9408198Y-4745550D01*
X9428246Y-4741802D01*
X9447264Y-4734435D01*
X9464604Y-4723698D01*
X9479676Y-4709958D01*
X9491967Y-4693682D01*
X9501058Y-4675425D01*
X9506640Y-4655808D01*
X9508522Y-4635500D01*
X9506640Y-4615192D01*
X9501058Y-4595575D01*
X9499527Y-4592501D01*
X9494797Y-4583001D01*
X9491967Y-4577318D01*
X9484736Y-4567742D01*
X9479676Y-4561042D01*
X9464604Y-4547302D01*
X9464604Y-4547302D01*
X9447264Y-4536566D01*
X9447264Y-4536565D01*
X9437755Y-4532881D01*
X9428246Y-4529198D01*
X9408198Y-4525450D01*
X9387802Y-4525450D01*
X9367754Y-4529198D01*
X9367754Y-4529198D01*
X9367754Y-4529198D01*
X9348736Y-4536565D01*
X9348736Y-4536566D01*
X9331396Y-4547302D01*
X9331396Y-4547302D01*
X9316324Y-4561042D01*
X9304033Y-4577318D01*
X9294942Y-4595574D01*
X9294942Y-4595575D01*
X9289360Y-4615192D01*
X9287479Y-4635500D01*
X9287479Y-4635500D01*
X7984521Y-4635500D01*
X7982640Y-4615192D01*
X7977058Y-4595575D01*
X7975527Y-4592501D01*
X7970797Y-4583001D01*
X7967967Y-4577318D01*
X7960736Y-4567742D01*
X7955676Y-4561042D01*
X7940604Y-4547302D01*
X7940604Y-4547302D01*
X7923264Y-4536566D01*
X7923263Y-4536565D01*
X7913755Y-4532881D01*
X7904246Y-4529198D01*
X7884198Y-4525450D01*
X7863802Y-4525450D01*
X7843754Y-4529198D01*
X7843754Y-4529198D01*
X7843754Y-4529198D01*
X7824736Y-4536565D01*
X7824736Y-4536566D01*
X7807396Y-4547302D01*
X7807396Y-4547302D01*
X7792324Y-4561042D01*
X7780033Y-4577318D01*
X7770942Y-4595574D01*
X7770942Y-4595575D01*
X7765360Y-4615192D01*
X7763478Y-4635500D01*
X7763478Y-4635500D01*
X7670050Y-4635500D01*
X7670050Y-4127500D01*
X7763478Y-4127500D01*
X7765360Y-4147808D01*
X7770942Y-4167425D01*
X7770942Y-4167426D01*
X7780033Y-4185682D01*
X7792324Y-4201958D01*
X7807396Y-4215698D01*
X7807396Y-4215698D01*
X7811655Y-4218335D01*
X7824736Y-4226435D01*
X7843754Y-4233802D01*
X7863802Y-4237550D01*
X7863803Y-4237550D01*
X7884197Y-4237550D01*
X7884198Y-4237550D01*
X7904246Y-4233802D01*
X7923264Y-4226435D01*
X7940604Y-4215698D01*
X7955676Y-4201958D01*
X7967967Y-4185682D01*
X7977058Y-4167425D01*
X7982640Y-4147808D01*
X7984521Y-4127500D01*
X7982640Y-4107192D01*
X7977058Y-4087575D01*
X7975527Y-4084501D01*
X7972041Y-4077500D01*
X7967967Y-4069318D01*
X7960736Y-4059742D01*
X7955676Y-4053042D01*
X7940604Y-4039302D01*
X7940604Y-4039302D01*
X7923264Y-4028565D01*
X7923263Y-4028565D01*
X7911832Y-4024137D01*
X7904246Y-4021198D01*
X7884198Y-4017450D01*
X7863802Y-4017450D01*
X7843754Y-4021198D01*
X7843754Y-4021198D01*
X7843754Y-4021198D01*
X7824736Y-4028565D01*
X7824736Y-4028565D01*
X7807396Y-4039302D01*
X7807396Y-4039302D01*
X7792324Y-4053042D01*
X7780033Y-4069318D01*
X7770942Y-4087574D01*
X7770942Y-4087575D01*
X7765360Y-4107192D01*
X7763478Y-4127500D01*
X7763478Y-4127500D01*
X7670050Y-4127500D01*
X7670050Y-3935950D01*
X7672018Y-3929246D01*
X7677299Y-3924671D01*
X7682450Y-3923550D01*
X7768306Y-3923550D01*
X7775009Y-3925518D01*
X7779405Y-3930423D01*
X7780033Y-3931682D01*
X7792324Y-3947958D01*
X7807396Y-3961698D01*
X7807396Y-3961698D01*
X7813394Y-3965412D01*
X7824736Y-3972435D01*
X7843754Y-3979802D01*
X7863802Y-3983550D01*
X7863803Y-3983550D01*
X7884197Y-3983550D01*
X7884198Y-3983550D01*
X7904246Y-3979802D01*
X7923264Y-3972435D01*
X7940604Y-3961698D01*
X7955676Y-3947958D01*
X7967967Y-3931682D01*
X7977058Y-3913425D01*
X7982640Y-3893808D01*
X7984521Y-3873500D01*
X7982640Y-3853192D01*
X7977058Y-3833575D01*
X7967967Y-3815318D01*
X7960444Y-3805356D01*
X7955676Y-3799042D01*
X7940604Y-3785302D01*
X7940604Y-3785302D01*
X7923264Y-3774565D01*
X7923263Y-3774565D01*
X7910677Y-3769689D01*
X7904246Y-3767198D01*
X7884198Y-3763450D01*
X7863802Y-3763450D01*
X7843754Y-3767198D01*
X7843754Y-3767198D01*
X7843754Y-3767198D01*
X7824736Y-3774565D01*
X7824736Y-3774565D01*
X7807396Y-3785302D01*
X7807396Y-3785302D01*
X7792324Y-3799042D01*
X7780033Y-3815318D01*
X7779405Y-3816577D01*
X7774655Y-3821701D01*
X7768306Y-3823450D01*
X7452076Y-3823450D01*
X7445372Y-3821481D01*
X7440797Y-3816201D01*
X7440458Y-3815383D01*
X7435380Y-3801767D01*
X7435379Y-3801766D01*
X7426755Y-3790245D01*
X7426754Y-3790245D01*
X7415233Y-3781621D01*
X7415233Y-3781620D01*
X7401749Y-3776591D01*
X7401748Y-3776591D01*
X7401748Y-3776591D01*
X7395787Y-3775950D01*
X7395786Y-3775950D01*
X7336213Y-3775950D01*
X7336212Y-3775950D01*
X7330252Y-3776591D01*
X7316767Y-3781620D01*
X7316766Y-3781621D01*
X7305245Y-3790245D01*
X7305245Y-3790245D01*
X7296621Y-3801766D01*
X7296620Y-3801767D01*
X7295882Y-3803747D01*
X7291694Y-3809340D01*
X7285148Y-3811782D01*
X7278321Y-3810297D01*
X7273380Y-3805356D01*
X7272493Y-3803314D01*
X7269436Y-3794088D01*
X7269436Y-3794087D01*
X7260231Y-3779165D01*
X7247834Y-3766768D01*
X7232912Y-3757564D01*
X7232912Y-3757564D01*
X7216270Y-3752049D01*
X7216269Y-3752049D01*
X7205999Y-3751000D01*
X7201000Y-3751000D01*
X7201000Y-3996000D01*
X7205997Y-3996000D01*
X7205999Y-3996000D01*
X7216270Y-3994950D01*
X7232912Y-3989436D01*
X7232912Y-3989436D01*
X7247834Y-3980231D01*
X7260231Y-3967834D01*
X7269436Y-3952912D01*
X7269436Y-3952912D01*
X7272493Y-3943686D01*
X7276470Y-3937941D01*
X7282922Y-3935259D01*
X7289799Y-3936491D01*
X7294919Y-3941245D01*
X7295882Y-3943253D01*
X7296253Y-3944248D01*
X7296620Y-3945233D01*
X7305245Y-3956754D01*
X7305245Y-3956755D01*
X7310981Y-3961048D01*
X7315168Y-3966641D01*
X7315950Y-3970975D01*
X7315950Y-4101632D01*
X7313981Y-4108336D01*
X7312318Y-4110400D01*
X7094900Y-4327818D01*
X7088768Y-4331167D01*
X7086132Y-4331450D01*
X5867868Y-4331450D01*
X5861164Y-4329482D01*
X5859099Y-4327818D01*
X5641682Y-4110400D01*
X5638333Y-4104268D01*
X5638050Y-4101632D01*
X5638050Y-3995950D01*
X5640018Y-3989246D01*
X5645299Y-3984670D01*
X5650450Y-3983550D01*
X5652787Y-3983550D01*
X5652787Y-3983550D01*
X5658748Y-3982909D01*
X5672233Y-3977880D01*
X5683755Y-3969255D01*
X5692380Y-3957733D01*
X5697409Y-3944248D01*
X5698050Y-3938287D01*
X5698050Y-3873500D01*
X5731478Y-3873500D01*
X5733360Y-3893808D01*
X5738942Y-3913425D01*
X5738942Y-3913426D01*
X5748033Y-3931682D01*
X5760324Y-3947958D01*
X5775396Y-3961698D01*
X5775396Y-3961698D01*
X5781394Y-3965412D01*
X5792736Y-3972435D01*
X5811754Y-3979802D01*
X5831802Y-3983550D01*
X5831803Y-3983550D01*
X5852197Y-3983550D01*
X5852198Y-3983550D01*
X5872246Y-3979802D01*
X5891264Y-3972435D01*
X5908604Y-3961698D01*
X5923676Y-3947958D01*
X5935967Y-3931682D01*
X5945058Y-3913425D01*
X5950640Y-3893808D01*
X5952521Y-3873500D01*
X5985478Y-3873500D01*
X5987360Y-3893808D01*
X5992942Y-3913425D01*
X5992942Y-3913426D01*
X6002033Y-3931682D01*
X6014324Y-3947958D01*
X6029396Y-3961698D01*
X6029396Y-3961698D01*
X6035394Y-3965412D01*
X6046736Y-3972435D01*
X6065754Y-3979802D01*
X6085802Y-3983550D01*
X6085803Y-3983550D01*
X6106197Y-3983550D01*
X6106198Y-3983550D01*
X6126246Y-3979802D01*
X6145264Y-3972435D01*
X6162604Y-3961698D01*
X6177676Y-3947958D01*
X6189967Y-3931682D01*
X6199058Y-3913425D01*
X6204640Y-3893808D01*
X6206521Y-3873500D01*
X6239478Y-3873500D01*
X6241360Y-3893808D01*
X6246942Y-3913425D01*
X6246942Y-3913426D01*
X6256033Y-3931682D01*
X6268324Y-3947958D01*
X6283396Y-3961698D01*
X6283396Y-3961698D01*
X6289394Y-3965412D01*
X6300736Y-3972435D01*
X6319754Y-3979802D01*
X6339802Y-3983550D01*
X6339803Y-3983550D01*
X6360197Y-3983550D01*
X6360198Y-3983550D01*
X6380246Y-3979802D01*
X6399264Y-3972435D01*
X6416604Y-3961698D01*
X6431676Y-3947958D01*
X6443967Y-3931682D01*
X6453058Y-3913425D01*
X6457305Y-3898500D01*
X7076000Y-3898500D01*
X7076000Y-3925999D01*
X7077049Y-3936270D01*
X7082564Y-3952912D01*
X7082564Y-3952912D01*
X7091768Y-3967834D01*
X7104165Y-3980231D01*
X7119087Y-3989436D01*
X7119088Y-3989436D01*
X7135730Y-3994950D01*
X7135731Y-3994951D01*
X7146002Y-3996000D01*
X7151000Y-3996000D01*
X7151000Y-3996000D01*
X7151000Y-3898500D01*
X7076000Y-3898500D01*
X6457305Y-3898500D01*
X6458640Y-3893808D01*
X6460521Y-3873500D01*
X6458640Y-3853192D01*
X6457305Y-3848500D01*
X7076000Y-3848500D01*
X7151000Y-3848500D01*
X7151000Y-3751000D01*
X7151000Y-3751000D01*
X7146003Y-3751000D01*
X7146001Y-3751000D01*
X7135730Y-3752049D01*
X7119088Y-3757564D01*
X7119087Y-3757564D01*
X7104165Y-3766768D01*
X7091768Y-3779165D01*
X7082564Y-3794087D01*
X7082564Y-3794088D01*
X7077049Y-3810730D01*
X7077049Y-3810731D01*
X7076000Y-3821001D01*
X7076000Y-3848500D01*
X6457305Y-3848500D01*
X6453058Y-3833575D01*
X6443967Y-3815318D01*
X6436444Y-3805356D01*
X6431676Y-3799042D01*
X6416604Y-3785302D01*
X6416604Y-3785302D01*
X6399264Y-3774565D01*
X6399263Y-3774565D01*
X6386677Y-3769689D01*
X6380246Y-3767198D01*
X6360198Y-3763450D01*
X6339802Y-3763450D01*
X6319754Y-3767198D01*
X6319754Y-3767198D01*
X6319754Y-3767198D01*
X6300736Y-3774565D01*
X6300736Y-3774565D01*
X6283396Y-3785302D01*
X6283396Y-3785302D01*
X6268324Y-3799042D01*
X6256033Y-3815318D01*
X6246942Y-3833574D01*
X6246942Y-3833575D01*
X6241360Y-3853192D01*
X6239478Y-3873500D01*
X6239478Y-3873500D01*
X6206521Y-3873500D01*
X6204640Y-3853192D01*
X6199058Y-3833575D01*
X6189967Y-3815318D01*
X6182444Y-3805356D01*
X6177676Y-3799042D01*
X6162604Y-3785302D01*
X6162604Y-3785302D01*
X6145264Y-3774565D01*
X6145263Y-3774565D01*
X6132677Y-3769689D01*
X6126246Y-3767198D01*
X6106198Y-3763450D01*
X6085802Y-3763450D01*
X6065754Y-3767198D01*
X6065754Y-3767198D01*
X6065754Y-3767198D01*
X6046736Y-3774565D01*
X6046736Y-3774565D01*
X6029396Y-3785302D01*
X6029396Y-3785302D01*
X6014324Y-3799042D01*
X6002033Y-3815318D01*
X5992942Y-3833574D01*
X5992942Y-3833575D01*
X5987360Y-3853192D01*
X5985478Y-3873500D01*
X5985478Y-3873500D01*
X5952521Y-3873500D01*
X5950640Y-3853192D01*
X5945058Y-3833575D01*
X5935967Y-3815318D01*
X5928444Y-3805356D01*
X5923676Y-3799042D01*
X5908604Y-3785302D01*
X5908604Y-3785302D01*
X5891264Y-3774565D01*
X5891263Y-3774565D01*
X5878677Y-3769689D01*
X5872246Y-3767198D01*
X5852198Y-3763450D01*
X5831802Y-3763450D01*
X5811754Y-3767198D01*
X5811754Y-3767198D01*
X5811754Y-3767198D01*
X5792736Y-3774565D01*
X5792736Y-3774565D01*
X5775396Y-3785302D01*
X5775396Y-3785302D01*
X5760324Y-3799042D01*
X5748033Y-3815318D01*
X5738942Y-3833574D01*
X5738942Y-3833575D01*
X5733360Y-3853192D01*
X5731478Y-3873500D01*
X5731478Y-3873500D01*
X5698050Y-3873500D01*
X5698050Y-3808713D01*
X5697516Y-3803747D01*
X5697409Y-3802752D01*
X5692380Y-3789267D01*
X5692379Y-3789266D01*
X5683755Y-3777745D01*
X5683754Y-3777745D01*
X5672233Y-3769121D01*
X5672233Y-3769120D01*
X5658748Y-3764091D01*
X5658748Y-3764091D01*
X5653115Y-3763485D01*
X5646660Y-3760811D01*
X5642675Y-3755072D01*
X5642425Y-3748090D01*
X5645991Y-3742081D01*
X5649200Y-3739918D01*
X5655758Y-3736860D01*
X5655758Y-3736860D01*
X5664137Y-3730993D01*
X5664137Y-3730992D01*
X5601253Y-3668109D01*
X5602231Y-3667968D01*
X5615310Y-3661995D01*
X5626176Y-3652580D01*
X5633949Y-3640484D01*
X5636308Y-3632452D01*
X5699492Y-3695637D01*
X5699493Y-3695637D01*
X5705360Y-3687258D01*
X5705360Y-3687258D01*
X5715343Y-3665849D01*
X5715343Y-3665849D01*
X5716241Y-3662499D01*
X5719877Y-3656533D01*
X5726162Y-3653480D01*
X5733099Y-3654309D01*
X5738487Y-3658758D01*
X5739318Y-3660181D01*
X5748033Y-3677682D01*
X5760324Y-3693958D01*
X5775396Y-3707698D01*
X5775396Y-3707698D01*
X5785314Y-3713839D01*
X5792736Y-3718435D01*
X5811754Y-3725802D01*
X5831802Y-3729550D01*
X5831803Y-3729550D01*
X5852197Y-3729550D01*
X5852198Y-3729550D01*
X5872246Y-3725802D01*
X5891264Y-3718435D01*
X5908604Y-3707698D01*
X5923676Y-3693958D01*
X5935967Y-3677682D01*
X5945058Y-3659425D01*
X5950640Y-3639808D01*
X5952521Y-3619500D01*
X5985478Y-3619500D01*
X5987360Y-3639808D01*
X5992942Y-3659425D01*
X5992942Y-3659426D01*
X6002033Y-3677682D01*
X6014324Y-3693958D01*
X6029396Y-3707698D01*
X6029396Y-3707698D01*
X6039314Y-3713839D01*
X6046736Y-3718435D01*
X6065754Y-3725802D01*
X6085802Y-3729550D01*
X6085803Y-3729550D01*
X6106197Y-3729550D01*
X6106198Y-3729550D01*
X6126246Y-3725802D01*
X6145264Y-3718435D01*
X6162604Y-3707698D01*
X6177676Y-3693958D01*
X6189967Y-3677682D01*
X6199058Y-3659425D01*
X6204640Y-3639808D01*
X6206521Y-3619500D01*
X6239478Y-3619500D01*
X6241360Y-3639808D01*
X6246942Y-3659425D01*
X6246942Y-3659426D01*
X6256033Y-3677682D01*
X6268324Y-3693958D01*
X6283396Y-3707698D01*
X6283396Y-3707698D01*
X6293314Y-3713839D01*
X6300736Y-3718435D01*
X6319754Y-3725802D01*
X6339802Y-3729550D01*
X6339803Y-3729550D01*
X6360197Y-3729550D01*
X6360198Y-3729550D01*
X6380246Y-3725802D01*
X6399264Y-3718435D01*
X6416604Y-3707698D01*
X6417405Y-3706968D01*
X7763950Y-3706968D01*
X7765403Y-3714273D01*
X7765403Y-3714274D01*
X7765403Y-3714274D01*
X7770940Y-3722560D01*
X7779226Y-3728097D01*
X7779226Y-3728097D01*
X7779226Y-3728097D01*
X7786532Y-3729550D01*
X7786532Y-3729550D01*
X7786533Y-3729550D01*
X7961468Y-3729550D01*
X7961468Y-3729550D01*
X7968774Y-3728097D01*
X7977060Y-3722560D01*
X7982597Y-3714274D01*
X7984050Y-3706967D01*
X7984050Y-3532033D01*
X7984050Y-3532032D01*
X7984050Y-3532032D01*
X7982597Y-3524726D01*
X7982597Y-3524726D01*
X7977060Y-3516440D01*
X7968774Y-3510903D01*
X7968774Y-3510903D01*
X7968773Y-3510903D01*
X7961468Y-3509450D01*
X7961467Y-3509450D01*
X7786533Y-3509450D01*
X7786532Y-3509450D01*
X7779226Y-3510903D01*
X7779226Y-3510903D01*
X7770940Y-3516440D01*
X7765403Y-3524726D01*
X7765403Y-3524726D01*
X7763950Y-3532032D01*
X7763950Y-3706968D01*
X6417405Y-3706968D01*
X6431676Y-3693958D01*
X6443967Y-3677682D01*
X6453058Y-3659425D01*
X6458640Y-3639808D01*
X6460521Y-3619500D01*
X6458640Y-3599192D01*
X6453058Y-3579575D01*
X6449860Y-3573152D01*
X6444021Y-3561427D01*
X6443967Y-3561318D01*
X6431676Y-3545042D01*
X6431676Y-3545042D01*
X6416604Y-3531302D01*
X6416604Y-3531302D01*
X6399264Y-3520565D01*
X6399263Y-3520565D01*
X6387615Y-3516053D01*
X6380246Y-3513198D01*
X6360198Y-3509450D01*
X6339802Y-3509450D01*
X6319754Y-3513198D01*
X6319754Y-3513198D01*
X6319754Y-3513198D01*
X6300736Y-3520565D01*
X6300736Y-3520565D01*
X6283396Y-3531302D01*
X6283396Y-3531302D01*
X6268324Y-3545042D01*
X6256033Y-3561318D01*
X6246942Y-3579574D01*
X6246942Y-3579575D01*
X6241360Y-3599192D01*
X6239478Y-3619500D01*
X6239478Y-3619500D01*
X6206521Y-3619500D01*
X6204640Y-3599192D01*
X6199058Y-3579575D01*
X6195860Y-3573152D01*
X6190021Y-3561427D01*
X6189967Y-3561318D01*
X6177676Y-3545042D01*
X6177676Y-3545042D01*
X6162604Y-3531302D01*
X6162604Y-3531302D01*
X6145264Y-3520565D01*
X6145263Y-3520565D01*
X6133615Y-3516053D01*
X6126246Y-3513198D01*
X6106198Y-3509450D01*
X6085802Y-3509450D01*
X6065754Y-3513198D01*
X6065754Y-3513198D01*
X6065754Y-3513198D01*
X6046736Y-3520565D01*
X6046736Y-3520565D01*
X6029396Y-3531302D01*
X6029396Y-3531302D01*
X6014324Y-3545042D01*
X6002033Y-3561318D01*
X5992942Y-3579574D01*
X5992942Y-3579575D01*
X5987360Y-3599192D01*
X5985478Y-3619500D01*
X5985478Y-3619500D01*
X5952521Y-3619500D01*
X5950640Y-3599192D01*
X5945058Y-3579575D01*
X5941860Y-3573152D01*
X5936021Y-3561427D01*
X5935967Y-3561318D01*
X5923676Y-3545042D01*
X5923676Y-3545042D01*
X5908604Y-3531302D01*
X5908604Y-3531302D01*
X5891264Y-3520565D01*
X5891263Y-3520565D01*
X5879615Y-3516053D01*
X5872246Y-3513198D01*
X5852198Y-3509450D01*
X5831802Y-3509450D01*
X5824027Y-3510903D01*
X5811753Y-3513198D01*
X5811202Y-3513355D01*
X5811158Y-3513199D01*
X5804952Y-3513719D01*
X5798779Y-3510446D01*
X5798671Y-3510339D01*
X5745449Y-3457117D01*
X5740668Y-3453589D01*
X5736997Y-3450880D01*
X5736997Y-3450879D01*
X5723752Y-3446245D01*
X5723752Y-3446245D01*
X5709729Y-3445720D01*
X5696175Y-3449352D01*
X5695456Y-3449803D01*
X5694269Y-3450549D01*
X5687672Y-3452450D01*
X5203595Y-3452450D01*
X5203592Y-3452450D01*
X5200656Y-3452450D01*
X5198550Y-3453135D01*
X5196658Y-3453589D01*
X5194470Y-3453935D01*
X5194470Y-3453935D01*
X5192495Y-3454941D01*
X5190699Y-3455685D01*
X5188591Y-3456370D01*
X5186798Y-3457673D01*
X5185140Y-3458689D01*
X5183166Y-3459695D01*
X5183166Y-3459695D01*
X5179165Y-3463695D01*
X5179165Y-3463696D01*
X5049451Y-3593409D01*
X5049451Y-3593409D01*
X5048323Y-3594538D01*
X5047195Y-3595666D01*
X5047195Y-3595666D01*
X5046189Y-3597640D01*
X5045173Y-3599298D01*
X5043871Y-3601090D01*
X5043870Y-3601091D01*
X5043185Y-3603199D01*
X5042441Y-3604995D01*
X5041435Y-3606969D01*
X5041089Y-3609158D01*
X5040635Y-3611049D01*
X5039950Y-3613157D01*
X5039950Y-3879843D01*
X4912050Y-3879843D01*
X4912050Y-3331950D01*
X4914019Y-3325246D01*
X4919299Y-3320671D01*
X4924450Y-3319550D01*
X9082161Y-3319550D01*
X9088865Y-3321518D01*
G37*
%TD.AperFunction*%
%TD*%
M02*
