%TF.GenerationSoftware,KiCad,Pcbnew,7.0.3*%
%TF.CreationDate,2023-05-15T17:39:43+02:00*%
%TF.ProjectId,PRO_MCU,50524f5f-4d43-4552-9e6b-696361645f70,rev?*%
%TF.SameCoordinates,Original*%
%TF.FileFunction,Legend,Top*%
%TF.FilePolarity,Positive*%
%FSLAX45Y45*%
G04 Gerber Fmt 4.5, Leading zero omitted, Abs format (unit mm)*
G04 Created by KiCad (PCBNEW 7.0.3) date 2023-05-15 17:39:43*
%MOMM*%
%LPD*%
G01*
G04 APERTURE LIST*
%ADD10C,0.150000*%
%ADD11C,0.120000*%
%ADD12C,0.100000*%
G04 APERTURE END LIST*
D10*
%TO.C,D1*%
X12128059Y-6204982D02*
X12128059Y-6104982D01*
X12128059Y-6104982D02*
X12151868Y-6104982D01*
X12151868Y-6104982D02*
X12166154Y-6109744D01*
X12166154Y-6109744D02*
X12175678Y-6119268D01*
X12175678Y-6119268D02*
X12180440Y-6128791D01*
X12180440Y-6128791D02*
X12185202Y-6147839D01*
X12185202Y-6147839D02*
X12185202Y-6162125D01*
X12185202Y-6162125D02*
X12180440Y-6181172D01*
X12180440Y-6181172D02*
X12175678Y-6190696D01*
X12175678Y-6190696D02*
X12166154Y-6200220D01*
X12166154Y-6200220D02*
X12151868Y-6204982D01*
X12151868Y-6204982D02*
X12128059Y-6204982D01*
X12280440Y-6204982D02*
X12223297Y-6204982D01*
X12251868Y-6204982D02*
X12251868Y-6104982D01*
X12251868Y-6104982D02*
X12242345Y-6119268D01*
X12242345Y-6119268D02*
X12232821Y-6128791D01*
X12232821Y-6128791D02*
X12223297Y-6133553D01*
%TO.C,C2*%
X7264202Y-4077458D02*
X7259440Y-4082220D01*
X7259440Y-4082220D02*
X7245154Y-4086982D01*
X7245154Y-4086982D02*
X7235630Y-4086982D01*
X7235630Y-4086982D02*
X7221345Y-4082220D01*
X7221345Y-4082220D02*
X7211821Y-4072696D01*
X7211821Y-4072696D02*
X7207059Y-4063172D01*
X7207059Y-4063172D02*
X7202297Y-4044125D01*
X7202297Y-4044125D02*
X7202297Y-4029839D01*
X7202297Y-4029839D02*
X7207059Y-4010791D01*
X7207059Y-4010791D02*
X7211821Y-4001268D01*
X7211821Y-4001268D02*
X7221345Y-3991744D01*
X7221345Y-3991744D02*
X7235630Y-3986982D01*
X7235630Y-3986982D02*
X7245154Y-3986982D01*
X7245154Y-3986982D02*
X7259440Y-3991744D01*
X7259440Y-3991744D02*
X7264202Y-3996506D01*
X7302297Y-3996506D02*
X7307059Y-3991744D01*
X7307059Y-3991744D02*
X7316583Y-3986982D01*
X7316583Y-3986982D02*
X7340392Y-3986982D01*
X7340392Y-3986982D02*
X7349916Y-3991744D01*
X7349916Y-3991744D02*
X7354678Y-3996506D01*
X7354678Y-3996506D02*
X7359440Y-4006029D01*
X7359440Y-4006029D02*
X7359440Y-4015553D01*
X7359440Y-4015553D02*
X7354678Y-4029839D01*
X7354678Y-4029839D02*
X7297535Y-4086982D01*
X7297535Y-4086982D02*
X7359440Y-4086982D01*
%TO.C,Q1*%
X10160345Y-7230506D02*
X10150821Y-7225744D01*
X10150821Y-7225744D02*
X10141297Y-7216220D01*
X10141297Y-7216220D02*
X10127011Y-7201934D01*
X10127011Y-7201934D02*
X10117487Y-7197172D01*
X10117487Y-7197172D02*
X10107964Y-7197172D01*
X10112726Y-7220982D02*
X10103202Y-7216220D01*
X10103202Y-7216220D02*
X10093678Y-7206696D01*
X10093678Y-7206696D02*
X10088916Y-7187648D01*
X10088916Y-7187648D02*
X10088916Y-7154315D01*
X10088916Y-7154315D02*
X10093678Y-7135268D01*
X10093678Y-7135268D02*
X10103202Y-7125744D01*
X10103202Y-7125744D02*
X10112726Y-7120982D01*
X10112726Y-7120982D02*
X10131773Y-7120982D01*
X10131773Y-7120982D02*
X10141297Y-7125744D01*
X10141297Y-7125744D02*
X10150821Y-7135268D01*
X10150821Y-7135268D02*
X10155583Y-7154315D01*
X10155583Y-7154315D02*
X10155583Y-7187648D01*
X10155583Y-7187648D02*
X10150821Y-7206696D01*
X10150821Y-7206696D02*
X10141297Y-7216220D01*
X10141297Y-7216220D02*
X10131773Y-7220982D01*
X10131773Y-7220982D02*
X10112726Y-7220982D01*
X10250821Y-7220982D02*
X10193678Y-7220982D01*
X10222249Y-7220982D02*
X10222249Y-7120982D01*
X10222249Y-7120982D02*
X10212726Y-7135268D01*
X10212726Y-7135268D02*
X10203202Y-7144791D01*
X10203202Y-7144791D02*
X10193678Y-7149553D01*
%TO.C,C1*%
X7264202Y-4839458D02*
X7259440Y-4844220D01*
X7259440Y-4844220D02*
X7245154Y-4848982D01*
X7245154Y-4848982D02*
X7235630Y-4848982D01*
X7235630Y-4848982D02*
X7221345Y-4844220D01*
X7221345Y-4844220D02*
X7211821Y-4834696D01*
X7211821Y-4834696D02*
X7207059Y-4825172D01*
X7207059Y-4825172D02*
X7202297Y-4806125D01*
X7202297Y-4806125D02*
X7202297Y-4791839D01*
X7202297Y-4791839D02*
X7207059Y-4772791D01*
X7207059Y-4772791D02*
X7211821Y-4763268D01*
X7211821Y-4763268D02*
X7221345Y-4753744D01*
X7221345Y-4753744D02*
X7235630Y-4748982D01*
X7235630Y-4748982D02*
X7245154Y-4748982D01*
X7245154Y-4748982D02*
X7259440Y-4753744D01*
X7259440Y-4753744D02*
X7264202Y-4758506D01*
X7359440Y-4848982D02*
X7302297Y-4848982D01*
X7330868Y-4848982D02*
X7330868Y-4748982D01*
X7330868Y-4748982D02*
X7321345Y-4763268D01*
X7321345Y-4763268D02*
X7311821Y-4772791D01*
X7311821Y-4772791D02*
X7302297Y-4777553D01*
%TO.C,U1*%
X10474678Y-5215982D02*
X10474678Y-5296934D01*
X10474678Y-5296934D02*
X10479440Y-5306458D01*
X10479440Y-5306458D02*
X10484202Y-5311220D01*
X10484202Y-5311220D02*
X10493726Y-5315982D01*
X10493726Y-5315982D02*
X10512773Y-5315982D01*
X10512773Y-5315982D02*
X10522297Y-5311220D01*
X10522297Y-5311220D02*
X10527059Y-5306458D01*
X10527059Y-5306458D02*
X10531821Y-5296934D01*
X10531821Y-5296934D02*
X10531821Y-5215982D01*
X10631821Y-5315982D02*
X10574678Y-5315982D01*
X10603249Y-5315982D02*
X10603249Y-5215982D01*
X10603249Y-5215982D02*
X10593726Y-5230268D01*
X10593726Y-5230268D02*
X10584202Y-5239791D01*
X10584202Y-5239791D02*
X10574678Y-5244553D01*
%TO.C,R2*%
X10915202Y-7220982D02*
X10881868Y-7173363D01*
X10858059Y-7220982D02*
X10858059Y-7120982D01*
X10858059Y-7120982D02*
X10896154Y-7120982D01*
X10896154Y-7120982D02*
X10905678Y-7125744D01*
X10905678Y-7125744D02*
X10910440Y-7130506D01*
X10910440Y-7130506D02*
X10915202Y-7140029D01*
X10915202Y-7140029D02*
X10915202Y-7154315D01*
X10915202Y-7154315D02*
X10910440Y-7163839D01*
X10910440Y-7163839D02*
X10905678Y-7168601D01*
X10905678Y-7168601D02*
X10896154Y-7173363D01*
X10896154Y-7173363D02*
X10858059Y-7173363D01*
X10953297Y-7130506D02*
X10958059Y-7125744D01*
X10958059Y-7125744D02*
X10967583Y-7120982D01*
X10967583Y-7120982D02*
X10991392Y-7120982D01*
X10991392Y-7120982D02*
X11000916Y-7125744D01*
X11000916Y-7125744D02*
X11005678Y-7130506D01*
X11005678Y-7130506D02*
X11010440Y-7140029D01*
X11010440Y-7140029D02*
X11010440Y-7149553D01*
X11010440Y-7149553D02*
X11005678Y-7163839D01*
X11005678Y-7163839D02*
X10948535Y-7220982D01*
X10948535Y-7220982D02*
X11010440Y-7220982D01*
%TO.C,D2*%
X12128059Y-6966982D02*
X12128059Y-6866982D01*
X12128059Y-6866982D02*
X12151868Y-6866982D01*
X12151868Y-6866982D02*
X12166154Y-6871744D01*
X12166154Y-6871744D02*
X12175678Y-6881268D01*
X12175678Y-6881268D02*
X12180440Y-6890791D01*
X12180440Y-6890791D02*
X12185202Y-6909839D01*
X12185202Y-6909839D02*
X12185202Y-6924125D01*
X12185202Y-6924125D02*
X12180440Y-6943172D01*
X12180440Y-6943172D02*
X12175678Y-6952696D01*
X12175678Y-6952696D02*
X12166154Y-6962220D01*
X12166154Y-6962220D02*
X12151868Y-6966982D01*
X12151868Y-6966982D02*
X12128059Y-6966982D01*
X12223297Y-6876506D02*
X12228059Y-6871744D01*
X12228059Y-6871744D02*
X12237583Y-6866982D01*
X12237583Y-6866982D02*
X12261392Y-6866982D01*
X12261392Y-6866982D02*
X12270916Y-6871744D01*
X12270916Y-6871744D02*
X12275678Y-6876506D01*
X12275678Y-6876506D02*
X12280440Y-6886029D01*
X12280440Y-6886029D02*
X12280440Y-6895553D01*
X12280440Y-6895553D02*
X12275678Y-6909839D01*
X12275678Y-6909839D02*
X12218535Y-6966982D01*
X12218535Y-6966982D02*
X12280440Y-6966982D01*
%TO.C,U3*%
X8569678Y-4987382D02*
X8569678Y-5068334D01*
X8569678Y-5068334D02*
X8574440Y-5077858D01*
X8574440Y-5077858D02*
X8579202Y-5082620D01*
X8579202Y-5082620D02*
X8588726Y-5087382D01*
X8588726Y-5087382D02*
X8607773Y-5087382D01*
X8607773Y-5087382D02*
X8617297Y-5082620D01*
X8617297Y-5082620D02*
X8622059Y-5077858D01*
X8622059Y-5077858D02*
X8626821Y-5068334D01*
X8626821Y-5068334D02*
X8626821Y-4987382D01*
X8664916Y-4987382D02*
X8726821Y-4987382D01*
X8726821Y-4987382D02*
X8693487Y-5025477D01*
X8693487Y-5025477D02*
X8707773Y-5025477D01*
X8707773Y-5025477D02*
X8717297Y-5030239D01*
X8717297Y-5030239D02*
X8722059Y-5035001D01*
X8722059Y-5035001D02*
X8726821Y-5044525D01*
X8726821Y-5044525D02*
X8726821Y-5068334D01*
X8726821Y-5068334D02*
X8722059Y-5077858D01*
X8722059Y-5077858D02*
X8717297Y-5082620D01*
X8717297Y-5082620D02*
X8707773Y-5087382D01*
X8707773Y-5087382D02*
X8679202Y-5087382D01*
X8679202Y-5087382D02*
X8669678Y-5082620D01*
X8669678Y-5082620D02*
X8664916Y-5077858D01*
X8357773Y-4122182D02*
X8357773Y-4022182D01*
X8391106Y-4055515D02*
X8429202Y-4055515D01*
X8405392Y-4022182D02*
X8405392Y-4107896D01*
X8405392Y-4107896D02*
X8410154Y-4117420D01*
X8410154Y-4117420D02*
X8419678Y-4122182D01*
X8419678Y-4122182D02*
X8429202Y-4122182D01*
X8457773Y-4117420D02*
X8467297Y-4122182D01*
X8467297Y-4122182D02*
X8486345Y-4122182D01*
X8486345Y-4122182D02*
X8495868Y-4117420D01*
X8495868Y-4117420D02*
X8500630Y-4107896D01*
X8500630Y-4107896D02*
X8500630Y-4103134D01*
X8500630Y-4103134D02*
X8495868Y-4093610D01*
X8495868Y-4093610D02*
X8486345Y-4088848D01*
X8486345Y-4088848D02*
X8472059Y-4088848D01*
X8472059Y-4088848D02*
X8462535Y-4084087D01*
X8462535Y-4084087D02*
X8457773Y-4074563D01*
X8457773Y-4074563D02*
X8457773Y-4069801D01*
X8457773Y-4069801D02*
X8462535Y-4060277D01*
X8462535Y-4060277D02*
X8472059Y-4055515D01*
X8472059Y-4055515D02*
X8486345Y-4055515D01*
X8486345Y-4055515D02*
X8495868Y-4060277D01*
X8533964Y-4055515D02*
X8557773Y-4122182D01*
X8581583Y-4055515D02*
X8557773Y-4122182D01*
X8557773Y-4122182D02*
X8548249Y-4145991D01*
X8548249Y-4145991D02*
X8543487Y-4150753D01*
X8543487Y-4150753D02*
X8533964Y-4155515D01*
X8653011Y-4069801D02*
X8667297Y-4074563D01*
X8667297Y-4074563D02*
X8672059Y-4079325D01*
X8672059Y-4079325D02*
X8676821Y-4088848D01*
X8676821Y-4088848D02*
X8676821Y-4103134D01*
X8676821Y-4103134D02*
X8672059Y-4112658D01*
X8672059Y-4112658D02*
X8667297Y-4117420D01*
X8667297Y-4117420D02*
X8657773Y-4122182D01*
X8657773Y-4122182D02*
X8619678Y-4122182D01*
X8619678Y-4122182D02*
X8619678Y-4022182D01*
X8619678Y-4022182D02*
X8653011Y-4022182D01*
X8653011Y-4022182D02*
X8662535Y-4026944D01*
X8662535Y-4026944D02*
X8667297Y-4031706D01*
X8667297Y-4031706D02*
X8672059Y-4041229D01*
X8672059Y-4041229D02*
X8672059Y-4050753D01*
X8672059Y-4050753D02*
X8667297Y-4060277D01*
X8667297Y-4060277D02*
X8662535Y-4065039D01*
X8662535Y-4065039D02*
X8653011Y-4069801D01*
X8653011Y-4069801D02*
X8619678Y-4069801D01*
X8719678Y-4122182D02*
X8719678Y-4055515D01*
X8719678Y-4022182D02*
X8714916Y-4026944D01*
X8714916Y-4026944D02*
X8719678Y-4031706D01*
X8719678Y-4031706D02*
X8724440Y-4026944D01*
X8724440Y-4026944D02*
X8719678Y-4022182D01*
X8719678Y-4022182D02*
X8719678Y-4031706D01*
X8753011Y-4055515D02*
X8791106Y-4055515D01*
X8767297Y-4022182D02*
X8767297Y-4107896D01*
X8767297Y-4107896D02*
X8772059Y-4117420D01*
X8772059Y-4117420D02*
X8781583Y-4122182D01*
X8781583Y-4122182D02*
X8791106Y-4122182D01*
X8819678Y-4117420D02*
X8829202Y-4122182D01*
X8829202Y-4122182D02*
X8848249Y-4122182D01*
X8848249Y-4122182D02*
X8857773Y-4117420D01*
X8857773Y-4117420D02*
X8862535Y-4107896D01*
X8862535Y-4107896D02*
X8862535Y-4103134D01*
X8862535Y-4103134D02*
X8857773Y-4093610D01*
X8857773Y-4093610D02*
X8848249Y-4088848D01*
X8848249Y-4088848D02*
X8833964Y-4088848D01*
X8833964Y-4088848D02*
X8824440Y-4084087D01*
X8824440Y-4084087D02*
X8819678Y-4074563D01*
X8819678Y-4074563D02*
X8819678Y-4069801D01*
X8819678Y-4069801D02*
X8824440Y-4060277D01*
X8824440Y-4060277D02*
X8833964Y-4055515D01*
X8833964Y-4055515D02*
X8848249Y-4055515D01*
X8848249Y-4055515D02*
X8857773Y-4060277D01*
X8895868Y-4055515D02*
X8919678Y-4122182D01*
X8943487Y-4055515D02*
X8919678Y-4122182D01*
X8919678Y-4122182D02*
X8910154Y-4145991D01*
X8910154Y-4145991D02*
X8905392Y-4150753D01*
X8905392Y-4150753D02*
X8895868Y-4155515D01*
X8248249Y-4325382D02*
X8248249Y-4225382D01*
X8248249Y-4225382D02*
X8305392Y-4325382D01*
X8305392Y-4325382D02*
X8305392Y-4225382D01*
X8410154Y-4325382D02*
X8376821Y-4277763D01*
X8353011Y-4325382D02*
X8353011Y-4225382D01*
X8353011Y-4225382D02*
X8391106Y-4225382D01*
X8391106Y-4225382D02*
X8400630Y-4230144D01*
X8400630Y-4230144D02*
X8405392Y-4234906D01*
X8405392Y-4234906D02*
X8410154Y-4244430D01*
X8410154Y-4244430D02*
X8410154Y-4258715D01*
X8410154Y-4258715D02*
X8405392Y-4268239D01*
X8405392Y-4268239D02*
X8400630Y-4273001D01*
X8400630Y-4273001D02*
X8391106Y-4277763D01*
X8391106Y-4277763D02*
X8353011Y-4277763D01*
X8486345Y-4273001D02*
X8453011Y-4273001D01*
X8453011Y-4325382D02*
X8453011Y-4225382D01*
X8453011Y-4225382D02*
X8500630Y-4225382D01*
X8514916Y-4334906D02*
X8591106Y-4334906D01*
X8662535Y-4225382D02*
X8614916Y-4225382D01*
X8614916Y-4225382D02*
X8610154Y-4273001D01*
X8610154Y-4273001D02*
X8614916Y-4268239D01*
X8614916Y-4268239D02*
X8624440Y-4263477D01*
X8624440Y-4263477D02*
X8648249Y-4263477D01*
X8648249Y-4263477D02*
X8657773Y-4268239D01*
X8657773Y-4268239D02*
X8662535Y-4273001D01*
X8662535Y-4273001D02*
X8667297Y-4282525D01*
X8667297Y-4282525D02*
X8667297Y-4306334D01*
X8667297Y-4306334D02*
X8662535Y-4315858D01*
X8662535Y-4315858D02*
X8657773Y-4320620D01*
X8657773Y-4320620D02*
X8648249Y-4325382D01*
X8648249Y-4325382D02*
X8624440Y-4325382D01*
X8624440Y-4325382D02*
X8614916Y-4320620D01*
X8614916Y-4320620D02*
X8610154Y-4315858D01*
X8705392Y-4234906D02*
X8710154Y-4230144D01*
X8710154Y-4230144D02*
X8719678Y-4225382D01*
X8719678Y-4225382D02*
X8743487Y-4225382D01*
X8743487Y-4225382D02*
X8753011Y-4230144D01*
X8753011Y-4230144D02*
X8757773Y-4234906D01*
X8757773Y-4234906D02*
X8762535Y-4244430D01*
X8762535Y-4244430D02*
X8762535Y-4253953D01*
X8762535Y-4253953D02*
X8757773Y-4268239D01*
X8757773Y-4268239D02*
X8700630Y-4325382D01*
X8700630Y-4325382D02*
X8762535Y-4325382D01*
X8819678Y-4268239D02*
X8810154Y-4263477D01*
X8810154Y-4263477D02*
X8805392Y-4258715D01*
X8805392Y-4258715D02*
X8800630Y-4249191D01*
X8800630Y-4249191D02*
X8800630Y-4244430D01*
X8800630Y-4244430D02*
X8805392Y-4234906D01*
X8805392Y-4234906D02*
X8810154Y-4230144D01*
X8810154Y-4230144D02*
X8819678Y-4225382D01*
X8819678Y-4225382D02*
X8838726Y-4225382D01*
X8838726Y-4225382D02*
X8848249Y-4230144D01*
X8848249Y-4230144D02*
X8853011Y-4234906D01*
X8853011Y-4234906D02*
X8857773Y-4244430D01*
X8857773Y-4244430D02*
X8857773Y-4249191D01*
X8857773Y-4249191D02*
X8853011Y-4258715D01*
X8853011Y-4258715D02*
X8848249Y-4263477D01*
X8848249Y-4263477D02*
X8838726Y-4268239D01*
X8838726Y-4268239D02*
X8819678Y-4268239D01*
X8819678Y-4268239D02*
X8810154Y-4273001D01*
X8810154Y-4273001D02*
X8805392Y-4277763D01*
X8805392Y-4277763D02*
X8800630Y-4287287D01*
X8800630Y-4287287D02*
X8800630Y-4306334D01*
X8800630Y-4306334D02*
X8805392Y-4315858D01*
X8805392Y-4315858D02*
X8810154Y-4320620D01*
X8810154Y-4320620D02*
X8819678Y-4325382D01*
X8819678Y-4325382D02*
X8838726Y-4325382D01*
X8838726Y-4325382D02*
X8848249Y-4320620D01*
X8848249Y-4320620D02*
X8853011Y-4315858D01*
X8853011Y-4315858D02*
X8857773Y-4306334D01*
X8857773Y-4306334D02*
X8857773Y-4287287D01*
X8857773Y-4287287D02*
X8853011Y-4277763D01*
X8853011Y-4277763D02*
X8848249Y-4273001D01*
X8848249Y-4273001D02*
X8838726Y-4268239D01*
X8943487Y-4258715D02*
X8943487Y-4325382D01*
X8919678Y-4220620D02*
X8895868Y-4292049D01*
X8895868Y-4292049D02*
X8957773Y-4292049D01*
X9014916Y-4225382D02*
X9024440Y-4225382D01*
X9024440Y-4225382D02*
X9033964Y-4230144D01*
X9033964Y-4230144D02*
X9038726Y-4234906D01*
X9038726Y-4234906D02*
X9043487Y-4244430D01*
X9043487Y-4244430D02*
X9048249Y-4263477D01*
X9048249Y-4263477D02*
X9048249Y-4287287D01*
X9048249Y-4287287D02*
X9043487Y-4306334D01*
X9043487Y-4306334D02*
X9038726Y-4315858D01*
X9038726Y-4315858D02*
X9033964Y-4320620D01*
X9033964Y-4320620D02*
X9024440Y-4325382D01*
X9024440Y-4325382D02*
X9014916Y-4325382D01*
X9014916Y-4325382D02*
X9005392Y-4320620D01*
X9005392Y-4320620D02*
X9000630Y-4315858D01*
X9000630Y-4315858D02*
X8995868Y-4306334D01*
X8995868Y-4306334D02*
X8991107Y-4287287D01*
X8991107Y-4287287D02*
X8991107Y-4263477D01*
X8991107Y-4263477D02*
X8995868Y-4244430D01*
X8995868Y-4244430D02*
X9000630Y-4234906D01*
X9000630Y-4234906D02*
X9005392Y-4230144D01*
X9005392Y-4230144D02*
X9014916Y-4225382D01*
X8519678Y-3615782D02*
X8519678Y-3696734D01*
X8519678Y-3696734D02*
X8524440Y-3706258D01*
X8524440Y-3706258D02*
X8529202Y-3711020D01*
X8529202Y-3711020D02*
X8538726Y-3715782D01*
X8538726Y-3715782D02*
X8557773Y-3715782D01*
X8557773Y-3715782D02*
X8567297Y-3711020D01*
X8567297Y-3711020D02*
X8572059Y-3706258D01*
X8572059Y-3706258D02*
X8576821Y-3696734D01*
X8576821Y-3696734D02*
X8576821Y-3615782D01*
X8619678Y-3711020D02*
X8633964Y-3715782D01*
X8633964Y-3715782D02*
X8657773Y-3715782D01*
X8657773Y-3715782D02*
X8667297Y-3711020D01*
X8667297Y-3711020D02*
X8672059Y-3706258D01*
X8672059Y-3706258D02*
X8676821Y-3696734D01*
X8676821Y-3696734D02*
X8676821Y-3687210D01*
X8676821Y-3687210D02*
X8672059Y-3677687D01*
X8672059Y-3677687D02*
X8667297Y-3672925D01*
X8667297Y-3672925D02*
X8657773Y-3668163D01*
X8657773Y-3668163D02*
X8638726Y-3663401D01*
X8638726Y-3663401D02*
X8629202Y-3658639D01*
X8629202Y-3658639D02*
X8624440Y-3653877D01*
X8624440Y-3653877D02*
X8619678Y-3644353D01*
X8619678Y-3644353D02*
X8619678Y-3634829D01*
X8619678Y-3634829D02*
X8624440Y-3625306D01*
X8624440Y-3625306D02*
X8629202Y-3620544D01*
X8629202Y-3620544D02*
X8638726Y-3615782D01*
X8638726Y-3615782D02*
X8662535Y-3615782D01*
X8662535Y-3615782D02*
X8676821Y-3620544D01*
X8753011Y-3663401D02*
X8767297Y-3668163D01*
X8767297Y-3668163D02*
X8772059Y-3672925D01*
X8772059Y-3672925D02*
X8776821Y-3682448D01*
X8776821Y-3682448D02*
X8776821Y-3696734D01*
X8776821Y-3696734D02*
X8772059Y-3706258D01*
X8772059Y-3706258D02*
X8767297Y-3711020D01*
X8767297Y-3711020D02*
X8757773Y-3715782D01*
X8757773Y-3715782D02*
X8719678Y-3715782D01*
X8719678Y-3715782D02*
X8719678Y-3615782D01*
X8719678Y-3615782D02*
X8753011Y-3615782D01*
X8753011Y-3615782D02*
X8762535Y-3620544D01*
X8762535Y-3620544D02*
X8767297Y-3625306D01*
X8767297Y-3625306D02*
X8772059Y-3634829D01*
X8772059Y-3634829D02*
X8772059Y-3644353D01*
X8772059Y-3644353D02*
X8767297Y-3653877D01*
X8767297Y-3653877D02*
X8762535Y-3658639D01*
X8762535Y-3658639D02*
X8753011Y-3663401D01*
X8753011Y-3663401D02*
X8719678Y-3663401D01*
%TO.C,U2*%
X12633678Y-4834982D02*
X12633678Y-4915934D01*
X12633678Y-4915934D02*
X12638440Y-4925458D01*
X12638440Y-4925458D02*
X12643202Y-4930220D01*
X12643202Y-4930220D02*
X12652725Y-4934982D01*
X12652725Y-4934982D02*
X12671773Y-4934982D01*
X12671773Y-4934982D02*
X12681297Y-4930220D01*
X12681297Y-4930220D02*
X12686059Y-4925458D01*
X12686059Y-4925458D02*
X12690821Y-4915934D01*
X12690821Y-4915934D02*
X12690821Y-4834982D01*
X12733678Y-4844506D02*
X12738440Y-4839744D01*
X12738440Y-4839744D02*
X12747964Y-4834982D01*
X12747964Y-4834982D02*
X12771773Y-4834982D01*
X12771773Y-4834982D02*
X12781297Y-4839744D01*
X12781297Y-4839744D02*
X12786059Y-4844506D01*
X12786059Y-4844506D02*
X12790821Y-4854030D01*
X12790821Y-4854030D02*
X12790821Y-4863553D01*
X12790821Y-4863553D02*
X12786059Y-4877839D01*
X12786059Y-4877839D02*
X12728916Y-4934982D01*
X12728916Y-4934982D02*
X12790821Y-4934982D01*
%TO.C,10k2*%
X12475725Y-5188982D02*
X12418583Y-5188982D01*
X12447154Y-5188982D02*
X12447154Y-5088982D01*
X12447154Y-5088982D02*
X12437630Y-5103268D01*
X12437630Y-5103268D02*
X12428106Y-5112791D01*
X12428106Y-5112791D02*
X12418583Y-5117553D01*
X12537630Y-5088982D02*
X12547154Y-5088982D01*
X12547154Y-5088982D02*
X12556678Y-5093744D01*
X12556678Y-5093744D02*
X12561440Y-5098506D01*
X12561440Y-5098506D02*
X12566202Y-5108030D01*
X12566202Y-5108030D02*
X12570964Y-5127077D01*
X12570964Y-5127077D02*
X12570964Y-5150887D01*
X12570964Y-5150887D02*
X12566202Y-5169934D01*
X12566202Y-5169934D02*
X12561440Y-5179458D01*
X12561440Y-5179458D02*
X12556678Y-5184220D01*
X12556678Y-5184220D02*
X12547154Y-5188982D01*
X12547154Y-5188982D02*
X12537630Y-5188982D01*
X12537630Y-5188982D02*
X12528106Y-5184220D01*
X12528106Y-5184220D02*
X12523345Y-5179458D01*
X12523345Y-5179458D02*
X12518583Y-5169934D01*
X12518583Y-5169934D02*
X12513821Y-5150887D01*
X12513821Y-5150887D02*
X12513821Y-5127077D01*
X12513821Y-5127077D02*
X12518583Y-5108030D01*
X12518583Y-5108030D02*
X12523345Y-5098506D01*
X12523345Y-5098506D02*
X12528106Y-5093744D01*
X12528106Y-5093744D02*
X12537630Y-5088982D01*
X12613821Y-5188982D02*
X12613821Y-5088982D01*
X12623345Y-5150887D02*
X12651916Y-5188982D01*
X12651916Y-5122315D02*
X12613821Y-5160410D01*
X12690011Y-5098506D02*
X12694773Y-5093744D01*
X12694773Y-5093744D02*
X12704297Y-5088982D01*
X12704297Y-5088982D02*
X12728106Y-5088982D01*
X12728106Y-5088982D02*
X12737630Y-5093744D01*
X12737630Y-5093744D02*
X12742392Y-5098506D01*
X12742392Y-5098506D02*
X12747154Y-5108030D01*
X12747154Y-5108030D02*
X12747154Y-5117553D01*
X12747154Y-5117553D02*
X12742392Y-5131839D01*
X12742392Y-5131839D02*
X12685249Y-5188982D01*
X12685249Y-5188982D02*
X12747154Y-5188982D01*
%TO.C,10k1*%
X12475725Y-5696982D02*
X12418583Y-5696982D01*
X12447154Y-5696982D02*
X12447154Y-5596982D01*
X12447154Y-5596982D02*
X12437630Y-5611268D01*
X12437630Y-5611268D02*
X12428106Y-5620791D01*
X12428106Y-5620791D02*
X12418583Y-5625553D01*
X12537630Y-5596982D02*
X12547154Y-5596982D01*
X12547154Y-5596982D02*
X12556678Y-5601744D01*
X12556678Y-5601744D02*
X12561440Y-5606506D01*
X12561440Y-5606506D02*
X12566202Y-5616029D01*
X12566202Y-5616029D02*
X12570964Y-5635077D01*
X12570964Y-5635077D02*
X12570964Y-5658887D01*
X12570964Y-5658887D02*
X12566202Y-5677934D01*
X12566202Y-5677934D02*
X12561440Y-5687458D01*
X12561440Y-5687458D02*
X12556678Y-5692220D01*
X12556678Y-5692220D02*
X12547154Y-5696982D01*
X12547154Y-5696982D02*
X12537630Y-5696982D01*
X12537630Y-5696982D02*
X12528106Y-5692220D01*
X12528106Y-5692220D02*
X12523345Y-5687458D01*
X12523345Y-5687458D02*
X12518583Y-5677934D01*
X12518583Y-5677934D02*
X12513821Y-5658887D01*
X12513821Y-5658887D02*
X12513821Y-5635077D01*
X12513821Y-5635077D02*
X12518583Y-5616029D01*
X12518583Y-5616029D02*
X12523345Y-5606506D01*
X12523345Y-5606506D02*
X12528106Y-5601744D01*
X12528106Y-5601744D02*
X12537630Y-5596982D01*
X12613821Y-5696982D02*
X12613821Y-5596982D01*
X12623345Y-5658887D02*
X12651916Y-5696982D01*
X12651916Y-5630315D02*
X12613821Y-5668410D01*
X12747154Y-5696982D02*
X12690011Y-5696982D01*
X12718583Y-5696982D02*
X12718583Y-5596982D01*
X12718583Y-5596982D02*
X12709059Y-5611268D01*
X12709059Y-5611268D02*
X12699535Y-5620791D01*
X12699535Y-5620791D02*
X12690011Y-5625553D01*
%TO.C,Q2*%
X10160345Y-6468506D02*
X10150821Y-6463744D01*
X10150821Y-6463744D02*
X10141297Y-6454220D01*
X10141297Y-6454220D02*
X10127011Y-6439934D01*
X10127011Y-6439934D02*
X10117487Y-6435172D01*
X10117487Y-6435172D02*
X10107964Y-6435172D01*
X10112726Y-6458982D02*
X10103202Y-6454220D01*
X10103202Y-6454220D02*
X10093678Y-6444696D01*
X10093678Y-6444696D02*
X10088916Y-6425648D01*
X10088916Y-6425648D02*
X10088916Y-6392315D01*
X10088916Y-6392315D02*
X10093678Y-6373268D01*
X10093678Y-6373268D02*
X10103202Y-6363744D01*
X10103202Y-6363744D02*
X10112726Y-6358982D01*
X10112726Y-6358982D02*
X10131773Y-6358982D01*
X10131773Y-6358982D02*
X10141297Y-6363744D01*
X10141297Y-6363744D02*
X10150821Y-6373268D01*
X10150821Y-6373268D02*
X10155583Y-6392315D01*
X10155583Y-6392315D02*
X10155583Y-6425648D01*
X10155583Y-6425648D02*
X10150821Y-6444696D01*
X10150821Y-6444696D02*
X10141297Y-6454220D01*
X10141297Y-6454220D02*
X10131773Y-6458982D01*
X10131773Y-6458982D02*
X10112726Y-6458982D01*
X10193678Y-6368506D02*
X10198440Y-6363744D01*
X10198440Y-6363744D02*
X10207964Y-6358982D01*
X10207964Y-6358982D02*
X10231773Y-6358982D01*
X10231773Y-6358982D02*
X10241297Y-6363744D01*
X10241297Y-6363744D02*
X10246059Y-6368506D01*
X10246059Y-6368506D02*
X10250821Y-6378029D01*
X10250821Y-6378029D02*
X10250821Y-6387553D01*
X10250821Y-6387553D02*
X10246059Y-6401839D01*
X10246059Y-6401839D02*
X10188916Y-6458982D01*
X10188916Y-6458982D02*
X10250821Y-6458982D01*
%TO.C,R1*%
X10915202Y-6458982D02*
X10881868Y-6411363D01*
X10858059Y-6458982D02*
X10858059Y-6358982D01*
X10858059Y-6358982D02*
X10896154Y-6358982D01*
X10896154Y-6358982D02*
X10905678Y-6363744D01*
X10905678Y-6363744D02*
X10910440Y-6368506D01*
X10910440Y-6368506D02*
X10915202Y-6378029D01*
X10915202Y-6378029D02*
X10915202Y-6392315D01*
X10915202Y-6392315D02*
X10910440Y-6401839D01*
X10910440Y-6401839D02*
X10905678Y-6406601D01*
X10905678Y-6406601D02*
X10896154Y-6411363D01*
X10896154Y-6411363D02*
X10858059Y-6411363D01*
X11010440Y-6458982D02*
X10953297Y-6458982D01*
X10981868Y-6458982D02*
X10981868Y-6358982D01*
X10981868Y-6358982D02*
X10972345Y-6373268D01*
X10972345Y-6373268D02*
X10962821Y-6382791D01*
X10962821Y-6382791D02*
X10953297Y-6387553D01*
%TO.C,kibuzzard-646251AC*%
G36*
X12711807Y-6993394D02*
G01*
X12687002Y-6993394D01*
X12653308Y-6993394D01*
X12627709Y-6993394D01*
X12541865Y-6993394D01*
X12473642Y-6993394D01*
X12458998Y-6993394D01*
X12434193Y-6993394D01*
X12391057Y-6993394D01*
X12398498Y-6968589D01*
X12638663Y-6968589D01*
X12653308Y-6968589D01*
X12653308Y-6947515D01*
X12659171Y-6949569D01*
X12664857Y-6950254D01*
X12670006Y-6949718D01*
X12674501Y-6948110D01*
X12681406Y-6942098D01*
X12683817Y-6937841D01*
X12685574Y-6932811D01*
X12686645Y-6927141D01*
X12687002Y-6920964D01*
X12686235Y-6912617D01*
X12683933Y-6905513D01*
X12680097Y-6899652D01*
X12674818Y-6895286D01*
X12668190Y-6892667D01*
X12660213Y-6891794D01*
X12654454Y-6892002D01*
X12648605Y-6892627D01*
X12643172Y-6893580D01*
X12638663Y-6894770D01*
X12638663Y-6968589D01*
X12398498Y-6968589D01*
X12404392Y-6948944D01*
X12458998Y-6948944D01*
X12473642Y-6948944D01*
X12473642Y-6924060D01*
X12478881Y-6924060D01*
X12487685Y-6923405D01*
X12495047Y-6921440D01*
X12500967Y-6918166D01*
X12505300Y-6913424D01*
X12507899Y-6907054D01*
X12508766Y-6899057D01*
X12508106Y-6892984D01*
X12519124Y-6892984D01*
X12519124Y-6924179D01*
X12519362Y-6929656D01*
X12520077Y-6934656D01*
X12523589Y-6942931D01*
X12530554Y-6948349D01*
X12535585Y-6949777D01*
X12541865Y-6950254D01*
X12548399Y-6949986D01*
X12554426Y-6949182D01*
X12555613Y-6948944D01*
X12575084Y-6948944D01*
X12586990Y-6948944D01*
X12586990Y-6905010D01*
X12588954Y-6904653D01*
X12590681Y-6904534D01*
X12594312Y-6906796D01*
X12595443Y-6914773D01*
X12595443Y-6927632D01*
X12607349Y-6927632D01*
X12607349Y-6916440D01*
X12607111Y-6910368D01*
X12606516Y-6905367D01*
X12608659Y-6904712D01*
X12610921Y-6904534D01*
X12612767Y-6904891D01*
X12614315Y-6906319D01*
X12615386Y-6909415D01*
X12615803Y-6914773D01*
X12615803Y-6948944D01*
X12627709Y-6948944D01*
X12627709Y-6915487D01*
X12627560Y-6910025D01*
X12627114Y-6905307D01*
X12624792Y-6898104D01*
X12620089Y-6893818D01*
X12612469Y-6892389D01*
X12606754Y-6893401D01*
X12601992Y-6895723D01*
X12597765Y-6893163D01*
X12592229Y-6892389D01*
X12584251Y-6893104D01*
X12575084Y-6895128D01*
X12575084Y-6948944D01*
X12555613Y-6948944D01*
X12559769Y-6948110D01*
X12564249Y-6947039D01*
X12564249Y-6892984D01*
X12549485Y-6892984D01*
X12549485Y-6936919D01*
X12542818Y-6937514D01*
X12535614Y-6933763D01*
X12534230Y-6929016D01*
X12533769Y-6922274D01*
X12533769Y-6892984D01*
X12519124Y-6892984D01*
X12508106Y-6892984D01*
X12507906Y-6891139D01*
X12505326Y-6884849D01*
X12501027Y-6880185D01*
X12495166Y-6876977D01*
X12487903Y-6875052D01*
X12479238Y-6874411D01*
X12474595Y-6874530D01*
X12469237Y-6874827D01*
X12463820Y-6875363D01*
X12458998Y-6876197D01*
X12458998Y-6948944D01*
X12404392Y-6948944D01*
X12434193Y-6849606D01*
X12458998Y-6849606D01*
X12687002Y-6849606D01*
X12711807Y-6849606D01*
X12754943Y-6849606D01*
X12711807Y-6993394D01*
G37*
G36*
X12665392Y-6905501D02*
G01*
X12669143Y-6909117D01*
X12671375Y-6914609D01*
X12672119Y-6921440D01*
X12671494Y-6928301D01*
X12669619Y-6933406D01*
X12666434Y-6936576D01*
X12661880Y-6937633D01*
X12657118Y-6937038D01*
X12653308Y-6935490D01*
X12653308Y-6904772D01*
X12656522Y-6904474D01*
X12660094Y-6904295D01*
X12665392Y-6905501D01*
G37*
G36*
X12486159Y-6887820D02*
G01*
X12490252Y-6889829D01*
X12492886Y-6893446D01*
X12493764Y-6898938D01*
X12492871Y-6904727D01*
X12490192Y-6908522D01*
X12485757Y-6910621D01*
X12479595Y-6911320D01*
X12473642Y-6911320D01*
X12473642Y-6887508D01*
X12477274Y-6887210D01*
X12480905Y-6887150D01*
X12486159Y-6887820D01*
G37*
%TO.C,kibuzzard-646251A1*%
G36*
X12743775Y-6225917D02*
G01*
X12718971Y-6225917D01*
X12698016Y-6225917D01*
X12627173Y-6225917D01*
X12583716Y-6225917D01*
X12513826Y-6225917D01*
X12447627Y-6225917D01*
X12427029Y-6225917D01*
X12402225Y-6225917D01*
X12362374Y-6225917D01*
X12392319Y-6126103D01*
X12427029Y-6126103D01*
X12428399Y-6132770D01*
X12430363Y-6141105D01*
X12431937Y-6147342D01*
X12433644Y-6153831D01*
X12435483Y-6160572D01*
X12437427Y-6167444D01*
X12439452Y-6174330D01*
X12441555Y-6181229D01*
X12444680Y-6191052D01*
X12447627Y-6199803D01*
X12462748Y-6199803D01*
X12465023Y-6193459D01*
X12467246Y-6186970D01*
X12468656Y-6182658D01*
X12490252Y-6182658D01*
X12491918Y-6191290D01*
X12496681Y-6197005D01*
X12504122Y-6200160D01*
X12513826Y-6201112D01*
X12521297Y-6200874D01*
X12527994Y-6200160D01*
X12537519Y-6198493D01*
X12537519Y-6165155D01*
X12536329Y-6155690D01*
X12532400Y-6148546D01*
X12525077Y-6144022D01*
X12519913Y-6142816D01*
X12513588Y-6142414D01*
X12508319Y-6142608D01*
X12503229Y-6143188D01*
X12495490Y-6144915D01*
X12497514Y-6156702D01*
X12503765Y-6155273D01*
X12511802Y-6154678D01*
X12517279Y-6155377D01*
X12520851Y-6157476D01*
X12523470Y-6164441D01*
X12523470Y-6166227D01*
X12518737Y-6165513D01*
X12513350Y-6165274D01*
X12504658Y-6166167D01*
X12497276Y-6169084D01*
X12492157Y-6174442D01*
X12490252Y-6182658D01*
X12468656Y-6182658D01*
X12469416Y-6180336D01*
X12471499Y-6173668D01*
X12473464Y-6167080D01*
X12475309Y-6160572D01*
X12477839Y-6151091D01*
X12480072Y-6142057D01*
X12481992Y-6133663D01*
X12483584Y-6126103D01*
X12468225Y-6126103D01*
X12467153Y-6132294D01*
X12465844Y-6139438D01*
X12464355Y-6147162D01*
X12462748Y-6155095D01*
X12461022Y-6163072D01*
X12459176Y-6170930D01*
X12457271Y-6178297D01*
X12455366Y-6184801D01*
X12453446Y-6178208D01*
X12451497Y-6170811D01*
X12449592Y-6162953D01*
X12447806Y-6154976D01*
X12446154Y-6147058D01*
X12444651Y-6139378D01*
X12443400Y-6132279D01*
X12442507Y-6126103D01*
X12427029Y-6126103D01*
X12392319Y-6126103D01*
X12394783Y-6117888D01*
X12548830Y-6117888D01*
X12548830Y-6130032D01*
X12564308Y-6130032D01*
X12564308Y-6177538D01*
X12565469Y-6187703D01*
X12568952Y-6195100D01*
X12574964Y-6199609D01*
X12583716Y-6201112D01*
X12590324Y-6200636D01*
X12595265Y-6199505D01*
X12598539Y-6198255D01*
X12600146Y-6197421D01*
X12598241Y-6185634D01*
X12594312Y-6187182D01*
X12586930Y-6188373D01*
X12581215Y-6186349D01*
X12578953Y-6178609D01*
X12578953Y-6143843D01*
X12605742Y-6143843D01*
X12608276Y-6152129D01*
X12610877Y-6160080D01*
X12613544Y-6167697D01*
X12616279Y-6174978D01*
X12619950Y-6184060D01*
X12623582Y-6192335D01*
X12627173Y-6199803D01*
X12639437Y-6199803D01*
X12643088Y-6192335D01*
X12646898Y-6184060D01*
X12650867Y-6174978D01*
X12651959Y-6172299D01*
X12667297Y-6172299D01*
X12667833Y-6178996D01*
X12669441Y-6184801D01*
X12672045Y-6189727D01*
X12675572Y-6193790D01*
X12679978Y-6196975D01*
X12685216Y-6199267D01*
X12691244Y-6200651D01*
X12698016Y-6201112D01*
X12707660Y-6200219D01*
X12715756Y-6198017D01*
X12713732Y-6185515D01*
X12707005Y-6187420D01*
X12698611Y-6188373D01*
X12692122Y-6187584D01*
X12686943Y-6185217D01*
X12683549Y-6181482D01*
X12682418Y-6176585D01*
X12718732Y-6176585D01*
X12718911Y-6174085D01*
X12718971Y-6171109D01*
X12718256Y-6162490D01*
X12716113Y-6155366D01*
X12712541Y-6149737D01*
X12707593Y-6145669D01*
X12701323Y-6143228D01*
X12693729Y-6142414D01*
X12688788Y-6142891D01*
X12683966Y-6144319D01*
X12679472Y-6146686D01*
X12675513Y-6149975D01*
X12672179Y-6154187D01*
X12669560Y-6159321D01*
X12667863Y-6165364D01*
X12667297Y-6172299D01*
X12651959Y-6172299D01*
X12653836Y-6167697D01*
X12656671Y-6160080D01*
X12659372Y-6152129D01*
X12661940Y-6143843D01*
X12647057Y-6143843D01*
X12645822Y-6148516D01*
X12644259Y-6153487D01*
X12642503Y-6158622D01*
X12640687Y-6163786D01*
X12638827Y-6168891D01*
X12636937Y-6173847D01*
X12633484Y-6182777D01*
X12630209Y-6173847D01*
X12628498Y-6168891D01*
X12626816Y-6163786D01*
X12625194Y-6158622D01*
X12623661Y-6153487D01*
X12622277Y-6148516D01*
X12621101Y-6143843D01*
X12605742Y-6143843D01*
X12578953Y-6143843D01*
X12578953Y-6117888D01*
X12548830Y-6117888D01*
X12394783Y-6117888D01*
X12402225Y-6093083D01*
X12427029Y-6093083D01*
X12718971Y-6093083D01*
X12743775Y-6093083D01*
X12783625Y-6093083D01*
X12743775Y-6225917D01*
G37*
G36*
X12698968Y-6155690D02*
G01*
X12702302Y-6158369D01*
X12704207Y-6162119D01*
X12704802Y-6166465D01*
X12682418Y-6166465D01*
X12683430Y-6162060D01*
X12685574Y-6158250D01*
X12689026Y-6155630D01*
X12693967Y-6154678D01*
X12698968Y-6155690D01*
G37*
G36*
X12520017Y-6175692D02*
G01*
X12523470Y-6176109D01*
X12523470Y-6188968D01*
X12519541Y-6189266D01*
X12514897Y-6189325D01*
X12507516Y-6187718D01*
X12504658Y-6182300D01*
X12505611Y-6178848D01*
X12508170Y-6176824D01*
X12511921Y-6175812D01*
X12516326Y-6175514D01*
X12520017Y-6175692D01*
G37*
%TO.C,kibuzzard-64625122*%
G36*
X7431788Y-7091557D02*
G01*
X7439976Y-7092772D01*
X7448006Y-7094783D01*
X7455799Y-7097571D01*
X7463282Y-7101111D01*
X7470382Y-7105366D01*
X7477031Y-7110297D01*
X7483164Y-7115856D01*
X7488723Y-7121989D01*
X7493654Y-7128638D01*
X7497910Y-7135738D01*
X7501449Y-7143221D01*
X7504237Y-7151015D01*
X7506249Y-7159044D01*
X7507463Y-7167232D01*
X7507870Y-7175500D01*
X7507463Y-7183768D01*
X7506249Y-7191956D01*
X7504237Y-7199985D01*
X7501449Y-7207779D01*
X7497910Y-7215262D01*
X7493654Y-7222362D01*
X7488723Y-7229010D01*
X7483164Y-7235144D01*
X7477031Y-7240703D01*
X7470382Y-7245634D01*
X7463282Y-7249889D01*
X7455799Y-7253428D01*
X7448006Y-7256217D01*
X7439976Y-7258228D01*
X7431788Y-7259443D01*
X7423520Y-7259849D01*
X7390447Y-7259849D01*
X7352665Y-7259849D01*
X7312819Y-7259849D01*
X7199789Y-7259849D01*
X7154069Y-7259849D01*
X7087552Y-7259849D01*
X7054480Y-7259849D01*
X7046212Y-7259443D01*
X7038024Y-7258228D01*
X7029994Y-7256217D01*
X7022201Y-7253428D01*
X7014718Y-7249889D01*
X7007618Y-7245634D01*
X7000969Y-7240703D01*
X6994836Y-7235144D01*
X6989277Y-7229010D01*
X6984346Y-7222362D01*
X6980090Y-7215262D01*
X6976551Y-7207779D01*
X6973762Y-7199985D01*
X6971751Y-7191956D01*
X6970537Y-7183768D01*
X6970130Y-7175500D01*
X6970537Y-7167232D01*
X6971751Y-7159044D01*
X6973762Y-7151015D01*
X6976551Y-7143221D01*
X6979379Y-7137241D01*
X7087552Y-7137241D01*
X7097236Y-7150894D01*
X7107237Y-7143432D01*
X7116921Y-7141210D01*
X7126129Y-7144464D01*
X7129780Y-7153751D01*
X7126843Y-7162165D01*
X7119382Y-7170737D01*
X7114699Y-7175282D01*
X7109698Y-7180024D01*
X7104697Y-7185065D01*
X7100014Y-7190502D01*
X7095887Y-7196395D01*
X7092553Y-7202805D01*
X7090350Y-7209790D01*
X7089616Y-7217410D01*
X7089537Y-7220744D01*
X7089934Y-7224712D01*
X7154069Y-7224712D01*
X7154069Y-7208520D01*
X7111841Y-7208520D01*
X7113508Y-7203281D01*
X7117556Y-7197646D01*
X7122636Y-7192248D01*
X7127399Y-7187724D01*
X7135495Y-7179786D01*
X7139199Y-7175341D01*
X7165657Y-7175341D01*
X7166203Y-7187525D01*
X7167840Y-7198042D01*
X7170569Y-7206893D01*
X7174389Y-7214076D01*
X7181091Y-7221132D01*
X7189558Y-7225365D01*
X7199789Y-7226776D01*
X7210019Y-7225365D01*
X7218486Y-7221132D01*
X7225189Y-7214076D01*
X7229009Y-7206893D01*
X7231737Y-7198042D01*
X7233374Y-7187525D01*
X7233920Y-7175341D01*
X7233374Y-7163232D01*
X7231737Y-7152779D01*
X7229009Y-7143983D01*
X7225401Y-7137241D01*
X7246302Y-7137241D01*
X7255986Y-7150894D01*
X7265987Y-7143432D01*
X7275671Y-7141210D01*
X7284879Y-7144464D01*
X7288530Y-7153751D01*
X7285593Y-7162165D01*
X7278132Y-7170737D01*
X7273449Y-7175282D01*
X7268448Y-7180024D01*
X7263447Y-7185065D01*
X7258764Y-7190502D01*
X7254637Y-7196395D01*
X7251303Y-7202805D01*
X7249100Y-7209790D01*
X7248366Y-7217410D01*
X7248287Y-7220744D01*
X7248684Y-7224712D01*
X7312819Y-7224712D01*
X7312819Y-7221379D01*
X7325360Y-7221379D01*
X7330281Y-7223125D01*
X7337187Y-7224871D01*
X7344966Y-7226221D01*
X7352665Y-7226776D01*
X7361833Y-7226201D01*
X7369651Y-7224474D01*
X7376160Y-7221696D01*
X7381399Y-7217966D01*
X7388225Y-7208044D01*
X7390447Y-7195502D01*
X7389396Y-7187525D01*
X7386241Y-7180739D01*
X7381180Y-7175302D01*
X7374414Y-7171372D01*
X7383304Y-7163117D01*
X7386637Y-7151846D01*
X7384732Y-7140892D01*
X7378859Y-7132082D01*
X7368778Y-7126287D01*
X7362130Y-7124740D01*
X7354411Y-7124224D01*
X7345978Y-7124958D01*
X7338457Y-7127161D01*
X7327106Y-7132955D01*
X7334091Y-7147242D01*
X7343537Y-7142718D01*
X7354570Y-7140892D01*
X7363539Y-7143988D01*
X7366794Y-7152481D01*
X7365286Y-7158514D01*
X7361396Y-7162324D01*
X7355999Y-7164387D01*
X7349966Y-7165022D01*
X7342664Y-7165022D01*
X7342664Y-7181215D01*
X7348696Y-7181215D01*
X7357388Y-7181989D01*
X7364412Y-7184311D01*
X7369056Y-7188577D01*
X7370604Y-7195185D01*
X7366556Y-7205821D01*
X7361019Y-7209036D01*
X7352506Y-7210107D01*
X7344985Y-7209671D01*
X7338616Y-7208361D01*
X7329170Y-7205027D01*
X7325360Y-7221379D01*
X7312819Y-7221379D01*
X7312819Y-7208520D01*
X7270591Y-7208520D01*
X7272258Y-7203281D01*
X7276306Y-7197646D01*
X7281386Y-7192248D01*
X7286149Y-7187724D01*
X7294245Y-7179786D01*
X7301389Y-7171214D01*
X7306469Y-7162086D01*
X7308374Y-7152322D01*
X7305834Y-7140019D01*
X7299007Y-7131209D01*
X7289165Y-7125970D01*
X7277576Y-7124224D01*
X7269301Y-7125017D01*
X7260987Y-7127399D01*
X7253149Y-7131447D01*
X7246302Y-7137241D01*
X7225401Y-7137241D01*
X7225189Y-7136844D01*
X7218486Y-7129833D01*
X7210019Y-7125626D01*
X7199789Y-7124224D01*
X7189717Y-7125635D01*
X7181303Y-7129868D01*
X7174547Y-7136924D01*
X7170658Y-7144087D01*
X7167880Y-7152878D01*
X7166213Y-7163296D01*
X7165657Y-7175341D01*
X7139199Y-7175341D01*
X7142639Y-7171214D01*
X7147719Y-7162086D01*
X7149624Y-7152322D01*
X7147084Y-7140019D01*
X7140257Y-7131209D01*
X7130415Y-7125970D01*
X7118826Y-7124224D01*
X7110551Y-7125017D01*
X7102237Y-7127399D01*
X7094399Y-7131447D01*
X7087552Y-7137241D01*
X6979379Y-7137241D01*
X6980090Y-7135738D01*
X6984346Y-7128638D01*
X6989277Y-7121989D01*
X6994836Y-7115856D01*
X7000969Y-7110297D01*
X7007618Y-7105366D01*
X7014718Y-7101111D01*
X7022201Y-7097571D01*
X7029994Y-7094783D01*
X7038024Y-7092772D01*
X7046212Y-7091557D01*
X7054480Y-7091151D01*
X7087552Y-7091151D01*
X7390447Y-7091151D01*
X7423520Y-7091151D01*
X7431788Y-7091557D01*
G37*
G36*
X7206913Y-7143095D02*
G01*
X7212092Y-7149703D01*
X7214429Y-7156468D01*
X7215831Y-7165014D01*
X7216299Y-7175341D01*
X7215831Y-7185757D01*
X7214429Y-7194356D01*
X7212092Y-7201138D01*
X7206913Y-7207746D01*
X7199947Y-7209900D01*
X7199789Y-7209949D01*
X7192764Y-7207746D01*
X7187565Y-7201138D01*
X7185184Y-7194356D01*
X7183755Y-7185757D01*
X7183279Y-7175341D01*
X7183352Y-7173754D01*
X7191057Y-7173754D01*
X7193439Y-7181136D01*
X7199947Y-7184231D01*
X7206218Y-7181136D01*
X7208679Y-7173754D01*
X7206218Y-7166292D01*
X7199947Y-7163117D01*
X7193439Y-7166292D01*
X7191057Y-7173754D01*
X7183352Y-7173754D01*
X7183755Y-7165014D01*
X7185184Y-7156468D01*
X7187565Y-7149703D01*
X7192764Y-7143095D01*
X7199789Y-7140892D01*
X7206913Y-7143095D01*
G37*
%TO.C,kibuzzard-646250F7*%
G36*
X6546136Y-7184628D02*
G01*
X6550739Y-7185184D01*
X6550739Y-7202329D01*
X6545501Y-7202726D01*
X6539309Y-7202805D01*
X6529467Y-7200662D01*
X6525657Y-7193439D01*
X6526927Y-7188835D01*
X6530340Y-7186136D01*
X6535341Y-7184787D01*
X6541214Y-7184390D01*
X6546136Y-7184628D01*
G37*
G36*
X5832237Y-7157958D02*
G01*
X5836682Y-7161530D01*
X5839222Y-7166531D01*
X5840016Y-7172325D01*
X5810171Y-7172325D01*
X5811520Y-7166451D01*
X5814377Y-7161371D01*
X5818981Y-7157879D01*
X5825569Y-7156609D01*
X5832237Y-7157958D01*
G37*
G36*
X6227842Y-7156609D02*
G01*
X6231811Y-7157244D01*
X6231811Y-7193121D01*
X6226810Y-7195185D01*
X6220857Y-7195979D01*
X6210379Y-7191137D01*
X6207879Y-7185204D01*
X6207046Y-7177087D01*
X6208951Y-7165622D01*
X6214666Y-7158743D01*
X6224191Y-7156450D01*
X6227842Y-7156609D01*
G37*
G36*
X6776117Y-7074968D02*
G01*
X6785924Y-7076423D01*
X6795540Y-7078832D01*
X6804874Y-7082172D01*
X6813836Y-7086410D01*
X6822339Y-7091507D01*
X6830301Y-7097412D01*
X6837646Y-7104070D01*
X6844304Y-7111415D01*
X6850209Y-7119377D01*
X6855306Y-7127880D01*
X6859544Y-7136842D01*
X6862884Y-7146176D01*
X6865293Y-7155792D01*
X6866747Y-7165598D01*
X6867234Y-7175500D01*
X6866747Y-7185401D01*
X6865293Y-7195208D01*
X6862884Y-7204824D01*
X6859544Y-7214158D01*
X6855306Y-7223119D01*
X6850209Y-7231622D01*
X6844304Y-7239585D01*
X6837646Y-7246930D01*
X6830301Y-7253588D01*
X6822339Y-7259493D01*
X6813836Y-7264590D01*
X6804874Y-7268828D01*
X6795540Y-7272168D01*
X6785924Y-7274577D01*
X6776117Y-7276031D01*
X6766216Y-7276518D01*
X6733143Y-7276518D01*
X6709331Y-7276518D01*
X6629956Y-7276518D01*
X6537881Y-7276518D01*
X6472317Y-7276518D01*
X6396276Y-7276518D01*
X6214348Y-7276518D01*
X6172597Y-7276518D01*
X6076236Y-7276518D01*
X6013847Y-7276518D01*
X5934472Y-7276518D01*
X5830967Y-7276518D01*
X5777944Y-7276518D01*
X5712857Y-7276518D01*
X5679784Y-7276518D01*
X5669882Y-7276031D01*
X5660076Y-7274577D01*
X5650460Y-7272168D01*
X5641126Y-7268828D01*
X5632164Y-7264590D01*
X5623661Y-7259493D01*
X5615699Y-7253588D01*
X5608353Y-7246930D01*
X5601696Y-7239585D01*
X5595791Y-7231622D01*
X5590694Y-7223119D01*
X5586456Y-7214158D01*
X5583116Y-7204824D01*
X5580707Y-7195208D01*
X5579253Y-7185401D01*
X5578766Y-7175500D01*
X5579253Y-7165598D01*
X5580707Y-7155792D01*
X5583116Y-7146176D01*
X5586456Y-7136842D01*
X5590694Y-7127880D01*
X5595791Y-7119377D01*
X5596435Y-7118509D01*
X5712857Y-7118509D01*
X5712857Y-7216775D01*
X5732383Y-7216775D01*
X5732383Y-7173436D01*
X5758418Y-7173436D01*
X5758418Y-7216775D01*
X5777944Y-7216775D01*
X5777944Y-7180104D01*
X5790009Y-7180104D01*
X5790724Y-7189033D01*
X5792867Y-7196772D01*
X5796339Y-7203341D01*
X5801042Y-7208758D01*
X5806916Y-7213005D01*
X5813901Y-7216061D01*
X5821938Y-7217906D01*
X5830967Y-7218521D01*
X5843826Y-7217331D01*
X5845868Y-7216775D01*
X5874464Y-7216775D01*
X5893991Y-7216775D01*
X5893991Y-7158196D01*
X5898515Y-7157720D01*
X5902881Y-7157561D01*
X5912564Y-7162165D01*
X5914350Y-7168237D01*
X5914946Y-7177246D01*
X5914946Y-7216775D01*
X5934472Y-7216775D01*
X5953839Y-7216775D01*
X5973366Y-7216775D01*
X5973366Y-7158196D01*
X5977890Y-7157720D01*
X5982256Y-7157561D01*
X5991939Y-7162165D01*
X5993725Y-7168237D01*
X5994321Y-7177246D01*
X5994321Y-7216775D01*
X6013847Y-7216775D01*
X6013847Y-7174706D01*
X6013490Y-7167424D01*
X6012418Y-7160816D01*
X6011314Y-7158355D01*
X6028928Y-7158355D01*
X6049566Y-7158355D01*
X6049566Y-7185819D01*
X6049883Y-7193161D01*
X6050836Y-7199630D01*
X6055201Y-7209869D01*
X6063456Y-7216299D01*
X6069231Y-7217966D01*
X6076236Y-7218521D01*
X6085999Y-7217489D01*
X6088084Y-7216775D01*
X6112589Y-7216775D01*
X6132116Y-7216775D01*
X6132116Y-7158196D01*
X6136640Y-7157720D01*
X6141006Y-7157561D01*
X6150689Y-7162165D01*
X6152475Y-7168237D01*
X6153071Y-7177246D01*
X6153071Y-7216775D01*
X6172597Y-7216775D01*
X6172597Y-7177087D01*
X6187202Y-7177087D01*
X6188040Y-7187195D01*
X6190553Y-7195714D01*
X6194742Y-7202646D01*
X6200554Y-7207761D01*
X6207936Y-7210831D01*
X6216888Y-7211854D01*
X6224270Y-7211060D01*
X6231811Y-7208679D01*
X6231811Y-7211695D01*
X6231017Y-7217648D01*
X6228318Y-7222490D01*
X6223079Y-7225744D01*
X6214666Y-7226935D01*
X6201966Y-7225427D01*
X6192282Y-7222172D01*
X6188631Y-7238682D01*
X6200934Y-7242016D01*
X6207502Y-7243088D01*
X6214348Y-7243445D01*
X6226175Y-7242475D01*
X6235621Y-7239564D01*
X6242685Y-7234714D01*
X6247580Y-7227835D01*
X6250517Y-7218839D01*
X6251496Y-7207726D01*
X6251496Y-7144544D01*
X6242200Y-7142339D01*
X6233363Y-7141016D01*
X6224984Y-7140575D01*
X6214154Y-7141580D01*
X6204947Y-7144597D01*
X6197362Y-7149624D01*
X6191717Y-7156697D01*
X6188331Y-7165851D01*
X6187202Y-7177087D01*
X6172597Y-7177087D01*
X6172597Y-7174706D01*
X6172240Y-7167424D01*
X6171168Y-7160816D01*
X6166326Y-7150021D01*
X6157039Y-7143036D01*
X6150412Y-7141190D01*
X6142276Y-7140575D01*
X6133564Y-7140892D01*
X6125527Y-7141845D01*
X6118443Y-7143155D01*
X6112589Y-7144544D01*
X6112589Y-7216775D01*
X6088084Y-7216775D01*
X6097349Y-7213600D01*
X6094809Y-7197884D01*
X6086237Y-7200821D01*
X6079728Y-7201535D01*
X6071552Y-7198281D01*
X6069092Y-7188359D01*
X6069092Y-7142162D01*
X6055916Y-7142162D01*
X6028928Y-7142162D01*
X6028928Y-7158355D01*
X6011314Y-7158355D01*
X6007576Y-7150021D01*
X5998289Y-7143036D01*
X5991662Y-7141190D01*
X5983526Y-7140575D01*
X5974814Y-7140892D01*
X5966777Y-7141845D01*
X5959693Y-7143155D01*
X5953839Y-7144544D01*
X5953839Y-7216775D01*
X5934472Y-7216775D01*
X5934472Y-7174706D01*
X5934115Y-7167424D01*
X5933043Y-7160816D01*
X5928201Y-7150021D01*
X5918914Y-7143036D01*
X5912287Y-7141190D01*
X5904151Y-7140575D01*
X5895439Y-7140892D01*
X5887402Y-7141845D01*
X5880318Y-7143155D01*
X5874464Y-7144544D01*
X5874464Y-7216775D01*
X5845868Y-7216775D01*
X5854621Y-7214394D01*
X5851922Y-7197725D01*
X5842952Y-7200265D01*
X5831761Y-7201535D01*
X5823109Y-7200483D01*
X5816203Y-7197328D01*
X5811679Y-7192347D01*
X5810171Y-7185819D01*
X5858589Y-7185819D01*
X5858827Y-7182485D01*
X5858907Y-7178516D01*
X5857954Y-7167024D01*
X5855097Y-7157526D01*
X5850334Y-7150021D01*
X5843737Y-7144597D01*
X5835377Y-7141342D01*
X5825252Y-7140257D01*
X5818664Y-7140892D01*
X5812234Y-7142797D01*
X5806242Y-7145953D01*
X5800963Y-7150338D01*
X5796518Y-7155954D01*
X5793026Y-7162800D01*
X5790763Y-7170857D01*
X5790009Y-7180104D01*
X5777944Y-7180104D01*
X5777944Y-7120731D01*
X6043692Y-7120731D01*
X6047264Y-7129780D01*
X6055916Y-7133114D01*
X6064647Y-7129780D01*
X6068298Y-7120731D01*
X6067417Y-7118509D01*
X6347857Y-7118509D01*
X6347857Y-7216775D01*
X6367383Y-7216775D01*
X6367383Y-7171849D01*
X6375717Y-7180818D01*
X6379984Y-7186335D01*
X6384052Y-7192248D01*
X6387842Y-7198439D01*
X6391275Y-7204789D01*
X6396276Y-7216775D01*
X6418342Y-7216775D01*
X6415762Y-7209691D01*
X6412468Y-7202408D01*
X6408599Y-7195106D01*
X6404292Y-7187962D01*
X6399629Y-7181116D01*
X6394688Y-7174706D01*
X6389648Y-7168872D01*
X6384687Y-7163752D01*
X6389509Y-7157918D01*
X6394132Y-7151846D01*
X6398518Y-7145714D01*
X6402626Y-7139702D01*
X6406376Y-7133868D01*
X6409690Y-7128272D01*
X6415008Y-7118509D01*
X6392942Y-7118509D01*
X6388179Y-7128034D01*
X6381909Y-7138670D01*
X6374686Y-7149465D01*
X6367383Y-7159307D01*
X6367383Y-7118509D01*
X6347857Y-7118509D01*
X6067417Y-7118509D01*
X6064647Y-7111524D01*
X6055916Y-7108190D01*
X6047264Y-7111524D01*
X6043692Y-7120731D01*
X5777944Y-7120731D01*
X5777944Y-7118509D01*
X5758418Y-7118509D01*
X5758418Y-7157244D01*
X5732383Y-7157244D01*
X5732383Y-7118509D01*
X5712857Y-7118509D01*
X5596435Y-7118509D01*
X5601696Y-7111415D01*
X5605194Y-7107555D01*
X6425803Y-7107555D01*
X6425803Y-7123747D01*
X6446441Y-7123747D01*
X6446441Y-7187089D01*
X6447988Y-7200642D01*
X6452632Y-7210504D01*
X6460649Y-7216517D01*
X6472317Y-7218521D01*
X6481127Y-7217886D01*
X6487716Y-7216378D01*
X6492081Y-7214711D01*
X6494224Y-7213600D01*
X6491684Y-7197884D01*
X6486446Y-7199947D01*
X6476603Y-7201535D01*
X6468983Y-7198836D01*
X6467545Y-7193915D01*
X6506448Y-7193915D01*
X6508671Y-7205424D01*
X6515021Y-7213044D01*
X6524942Y-7217251D01*
X6537881Y-7218521D01*
X6547842Y-7218204D01*
X6556772Y-7217251D01*
X6569472Y-7215029D01*
X6569472Y-7170579D01*
X6567934Y-7158355D01*
X6584553Y-7158355D01*
X6601539Y-7158355D01*
X6601539Y-7188994D01*
X6602016Y-7197467D01*
X6603444Y-7204154D01*
X6609001Y-7213124D01*
X6617891Y-7217410D01*
X6629956Y-7218521D01*
X6642100Y-7217569D01*
X6653768Y-7214394D01*
X6651069Y-7197566D01*
X6646069Y-7199630D01*
X6641624Y-7200821D01*
X6637179Y-7201376D01*
X6632178Y-7201535D01*
X6627574Y-7201059D01*
X6624082Y-7199154D01*
X6621859Y-7195185D01*
X6621066Y-7188517D01*
X6621066Y-7158355D01*
X6652339Y-7158355D01*
X6663928Y-7158355D01*
X6680914Y-7158355D01*
X6680914Y-7188994D01*
X6681391Y-7197467D01*
X6682819Y-7204154D01*
X6688376Y-7213124D01*
X6697266Y-7217410D01*
X6709331Y-7218521D01*
X6721475Y-7217569D01*
X6733143Y-7214394D01*
X6730444Y-7197566D01*
X6725444Y-7199630D01*
X6720999Y-7200821D01*
X6716554Y-7201376D01*
X6711553Y-7201535D01*
X6706949Y-7201059D01*
X6703457Y-7199154D01*
X6701234Y-7195185D01*
X6700441Y-7188517D01*
X6700441Y-7158355D01*
X6731714Y-7158355D01*
X6731714Y-7142162D01*
X6700441Y-7142162D01*
X6700441Y-7120255D01*
X6680914Y-7123430D01*
X6680914Y-7142162D01*
X6663928Y-7142162D01*
X6663928Y-7158355D01*
X6652339Y-7158355D01*
X6652339Y-7142162D01*
X6621066Y-7142162D01*
X6621066Y-7120255D01*
X6601539Y-7123430D01*
X6601539Y-7142162D01*
X6584553Y-7142162D01*
X6584553Y-7158355D01*
X6567934Y-7158355D01*
X6567884Y-7157958D01*
X6562646Y-7148433D01*
X6552882Y-7142401D01*
X6545997Y-7140793D01*
X6537563Y-7140257D01*
X6530538Y-7140515D01*
X6523752Y-7141289D01*
X6513433Y-7143591D01*
X6516132Y-7159307D01*
X6524466Y-7157402D01*
X6535182Y-7156609D01*
X6542484Y-7157541D01*
X6547247Y-7160339D01*
X6550739Y-7169626D01*
X6550739Y-7172007D01*
X6544429Y-7171055D01*
X6537246Y-7170737D01*
X6525657Y-7171928D01*
X6515814Y-7175817D01*
X6508988Y-7182961D01*
X6506448Y-7193915D01*
X6467545Y-7193915D01*
X6465967Y-7188517D01*
X6465967Y-7107555D01*
X6425803Y-7107555D01*
X5605194Y-7107555D01*
X5608353Y-7104069D01*
X5615699Y-7097412D01*
X5623661Y-7091507D01*
X5632164Y-7086410D01*
X5641126Y-7082172D01*
X5650460Y-7078832D01*
X5660076Y-7076423D01*
X5669882Y-7074968D01*
X5679784Y-7074482D01*
X5712857Y-7074482D01*
X6733143Y-7074482D01*
X6766216Y-7074482D01*
X6776117Y-7074968D01*
G37*
%TO.C,kibuzzard-646250CA*%
G36*
X11266440Y-4002707D02*
G01*
X11270218Y-4007485D01*
X11272107Y-4014486D01*
X11272663Y-4022709D01*
X11272329Y-4029599D01*
X11271552Y-4036044D01*
X11247549Y-4036044D01*
X11246993Y-4028710D01*
X11246882Y-4020042D01*
X11249882Y-4006263D01*
X11259995Y-4000929D01*
X11266440Y-4002707D01*
G37*
G36*
X11427867Y-3701706D02*
G01*
X11427867Y-3748008D01*
X11427867Y-4506992D01*
X11427867Y-4553294D01*
X11303000Y-4636539D01*
X11178133Y-4553294D01*
X11178133Y-4506992D01*
X11178133Y-4459208D01*
X11224879Y-4459208D01*
X11225490Y-4471487D01*
X11227324Y-4481655D01*
X11233991Y-4496435D01*
X11243993Y-4504547D01*
X11256216Y-4506992D01*
X11270107Y-4503658D01*
X11279441Y-4495102D01*
X11285553Y-4483433D01*
X11289998Y-4470987D01*
X11292776Y-4463098D01*
X11295777Y-4456652D01*
X11299222Y-4452207D01*
X11303556Y-4450540D01*
X11309001Y-4454208D01*
X11311557Y-4468320D01*
X11309001Y-4486323D01*
X11305334Y-4498102D01*
X11328448Y-4502325D01*
X11332893Y-4487101D01*
X11334059Y-4477961D01*
X11334448Y-4468098D01*
X11333809Y-4457152D01*
X11331892Y-4447873D01*
X11324780Y-4433983D01*
X11314335Y-4425982D01*
X11301778Y-4423426D01*
X11288109Y-4426760D01*
X11279108Y-4435205D01*
X11273218Y-4446540D01*
X11269107Y-4458764D01*
X11266440Y-4466876D01*
X11263662Y-4473766D01*
X11260217Y-4478433D01*
X11255327Y-4480100D01*
X11249438Y-4474766D01*
X11247993Y-4459430D01*
X11250660Y-4441539D01*
X11256439Y-4424982D01*
X11233547Y-4420759D01*
X11227991Y-4436094D01*
X11225657Y-4446651D01*
X11224879Y-4459208D01*
X11178133Y-4459208D01*
X11178133Y-4371864D01*
X11224879Y-4371864D01*
X11226324Y-4385532D01*
X11231769Y-4401423D01*
X11253772Y-4397867D01*
X11249660Y-4385866D01*
X11248660Y-4376753D01*
X11253216Y-4365308D01*
X11267107Y-4361863D01*
X11331781Y-4361863D01*
X11331781Y-4343416D01*
X11344450Y-4343416D01*
X11349117Y-4355640D01*
X11361785Y-4360751D01*
X11374676Y-4355640D01*
X11379343Y-4343416D01*
X11374676Y-4331303D01*
X11361785Y-4326303D01*
X11349117Y-4331303D01*
X11344450Y-4343416D01*
X11331781Y-4343416D01*
X11331781Y-4305633D01*
X11309112Y-4305633D01*
X11309112Y-4334526D01*
X11270663Y-4334526D01*
X11260384Y-4334970D01*
X11251327Y-4336304D01*
X11236992Y-4342416D01*
X11227991Y-4353973D01*
X11225657Y-4362057D01*
X11224879Y-4371864D01*
X11178133Y-4371864D01*
X11178133Y-4236958D01*
X11224879Y-4236958D01*
X11225490Y-4249237D01*
X11227324Y-4259405D01*
X11233991Y-4274185D01*
X11243993Y-4282297D01*
X11256216Y-4284742D01*
X11270107Y-4281408D01*
X11279441Y-4272852D01*
X11285553Y-4261183D01*
X11289998Y-4248737D01*
X11292776Y-4240848D01*
X11295777Y-4234402D01*
X11299222Y-4229957D01*
X11303556Y-4228290D01*
X11309001Y-4231958D01*
X11311557Y-4246070D01*
X11309001Y-4264073D01*
X11305334Y-4275852D01*
X11328448Y-4280075D01*
X11332893Y-4264851D01*
X11334059Y-4255711D01*
X11334448Y-4245848D01*
X11333809Y-4234902D01*
X11331892Y-4225623D01*
X11324780Y-4211733D01*
X11314335Y-4203732D01*
X11301778Y-4201176D01*
X11288109Y-4204510D01*
X11279108Y-4212955D01*
X11273218Y-4224290D01*
X11269107Y-4236514D01*
X11266440Y-4244626D01*
X11263662Y-4251516D01*
X11260217Y-4256183D01*
X11255327Y-4257850D01*
X11249438Y-4252516D01*
X11247993Y-4237180D01*
X11250660Y-4219289D01*
X11256439Y-4202732D01*
X11233547Y-4198509D01*
X11227991Y-4213844D01*
X11225657Y-4224401D01*
X11224879Y-4236958D01*
X11178133Y-4236958D01*
X11178133Y-4125833D01*
X11224879Y-4125833D01*
X11225490Y-4138112D01*
X11227324Y-4148280D01*
X11233991Y-4163060D01*
X11243993Y-4171172D01*
X11256216Y-4173617D01*
X11270107Y-4170283D01*
X11279441Y-4161726D01*
X11285553Y-4150058D01*
X11289998Y-4137612D01*
X11292776Y-4129722D01*
X11295777Y-4123277D01*
X11299222Y-4118832D01*
X11303556Y-4117165D01*
X11309001Y-4120832D01*
X11311557Y-4134945D01*
X11309001Y-4152948D01*
X11305334Y-4164727D01*
X11328448Y-4168950D01*
X11332893Y-4153725D01*
X11334059Y-4144585D01*
X11334448Y-4134723D01*
X11333809Y-4123777D01*
X11331892Y-4114498D01*
X11324780Y-4100608D01*
X11314335Y-4092607D01*
X11301778Y-4090051D01*
X11288109Y-4093385D01*
X11279108Y-4101830D01*
X11273218Y-4113165D01*
X11269107Y-4125389D01*
X11266440Y-4133501D01*
X11263662Y-4140390D01*
X11260217Y-4145058D01*
X11255327Y-4146725D01*
X11249438Y-4141391D01*
X11247993Y-4126055D01*
X11250660Y-4108164D01*
X11256439Y-4091607D01*
X11233547Y-4087384D01*
X11227991Y-4102719D01*
X11225657Y-4113276D01*
X11224879Y-4125833D01*
X11178133Y-4125833D01*
X11178133Y-4018042D01*
X11224879Y-4018042D01*
X11225324Y-4031988D01*
X11226657Y-4044490D01*
X11229769Y-4062270D01*
X11291999Y-4062270D01*
X11309667Y-4060047D01*
X11323002Y-4052713D01*
X11331448Y-4039044D01*
X11333698Y-4029404D01*
X11334448Y-4017597D01*
X11334087Y-4007763D01*
X11333004Y-3998262D01*
X11329781Y-3983815D01*
X11307778Y-3987594D01*
X11310445Y-3999262D01*
X11311557Y-4014264D01*
X11310251Y-4024487D01*
X11306334Y-4031155D01*
X11293332Y-4036044D01*
X11289998Y-4036044D01*
X11291332Y-4027210D01*
X11291776Y-4017153D01*
X11290109Y-4000929D01*
X11284664Y-3987149D01*
X11274663Y-3977592D01*
X11259328Y-3974036D01*
X11243215Y-3977148D01*
X11232547Y-3986038D01*
X11226657Y-3999928D01*
X11224879Y-4018042D01*
X11178133Y-4018042D01*
X11178133Y-3867134D01*
X11227324Y-3867134D01*
X11227324Y-3894471D01*
X11307778Y-3894471D01*
X11309334Y-3900360D01*
X11310223Y-3907806D01*
X11303778Y-3920474D01*
X11295277Y-3922974D01*
X11282664Y-3923808D01*
X11227324Y-3923808D01*
X11227324Y-3951145D01*
X11286220Y-3951145D01*
X11296416Y-3950645D01*
X11305667Y-3949144D01*
X11320780Y-3942477D01*
X11330559Y-3930031D01*
X11333143Y-3921308D01*
X11334004Y-3910695D01*
X11333004Y-3902472D01*
X11330892Y-3894471D01*
X11381565Y-3894471D01*
X11376898Y-3867134D01*
X11227324Y-3867134D01*
X11178133Y-3867134D01*
X11178133Y-3807793D01*
X11224435Y-3807793D01*
X11225185Y-3819934D01*
X11227435Y-3830574D01*
X11233991Y-3846243D01*
X11255550Y-3839353D01*
X11250660Y-3828129D01*
X11248215Y-3810460D01*
X11251355Y-3794597D01*
X11260772Y-3783901D01*
X11270366Y-3779395D01*
X11282405Y-3776691D01*
X11296888Y-3775789D01*
X11309334Y-3776539D01*
X11319558Y-3778790D01*
X11334115Y-3786568D01*
X11341894Y-3797459D01*
X11344227Y-3810016D01*
X11341894Y-3826573D01*
X11336226Y-3838908D01*
X11358007Y-3846020D01*
X11360674Y-3841464D01*
X11364008Y-3834019D01*
X11366786Y-3823684D01*
X11368008Y-3810460D01*
X11366813Y-3797431D01*
X11363230Y-3785457D01*
X11357340Y-3774789D01*
X11349228Y-3765677D01*
X11338977Y-3758259D01*
X11326670Y-3752675D01*
X11312390Y-3749175D01*
X11296221Y-3748008D01*
X11279983Y-3748967D01*
X11265718Y-3751842D01*
X11253424Y-3756634D01*
X11243104Y-3763343D01*
X11232732Y-3775098D01*
X11226509Y-3789915D01*
X11224435Y-3807793D01*
X11178133Y-3807793D01*
X11178133Y-3748008D01*
X11178133Y-3701706D01*
X11303000Y-3618461D01*
X11427867Y-3701706D01*
G37*
%TO.C,kibuzzard-64625088*%
G36*
X9826006Y-3911346D02*
G01*
X9826228Y-3917791D01*
X9825673Y-3925125D01*
X9823450Y-3931348D01*
X9818783Y-3935571D01*
X9810893Y-3937127D01*
X9798336Y-3931793D01*
X9793780Y-3916013D01*
X9793780Y-3905345D01*
X9825339Y-3905345D01*
X9826006Y-3911346D01*
G37*
G36*
X9771110Y-3920014D02*
G01*
X9766776Y-3937016D01*
X9752441Y-3943350D01*
X9742551Y-3941127D01*
X9736550Y-3935460D01*
X9733661Y-3927570D01*
X9732883Y-3918458D01*
X9733105Y-3911679D01*
X9733772Y-3905345D01*
X9771110Y-3905345D01*
X9771110Y-3920014D01*
G37*
G36*
X9775750Y-4346095D02*
G01*
X9785668Y-4350179D01*
X9792085Y-4356930D01*
X9794224Y-4366292D01*
X9792085Y-4375876D01*
X9785668Y-4382405D01*
X9775750Y-4386155D01*
X9763109Y-4387406D01*
X9750441Y-4386044D01*
X9740440Y-4381960D01*
X9733939Y-4375210D01*
X9731772Y-4365847D01*
X9733939Y-4356263D01*
X9740440Y-4349734D01*
X9750441Y-4345984D01*
X9763109Y-4344734D01*
X9775750Y-4346095D01*
G37*
G36*
X9896311Y-3831706D02*
G01*
X9896311Y-3878008D01*
X9896311Y-4630992D01*
X9896311Y-4677294D01*
X9779000Y-4755501D01*
X9661689Y-4677294D01*
X9661689Y-4630992D01*
X9661689Y-4583208D01*
X9708436Y-4583208D01*
X9709047Y-4595487D01*
X9710880Y-4605655D01*
X9717548Y-4620435D01*
X9727549Y-4628547D01*
X9739773Y-4630992D01*
X9753664Y-4627658D01*
X9762998Y-4619101D01*
X9769110Y-4607433D01*
X9773555Y-4594987D01*
X9776333Y-4587097D01*
X9779333Y-4580652D01*
X9782778Y-4576207D01*
X9787112Y-4574540D01*
X9792557Y-4578207D01*
X9795113Y-4592320D01*
X9792557Y-4610322D01*
X9788890Y-4622102D01*
X9812004Y-4626324D01*
X9816449Y-4611100D01*
X9817616Y-4601960D01*
X9818005Y-4592098D01*
X9817366Y-4581152D01*
X9815449Y-4571873D01*
X9808337Y-4557982D01*
X9797891Y-4549981D01*
X9785334Y-4547426D01*
X9771666Y-4550759D01*
X9762665Y-4559205D01*
X9756775Y-4570540D01*
X9752663Y-4582763D01*
X9749996Y-4590875D01*
X9747218Y-4597765D01*
X9743773Y-4602432D01*
X9738884Y-4604099D01*
X9732994Y-4598765D01*
X9731550Y-4583430D01*
X9734217Y-4565539D01*
X9739995Y-4548981D01*
X9717103Y-4544759D01*
X9711547Y-4560094D01*
X9709214Y-4570651D01*
X9708436Y-4583208D01*
X9661689Y-4583208D01*
X9661689Y-4519644D01*
X9710880Y-4519644D01*
X9769777Y-4519644D01*
X9779972Y-4519144D01*
X9789224Y-4517644D01*
X9804337Y-4510865D01*
X9814116Y-4497864D01*
X9816699Y-4488585D01*
X9817560Y-4477195D01*
X9817116Y-4464999D01*
X9815782Y-4453747D01*
X9813949Y-4443829D01*
X9812004Y-4435634D01*
X9710880Y-4435634D01*
X9710880Y-4462971D01*
X9792891Y-4462971D01*
X9793557Y-4469305D01*
X9793780Y-4475417D01*
X9787334Y-4488974D01*
X9778833Y-4491474D01*
X9766221Y-4492308D01*
X9710880Y-4492308D01*
X9710880Y-4519644D01*
X9661689Y-4519644D01*
X9661689Y-4366292D01*
X9707991Y-4366292D01*
X9708991Y-4376876D01*
X9711992Y-4386405D01*
X9716826Y-4394768D01*
X9723326Y-4401852D01*
X9731355Y-4407575D01*
X9740773Y-4411853D01*
X9751469Y-4414520D01*
X9763331Y-4415409D01*
X9775027Y-4414520D01*
X9785668Y-4411853D01*
X9795058Y-4407547D01*
X9803003Y-4401741D01*
X9809393Y-4394573D01*
X9814116Y-4386183D01*
X9817033Y-4376710D01*
X9818005Y-4366292D01*
X9817033Y-4356013D01*
X9814116Y-4346512D01*
X9809393Y-4338038D01*
X9803003Y-4330843D01*
X9795058Y-4325009D01*
X9785668Y-4320619D01*
X9775027Y-4317869D01*
X9763331Y-4316952D01*
X9751469Y-4317841D01*
X9740773Y-4320508D01*
X9731355Y-4324814D01*
X9723326Y-4330621D01*
X9716826Y-4337788D01*
X9711992Y-4346178D01*
X9708991Y-4355707D01*
X9707991Y-4366292D01*
X9661689Y-4366292D01*
X9661689Y-4270947D01*
X9708436Y-4270947D01*
X9709769Y-4287949D01*
X9714214Y-4304284D01*
X9737773Y-4300506D01*
X9734883Y-4293505D01*
X9733217Y-4287282D01*
X9732439Y-4281059D01*
X9732216Y-4274058D01*
X9732883Y-4267613D01*
X9735550Y-4262723D01*
X9741106Y-4259612D01*
X9750441Y-4258501D01*
X9792668Y-4258501D01*
X9792668Y-4302284D01*
X9815338Y-4302284D01*
X9815338Y-4258501D01*
X9846008Y-4258501D01*
X9841563Y-4231164D01*
X9815338Y-4231164D01*
X9815338Y-4207383D01*
X9792668Y-4207383D01*
X9792668Y-4231164D01*
X9749774Y-4231164D01*
X9737912Y-4231831D01*
X9728549Y-4233831D01*
X9715992Y-4241610D01*
X9709991Y-4254056D01*
X9708436Y-4270947D01*
X9661689Y-4270947D01*
X9661689Y-4159821D01*
X9708436Y-4159821D01*
X9709769Y-4176824D01*
X9714214Y-4193159D01*
X9737773Y-4189381D01*
X9734883Y-4182380D01*
X9733217Y-4176157D01*
X9732439Y-4169934D01*
X9732216Y-4162933D01*
X9732883Y-4156488D01*
X9735550Y-4151598D01*
X9741106Y-4148487D01*
X9750441Y-4147375D01*
X9792668Y-4147375D01*
X9792668Y-4191159D01*
X9815338Y-4191159D01*
X9815338Y-4147375D01*
X9846008Y-4147375D01*
X9841563Y-4120039D01*
X9815338Y-4120039D01*
X9815338Y-4096258D01*
X9792668Y-4096258D01*
X9792668Y-4120039D01*
X9749774Y-4120039D01*
X9737912Y-4120705D01*
X9728549Y-4122706D01*
X9715992Y-4130484D01*
X9709991Y-4142930D01*
X9708436Y-4159821D01*
X9661689Y-4159821D01*
X9661689Y-4032694D01*
X9708436Y-4032694D01*
X9708936Y-4044890D01*
X9710436Y-4056142D01*
X9712436Y-4066115D01*
X9714436Y-4074477D01*
X9815338Y-4074477D01*
X9815338Y-4046918D01*
X9733328Y-4046918D01*
X9732216Y-4034472D01*
X9739217Y-4021026D01*
X9748080Y-4018443D01*
X9760664Y-4017581D01*
X9815338Y-4017581D01*
X9815338Y-3990245D01*
X9757108Y-3990245D01*
X9746885Y-3990689D01*
X9737550Y-3992023D01*
X9722104Y-3998579D01*
X9711992Y-4011581D01*
X9709325Y-4020971D01*
X9708436Y-4032694D01*
X9661689Y-4032694D01*
X9661689Y-3916235D01*
X9709102Y-3916235D01*
X9709630Y-3927209D01*
X9711214Y-3937460D01*
X9714047Y-3946684D01*
X9718326Y-3954574D01*
X9731661Y-3966019D01*
X9741023Y-3969187D01*
X9752441Y-3970242D01*
X9761776Y-3968992D01*
X9770666Y-3965242D01*
X9778444Y-3957991D01*
X9784445Y-3946239D01*
X9796447Y-3959019D01*
X9804559Y-3962602D01*
X9813782Y-3963797D01*
X9826673Y-3961797D01*
X9838341Y-3954240D01*
X9846786Y-3938905D01*
X9849203Y-3927681D01*
X9850009Y-3913568D01*
X9849009Y-3895122D01*
X9846675Y-3878008D01*
X9713103Y-3878008D01*
X9711353Y-3887621D01*
X9710103Y-3897344D01*
X9709352Y-3906957D01*
X9709102Y-3916235D01*
X9661689Y-3916235D01*
X9661689Y-3878008D01*
X9661689Y-3831706D01*
X9779000Y-3753499D01*
X9896311Y-3831706D01*
G37*
%TO.C,kibuzzard-6462506E*%
G36*
X6198140Y-4521279D02*
G01*
X6204585Y-4522057D01*
X6204585Y-4546060D01*
X6197251Y-4546616D01*
X6188583Y-4546727D01*
X6174803Y-4543727D01*
X6169469Y-4533614D01*
X6171247Y-4527169D01*
X6176026Y-4523391D01*
X6183027Y-4521502D01*
X6191250Y-4520946D01*
X6198140Y-4521279D01*
G37*
G36*
X5974445Y-4485192D02*
G01*
X5981446Y-4491942D01*
X5985613Y-4502194D01*
X5987002Y-4514945D01*
X5985835Y-4527752D01*
X5982335Y-4537281D01*
X5976390Y-4543199D01*
X5967889Y-4545171D01*
X5958999Y-4544060D01*
X5951887Y-4541171D01*
X5951887Y-4483830D01*
X5957887Y-4483275D01*
X5964555Y-4482941D01*
X5974445Y-4485192D01*
G37*
G36*
X5639403Y-4454827D02*
G01*
X5648515Y-4465161D01*
X5653183Y-4480052D01*
X5654516Y-4497388D01*
X5654099Y-4507194D01*
X5652849Y-4516168D01*
X5647293Y-4530947D01*
X5637070Y-4540726D01*
X5621401Y-4544282D01*
X5618956Y-4544282D01*
X5616511Y-4544060D01*
X5616511Y-4451604D01*
X5620512Y-4451048D01*
X5624512Y-4450937D01*
X5639403Y-4454827D01*
G37*
G36*
X6489411Y-4508500D02*
G01*
X6395127Y-4649925D01*
X6348825Y-4649925D01*
X6270371Y-4649925D01*
X6186583Y-4649925D01*
X6094793Y-4649925D01*
X5951887Y-4649925D01*
X5849874Y-4649925D01*
X5762530Y-4649925D01*
X5618512Y-4649925D01*
X5589175Y-4649925D01*
X5542873Y-4649925D01*
X5511560Y-4602956D01*
X5924550Y-4602956D01*
X5951887Y-4602956D01*
X5951887Y-4599623D01*
X6248368Y-4599623D01*
X6257814Y-4602512D01*
X6270371Y-4603623D01*
X6284706Y-4601623D01*
X6295819Y-4595511D01*
X6304931Y-4584954D01*
X6313265Y-4569619D01*
X6318627Y-4557228D01*
X6323600Y-4544505D01*
X6328239Y-4531475D01*
X6332601Y-4518168D01*
X6336740Y-4504555D01*
X6340713Y-4490609D01*
X6344686Y-4476357D01*
X6348825Y-4461828D01*
X6320822Y-4461828D01*
X6316932Y-4479608D01*
X6314793Y-4488914D01*
X6312598Y-4498165D01*
X6310320Y-4507333D01*
X6307931Y-4516390D01*
X6303264Y-4533170D01*
X6296708Y-4516390D01*
X6293568Y-4507305D01*
X6290596Y-4498054D01*
X6287790Y-4488720D01*
X6285151Y-4479385D01*
X6280594Y-4461828D01*
X6252146Y-4461828D01*
X6256258Y-4476725D01*
X6260592Y-4490970D01*
X6265148Y-4504562D01*
X6269926Y-4517501D01*
X6276446Y-4533688D01*
X6282965Y-4548616D01*
X6289484Y-4562285D01*
X6281706Y-4574953D01*
X6268815Y-4580287D01*
X6261370Y-4579509D01*
X6253480Y-4576731D01*
X6248368Y-4599623D01*
X5951887Y-4599623D01*
X5951887Y-4563618D01*
X5962833Y-4567452D01*
X5973445Y-4568730D01*
X5983057Y-4567730D01*
X5991447Y-4564729D01*
X6004338Y-4553506D01*
X6008838Y-4545560D01*
X6012116Y-4536170D01*
X6014117Y-4525586D01*
X6014783Y-4514056D01*
X6013351Y-4498474D01*
X6009054Y-4485213D01*
X6001893Y-4474274D01*
X5992040Y-4466124D01*
X5979668Y-4461235D01*
X5964777Y-4459605D01*
X5954026Y-4459994D01*
X5943108Y-4461161D01*
X5932968Y-4462939D01*
X5924550Y-4465161D01*
X5924550Y-4602956D01*
X5511560Y-4602956D01*
X5486076Y-4564729D01*
X5589175Y-4564729D01*
X5604177Y-4567285D01*
X5618512Y-4568063D01*
X5631930Y-4567091D01*
X5644182Y-4564174D01*
X5655044Y-4559145D01*
X5664295Y-4551839D01*
X5671824Y-4542143D01*
X5677519Y-4529947D01*
X5681103Y-4515084D01*
X5682297Y-4497388D01*
X5681490Y-4484497D01*
X5696299Y-4484497D01*
X5725192Y-4484497D01*
X5725192Y-4522946D01*
X5725636Y-4533225D01*
X5726970Y-4542282D01*
X5733082Y-4556617D01*
X5744639Y-4565618D01*
X5752723Y-4567952D01*
X5762530Y-4568730D01*
X5776198Y-4567285D01*
X5792089Y-4561840D01*
X5791802Y-4560062D01*
X5811425Y-4560062D01*
X5826760Y-4565618D01*
X5837317Y-4567952D01*
X5849874Y-4568730D01*
X5862153Y-4568119D01*
X5872321Y-4566285D01*
X5887101Y-4559618D01*
X5895213Y-4549616D01*
X5897658Y-4537393D01*
X5894324Y-4523502D01*
X5885767Y-4514167D01*
X5874099Y-4508056D01*
X5861653Y-4503611D01*
X5853763Y-4500832D01*
X5847318Y-4497832D01*
X5842873Y-4494387D01*
X5841206Y-4490053D01*
X5844873Y-4484608D01*
X5858986Y-4482052D01*
X5876988Y-4484608D01*
X5888768Y-4488275D01*
X5892990Y-4465161D01*
X5877766Y-4460716D01*
X5868626Y-4459549D01*
X5858764Y-4459161D01*
X5847818Y-4459800D01*
X5838539Y-4461716D01*
X5824649Y-4468828D01*
X5816648Y-4479274D01*
X5814092Y-4491831D01*
X5817425Y-4505500D01*
X5825871Y-4514501D01*
X5837206Y-4520390D01*
X5849429Y-4524502D01*
X5857542Y-4527169D01*
X5864431Y-4529947D01*
X5869099Y-4533392D01*
X5870765Y-4538282D01*
X5865431Y-4544171D01*
X5850096Y-4545616D01*
X5832205Y-4542949D01*
X5815647Y-4537170D01*
X5811425Y-4560062D01*
X5791802Y-4560062D01*
X5788533Y-4539837D01*
X5776531Y-4543949D01*
X5767419Y-4544949D01*
X5755973Y-4540393D01*
X5752528Y-4526502D01*
X5752528Y-4461828D01*
X5734082Y-4461828D01*
X5696299Y-4461828D01*
X5696299Y-4484497D01*
X5681490Y-4484497D01*
X5681214Y-4480080D01*
X5677964Y-4465495D01*
X5672768Y-4453438D01*
X5665851Y-4443714D01*
X5657211Y-4436297D01*
X5648193Y-4431824D01*
X5716968Y-4431824D01*
X5721969Y-4444492D01*
X5734082Y-4449159D01*
X5746305Y-4444492D01*
X5751417Y-4431824D01*
X5746305Y-4418933D01*
X5734082Y-4414266D01*
X5721969Y-4418933D01*
X5716968Y-4431824D01*
X5648193Y-4431824D01*
X5646849Y-4431157D01*
X5635042Y-4428157D01*
X5622068Y-4427157D01*
X5606732Y-4427823D01*
X5589175Y-4430490D01*
X5589175Y-4564729D01*
X5486076Y-4564729D01*
X5448589Y-4508500D01*
X5512005Y-4413377D01*
X6029674Y-4413377D01*
X6029674Y-4436047D01*
X6058567Y-4436047D01*
X6058567Y-4524724D01*
X6060734Y-4543699D01*
X6067234Y-4557506D01*
X6078458Y-4565924D01*
X6094793Y-4568730D01*
X6107128Y-4567841D01*
X6116352Y-4565729D01*
X6122464Y-4563396D01*
X6125464Y-4561840D01*
X6121908Y-4539837D01*
X6114574Y-4542727D01*
X6100794Y-4544949D01*
X6090126Y-4541171D01*
X6088112Y-4534281D01*
X6142577Y-4534281D01*
X6145689Y-4550394D01*
X6154579Y-4561062D01*
X6168469Y-4566952D01*
X6186583Y-4568730D01*
X6200529Y-4568285D01*
X6213030Y-4566952D01*
X6230810Y-4563840D01*
X6230810Y-4501610D01*
X6228588Y-4483941D01*
X6221254Y-4470606D01*
X6207585Y-4462161D01*
X6197945Y-4459911D01*
X6186138Y-4459161D01*
X6176304Y-4459522D01*
X6166802Y-4460605D01*
X6152356Y-4463828D01*
X6156134Y-4485831D01*
X6167803Y-4483164D01*
X6182804Y-4482052D01*
X6193028Y-4483358D01*
X6199695Y-4487275D01*
X6204585Y-4500277D01*
X6204585Y-4503611D01*
X6195751Y-4502277D01*
X6185694Y-4501833D01*
X6169469Y-4503499D01*
X6155690Y-4508945D01*
X6146133Y-4518946D01*
X6142577Y-4534281D01*
X6088112Y-4534281D01*
X6085903Y-4526725D01*
X6085903Y-4413377D01*
X6029674Y-4413377D01*
X5512005Y-4413377D01*
X5542873Y-4367075D01*
X5589175Y-4367075D01*
X5589175Y-4367075D01*
X6348825Y-4367075D01*
X6395127Y-4367075D01*
X6489411Y-4508500D01*
G37*
D11*
%TO.C,D1*%
X11967000Y-6035948D02*
G75*
G03*
X11643767Y-6051639I-156000J-123552D01*
G01*
X11915096Y-6051500D02*
G75*
G03*
X11706887Y-6051516I-104096J-108000D01*
G01*
X11706887Y-6267484D02*
G75*
G03*
X11915096Y-6267500I104113J107984D01*
G01*
X11643767Y-6267361D02*
G75*
G03*
X11967000Y-6283051I167233J107861D01*
G01*
X11967000Y-6051500D02*
X11967000Y-6035900D01*
X11967000Y-6283100D02*
X11967000Y-6267500D01*
%TO.C,C2*%
X7297125Y-3800000D02*
X7244875Y-3800000D01*
X7297125Y-3947000D02*
X7244875Y-3947000D01*
%TO.C,Q1*%
X9722152Y-7105348D02*
G75*
G03*
X10166000Y-6921500I183848J183848D01*
G01*
X10166000Y-6921500D02*
G75*
G03*
X9722152Y-6737652I-260000J0D01*
G01*
X9721000Y-6741500D02*
X9721000Y-7101500D01*
%TO.C,C1*%
X7297125Y-4562000D02*
X7244875Y-4562000D01*
X7297125Y-4709000D02*
X7244875Y-4709000D01*
%TO.C,U1*%
X10997000Y-5156500D02*
X10085000Y-5156500D01*
X10997000Y-3352500D02*
X10997000Y-5156500D01*
X10866000Y-5026500D02*
X10216000Y-5026500D01*
X10866000Y-3482500D02*
X10866000Y-5026500D01*
X10216000Y-5026500D02*
X10216000Y-4459500D01*
X10216000Y-4459500D02*
X10216000Y-4459500D01*
X10216000Y-4459500D02*
X10085000Y-4459500D01*
X10216000Y-4049500D02*
X10216000Y-3482500D01*
X10216000Y-3482500D02*
X10866000Y-3482500D01*
X10085000Y-5156500D02*
X10085000Y-3352500D01*
X10085000Y-4049500D02*
X10216000Y-4049500D01*
X10085000Y-3352500D02*
X10997000Y-3352500D01*
X10046000Y-3873500D02*
X9946000Y-3823500D01*
X9946000Y-3923500D02*
X10046000Y-3873500D01*
X9946000Y-3823500D02*
X9946000Y-3923500D01*
%TO.C,U5*%
X6871000Y-3290500D02*
X6871000Y-4202500D01*
X5067000Y-3290500D02*
X6871000Y-3290500D01*
X6741000Y-3421500D02*
X6741000Y-4071500D01*
X5197000Y-3421500D02*
X6741000Y-3421500D01*
X6741000Y-4071500D02*
X6174000Y-4071500D01*
X6174000Y-4071500D02*
X6174000Y-4071500D01*
X6174000Y-4071500D02*
X6174000Y-4202500D01*
X5764000Y-4071500D02*
X5197000Y-4071500D01*
X5197000Y-4071500D02*
X5197000Y-3421500D01*
X6871000Y-4202500D02*
X5067000Y-4202500D01*
X5764000Y-4202500D02*
X5764000Y-4071500D01*
X5067000Y-4202500D02*
X5067000Y-3290500D01*
X5588000Y-4241500D02*
X5538000Y-4341500D01*
X5638000Y-4341500D02*
X5588000Y-4241500D01*
X5538000Y-4341500D02*
X5638000Y-4341500D01*
%TO.C,R2*%
X11326000Y-6921500D02*
X11249000Y-6921500D01*
X11249000Y-7058500D02*
X11249000Y-6784500D01*
X11249000Y-6784500D02*
X10595000Y-6784500D01*
X10595000Y-7058500D02*
X11249000Y-7058500D01*
X10595000Y-6784500D02*
X10595000Y-7058500D01*
X10518000Y-6921500D02*
X10595000Y-6921500D01*
%TO.C,D2*%
X11967000Y-6797948D02*
G75*
G03*
X11643767Y-6813639I-156000J-123552D01*
G01*
X11915096Y-6813500D02*
G75*
G03*
X11706887Y-6813516I-104096J-108000D01*
G01*
X11706887Y-7029484D02*
G75*
G03*
X11915096Y-7029500I104113J107984D01*
G01*
X11643767Y-7029361D02*
G75*
G03*
X11967000Y-7045051I167233J107861D01*
G01*
X11967000Y-6813500D02*
X11967000Y-6797900D01*
X11967000Y-7045100D02*
X11967000Y-7029500D01*
%TO.C,U3*%
X8331200Y-3467100D02*
X8940800Y-3467100D01*
X8940800Y-3467100D02*
X8940800Y-3924300D01*
X8940800Y-3924300D02*
X8331200Y-3924300D01*
X8331200Y-3924300D02*
X8331200Y-3467100D01*
X8229600Y-5194300D02*
X9042400Y-5194300D01*
X9042400Y-5194300D02*
X9042400Y-6311900D01*
X9042400Y-6311900D02*
X8229600Y-6311900D01*
X8229600Y-6311900D02*
X8229600Y-5194300D01*
X7721600Y-3467100D02*
X9550400Y-3467100D01*
X9550400Y-3467100D02*
X9550400Y-7073900D01*
X9550400Y-7073900D02*
X7721600Y-7073900D01*
X7721600Y-7073900D02*
X7721600Y-3467100D01*
X8026400Y-3721100D02*
X7721600Y-3721100D01*
X8026400Y-3467100D02*
X8026400Y-3721100D01*
%TO.C,U2*%
X11470000Y-3823500D02*
X11470000Y-3923500D01*
X11470000Y-3923500D02*
X11570000Y-3873500D01*
X11570000Y-3873500D02*
X11470000Y-3823500D01*
X11609000Y-3352500D02*
X12521000Y-3352500D01*
X11609000Y-3922500D02*
X11740000Y-3922500D01*
X11609000Y-4902500D02*
X11609000Y-3352500D01*
X11740000Y-3482500D02*
X12390000Y-3482500D01*
X11740000Y-3922500D02*
X11740000Y-3482500D01*
X11740000Y-4332500D02*
X11609000Y-4332500D01*
X11740000Y-4332500D02*
X11740000Y-4332500D01*
X11740000Y-4772500D02*
X11740000Y-4332500D01*
X12390000Y-3482500D02*
X12390000Y-4772500D01*
X12390000Y-4772500D02*
X11740000Y-4772500D01*
X12521000Y-3352500D02*
X12521000Y-4902500D01*
X12521000Y-4902500D02*
X11609000Y-4902500D01*
%TO.C,10k2*%
X12088000Y-5143500D02*
X12011000Y-5143500D01*
X12011000Y-5280500D02*
X12011000Y-5006500D01*
X12011000Y-5006500D02*
X11357000Y-5006500D01*
X11357000Y-5280500D02*
X12011000Y-5280500D01*
X11357000Y-5006500D02*
X11357000Y-5280500D01*
X11280000Y-5143500D02*
X11357000Y-5143500D01*
%TO.C,10k1*%
X12088000Y-5651500D02*
X12011000Y-5651500D01*
X12011000Y-5788500D02*
X12011000Y-5514500D01*
X12011000Y-5514500D02*
X11357000Y-5514500D01*
X11357000Y-5788500D02*
X12011000Y-5788500D01*
X11357000Y-5514500D02*
X11357000Y-5788500D01*
X11280000Y-5651500D02*
X11357000Y-5651500D01*
%TO.C,Q2*%
X9722152Y-6343348D02*
G75*
G03*
X10166000Y-6159500I183848J183848D01*
G01*
X10166000Y-6159500D02*
G75*
G03*
X9722152Y-5975652I-260000J0D01*
G01*
X9721000Y-5979500D02*
X9721000Y-6339500D01*
%TO.C,R1*%
X11326000Y-6159500D02*
X11249000Y-6159500D01*
X11249000Y-6296500D02*
X11249000Y-6022500D01*
X11249000Y-6022500D02*
X10595000Y-6022500D01*
X10595000Y-6296500D02*
X11249000Y-6296500D01*
X10595000Y-6022500D02*
X10595000Y-6296500D01*
X10518000Y-6159500D02*
X10595000Y-6159500D01*
D12*
%TO.C,U4*%
X5207000Y-6794500D02*
G75*
G03*
X5448300Y-7048500I247650J-6350D01*
G01*
X6616700Y-7048500D02*
G75*
G03*
X6858000Y-6794500I-6350J247650D01*
G01*
X5461000Y-5270500D02*
G75*
G03*
X5207000Y-5524500I0J-254000D01*
G01*
X6858000Y-5524500D02*
G75*
G03*
X6604000Y-5270500I-254000J0D01*
G01*
X5448300Y-7048500D02*
X6616700Y-7048500D01*
X6858000Y-6794500D02*
X6858000Y-5524500D01*
X5207000Y-5524500D02*
X5207000Y-6794500D01*
X6604000Y-5270500D02*
X5461000Y-5270500D01*
%TD*%
M02*
