M48
; DRILL file {KiCad 7.0.3} date Mon 15 May 2023 05:40:11 PM CEST
; FORMAT={3:3/ absolute / metric / keep zeros}
; #@! TF.CreationDate,2023-05-15T17:40:11+02:00
; #@! TF.GenerationSoftware,Kicad,Pcbnew,7.0.3
; #@! TF.FileFunction,MixedPlating,1,2
FMAT,2
METRIC
; #@! TA.AperFunction,Plated,PTH,ViaDrill
T1C0.500
; #@! TA.AperFunction,Plated,PTH,ComponentDrill
T2C0.750
; #@! TA.AperFunction,Plated,PTH,ComponentDrill
T3C0.800
; #@! TA.AperFunction,Plated,PTH,ComponentDrill
T4C0.900
; #@! TA.AperFunction,Plated,PTH,ComponentDrill
T5C1.000
; #@! TA.AperFunction,Plated,PTH,ComponentDrill
T6C1.700
; #@! TA.AperFunction,Plated,PTH,ComponentDrill
T7C2.800
%
G90
G05
T1
X071120Y-051435
X073660Y-043815
X096520Y-064135
X114300Y-036195
T2
X099060Y-060325
X099060Y-062865
X099060Y-067945
X099060Y-070485
X100330Y-061595
X100330Y-069215
T3
X104140Y-061595
X104140Y-069215
X111760Y-051435
X111760Y-056515
X114300Y-061595
X114300Y-069215
X121920Y-051435
X121920Y-056515
T4
X116840Y-061595
X116840Y-069215
X119380Y-061595
X119380Y-069215
T5
X055880Y-036195
X055880Y-038735
X058420Y-036195
X058420Y-038735
X060960Y-036195
X060960Y-038735
X063500Y-036195
X063500Y-038735
X066040Y-053975
X066040Y-056515
X066040Y-059055
X066040Y-061595
X066040Y-064135
X066040Y-066675
X066040Y-069215
X078740Y-036195
X078740Y-038735
X078740Y-041275
X078740Y-043815
X078740Y-046355
X078740Y-048895
X078740Y-051435
X078740Y-053975
X078740Y-056515
X078740Y-059055
X078740Y-061595
X078740Y-064135
X078740Y-066675
X078740Y-069215
X093980Y-036195
X093980Y-038735
X093980Y-041275
X093980Y-043815
X093980Y-046355
X093980Y-048895
X093980Y-051435
X093980Y-053975
X093980Y-056515
X093980Y-059055
X093980Y-061595
X093980Y-064135
X093980Y-066675
X093980Y-069215
X104140Y-038735
X104140Y-041275
X104140Y-043815
X104140Y-046355
X106680Y-038735
X106680Y-041275
X106680Y-043815
X106680Y-046355
X119380Y-038735
X119380Y-041275
X119380Y-043815
X121920Y-038735
X121920Y-041275
X121920Y-043815
T6
X052900Y-071975
X123900Y-071975
T7
X054610Y-055245
X054610Y-067945
T0
M30
