%TF.GenerationSoftware,KiCad,Pcbnew,7.0.3*%
%TF.CreationDate,2023-05-15T17:39:43+02:00*%
%TF.ProjectId,PRO_MCU,50524f5f-4d43-4552-9e6b-696361645f70,rev?*%
%TF.SameCoordinates,Original*%
%TF.FileFunction,Soldermask,Top*%
%TF.FilePolarity,Negative*%
%FSLAX45Y45*%
G04 Gerber Fmt 4.5, Leading zero omitted, Abs format (unit mm)*
G04 Created by KiCad (PCBNEW 7.0.3) date 2023-05-15 17:39:43*
%MOMM*%
%LPD*%
G01*
G04 APERTURE LIST*
%TA.AperFunction,Profile*%
%ADD10C,0.100000*%
%TD*%
%TA.AperFunction,Profile*%
%ADD11C,4.250000*%
%TD*%
G04 APERTURE END LIST*
D10*
%TO.C,Logo*%
X4890000Y-7397500D02*
X12890000Y-7397500D01*
X12890000Y-7397500D02*
X12890000Y-3297500D01*
X12890000Y-3297500D02*
X4890000Y-3297500D01*
X4890000Y-3297500D02*
X4890000Y-7397500D01*
%TO.C,U4*%
D11*
X6219650Y-6155850D02*
G75*
G03*
X6219650Y-6155850I-212500J0D01*
G01*
%TD*%
G36*
X5295633Y-7078012D02*
G01*
X5301072Y-7078012D01*
X5305858Y-7078906D01*
X5310835Y-7079342D01*
X5316944Y-7080979D01*
X5322840Y-7082081D01*
X5326838Y-7083630D01*
X5331036Y-7084755D01*
X5337391Y-7087718D01*
X5343489Y-7090080D01*
X5346636Y-7092029D01*
X5349990Y-7093593D01*
X5356317Y-7098023D01*
X5362316Y-7101738D01*
X5364616Y-7103834D01*
X5367122Y-7105589D01*
X5373118Y-7111585D01*
X5378681Y-7116656D01*
X5380198Y-7118665D01*
X5381911Y-7120378D01*
X5387254Y-7128009D01*
X5392026Y-7134328D01*
X5392881Y-7136045D01*
X5393907Y-7137510D01*
X5398274Y-7146876D01*
X5401897Y-7154151D01*
X5402257Y-7155417D01*
X5402745Y-7156464D01*
X5405822Y-7167947D01*
X5407957Y-7175450D01*
X5408023Y-7176160D01*
X5408158Y-7176665D01*
X5409656Y-7193789D01*
X5410000Y-7197500D01*
X5409656Y-7201211D01*
X5408158Y-7218335D01*
X5408023Y-7218840D01*
X5407957Y-7219550D01*
X5405821Y-7227055D01*
X5402745Y-7238536D01*
X5402257Y-7239583D01*
X5401897Y-7240849D01*
X5398274Y-7248124D01*
X5393907Y-7257490D01*
X5392881Y-7258955D01*
X5392026Y-7260672D01*
X5387254Y-7266992D01*
X5381911Y-7274622D01*
X5380198Y-7276335D01*
X5378681Y-7278343D01*
X5373116Y-7283416D01*
X5367122Y-7289411D01*
X5364616Y-7291165D01*
X5362316Y-7293262D01*
X5356316Y-7296977D01*
X5349990Y-7301407D01*
X5346637Y-7302970D01*
X5343489Y-7304920D01*
X5337390Y-7307282D01*
X5331036Y-7310245D01*
X5326839Y-7311370D01*
X5322840Y-7312919D01*
X5316942Y-7314021D01*
X5310835Y-7315658D01*
X5305859Y-7316093D01*
X5301072Y-7316988D01*
X5295632Y-7316988D01*
X5290000Y-7317481D01*
X5284368Y-7316988D01*
X5278928Y-7316988D01*
X5274141Y-7316093D01*
X5269165Y-7315658D01*
X5263057Y-7314021D01*
X5257160Y-7312919D01*
X5253161Y-7311370D01*
X5248964Y-7310245D01*
X5242609Y-7307282D01*
X5236511Y-7304920D01*
X5233364Y-7302971D01*
X5230010Y-7301407D01*
X5223683Y-7296977D01*
X5217684Y-7293262D01*
X5215384Y-7291166D01*
X5212878Y-7289411D01*
X5206882Y-7283415D01*
X5201319Y-7278343D01*
X5199802Y-7276335D01*
X5198089Y-7274622D01*
X5192745Y-7266990D01*
X5187974Y-7260672D01*
X5187119Y-7258955D01*
X5186093Y-7257490D01*
X5181724Y-7248121D01*
X5178103Y-7240849D01*
X5177743Y-7239584D01*
X5177255Y-7238536D01*
X5174177Y-7227049D01*
X5172043Y-7219550D01*
X5171977Y-7218841D01*
X5171842Y-7218335D01*
X5170342Y-7201192D01*
X5170000Y-7197500D01*
X5170342Y-7193809D01*
X5171842Y-7176665D01*
X5171977Y-7176159D01*
X5172043Y-7175450D01*
X5174176Y-7167953D01*
X5177255Y-7156464D01*
X5177743Y-7155416D01*
X5178103Y-7154151D01*
X5181724Y-7146879D01*
X5186093Y-7137510D01*
X5187119Y-7136044D01*
X5187974Y-7134328D01*
X5192744Y-7128011D01*
X5198089Y-7120378D01*
X5199803Y-7118664D01*
X5201319Y-7116656D01*
X5206881Y-7111586D01*
X5212878Y-7105589D01*
X5215385Y-7103834D01*
X5217684Y-7101738D01*
X5223682Y-7098024D01*
X5230010Y-7093593D01*
X5233364Y-7092029D01*
X5236511Y-7090080D01*
X5242609Y-7087718D01*
X5248964Y-7084755D01*
X5253162Y-7083630D01*
X5257160Y-7082081D01*
X5263056Y-7080979D01*
X5269165Y-7079342D01*
X5274142Y-7078906D01*
X5278928Y-7078012D01*
X5284367Y-7078012D01*
X5290000Y-7077519D01*
X5295633Y-7078012D01*
G37*
G36*
X12395633Y-7078012D02*
G01*
X12401072Y-7078012D01*
X12405858Y-7078906D01*
X12410835Y-7079342D01*
X12416943Y-7080979D01*
X12422840Y-7082081D01*
X12426838Y-7083630D01*
X12431036Y-7084755D01*
X12437391Y-7087718D01*
X12443489Y-7090080D01*
X12446636Y-7092029D01*
X12449990Y-7093593D01*
X12456317Y-7098023D01*
X12462316Y-7101738D01*
X12464616Y-7103834D01*
X12467122Y-7105589D01*
X12473117Y-7111585D01*
X12478681Y-7116656D01*
X12480198Y-7118665D01*
X12481911Y-7120378D01*
X12487254Y-7128009D01*
X12492026Y-7134328D01*
X12492881Y-7136045D01*
X12493907Y-7137510D01*
X12498274Y-7146876D01*
X12501897Y-7154151D01*
X12502257Y-7155417D01*
X12502745Y-7156464D01*
X12505822Y-7167947D01*
X12507957Y-7175450D01*
X12508022Y-7176160D01*
X12508158Y-7176665D01*
X12509656Y-7193789D01*
X12510000Y-7197500D01*
X12509656Y-7201211D01*
X12508158Y-7218335D01*
X12508022Y-7218840D01*
X12507957Y-7219550D01*
X12505821Y-7227055D01*
X12502745Y-7238536D01*
X12502257Y-7239583D01*
X12501897Y-7240849D01*
X12498274Y-7248124D01*
X12493907Y-7257490D01*
X12492881Y-7258955D01*
X12492026Y-7260672D01*
X12487254Y-7266992D01*
X12481911Y-7274622D01*
X12480198Y-7276335D01*
X12478681Y-7278343D01*
X12473116Y-7283416D01*
X12467122Y-7289411D01*
X12464616Y-7291165D01*
X12462316Y-7293262D01*
X12456316Y-7296977D01*
X12449990Y-7301407D01*
X12446636Y-7302970D01*
X12443489Y-7304920D01*
X12437390Y-7307282D01*
X12431036Y-7310245D01*
X12426839Y-7311370D01*
X12422840Y-7312919D01*
X12416942Y-7314021D01*
X12410835Y-7315658D01*
X12405859Y-7316093D01*
X12401072Y-7316988D01*
X12395632Y-7316988D01*
X12390000Y-7317481D01*
X12384368Y-7316988D01*
X12378928Y-7316988D01*
X12374141Y-7316093D01*
X12369165Y-7315658D01*
X12363057Y-7314021D01*
X12357160Y-7312919D01*
X12353161Y-7311370D01*
X12348964Y-7310245D01*
X12342609Y-7307282D01*
X12336511Y-7304920D01*
X12333364Y-7302971D01*
X12330010Y-7301407D01*
X12323683Y-7296977D01*
X12317684Y-7293262D01*
X12315384Y-7291166D01*
X12312878Y-7289411D01*
X12306882Y-7283415D01*
X12301319Y-7278343D01*
X12299802Y-7276335D01*
X12298089Y-7274622D01*
X12292745Y-7266990D01*
X12287974Y-7260672D01*
X12287119Y-7258955D01*
X12286093Y-7257490D01*
X12281724Y-7248121D01*
X12278103Y-7240849D01*
X12277743Y-7239584D01*
X12277255Y-7238536D01*
X12274177Y-7227049D01*
X12272043Y-7219550D01*
X12271977Y-7218841D01*
X12271842Y-7218335D01*
X12270342Y-7201192D01*
X12270000Y-7197500D01*
X12270342Y-7193809D01*
X12271842Y-7176665D01*
X12271977Y-7176159D01*
X12272043Y-7175450D01*
X12274176Y-7167953D01*
X12277255Y-7156464D01*
X12277743Y-7155416D01*
X12278103Y-7154151D01*
X12281724Y-7146879D01*
X12286093Y-7137510D01*
X12287119Y-7136044D01*
X12287974Y-7134328D01*
X12292744Y-7128011D01*
X12298089Y-7120378D01*
X12299803Y-7118664D01*
X12301319Y-7116656D01*
X12306881Y-7111586D01*
X12312878Y-7105589D01*
X12315385Y-7103834D01*
X12317684Y-7101738D01*
X12323682Y-7098024D01*
X12330010Y-7093593D01*
X12333364Y-7092029D01*
X12336511Y-7090080D01*
X12342609Y-7087718D01*
X12348964Y-7084755D01*
X12353162Y-7083630D01*
X12357160Y-7082081D01*
X12363056Y-7080979D01*
X12369165Y-7079342D01*
X12374142Y-7078906D01*
X12378928Y-7078012D01*
X12384367Y-7078012D01*
X12390000Y-7077519D01*
X12395633Y-7078012D01*
G37*
G36*
X9922689Y-6975380D02*
G01*
X9938541Y-6980927D01*
X9952762Y-6989863D01*
X9964637Y-7001738D01*
X9973573Y-7015959D01*
X9979120Y-7031811D01*
X9981000Y-7048500D01*
X9979120Y-7065189D01*
X9973573Y-7081041D01*
X9964637Y-7095262D01*
X9952762Y-7107137D01*
X9938541Y-7116073D01*
X9922689Y-7121620D01*
X9906000Y-7123500D01*
X9889311Y-7121620D01*
X9873459Y-7116073D01*
X9859238Y-7107137D01*
X9847363Y-7095262D01*
X9838427Y-7081041D01*
X9832880Y-7065189D01*
X9831000Y-7048500D01*
X9832880Y-7031811D01*
X9838427Y-7015959D01*
X9847363Y-7001738D01*
X9859238Y-6989863D01*
X9873459Y-6980927D01*
X9889311Y-6975380D01*
X9906000Y-6973500D01*
X9922689Y-6975380D01*
G37*
G36*
X11703509Y-6823421D02*
G01*
X11722268Y-6829112D01*
X11739557Y-6838353D01*
X11754711Y-6850789D01*
X11767147Y-6865943D01*
X11776388Y-6883232D01*
X11782078Y-6901991D01*
X11784000Y-6921500D01*
X11782078Y-6941009D01*
X11776388Y-6959768D01*
X11767147Y-6977057D01*
X11754711Y-6992211D01*
X11739557Y-7004647D01*
X11722268Y-7013888D01*
X11703509Y-7019578D01*
X11684000Y-7021500D01*
X11664491Y-7019578D01*
X11645732Y-7013888D01*
X11628443Y-7004647D01*
X11613289Y-6992211D01*
X11600853Y-6977057D01*
X11591612Y-6959768D01*
X11585921Y-6941009D01*
X11584000Y-6921500D01*
X11585921Y-6901991D01*
X11591612Y-6883232D01*
X11600853Y-6865943D01*
X11613289Y-6850789D01*
X11628443Y-6838353D01*
X11645732Y-6829112D01*
X11664491Y-6823421D01*
X11684000Y-6821500D01*
X11703509Y-6823421D01*
G37*
G36*
X12031827Y-6822261D02*
G01*
X12035071Y-6824429D01*
X12037239Y-6827673D01*
X12038000Y-6831500D01*
X12038000Y-7011500D01*
X12037239Y-7015327D01*
X12035071Y-7018571D01*
X12031827Y-7020739D01*
X12028000Y-7021500D01*
X11848000Y-7021500D01*
X11844173Y-7020739D01*
X11840929Y-7018571D01*
X11838761Y-7015327D01*
X11838000Y-7011500D01*
X11838000Y-6831500D01*
X11838761Y-6827673D01*
X11840929Y-6824429D01*
X11844173Y-6822261D01*
X11848000Y-6821500D01*
X12028000Y-6821500D01*
X12031827Y-6822261D01*
G37*
G36*
X7892534Y-6828325D02*
G01*
X7910355Y-6833731D01*
X7926779Y-6842510D01*
X7941175Y-6854325D01*
X7952990Y-6868721D01*
X7961769Y-6885145D01*
X7967175Y-6902966D01*
X7969000Y-6921500D01*
X7967175Y-6940034D01*
X7961769Y-6957855D01*
X7952990Y-6974279D01*
X7941175Y-6988675D01*
X7926779Y-7000490D01*
X7910355Y-7009269D01*
X7892534Y-7014675D01*
X7874000Y-7016500D01*
X7855466Y-7014675D01*
X7837645Y-7009269D01*
X7821221Y-7000490D01*
X7806825Y-6988675D01*
X7795010Y-6974279D01*
X7786231Y-6957855D01*
X7780825Y-6940034D01*
X7779000Y-6921500D01*
X7780825Y-6902966D01*
X7786231Y-6885145D01*
X7795010Y-6868721D01*
X7806825Y-6854325D01*
X7821221Y-6842510D01*
X7837645Y-6833731D01*
X7855466Y-6828325D01*
X7874000Y-6826500D01*
X7892534Y-6828325D01*
G37*
G36*
X9416534Y-6828325D02*
G01*
X9434355Y-6833731D01*
X9450779Y-6842510D01*
X9465175Y-6854325D01*
X9476990Y-6868721D01*
X9485769Y-6885145D01*
X9491175Y-6902966D01*
X9493000Y-6921500D01*
X9491175Y-6940034D01*
X9485769Y-6957855D01*
X9476990Y-6974279D01*
X9465175Y-6988675D01*
X9450779Y-7000490D01*
X9434355Y-7009269D01*
X9416534Y-7014675D01*
X9398000Y-7016500D01*
X9379466Y-7014675D01*
X9361645Y-7009269D01*
X9345221Y-7000490D01*
X9330825Y-6988675D01*
X9319010Y-6974279D01*
X9310231Y-6957855D01*
X9304825Y-6940034D01*
X9303000Y-6921500D01*
X9304825Y-6902966D01*
X9310231Y-6885145D01*
X9319010Y-6868721D01*
X9330825Y-6854325D01*
X9345221Y-6842510D01*
X9361645Y-6833731D01*
X9379466Y-6828325D01*
X9398000Y-6826500D01*
X9416534Y-6828325D01*
G37*
G36*
X6608905Y-6829427D02*
G01*
X6613677Y-6829427D01*
X6617798Y-6830303D01*
X6622057Y-6830723D01*
X6627406Y-6832345D01*
X6632609Y-6833451D01*
X6635937Y-6834933D01*
X6639420Y-6835989D01*
X6644953Y-6838947D01*
X6650290Y-6841323D01*
X6652771Y-6843126D01*
X6655421Y-6844542D01*
X6660826Y-6848978D01*
X6665948Y-6852700D01*
X6667611Y-6854546D01*
X6669447Y-6856053D01*
X6674379Y-6862063D01*
X6678899Y-6867083D01*
X6679848Y-6868727D01*
X6680957Y-6870079D01*
X6685061Y-6877756D01*
X6688576Y-6883844D01*
X6688980Y-6885088D01*
X6689510Y-6886080D01*
X6692432Y-6895713D01*
X6694557Y-6902251D01*
X6694632Y-6902963D01*
X6694777Y-6903443D01*
X6696195Y-6917838D01*
X6696580Y-6921500D01*
X6696195Y-6925162D01*
X6694777Y-6939557D01*
X6694632Y-6940036D01*
X6694557Y-6940748D01*
X6692432Y-6947288D01*
X6689510Y-6956920D01*
X6688980Y-6957911D01*
X6688576Y-6959156D01*
X6685060Y-6965245D01*
X6680957Y-6972921D01*
X6679849Y-6974272D01*
X6678899Y-6975917D01*
X6674378Y-6980937D01*
X6669447Y-6986947D01*
X6667611Y-6988453D01*
X6665948Y-6990300D01*
X6660825Y-6994022D01*
X6655421Y-6998457D01*
X6652772Y-6999873D01*
X6650290Y-7001677D01*
X6644952Y-7004053D01*
X6639420Y-7007010D01*
X6635938Y-7008066D01*
X6632609Y-7009549D01*
X6627405Y-7010655D01*
X6622057Y-7012277D01*
X6617799Y-7012697D01*
X6613677Y-7013573D01*
X6608904Y-7013573D01*
X6604000Y-7014056D01*
X6599096Y-7013573D01*
X6594323Y-7013573D01*
X6590201Y-7012697D01*
X6585943Y-7012277D01*
X6580594Y-7010655D01*
X6575391Y-7009549D01*
X6572062Y-7008067D01*
X6568580Y-7007010D01*
X6563047Y-7004053D01*
X6557710Y-7001677D01*
X6555228Y-6999874D01*
X6552579Y-6998457D01*
X6547174Y-6994022D01*
X6542052Y-6990300D01*
X6540389Y-6988453D01*
X6538553Y-6986947D01*
X6533620Y-6980936D01*
X6529101Y-6975917D01*
X6528152Y-6974272D01*
X6527042Y-6972921D01*
X6522938Y-6965242D01*
X6519424Y-6959156D01*
X6519020Y-6957912D01*
X6518489Y-6956920D01*
X6515566Y-6947284D01*
X6513443Y-6940748D01*
X6513368Y-6940037D01*
X6513223Y-6939557D01*
X6511803Y-6925147D01*
X6511420Y-6921500D01*
X6511803Y-6917853D01*
X6513223Y-6903443D01*
X6513368Y-6902963D01*
X6513443Y-6902251D01*
X6515566Y-6895718D01*
X6518489Y-6886080D01*
X6519020Y-6885088D01*
X6519424Y-6883844D01*
X6522937Y-6877759D01*
X6527042Y-6870079D01*
X6528152Y-6868727D01*
X6529101Y-6867083D01*
X6533619Y-6862065D01*
X6538553Y-6856053D01*
X6540389Y-6854546D01*
X6542052Y-6852700D01*
X6547173Y-6848979D01*
X6552579Y-6844542D01*
X6555229Y-6843126D01*
X6557710Y-6841323D01*
X6563046Y-6838948D01*
X6568580Y-6835989D01*
X6572063Y-6834933D01*
X6575391Y-6833451D01*
X6580593Y-6832345D01*
X6585943Y-6830723D01*
X6590202Y-6830303D01*
X6594323Y-6829427D01*
X6599095Y-6829427D01*
X6604000Y-6828944D01*
X6608905Y-6829427D01*
G37*
G36*
X10418761Y-6831993D02*
G01*
X10423408Y-6831993D01*
X10427420Y-6832846D01*
X10431553Y-6833253D01*
X10436746Y-6834828D01*
X10441812Y-6835905D01*
X10445053Y-6837348D01*
X10448432Y-6838373D01*
X10453802Y-6841243D01*
X10459000Y-6843558D01*
X10461417Y-6845313D01*
X10463988Y-6846688D01*
X10469233Y-6850993D01*
X10474222Y-6854617D01*
X10475841Y-6856415D01*
X10477623Y-6857877D01*
X10482409Y-6863710D01*
X10486812Y-6868599D01*
X10487737Y-6870201D01*
X10488812Y-6871512D01*
X10492791Y-6878956D01*
X10496219Y-6884894D01*
X10496613Y-6886107D01*
X10497127Y-6887068D01*
X10499957Y-6896397D01*
X10502033Y-6902788D01*
X10502106Y-6903483D01*
X10502247Y-6903947D01*
X10503615Y-6917838D01*
X10504000Y-6921500D01*
X10503615Y-6925162D01*
X10502247Y-6939053D01*
X10502106Y-6939516D01*
X10502033Y-6940212D01*
X10499956Y-6946604D01*
X10497127Y-6955932D01*
X10496614Y-6956892D01*
X10496219Y-6958106D01*
X10492790Y-6964045D01*
X10488812Y-6971488D01*
X10487737Y-6972798D01*
X10486812Y-6974401D01*
X10482408Y-6979291D01*
X10477623Y-6985122D01*
X10475842Y-6986584D01*
X10474222Y-6988383D01*
X10469232Y-6992008D01*
X10463988Y-6996312D01*
X10461417Y-6997686D01*
X10459000Y-6999442D01*
X10453801Y-7001757D01*
X10448432Y-7004627D01*
X10445053Y-7005652D01*
X10441812Y-7007095D01*
X10436745Y-7008172D01*
X10431553Y-7009747D01*
X10427421Y-7010154D01*
X10423408Y-7011007D01*
X10418760Y-7011007D01*
X10414000Y-7011476D01*
X10409240Y-7011007D01*
X10404592Y-7011007D01*
X10400579Y-7010154D01*
X10396447Y-7009747D01*
X10391255Y-7008172D01*
X10386189Y-7007095D01*
X10382947Y-7005652D01*
X10379568Y-7004627D01*
X10374198Y-7001757D01*
X10369000Y-6999442D01*
X10366583Y-6997686D01*
X10364012Y-6996312D01*
X10358767Y-6992007D01*
X10353778Y-6988383D01*
X10352159Y-6986584D01*
X10350377Y-6985122D01*
X10345591Y-6979290D01*
X10341189Y-6974401D01*
X10340263Y-6972798D01*
X10339188Y-6971488D01*
X10335209Y-6964043D01*
X10331781Y-6958106D01*
X10331387Y-6956893D01*
X10330873Y-6955932D01*
X10328042Y-6946600D01*
X10325967Y-6940212D01*
X10325894Y-6939517D01*
X10325753Y-6939053D01*
X10324383Y-6925147D01*
X10324000Y-6921500D01*
X10324383Y-6917854D01*
X10325753Y-6903947D01*
X10325894Y-6903483D01*
X10325967Y-6902788D01*
X10328042Y-6896402D01*
X10330873Y-6887068D01*
X10331387Y-6886107D01*
X10331781Y-6884894D01*
X10335208Y-6878958D01*
X10339188Y-6871512D01*
X10340264Y-6870201D01*
X10341189Y-6868599D01*
X10345590Y-6863711D01*
X10350377Y-6857877D01*
X10352159Y-6856415D01*
X10353778Y-6854617D01*
X10358766Y-6850993D01*
X10364012Y-6846688D01*
X10366584Y-6845313D01*
X10369000Y-6843558D01*
X10374197Y-6841244D01*
X10379568Y-6838373D01*
X10382947Y-6837348D01*
X10386189Y-6835905D01*
X10391254Y-6834828D01*
X10396447Y-6833253D01*
X10400580Y-6832846D01*
X10404592Y-6831993D01*
X10409239Y-6831993D01*
X10414000Y-6831524D01*
X10418761Y-6831993D01*
G37*
G36*
X11434761Y-6831993D02*
G01*
X11439408Y-6831993D01*
X11443420Y-6832846D01*
X11447553Y-6833253D01*
X11452746Y-6834828D01*
X11457811Y-6835905D01*
X11461053Y-6837348D01*
X11464432Y-6838373D01*
X11469802Y-6841243D01*
X11475000Y-6843558D01*
X11477416Y-6845313D01*
X11479988Y-6846688D01*
X11485233Y-6850993D01*
X11490222Y-6854617D01*
X11491841Y-6856415D01*
X11493622Y-6857877D01*
X11498409Y-6863710D01*
X11502811Y-6868599D01*
X11503736Y-6870201D01*
X11504812Y-6871512D01*
X11508791Y-6878956D01*
X11512219Y-6884894D01*
X11512613Y-6886107D01*
X11513127Y-6887068D01*
X11515957Y-6896397D01*
X11518033Y-6902788D01*
X11518106Y-6903483D01*
X11518247Y-6903947D01*
X11519615Y-6917838D01*
X11520000Y-6921500D01*
X11519615Y-6925162D01*
X11518247Y-6939053D01*
X11518106Y-6939516D01*
X11518033Y-6940212D01*
X11515956Y-6946604D01*
X11513127Y-6955932D01*
X11512613Y-6956892D01*
X11512219Y-6958106D01*
X11508790Y-6964045D01*
X11504812Y-6971488D01*
X11503737Y-6972798D01*
X11502811Y-6974401D01*
X11498408Y-6979291D01*
X11493622Y-6985122D01*
X11491841Y-6986584D01*
X11490222Y-6988383D01*
X11485232Y-6992008D01*
X11479988Y-6996312D01*
X11477417Y-6997686D01*
X11475000Y-6999442D01*
X11469801Y-7001757D01*
X11464432Y-7004627D01*
X11461053Y-7005652D01*
X11457811Y-7007095D01*
X11452745Y-7008172D01*
X11447553Y-7009747D01*
X11443421Y-7010154D01*
X11439408Y-7011007D01*
X11434760Y-7011007D01*
X11430000Y-7011476D01*
X11425240Y-7011007D01*
X11420592Y-7011007D01*
X11416579Y-7010154D01*
X11412447Y-7009747D01*
X11407255Y-7008172D01*
X11402188Y-7007095D01*
X11398947Y-7005652D01*
X11395568Y-7004627D01*
X11390198Y-7001757D01*
X11385000Y-6999442D01*
X11382583Y-6997686D01*
X11380012Y-6996312D01*
X11374767Y-6992007D01*
X11369778Y-6988383D01*
X11368159Y-6986584D01*
X11366377Y-6985122D01*
X11361591Y-6979290D01*
X11357188Y-6974401D01*
X11356263Y-6972798D01*
X11355188Y-6971488D01*
X11351208Y-6964043D01*
X11347781Y-6958106D01*
X11347387Y-6956893D01*
X11346873Y-6955932D01*
X11344042Y-6946600D01*
X11341967Y-6940212D01*
X11341894Y-6939517D01*
X11341753Y-6939053D01*
X11340383Y-6925147D01*
X11340000Y-6921500D01*
X11340383Y-6917854D01*
X11341753Y-6903947D01*
X11341894Y-6903483D01*
X11341967Y-6902788D01*
X11344042Y-6896402D01*
X11346873Y-6887068D01*
X11347387Y-6886107D01*
X11347781Y-6884894D01*
X11351208Y-6878958D01*
X11355188Y-6871512D01*
X11356264Y-6870201D01*
X11357188Y-6868599D01*
X11361590Y-6863711D01*
X11366377Y-6857877D01*
X11368159Y-6856415D01*
X11369778Y-6854617D01*
X11374766Y-6850993D01*
X11380012Y-6846688D01*
X11382584Y-6845313D01*
X11385000Y-6843558D01*
X11390197Y-6841244D01*
X11395568Y-6838373D01*
X11398947Y-6837348D01*
X11402188Y-6835905D01*
X11407253Y-6834828D01*
X11412447Y-6833253D01*
X11416580Y-6832846D01*
X11420592Y-6831993D01*
X11425239Y-6831993D01*
X11430000Y-6831524D01*
X11434761Y-6831993D01*
G37*
G36*
X5502725Y-6593709D02*
G01*
X5529677Y-6601261D01*
X5555350Y-6612412D01*
X5579266Y-6626956D01*
X5600978Y-6644620D01*
X5620083Y-6665076D01*
X5636224Y-6687944D01*
X5649102Y-6712796D01*
X5658475Y-6739170D01*
X5664170Y-6766575D01*
X5666080Y-6794500D01*
X5664170Y-6822425D01*
X5658475Y-6849830D01*
X5649102Y-6876204D01*
X5636224Y-6901056D01*
X5620083Y-6923923D01*
X5600978Y-6944380D01*
X5579266Y-6962044D01*
X5555350Y-6976587D01*
X5529677Y-6987739D01*
X5502725Y-6995291D01*
X5474995Y-6999102D01*
X5447005Y-6999102D01*
X5419275Y-6995291D01*
X5392323Y-6987739D01*
X5366650Y-6976587D01*
X5342734Y-6962044D01*
X5321022Y-6944380D01*
X5301917Y-6923923D01*
X5285776Y-6901056D01*
X5272898Y-6876204D01*
X5263525Y-6849830D01*
X5257830Y-6822425D01*
X5255920Y-6794500D01*
X5257830Y-6766575D01*
X5263525Y-6739170D01*
X5272898Y-6712796D01*
X5285776Y-6687944D01*
X5301917Y-6665076D01*
X5321022Y-6644620D01*
X5342734Y-6626956D01*
X5366650Y-6612412D01*
X5392323Y-6601261D01*
X5419275Y-6593709D01*
X5447005Y-6589898D01*
X5474995Y-6589898D01*
X5502725Y-6593709D01*
G37*
G36*
X9974827Y-6720261D02*
G01*
X9978071Y-6722429D01*
X9980239Y-6725673D01*
X9981000Y-6729500D01*
X9981000Y-6859500D01*
X9981000Y-6859500D01*
X9981000Y-6860094D01*
X9986157Y-6862944D01*
X9986238Y-6862863D01*
X10000459Y-6853927D01*
X10016311Y-6848380D01*
X10033000Y-6846500D01*
X10049689Y-6848380D01*
X10065541Y-6853927D01*
X10079762Y-6862863D01*
X10091637Y-6874738D01*
X10100573Y-6888959D01*
X10106120Y-6904811D01*
X10108000Y-6921500D01*
X10106120Y-6938189D01*
X10100573Y-6954041D01*
X10091637Y-6968262D01*
X10079762Y-6980137D01*
X10065541Y-6989073D01*
X10049689Y-6994620D01*
X10033000Y-6996500D01*
X10016311Y-6994620D01*
X10000459Y-6989073D01*
X9986238Y-6980137D01*
X9974363Y-6968262D01*
X9965427Y-6954041D01*
X9959880Y-6938189D01*
X9958000Y-6921500D01*
X9959880Y-6904811D01*
X9965427Y-6888959D01*
X9974363Y-6874738D01*
X9974444Y-6874657D01*
X9971594Y-6869500D01*
X9971001Y-6869500D01*
X9971000Y-6869500D01*
X9841000Y-6869500D01*
X9837173Y-6868739D01*
X9833929Y-6866571D01*
X9831761Y-6863327D01*
X9831000Y-6859500D01*
X9831000Y-6729500D01*
X9831761Y-6725673D01*
X9833929Y-6722429D01*
X9837173Y-6720261D01*
X9841000Y-6719500D01*
X9971000Y-6719500D01*
X9974827Y-6720261D01*
G37*
G36*
X7892534Y-6574325D02*
G01*
X7910355Y-6579731D01*
X7926779Y-6588510D01*
X7941175Y-6600325D01*
X7952990Y-6614721D01*
X7961769Y-6631145D01*
X7967175Y-6648966D01*
X7969000Y-6667500D01*
X7967175Y-6686034D01*
X7961769Y-6703855D01*
X7952990Y-6720279D01*
X7941175Y-6734675D01*
X7926779Y-6746490D01*
X7910355Y-6755269D01*
X7892534Y-6760675D01*
X7874000Y-6762500D01*
X7855466Y-6760675D01*
X7837645Y-6755269D01*
X7821221Y-6746490D01*
X7806825Y-6734675D01*
X7795010Y-6720279D01*
X7786231Y-6703855D01*
X7780825Y-6686034D01*
X7779000Y-6667500D01*
X7780825Y-6648966D01*
X7786231Y-6631145D01*
X7795010Y-6614721D01*
X7806825Y-6600325D01*
X7821221Y-6588510D01*
X7837645Y-6579731D01*
X7855466Y-6574325D01*
X7874000Y-6572500D01*
X7892534Y-6574325D01*
G37*
G36*
X9416534Y-6574325D02*
G01*
X9434355Y-6579731D01*
X9450779Y-6588510D01*
X9465175Y-6600325D01*
X9476990Y-6614721D01*
X9485769Y-6631145D01*
X9491175Y-6648966D01*
X9493000Y-6667500D01*
X9491175Y-6686034D01*
X9485769Y-6703855D01*
X9476990Y-6720279D01*
X9465175Y-6734675D01*
X9450779Y-6746490D01*
X9434355Y-6755269D01*
X9416534Y-6760675D01*
X9398000Y-6762500D01*
X9379466Y-6760675D01*
X9361645Y-6755269D01*
X9345221Y-6746490D01*
X9330825Y-6734675D01*
X9319010Y-6720279D01*
X9310231Y-6703855D01*
X9304825Y-6686034D01*
X9303000Y-6667500D01*
X9304825Y-6648966D01*
X9310231Y-6631145D01*
X9319010Y-6614721D01*
X9330825Y-6600325D01*
X9345221Y-6588510D01*
X9361645Y-6579731D01*
X9379466Y-6574325D01*
X9398000Y-6572500D01*
X9416534Y-6574325D01*
G37*
G36*
X6608905Y-6575427D02*
G01*
X6613677Y-6575427D01*
X6617798Y-6576303D01*
X6622057Y-6576723D01*
X6627406Y-6578345D01*
X6632609Y-6579451D01*
X6635937Y-6580933D01*
X6639420Y-6581989D01*
X6644953Y-6584947D01*
X6650290Y-6587323D01*
X6652771Y-6589126D01*
X6655421Y-6590542D01*
X6660826Y-6594978D01*
X6665948Y-6598700D01*
X6667611Y-6600546D01*
X6669447Y-6602053D01*
X6674379Y-6608063D01*
X6678899Y-6613083D01*
X6679848Y-6614727D01*
X6680957Y-6616079D01*
X6685061Y-6623756D01*
X6688576Y-6629844D01*
X6688980Y-6631088D01*
X6689510Y-6632080D01*
X6692432Y-6641713D01*
X6694557Y-6648251D01*
X6694632Y-6648963D01*
X6694777Y-6649443D01*
X6696195Y-6663838D01*
X6696580Y-6667500D01*
X6696195Y-6671162D01*
X6694777Y-6685557D01*
X6694632Y-6686036D01*
X6694557Y-6686748D01*
X6692432Y-6693288D01*
X6689510Y-6702920D01*
X6688980Y-6703911D01*
X6688576Y-6705156D01*
X6685060Y-6711245D01*
X6680957Y-6718921D01*
X6679849Y-6720272D01*
X6678899Y-6721917D01*
X6674378Y-6726937D01*
X6669447Y-6732947D01*
X6667611Y-6734453D01*
X6665948Y-6736300D01*
X6660825Y-6740022D01*
X6655421Y-6744457D01*
X6652772Y-6745873D01*
X6650290Y-6747677D01*
X6644952Y-6750053D01*
X6639420Y-6753010D01*
X6635938Y-6754066D01*
X6632609Y-6755549D01*
X6627405Y-6756655D01*
X6622057Y-6758277D01*
X6617799Y-6758697D01*
X6613677Y-6759573D01*
X6608904Y-6759573D01*
X6604000Y-6760056D01*
X6599096Y-6759573D01*
X6594323Y-6759573D01*
X6590201Y-6758697D01*
X6585943Y-6758277D01*
X6580594Y-6756655D01*
X6575391Y-6755549D01*
X6572062Y-6754067D01*
X6568580Y-6753010D01*
X6563047Y-6750053D01*
X6557710Y-6747677D01*
X6555228Y-6745874D01*
X6552579Y-6744457D01*
X6547174Y-6740022D01*
X6542052Y-6736300D01*
X6540389Y-6734453D01*
X6538553Y-6732947D01*
X6533620Y-6726936D01*
X6529101Y-6721917D01*
X6528152Y-6720272D01*
X6527042Y-6718921D01*
X6522938Y-6711242D01*
X6519424Y-6705156D01*
X6519020Y-6703912D01*
X6518489Y-6702920D01*
X6515566Y-6693284D01*
X6513443Y-6686748D01*
X6513368Y-6686037D01*
X6513223Y-6685557D01*
X6511803Y-6671147D01*
X6511420Y-6667500D01*
X6511803Y-6663853D01*
X6513223Y-6649443D01*
X6513368Y-6648963D01*
X6513443Y-6648251D01*
X6515566Y-6641718D01*
X6518489Y-6632080D01*
X6519020Y-6631088D01*
X6519424Y-6629844D01*
X6522937Y-6623759D01*
X6527042Y-6616079D01*
X6528152Y-6614727D01*
X6529101Y-6613083D01*
X6533619Y-6608065D01*
X6538553Y-6602053D01*
X6540389Y-6600546D01*
X6542052Y-6598700D01*
X6547173Y-6594979D01*
X6552579Y-6590542D01*
X6555229Y-6589126D01*
X6557710Y-6587323D01*
X6563046Y-6584948D01*
X6568580Y-6581989D01*
X6572063Y-6580933D01*
X6575391Y-6579451D01*
X6580593Y-6578345D01*
X6585943Y-6576723D01*
X6590202Y-6576303D01*
X6594323Y-6575427D01*
X6599095Y-6575427D01*
X6604000Y-6574944D01*
X6608905Y-6575427D01*
G37*
G36*
X7892534Y-6320325D02*
G01*
X7910355Y-6325731D01*
X7926779Y-6334510D01*
X7941175Y-6346325D01*
X7952990Y-6360721D01*
X7961769Y-6377145D01*
X7967175Y-6394966D01*
X7969000Y-6413500D01*
X7967175Y-6432034D01*
X7961769Y-6449855D01*
X7952990Y-6466279D01*
X7941175Y-6480675D01*
X7926779Y-6492490D01*
X7910355Y-6501269D01*
X7892534Y-6506675D01*
X7874000Y-6508500D01*
X7855466Y-6506675D01*
X7837645Y-6501269D01*
X7821221Y-6492490D01*
X7806825Y-6480675D01*
X7795010Y-6466279D01*
X7786231Y-6449855D01*
X7780825Y-6432034D01*
X7779000Y-6413500D01*
X7780825Y-6394966D01*
X7786231Y-6377145D01*
X7795010Y-6360721D01*
X7806825Y-6346325D01*
X7821221Y-6334510D01*
X7837645Y-6325731D01*
X7855466Y-6320325D01*
X7874000Y-6318500D01*
X7892534Y-6320325D01*
G37*
G36*
X9416534Y-6320325D02*
G01*
X9434355Y-6325731D01*
X9450779Y-6334510D01*
X9465175Y-6346325D01*
X9476990Y-6360721D01*
X9485769Y-6377145D01*
X9491175Y-6394966D01*
X9493000Y-6413500D01*
X9491175Y-6432034D01*
X9485769Y-6449855D01*
X9476990Y-6466279D01*
X9465175Y-6480675D01*
X9450779Y-6492490D01*
X9434355Y-6501269D01*
X9416534Y-6506675D01*
X9398000Y-6508500D01*
X9379466Y-6506675D01*
X9361645Y-6501269D01*
X9345221Y-6492490D01*
X9330825Y-6480675D01*
X9319010Y-6466279D01*
X9310231Y-6449855D01*
X9304825Y-6432034D01*
X9303000Y-6413500D01*
X9304825Y-6394966D01*
X9310231Y-6377145D01*
X9319010Y-6360721D01*
X9330825Y-6346325D01*
X9345221Y-6334510D01*
X9361645Y-6325731D01*
X9379466Y-6320325D01*
X9398000Y-6318500D01*
X9416534Y-6320325D01*
G37*
G36*
X6608905Y-6321427D02*
G01*
X6613677Y-6321427D01*
X6617798Y-6322303D01*
X6622057Y-6322723D01*
X6627406Y-6324345D01*
X6632609Y-6325451D01*
X6635937Y-6326933D01*
X6639420Y-6327989D01*
X6644953Y-6330947D01*
X6650290Y-6333323D01*
X6652771Y-6335126D01*
X6655421Y-6336542D01*
X6660826Y-6340978D01*
X6665948Y-6344700D01*
X6667611Y-6346546D01*
X6669447Y-6348053D01*
X6674379Y-6354063D01*
X6678899Y-6359083D01*
X6679848Y-6360727D01*
X6680957Y-6362079D01*
X6685061Y-6369756D01*
X6688576Y-6375844D01*
X6688980Y-6377088D01*
X6689510Y-6378080D01*
X6692432Y-6387713D01*
X6694557Y-6394251D01*
X6694632Y-6394963D01*
X6694777Y-6395443D01*
X6696195Y-6409839D01*
X6696580Y-6413500D01*
X6696195Y-6417163D01*
X6694777Y-6431557D01*
X6694632Y-6432036D01*
X6694557Y-6432748D01*
X6692432Y-6439288D01*
X6689510Y-6448920D01*
X6688980Y-6449911D01*
X6688576Y-6451156D01*
X6685060Y-6457245D01*
X6680957Y-6464921D01*
X6679849Y-6466272D01*
X6678899Y-6467917D01*
X6674378Y-6472937D01*
X6669447Y-6478947D01*
X6667611Y-6480453D01*
X6665948Y-6482300D01*
X6660825Y-6486022D01*
X6655421Y-6490457D01*
X6652772Y-6491873D01*
X6650290Y-6493677D01*
X6644952Y-6496053D01*
X6639420Y-6499010D01*
X6635938Y-6500066D01*
X6632609Y-6501549D01*
X6627405Y-6502655D01*
X6622057Y-6504277D01*
X6617799Y-6504697D01*
X6613677Y-6505573D01*
X6608904Y-6505573D01*
X6604000Y-6506056D01*
X6599096Y-6505573D01*
X6594323Y-6505573D01*
X6590201Y-6504697D01*
X6585943Y-6504277D01*
X6580594Y-6502655D01*
X6575391Y-6501549D01*
X6572062Y-6500067D01*
X6568580Y-6499010D01*
X6563047Y-6496053D01*
X6557710Y-6493677D01*
X6555228Y-6491874D01*
X6552579Y-6490457D01*
X6547174Y-6486022D01*
X6542052Y-6482300D01*
X6540389Y-6480453D01*
X6538553Y-6478947D01*
X6533620Y-6472936D01*
X6529101Y-6467917D01*
X6528152Y-6466272D01*
X6527042Y-6464921D01*
X6522938Y-6457242D01*
X6519424Y-6451156D01*
X6519020Y-6449912D01*
X6518489Y-6448920D01*
X6515566Y-6439284D01*
X6513443Y-6432748D01*
X6513368Y-6432037D01*
X6513223Y-6431557D01*
X6511803Y-6417147D01*
X6511420Y-6413500D01*
X6511803Y-6409853D01*
X6513223Y-6395443D01*
X6513368Y-6394963D01*
X6513443Y-6394251D01*
X6515566Y-6387718D01*
X6518489Y-6378080D01*
X6519020Y-6377088D01*
X6519424Y-6375844D01*
X6522937Y-6369759D01*
X6527042Y-6362079D01*
X6528152Y-6360727D01*
X6529101Y-6359083D01*
X6533619Y-6354065D01*
X6538553Y-6348053D01*
X6540389Y-6346546D01*
X6542052Y-6344700D01*
X6547173Y-6340979D01*
X6552579Y-6336542D01*
X6555229Y-6335126D01*
X6557710Y-6333323D01*
X6563046Y-6330948D01*
X6568580Y-6327989D01*
X6572063Y-6326933D01*
X6575391Y-6325451D01*
X6580593Y-6324345D01*
X6585943Y-6322723D01*
X6590202Y-6322303D01*
X6594323Y-6321427D01*
X6599095Y-6321427D01*
X6604000Y-6320944D01*
X6608905Y-6321427D01*
G37*
G36*
X9922689Y-6213380D02*
G01*
X9938541Y-6218927D01*
X9952762Y-6227863D01*
X9964637Y-6239738D01*
X9973573Y-6253959D01*
X9979120Y-6269811D01*
X9981000Y-6286500D01*
X9979120Y-6303189D01*
X9973573Y-6319041D01*
X9964637Y-6333262D01*
X9952762Y-6345137D01*
X9938541Y-6354073D01*
X9922689Y-6359620D01*
X9906000Y-6361500D01*
X9889311Y-6359620D01*
X9873459Y-6354073D01*
X9859238Y-6345137D01*
X9847363Y-6333262D01*
X9838427Y-6319041D01*
X9832880Y-6303189D01*
X9831000Y-6286500D01*
X9832880Y-6269811D01*
X9838427Y-6253959D01*
X9847363Y-6239738D01*
X9859238Y-6227863D01*
X9873459Y-6218927D01*
X9889311Y-6213380D01*
X9906000Y-6211500D01*
X9922689Y-6213380D01*
G37*
G36*
X11703509Y-6061421D02*
G01*
X11722268Y-6067112D01*
X11739557Y-6076353D01*
X11754711Y-6088789D01*
X11767147Y-6103943D01*
X11776388Y-6121232D01*
X11782078Y-6139991D01*
X11784000Y-6159500D01*
X11782078Y-6179009D01*
X11776388Y-6197768D01*
X11767147Y-6215057D01*
X11754711Y-6230211D01*
X11739557Y-6242647D01*
X11722268Y-6251888D01*
X11703509Y-6257578D01*
X11684000Y-6259500D01*
X11664491Y-6257578D01*
X11645732Y-6251888D01*
X11628443Y-6242647D01*
X11613289Y-6230211D01*
X11600853Y-6215057D01*
X11591612Y-6197768D01*
X11585921Y-6179009D01*
X11584000Y-6159500D01*
X11585921Y-6139991D01*
X11591612Y-6121232D01*
X11600853Y-6103943D01*
X11613289Y-6088789D01*
X11628443Y-6076353D01*
X11645732Y-6067112D01*
X11664491Y-6061421D01*
X11684000Y-6059500D01*
X11703509Y-6061421D01*
G37*
G36*
X12031827Y-6060261D02*
G01*
X12035071Y-6062429D01*
X12037239Y-6065673D01*
X12038000Y-6069500D01*
X12038000Y-6249500D01*
X12037239Y-6253327D01*
X12035071Y-6256571D01*
X12031827Y-6258739D01*
X12028000Y-6259500D01*
X11848000Y-6259500D01*
X11844173Y-6258739D01*
X11840929Y-6256571D01*
X11838761Y-6253327D01*
X11838000Y-6249500D01*
X11838000Y-6069500D01*
X11838761Y-6065673D01*
X11840929Y-6062429D01*
X11844173Y-6060261D01*
X11848000Y-6059500D01*
X12028000Y-6059500D01*
X12031827Y-6060261D01*
G37*
G36*
X7892534Y-6066325D02*
G01*
X7910355Y-6071731D01*
X7926779Y-6080510D01*
X7941175Y-6092325D01*
X7952990Y-6106721D01*
X7961769Y-6123145D01*
X7967175Y-6140966D01*
X7969000Y-6159500D01*
X7967175Y-6178034D01*
X7961769Y-6195855D01*
X7952990Y-6212279D01*
X7941175Y-6226675D01*
X7926779Y-6238490D01*
X7910355Y-6247269D01*
X7892534Y-6252675D01*
X7874000Y-6254500D01*
X7855466Y-6252675D01*
X7837645Y-6247269D01*
X7821221Y-6238490D01*
X7806825Y-6226675D01*
X7795010Y-6212279D01*
X7786231Y-6195855D01*
X7780825Y-6178034D01*
X7779000Y-6159500D01*
X7780825Y-6140966D01*
X7786231Y-6123145D01*
X7795010Y-6106721D01*
X7806825Y-6092325D01*
X7821221Y-6080510D01*
X7837645Y-6071731D01*
X7855466Y-6066325D01*
X7874000Y-6064500D01*
X7892534Y-6066325D01*
G37*
G36*
X9416534Y-6066325D02*
G01*
X9434355Y-6071731D01*
X9450779Y-6080510D01*
X9465175Y-6092325D01*
X9476990Y-6106721D01*
X9485769Y-6123145D01*
X9491175Y-6140966D01*
X9493000Y-6159500D01*
X9491175Y-6178034D01*
X9485769Y-6195855D01*
X9476990Y-6212279D01*
X9465175Y-6226675D01*
X9450779Y-6238490D01*
X9434355Y-6247269D01*
X9416534Y-6252675D01*
X9398000Y-6254500D01*
X9379466Y-6252675D01*
X9361645Y-6247269D01*
X9345221Y-6238490D01*
X9330825Y-6226675D01*
X9319010Y-6212279D01*
X9310231Y-6195855D01*
X9304825Y-6178034D01*
X9303000Y-6159500D01*
X9304825Y-6140966D01*
X9310231Y-6123145D01*
X9319010Y-6106721D01*
X9330825Y-6092325D01*
X9345221Y-6080510D01*
X9361645Y-6071731D01*
X9379466Y-6066325D01*
X9398000Y-6064500D01*
X9416534Y-6066325D01*
G37*
G36*
X6608905Y-6067427D02*
G01*
X6613677Y-6067427D01*
X6617798Y-6068303D01*
X6622057Y-6068723D01*
X6627406Y-6070345D01*
X6632609Y-6071451D01*
X6635937Y-6072933D01*
X6639420Y-6073989D01*
X6644953Y-6076947D01*
X6650290Y-6079323D01*
X6652771Y-6081126D01*
X6655421Y-6082542D01*
X6660826Y-6086978D01*
X6665948Y-6090700D01*
X6667611Y-6092546D01*
X6669447Y-6094053D01*
X6674379Y-6100063D01*
X6678899Y-6105083D01*
X6679848Y-6106727D01*
X6680957Y-6108079D01*
X6685061Y-6115756D01*
X6688576Y-6121844D01*
X6688980Y-6123088D01*
X6689510Y-6124080D01*
X6692432Y-6133713D01*
X6694557Y-6140251D01*
X6694632Y-6140963D01*
X6694777Y-6141443D01*
X6696195Y-6155839D01*
X6696580Y-6159500D01*
X6696195Y-6163163D01*
X6694777Y-6177557D01*
X6694632Y-6178036D01*
X6694557Y-6178748D01*
X6692432Y-6185288D01*
X6689510Y-6194920D01*
X6688980Y-6195911D01*
X6688576Y-6197156D01*
X6685060Y-6203245D01*
X6680957Y-6210921D01*
X6679849Y-6212272D01*
X6678899Y-6213917D01*
X6674378Y-6218937D01*
X6669447Y-6224947D01*
X6667611Y-6226453D01*
X6665948Y-6228300D01*
X6660825Y-6232022D01*
X6655421Y-6236457D01*
X6652772Y-6237873D01*
X6650290Y-6239677D01*
X6644952Y-6242053D01*
X6639420Y-6245010D01*
X6635938Y-6246066D01*
X6632609Y-6247549D01*
X6627405Y-6248655D01*
X6622057Y-6250277D01*
X6617799Y-6250697D01*
X6613677Y-6251573D01*
X6608904Y-6251573D01*
X6604000Y-6252056D01*
X6599096Y-6251573D01*
X6594323Y-6251573D01*
X6590201Y-6250697D01*
X6585943Y-6250277D01*
X6580594Y-6248655D01*
X6575391Y-6247549D01*
X6572062Y-6246067D01*
X6568580Y-6245010D01*
X6563047Y-6242053D01*
X6557710Y-6239677D01*
X6555228Y-6237874D01*
X6552579Y-6236457D01*
X6547174Y-6232022D01*
X6542052Y-6228300D01*
X6540389Y-6226453D01*
X6538553Y-6224947D01*
X6533620Y-6218936D01*
X6529101Y-6213917D01*
X6528152Y-6212272D01*
X6527042Y-6210921D01*
X6522938Y-6203242D01*
X6519424Y-6197156D01*
X6519020Y-6195912D01*
X6518489Y-6194920D01*
X6515566Y-6185284D01*
X6513443Y-6178748D01*
X6513368Y-6178037D01*
X6513223Y-6177557D01*
X6511803Y-6163148D01*
X6511420Y-6159500D01*
X6511803Y-6155855D01*
X6513223Y-6141443D01*
X6513368Y-6140963D01*
X6513443Y-6140251D01*
X6515566Y-6133718D01*
X6518489Y-6124080D01*
X6519020Y-6123088D01*
X6519424Y-6121844D01*
X6522937Y-6115759D01*
X6527042Y-6108079D01*
X6528152Y-6106727D01*
X6529101Y-6105083D01*
X6533619Y-6100065D01*
X6538553Y-6094053D01*
X6540389Y-6092546D01*
X6542052Y-6090700D01*
X6547173Y-6086979D01*
X6552579Y-6082542D01*
X6555229Y-6081126D01*
X6557710Y-6079323D01*
X6563046Y-6076948D01*
X6568580Y-6073989D01*
X6572063Y-6072933D01*
X6575391Y-6071451D01*
X6580593Y-6070345D01*
X6585943Y-6068723D01*
X6590202Y-6068303D01*
X6594323Y-6067427D01*
X6599095Y-6067427D01*
X6604000Y-6066944D01*
X6608905Y-6067427D01*
G37*
G36*
X10418761Y-6069993D02*
G01*
X10423408Y-6069993D01*
X10427420Y-6070846D01*
X10431553Y-6071253D01*
X10436746Y-6072828D01*
X10441812Y-6073905D01*
X10445053Y-6075348D01*
X10448432Y-6076373D01*
X10453802Y-6079243D01*
X10459000Y-6081558D01*
X10461417Y-6083313D01*
X10463988Y-6084688D01*
X10469233Y-6088993D01*
X10474222Y-6092617D01*
X10475841Y-6094415D01*
X10477623Y-6095877D01*
X10482409Y-6101710D01*
X10486812Y-6106599D01*
X10487737Y-6108201D01*
X10488812Y-6109512D01*
X10492791Y-6116956D01*
X10496219Y-6122894D01*
X10496613Y-6124107D01*
X10497127Y-6125068D01*
X10499957Y-6134397D01*
X10502033Y-6140788D01*
X10502106Y-6141483D01*
X10502247Y-6141947D01*
X10503615Y-6155838D01*
X10504000Y-6159500D01*
X10503615Y-6163162D01*
X10502247Y-6177053D01*
X10502106Y-6177516D01*
X10502033Y-6178212D01*
X10499956Y-6184604D01*
X10497127Y-6193932D01*
X10496614Y-6194892D01*
X10496219Y-6196106D01*
X10492790Y-6202045D01*
X10488812Y-6209488D01*
X10487737Y-6210798D01*
X10486812Y-6212401D01*
X10482408Y-6217291D01*
X10477623Y-6223122D01*
X10475842Y-6224584D01*
X10474222Y-6226383D01*
X10469232Y-6230008D01*
X10463988Y-6234312D01*
X10461417Y-6235686D01*
X10459000Y-6237442D01*
X10453801Y-6239757D01*
X10448432Y-6242627D01*
X10445053Y-6243652D01*
X10441812Y-6245095D01*
X10436745Y-6246172D01*
X10431553Y-6247747D01*
X10427421Y-6248154D01*
X10423408Y-6249007D01*
X10418760Y-6249007D01*
X10414000Y-6249476D01*
X10409240Y-6249007D01*
X10404592Y-6249007D01*
X10400579Y-6248154D01*
X10396447Y-6247747D01*
X10391255Y-6246172D01*
X10386189Y-6245095D01*
X10382947Y-6243652D01*
X10379568Y-6242627D01*
X10374198Y-6239757D01*
X10369000Y-6237442D01*
X10366583Y-6235686D01*
X10364012Y-6234312D01*
X10358767Y-6230007D01*
X10353778Y-6226383D01*
X10352159Y-6224584D01*
X10350377Y-6223122D01*
X10345591Y-6217290D01*
X10341189Y-6212401D01*
X10340263Y-6210798D01*
X10339188Y-6209488D01*
X10335209Y-6202043D01*
X10331781Y-6196106D01*
X10331387Y-6194893D01*
X10330873Y-6193932D01*
X10328042Y-6184600D01*
X10325967Y-6178212D01*
X10325894Y-6177517D01*
X10325753Y-6177053D01*
X10324383Y-6163147D01*
X10324000Y-6159500D01*
X10324383Y-6155854D01*
X10325753Y-6141947D01*
X10325894Y-6141483D01*
X10325967Y-6140788D01*
X10328042Y-6134402D01*
X10330873Y-6125068D01*
X10331387Y-6124107D01*
X10331781Y-6122894D01*
X10335208Y-6116958D01*
X10339188Y-6109512D01*
X10340264Y-6108201D01*
X10341189Y-6106599D01*
X10345590Y-6101711D01*
X10350377Y-6095877D01*
X10352159Y-6094415D01*
X10353778Y-6092617D01*
X10358766Y-6088993D01*
X10364012Y-6084688D01*
X10366584Y-6083313D01*
X10369000Y-6081558D01*
X10374197Y-6079244D01*
X10379568Y-6076373D01*
X10382947Y-6075348D01*
X10386189Y-6073905D01*
X10391254Y-6072828D01*
X10396447Y-6071253D01*
X10400580Y-6070846D01*
X10404592Y-6069993D01*
X10409239Y-6069993D01*
X10414000Y-6069524D01*
X10418761Y-6069993D01*
G37*
G36*
X11434761Y-6069993D02*
G01*
X11439408Y-6069993D01*
X11443420Y-6070846D01*
X11447553Y-6071253D01*
X11452746Y-6072828D01*
X11457811Y-6073905D01*
X11461053Y-6075348D01*
X11464432Y-6076373D01*
X11469802Y-6079243D01*
X11475000Y-6081558D01*
X11477416Y-6083313D01*
X11479988Y-6084688D01*
X11485233Y-6088993D01*
X11490222Y-6092617D01*
X11491841Y-6094415D01*
X11493622Y-6095877D01*
X11498409Y-6101710D01*
X11502811Y-6106599D01*
X11503736Y-6108201D01*
X11504812Y-6109512D01*
X11508791Y-6116956D01*
X11512219Y-6122894D01*
X11512613Y-6124107D01*
X11513127Y-6125068D01*
X11515957Y-6134397D01*
X11518033Y-6140788D01*
X11518106Y-6141483D01*
X11518247Y-6141947D01*
X11519615Y-6155838D01*
X11520000Y-6159500D01*
X11519615Y-6163162D01*
X11518247Y-6177053D01*
X11518106Y-6177516D01*
X11518033Y-6178212D01*
X11515956Y-6184604D01*
X11513127Y-6193932D01*
X11512613Y-6194892D01*
X11512219Y-6196106D01*
X11508790Y-6202045D01*
X11504812Y-6209488D01*
X11503737Y-6210798D01*
X11502811Y-6212401D01*
X11498408Y-6217291D01*
X11493622Y-6223122D01*
X11491841Y-6224584D01*
X11490222Y-6226383D01*
X11485232Y-6230008D01*
X11479988Y-6234312D01*
X11477417Y-6235686D01*
X11475000Y-6237442D01*
X11469801Y-6239757D01*
X11464432Y-6242627D01*
X11461053Y-6243652D01*
X11457811Y-6245095D01*
X11452745Y-6246172D01*
X11447553Y-6247747D01*
X11443421Y-6248154D01*
X11439408Y-6249007D01*
X11434760Y-6249007D01*
X11430000Y-6249476D01*
X11425240Y-6249007D01*
X11420592Y-6249007D01*
X11416579Y-6248154D01*
X11412447Y-6247747D01*
X11407255Y-6246172D01*
X11402188Y-6245095D01*
X11398947Y-6243652D01*
X11395568Y-6242627D01*
X11390198Y-6239757D01*
X11385000Y-6237442D01*
X11382583Y-6235686D01*
X11380012Y-6234312D01*
X11374767Y-6230007D01*
X11369778Y-6226383D01*
X11368159Y-6224584D01*
X11366377Y-6223122D01*
X11361591Y-6217290D01*
X11357188Y-6212401D01*
X11356263Y-6210798D01*
X11355188Y-6209488D01*
X11351208Y-6202043D01*
X11347781Y-6196106D01*
X11347387Y-6194893D01*
X11346873Y-6193932D01*
X11344042Y-6184600D01*
X11341967Y-6178212D01*
X11341894Y-6177517D01*
X11341753Y-6177053D01*
X11340383Y-6163147D01*
X11340000Y-6159500D01*
X11340383Y-6155854D01*
X11341753Y-6141947D01*
X11341894Y-6141483D01*
X11341967Y-6140788D01*
X11344042Y-6134402D01*
X11346873Y-6125068D01*
X11347387Y-6124107D01*
X11347781Y-6122894D01*
X11351208Y-6116958D01*
X11355188Y-6109512D01*
X11356264Y-6108201D01*
X11357188Y-6106599D01*
X11361590Y-6101711D01*
X11366377Y-6095877D01*
X11368159Y-6094415D01*
X11369778Y-6092617D01*
X11374766Y-6088993D01*
X11380012Y-6084688D01*
X11382584Y-6083313D01*
X11385000Y-6081558D01*
X11390197Y-6079244D01*
X11395568Y-6076373D01*
X11398947Y-6075348D01*
X11402188Y-6073905D01*
X11407253Y-6072828D01*
X11412447Y-6071253D01*
X11416580Y-6070846D01*
X11420592Y-6069993D01*
X11425239Y-6069993D01*
X11430000Y-6069524D01*
X11434761Y-6069993D01*
G37*
G36*
X9974827Y-5958261D02*
G01*
X9978071Y-5960429D01*
X9980239Y-5963673D01*
X9981000Y-5967500D01*
X9981000Y-6097500D01*
X9981000Y-6097500D01*
X9981000Y-6098094D01*
X9986157Y-6100944D01*
X9986238Y-6100863D01*
X10000459Y-6091927D01*
X10016311Y-6086380D01*
X10033000Y-6084500D01*
X10049689Y-6086380D01*
X10065541Y-6091927D01*
X10079762Y-6100863D01*
X10091637Y-6112738D01*
X10100573Y-6126959D01*
X10106120Y-6142811D01*
X10108000Y-6159500D01*
X10106120Y-6176189D01*
X10100573Y-6192041D01*
X10091637Y-6206262D01*
X10079762Y-6218137D01*
X10065541Y-6227073D01*
X10049689Y-6232620D01*
X10033000Y-6234500D01*
X10016311Y-6232620D01*
X10000459Y-6227073D01*
X9986238Y-6218137D01*
X9974363Y-6206262D01*
X9965427Y-6192041D01*
X9959880Y-6176189D01*
X9958000Y-6159500D01*
X9959880Y-6142811D01*
X9965427Y-6126959D01*
X9974363Y-6112738D01*
X9974444Y-6112657D01*
X9971594Y-6107500D01*
X9971001Y-6107500D01*
X9971000Y-6107500D01*
X9841000Y-6107500D01*
X9837173Y-6106739D01*
X9833929Y-6104571D01*
X9831761Y-6101327D01*
X9831000Y-6097500D01*
X9831000Y-5967500D01*
X9831761Y-5963673D01*
X9833929Y-5960429D01*
X9837173Y-5958261D01*
X9841000Y-5957500D01*
X9971000Y-5957500D01*
X9974827Y-5958261D01*
G37*
G36*
X7892534Y-5812325D02*
G01*
X7910355Y-5817731D01*
X7926779Y-5826510D01*
X7941175Y-5838325D01*
X7952990Y-5852721D01*
X7961769Y-5869145D01*
X7967175Y-5886966D01*
X7969000Y-5905500D01*
X7967175Y-5924034D01*
X7961769Y-5941855D01*
X7952990Y-5958279D01*
X7941175Y-5972675D01*
X7926779Y-5984490D01*
X7910355Y-5993269D01*
X7892534Y-5998675D01*
X7874000Y-6000500D01*
X7855466Y-5998675D01*
X7837645Y-5993269D01*
X7821221Y-5984490D01*
X7806825Y-5972675D01*
X7795010Y-5958279D01*
X7786231Y-5941855D01*
X7780825Y-5924034D01*
X7779000Y-5905500D01*
X7780825Y-5886966D01*
X7786231Y-5869145D01*
X7795010Y-5852721D01*
X7806825Y-5838325D01*
X7821221Y-5826510D01*
X7837645Y-5817731D01*
X7855466Y-5812325D01*
X7874000Y-5810500D01*
X7892534Y-5812325D01*
G37*
G36*
X9416534Y-5812325D02*
G01*
X9434355Y-5817731D01*
X9450779Y-5826510D01*
X9465175Y-5838325D01*
X9476990Y-5852721D01*
X9485769Y-5869145D01*
X9491175Y-5886966D01*
X9493000Y-5905500D01*
X9491175Y-5924034D01*
X9485769Y-5941855D01*
X9476990Y-5958279D01*
X9465175Y-5972675D01*
X9450779Y-5984490D01*
X9434355Y-5993269D01*
X9416534Y-5998675D01*
X9398000Y-6000500D01*
X9379466Y-5998675D01*
X9361645Y-5993269D01*
X9345221Y-5984490D01*
X9330825Y-5972675D01*
X9319010Y-5958279D01*
X9310231Y-5941855D01*
X9304825Y-5924034D01*
X9303000Y-5905500D01*
X9304825Y-5886966D01*
X9310231Y-5869145D01*
X9319010Y-5852721D01*
X9330825Y-5838325D01*
X9345221Y-5826510D01*
X9361645Y-5817731D01*
X9379466Y-5812325D01*
X9398000Y-5810500D01*
X9416534Y-5812325D01*
G37*
G36*
X6608905Y-5813427D02*
G01*
X6613677Y-5813427D01*
X6617798Y-5814303D01*
X6622057Y-5814723D01*
X6627406Y-5816345D01*
X6632609Y-5817451D01*
X6635937Y-5818933D01*
X6639420Y-5819989D01*
X6644953Y-5822947D01*
X6650290Y-5825323D01*
X6652771Y-5827126D01*
X6655421Y-5828542D01*
X6660826Y-5832978D01*
X6665948Y-5836700D01*
X6667611Y-5838546D01*
X6669447Y-5840053D01*
X6674379Y-5846063D01*
X6678899Y-5851083D01*
X6679848Y-5852727D01*
X6680957Y-5854079D01*
X6685061Y-5861756D01*
X6688576Y-5867844D01*
X6688980Y-5869088D01*
X6689510Y-5870080D01*
X6692432Y-5879713D01*
X6694557Y-5886251D01*
X6694632Y-5886963D01*
X6694777Y-5887443D01*
X6696195Y-5901839D01*
X6696580Y-5905500D01*
X6696195Y-5909163D01*
X6694777Y-5923557D01*
X6694632Y-5924036D01*
X6694557Y-5924748D01*
X6692432Y-5931288D01*
X6689510Y-5940920D01*
X6688980Y-5941911D01*
X6688576Y-5943156D01*
X6685060Y-5949245D01*
X6680957Y-5956921D01*
X6679849Y-5958272D01*
X6678899Y-5959917D01*
X6674378Y-5964937D01*
X6669447Y-5970947D01*
X6667611Y-5972453D01*
X6665948Y-5974300D01*
X6660825Y-5978022D01*
X6655421Y-5982457D01*
X6652772Y-5983873D01*
X6650290Y-5985677D01*
X6644952Y-5988053D01*
X6639420Y-5991010D01*
X6635938Y-5992066D01*
X6632609Y-5993549D01*
X6627405Y-5994655D01*
X6622057Y-5996277D01*
X6617799Y-5996697D01*
X6613677Y-5997573D01*
X6608904Y-5997573D01*
X6604000Y-5998056D01*
X6599096Y-5997573D01*
X6594323Y-5997573D01*
X6590201Y-5996697D01*
X6585943Y-5996277D01*
X6580594Y-5994655D01*
X6575391Y-5993549D01*
X6572062Y-5992067D01*
X6568580Y-5991010D01*
X6563047Y-5988053D01*
X6557710Y-5985677D01*
X6555228Y-5983874D01*
X6552579Y-5982457D01*
X6547174Y-5978022D01*
X6542052Y-5974300D01*
X6540389Y-5972453D01*
X6538553Y-5970947D01*
X6533620Y-5964936D01*
X6529101Y-5959917D01*
X6528152Y-5958272D01*
X6527042Y-5956921D01*
X6522938Y-5949242D01*
X6519424Y-5943156D01*
X6519020Y-5941912D01*
X6518489Y-5940920D01*
X6515566Y-5931284D01*
X6513443Y-5924748D01*
X6513368Y-5924037D01*
X6513223Y-5923557D01*
X6511803Y-5909148D01*
X6511420Y-5905500D01*
X6511803Y-5901855D01*
X6513223Y-5887443D01*
X6513368Y-5886963D01*
X6513443Y-5886251D01*
X6515566Y-5879718D01*
X6518489Y-5870080D01*
X6519020Y-5869088D01*
X6519424Y-5867844D01*
X6522937Y-5861759D01*
X6527042Y-5854079D01*
X6528152Y-5852727D01*
X6529101Y-5851083D01*
X6533619Y-5846065D01*
X6538553Y-5840053D01*
X6540389Y-5838546D01*
X6542052Y-5836700D01*
X6547173Y-5832979D01*
X6552579Y-5828542D01*
X6555229Y-5827126D01*
X6557710Y-5825323D01*
X6563046Y-5822948D01*
X6568580Y-5819989D01*
X6572063Y-5818933D01*
X6575391Y-5817451D01*
X6580593Y-5816345D01*
X6585943Y-5814723D01*
X6590202Y-5814303D01*
X6594323Y-5813427D01*
X6599095Y-5813427D01*
X6604000Y-5812944D01*
X6608905Y-5813427D01*
G37*
G36*
X7892534Y-5558325D02*
G01*
X7910355Y-5563731D01*
X7926779Y-5572510D01*
X7941175Y-5584325D01*
X7952990Y-5598721D01*
X7961769Y-5615145D01*
X7967175Y-5632966D01*
X7969000Y-5651500D01*
X7967175Y-5670034D01*
X7961769Y-5687855D01*
X7952990Y-5704279D01*
X7941175Y-5718675D01*
X7926779Y-5730490D01*
X7910355Y-5739269D01*
X7892534Y-5744675D01*
X7874000Y-5746500D01*
X7855466Y-5744675D01*
X7837645Y-5739269D01*
X7821221Y-5730490D01*
X7806825Y-5718675D01*
X7795010Y-5704279D01*
X7786231Y-5687855D01*
X7780825Y-5670034D01*
X7779000Y-5651500D01*
X7780825Y-5632966D01*
X7786231Y-5615145D01*
X7795010Y-5598721D01*
X7806825Y-5584325D01*
X7821221Y-5572510D01*
X7837645Y-5563731D01*
X7855466Y-5558325D01*
X7874000Y-5556500D01*
X7892534Y-5558325D01*
G37*
G36*
X9416534Y-5558325D02*
G01*
X9434355Y-5563731D01*
X9450779Y-5572510D01*
X9465175Y-5584325D01*
X9476990Y-5598721D01*
X9485769Y-5615145D01*
X9491175Y-5632966D01*
X9493000Y-5651500D01*
X9491175Y-5670034D01*
X9485769Y-5687855D01*
X9476990Y-5704279D01*
X9465175Y-5718675D01*
X9450779Y-5730490D01*
X9434355Y-5739269D01*
X9416534Y-5744675D01*
X9398000Y-5746500D01*
X9379466Y-5744675D01*
X9361645Y-5739269D01*
X9345221Y-5730490D01*
X9330825Y-5718675D01*
X9319010Y-5704279D01*
X9310231Y-5687855D01*
X9304825Y-5670034D01*
X9303000Y-5651500D01*
X9304825Y-5632966D01*
X9310231Y-5615145D01*
X9319010Y-5598721D01*
X9330825Y-5584325D01*
X9345221Y-5572510D01*
X9361645Y-5563731D01*
X9379466Y-5558325D01*
X9398000Y-5556500D01*
X9416534Y-5558325D01*
G37*
G36*
X6608905Y-5559427D02*
G01*
X6613677Y-5559427D01*
X6617798Y-5560303D01*
X6622057Y-5560723D01*
X6627406Y-5562345D01*
X6632609Y-5563451D01*
X6635937Y-5564933D01*
X6639420Y-5565990D01*
X6644953Y-5568947D01*
X6650290Y-5571323D01*
X6652771Y-5573126D01*
X6655421Y-5574543D01*
X6660826Y-5578978D01*
X6665948Y-5582700D01*
X6667611Y-5584546D01*
X6669447Y-5586053D01*
X6674379Y-5592064D01*
X6678899Y-5597083D01*
X6679848Y-5598727D01*
X6680957Y-5600079D01*
X6685061Y-5607756D01*
X6688576Y-5613844D01*
X6688980Y-5615088D01*
X6689510Y-5616080D01*
X6692432Y-5625713D01*
X6694557Y-5632251D01*
X6694632Y-5632963D01*
X6694777Y-5633443D01*
X6696195Y-5647839D01*
X6696580Y-5651500D01*
X6696195Y-5655163D01*
X6694777Y-5669557D01*
X6694632Y-5670036D01*
X6694557Y-5670748D01*
X6692432Y-5677288D01*
X6689510Y-5686920D01*
X6688980Y-5687911D01*
X6688576Y-5689156D01*
X6685060Y-5695245D01*
X6680957Y-5702921D01*
X6679849Y-5704272D01*
X6678899Y-5705917D01*
X6674378Y-5710937D01*
X6669447Y-5716947D01*
X6667611Y-5718453D01*
X6665948Y-5720300D01*
X6660825Y-5724022D01*
X6655421Y-5728457D01*
X6652772Y-5729873D01*
X6650290Y-5731677D01*
X6644952Y-5734053D01*
X6639420Y-5737010D01*
X6635938Y-5738066D01*
X6632609Y-5739549D01*
X6627405Y-5740655D01*
X6622057Y-5742277D01*
X6617799Y-5742697D01*
X6613677Y-5743573D01*
X6608904Y-5743573D01*
X6604000Y-5744056D01*
X6599096Y-5743573D01*
X6594323Y-5743573D01*
X6590201Y-5742697D01*
X6585943Y-5742277D01*
X6580594Y-5740655D01*
X6575391Y-5739549D01*
X6572062Y-5738067D01*
X6568580Y-5737010D01*
X6563047Y-5734053D01*
X6557710Y-5731677D01*
X6555228Y-5729874D01*
X6552579Y-5728457D01*
X6547174Y-5724022D01*
X6542052Y-5720300D01*
X6540389Y-5718453D01*
X6538553Y-5716947D01*
X6533620Y-5710936D01*
X6529101Y-5705917D01*
X6528152Y-5704272D01*
X6527042Y-5702921D01*
X6522938Y-5695242D01*
X6519424Y-5689156D01*
X6519020Y-5687912D01*
X6518489Y-5686920D01*
X6515566Y-5677284D01*
X6513443Y-5670748D01*
X6513368Y-5670037D01*
X6513223Y-5669557D01*
X6511803Y-5655148D01*
X6511420Y-5651500D01*
X6511803Y-5647855D01*
X6513223Y-5633443D01*
X6513368Y-5632963D01*
X6513443Y-5632251D01*
X6515566Y-5625718D01*
X6518489Y-5616080D01*
X6519020Y-5615088D01*
X6519424Y-5613844D01*
X6522937Y-5607759D01*
X6527042Y-5600079D01*
X6528152Y-5598727D01*
X6529101Y-5597083D01*
X6533619Y-5592065D01*
X6538553Y-5586053D01*
X6540389Y-5584546D01*
X6542052Y-5582700D01*
X6547173Y-5578979D01*
X6552579Y-5574543D01*
X6555229Y-5573126D01*
X6557710Y-5571323D01*
X6563046Y-5568948D01*
X6568580Y-5565990D01*
X6572063Y-5564933D01*
X6575391Y-5563451D01*
X6580593Y-5562345D01*
X6585943Y-5560723D01*
X6590202Y-5560303D01*
X6594323Y-5559427D01*
X6599095Y-5559427D01*
X6604000Y-5558944D01*
X6608905Y-5559427D01*
G37*
G36*
X11180761Y-5561993D02*
G01*
X11185408Y-5561993D01*
X11189420Y-5562846D01*
X11193553Y-5563253D01*
X11198746Y-5564828D01*
X11203811Y-5565905D01*
X11207053Y-5567348D01*
X11210432Y-5568373D01*
X11215802Y-5571244D01*
X11221000Y-5573558D01*
X11223416Y-5575313D01*
X11225988Y-5576688D01*
X11231233Y-5580993D01*
X11236222Y-5584617D01*
X11237841Y-5586416D01*
X11239622Y-5587877D01*
X11244409Y-5593710D01*
X11248811Y-5598599D01*
X11249736Y-5600201D01*
X11250812Y-5601512D01*
X11254791Y-5608956D01*
X11258219Y-5614894D01*
X11258613Y-5616107D01*
X11259127Y-5617068D01*
X11261957Y-5626397D01*
X11264033Y-5632788D01*
X11264106Y-5633483D01*
X11264247Y-5633947D01*
X11265615Y-5647838D01*
X11266000Y-5651500D01*
X11265615Y-5655162D01*
X11264247Y-5669053D01*
X11264106Y-5669516D01*
X11264033Y-5670212D01*
X11261956Y-5676604D01*
X11259127Y-5685932D01*
X11258613Y-5686892D01*
X11258219Y-5688106D01*
X11254790Y-5694045D01*
X11250812Y-5701488D01*
X11249737Y-5702798D01*
X11248811Y-5704401D01*
X11244408Y-5709291D01*
X11239622Y-5715122D01*
X11237841Y-5716584D01*
X11236222Y-5718383D01*
X11231232Y-5722008D01*
X11225988Y-5726312D01*
X11223417Y-5727686D01*
X11221000Y-5729442D01*
X11215801Y-5731757D01*
X11210432Y-5734627D01*
X11207053Y-5735652D01*
X11203811Y-5737095D01*
X11198745Y-5738172D01*
X11193553Y-5739747D01*
X11189421Y-5740154D01*
X11185408Y-5741007D01*
X11180760Y-5741007D01*
X11176000Y-5741476D01*
X11171240Y-5741007D01*
X11166592Y-5741007D01*
X11162579Y-5740154D01*
X11158447Y-5739747D01*
X11153255Y-5738172D01*
X11148189Y-5737095D01*
X11144947Y-5735652D01*
X11141568Y-5734627D01*
X11136198Y-5731757D01*
X11131000Y-5729442D01*
X11128583Y-5727686D01*
X11126012Y-5726312D01*
X11120767Y-5722007D01*
X11115778Y-5718383D01*
X11114159Y-5716584D01*
X11112377Y-5715122D01*
X11107591Y-5709290D01*
X11103189Y-5704401D01*
X11102263Y-5702798D01*
X11101188Y-5701488D01*
X11097209Y-5694043D01*
X11093781Y-5688106D01*
X11093387Y-5686893D01*
X11092873Y-5685932D01*
X11090042Y-5676600D01*
X11087967Y-5670212D01*
X11087894Y-5669517D01*
X11087753Y-5669053D01*
X11086383Y-5655147D01*
X11086000Y-5651500D01*
X11086383Y-5647854D01*
X11087753Y-5633947D01*
X11087894Y-5633483D01*
X11087967Y-5632788D01*
X11090042Y-5626402D01*
X11092873Y-5617068D01*
X11093387Y-5616107D01*
X11093781Y-5614894D01*
X11097208Y-5608958D01*
X11101188Y-5601512D01*
X11102264Y-5600201D01*
X11103189Y-5598599D01*
X11107590Y-5593711D01*
X11112377Y-5587877D01*
X11114159Y-5586415D01*
X11115778Y-5584617D01*
X11120766Y-5580993D01*
X11126012Y-5576688D01*
X11128584Y-5575313D01*
X11131000Y-5573558D01*
X11136197Y-5571244D01*
X11141568Y-5568373D01*
X11144947Y-5567348D01*
X11148189Y-5565905D01*
X11153254Y-5564828D01*
X11158447Y-5563253D01*
X11162580Y-5562846D01*
X11166592Y-5561993D01*
X11171239Y-5561993D01*
X11176000Y-5561524D01*
X11180761Y-5561993D01*
G37*
G36*
X12196761Y-5561993D02*
G01*
X12201408Y-5561993D01*
X12205420Y-5562846D01*
X12209553Y-5563253D01*
X12214746Y-5564828D01*
X12219811Y-5565905D01*
X12223053Y-5567348D01*
X12226432Y-5568373D01*
X12231802Y-5571244D01*
X12237000Y-5573558D01*
X12239416Y-5575313D01*
X12241988Y-5576688D01*
X12247233Y-5580993D01*
X12252222Y-5584617D01*
X12253841Y-5586416D01*
X12255622Y-5587877D01*
X12260409Y-5593710D01*
X12264811Y-5598599D01*
X12265736Y-5600201D01*
X12266812Y-5601512D01*
X12270791Y-5608956D01*
X12274219Y-5614894D01*
X12274613Y-5616107D01*
X12275127Y-5617068D01*
X12277957Y-5626397D01*
X12280033Y-5632788D01*
X12280106Y-5633483D01*
X12280247Y-5633947D01*
X12281615Y-5647838D01*
X12282000Y-5651500D01*
X12281615Y-5655162D01*
X12280247Y-5669053D01*
X12280106Y-5669516D01*
X12280033Y-5670212D01*
X12277956Y-5676604D01*
X12275127Y-5685932D01*
X12274613Y-5686892D01*
X12274219Y-5688106D01*
X12270790Y-5694045D01*
X12266812Y-5701488D01*
X12265737Y-5702798D01*
X12264811Y-5704401D01*
X12260408Y-5709291D01*
X12255622Y-5715122D01*
X12253841Y-5716584D01*
X12252222Y-5718383D01*
X12247232Y-5722008D01*
X12241988Y-5726312D01*
X12239417Y-5727686D01*
X12237000Y-5729442D01*
X12231801Y-5731757D01*
X12226432Y-5734627D01*
X12223053Y-5735652D01*
X12219811Y-5737095D01*
X12214745Y-5738172D01*
X12209553Y-5739747D01*
X12205421Y-5740154D01*
X12201408Y-5741007D01*
X12196760Y-5741007D01*
X12192000Y-5741476D01*
X12187240Y-5741007D01*
X12182592Y-5741007D01*
X12178579Y-5740154D01*
X12174447Y-5739747D01*
X12169255Y-5738172D01*
X12164188Y-5737095D01*
X12160947Y-5735652D01*
X12157568Y-5734627D01*
X12152198Y-5731757D01*
X12147000Y-5729442D01*
X12144583Y-5727686D01*
X12142012Y-5726312D01*
X12136767Y-5722007D01*
X12131778Y-5718383D01*
X12130159Y-5716584D01*
X12128377Y-5715122D01*
X12123591Y-5709290D01*
X12119188Y-5704401D01*
X12118263Y-5702798D01*
X12117188Y-5701488D01*
X12113208Y-5694043D01*
X12109781Y-5688106D01*
X12109387Y-5686893D01*
X12108873Y-5685932D01*
X12106042Y-5676600D01*
X12103967Y-5670212D01*
X12103894Y-5669517D01*
X12103753Y-5669053D01*
X12102383Y-5655147D01*
X12102000Y-5651500D01*
X12102383Y-5647854D01*
X12103753Y-5633947D01*
X12103894Y-5633483D01*
X12103967Y-5632788D01*
X12106042Y-5626402D01*
X12108873Y-5617068D01*
X12109387Y-5616107D01*
X12109781Y-5614894D01*
X12113208Y-5608958D01*
X12117188Y-5601512D01*
X12118264Y-5600201D01*
X12119188Y-5598599D01*
X12123590Y-5593711D01*
X12128377Y-5587877D01*
X12130159Y-5586415D01*
X12131778Y-5584617D01*
X12136766Y-5580993D01*
X12142012Y-5576688D01*
X12144584Y-5575313D01*
X12147000Y-5573558D01*
X12152197Y-5571244D01*
X12157568Y-5568373D01*
X12160947Y-5567348D01*
X12164188Y-5565905D01*
X12169253Y-5564828D01*
X12174447Y-5563253D01*
X12178580Y-5562846D01*
X12182592Y-5561993D01*
X12187239Y-5561993D01*
X12192000Y-5561524D01*
X12196761Y-5561993D01*
G37*
G36*
X5502725Y-5323709D02*
G01*
X5529677Y-5331261D01*
X5555350Y-5342413D01*
X5579266Y-5356956D01*
X5600978Y-5374620D01*
X5620083Y-5395077D01*
X5636224Y-5417944D01*
X5649102Y-5442796D01*
X5658475Y-5469170D01*
X5664170Y-5496575D01*
X5666080Y-5524500D01*
X5664170Y-5552425D01*
X5658475Y-5579830D01*
X5649102Y-5606204D01*
X5636224Y-5631056D01*
X5620083Y-5653923D01*
X5600978Y-5674380D01*
X5579266Y-5692044D01*
X5555350Y-5706587D01*
X5529677Y-5717739D01*
X5502725Y-5725291D01*
X5474995Y-5729102D01*
X5447005Y-5729102D01*
X5419275Y-5725291D01*
X5392323Y-5717739D01*
X5366650Y-5706587D01*
X5342734Y-5692044D01*
X5321022Y-5674380D01*
X5301917Y-5653923D01*
X5285776Y-5631056D01*
X5272898Y-5606204D01*
X5263525Y-5579830D01*
X5257830Y-5552425D01*
X5255920Y-5524500D01*
X5257830Y-5496575D01*
X5263525Y-5469170D01*
X5272898Y-5442796D01*
X5285776Y-5417944D01*
X5301917Y-5395077D01*
X5321022Y-5374620D01*
X5342734Y-5356956D01*
X5366650Y-5342413D01*
X5392323Y-5331261D01*
X5419275Y-5323709D01*
X5447005Y-5319898D01*
X5474995Y-5319898D01*
X5502725Y-5323709D01*
G37*
G36*
X7892534Y-5304325D02*
G01*
X7910355Y-5309731D01*
X7926779Y-5318510D01*
X7941175Y-5330325D01*
X7952990Y-5344721D01*
X7961769Y-5361145D01*
X7967175Y-5378966D01*
X7969000Y-5397500D01*
X7967175Y-5416034D01*
X7961769Y-5433855D01*
X7952990Y-5450279D01*
X7941175Y-5464675D01*
X7926779Y-5476490D01*
X7910355Y-5485269D01*
X7892534Y-5490675D01*
X7874000Y-5492500D01*
X7855466Y-5490675D01*
X7837645Y-5485269D01*
X7821221Y-5476490D01*
X7806825Y-5464675D01*
X7795010Y-5450279D01*
X7786231Y-5433855D01*
X7780825Y-5416034D01*
X7779000Y-5397500D01*
X7780825Y-5378966D01*
X7786231Y-5361145D01*
X7795010Y-5344721D01*
X7806825Y-5330325D01*
X7821221Y-5318510D01*
X7837645Y-5309731D01*
X7855466Y-5304325D01*
X7874000Y-5302500D01*
X7892534Y-5304325D01*
G37*
G36*
X9416534Y-5304325D02*
G01*
X9434355Y-5309731D01*
X9450779Y-5318510D01*
X9465175Y-5330325D01*
X9476990Y-5344721D01*
X9485769Y-5361145D01*
X9491175Y-5378966D01*
X9493000Y-5397500D01*
X9491175Y-5416034D01*
X9485769Y-5433855D01*
X9476990Y-5450279D01*
X9465175Y-5464675D01*
X9450779Y-5476490D01*
X9434355Y-5485269D01*
X9416534Y-5490675D01*
X9398000Y-5492500D01*
X9379466Y-5490675D01*
X9361645Y-5485269D01*
X9345221Y-5476490D01*
X9330825Y-5464675D01*
X9319010Y-5450279D01*
X9310231Y-5433855D01*
X9304825Y-5416034D01*
X9303000Y-5397500D01*
X9304825Y-5378966D01*
X9310231Y-5361145D01*
X9319010Y-5344721D01*
X9330825Y-5330325D01*
X9345221Y-5318510D01*
X9361645Y-5309731D01*
X9379466Y-5304325D01*
X9398000Y-5302500D01*
X9416534Y-5304325D01*
G37*
G36*
X6693444Y-5305307D02*
G01*
X6695092Y-5306408D01*
X6696193Y-5308056D01*
X6696580Y-5310000D01*
X6696580Y-5485000D01*
X6696193Y-5486944D01*
X6695092Y-5488592D01*
X6693444Y-5489693D01*
X6691500Y-5490080D01*
X6516500Y-5490080D01*
X6514556Y-5489693D01*
X6512908Y-5488592D01*
X6511807Y-5486944D01*
X6511420Y-5485000D01*
X6511420Y-5310000D01*
X6511807Y-5308056D01*
X6512908Y-5306408D01*
X6514556Y-5305307D01*
X6516500Y-5304920D01*
X6691500Y-5304920D01*
X6693444Y-5305307D01*
G37*
G36*
X7892534Y-5050325D02*
G01*
X7910355Y-5055731D01*
X7926779Y-5064510D01*
X7941175Y-5076325D01*
X7952990Y-5090721D01*
X7961769Y-5107145D01*
X7967175Y-5124966D01*
X7969000Y-5143500D01*
X7967175Y-5162034D01*
X7961769Y-5179855D01*
X7952990Y-5196279D01*
X7941175Y-5210675D01*
X7926779Y-5222490D01*
X7910355Y-5231269D01*
X7892534Y-5236675D01*
X7874000Y-5238500D01*
X7855466Y-5236675D01*
X7837645Y-5231269D01*
X7821221Y-5222490D01*
X7806825Y-5210675D01*
X7795010Y-5196279D01*
X7786231Y-5179855D01*
X7780825Y-5162034D01*
X7779000Y-5143500D01*
X7780825Y-5124966D01*
X7786231Y-5107145D01*
X7795010Y-5090721D01*
X7806825Y-5076325D01*
X7821221Y-5064510D01*
X7837645Y-5055731D01*
X7855466Y-5050325D01*
X7874000Y-5048500D01*
X7892534Y-5050325D01*
G37*
G36*
X9416534Y-5050325D02*
G01*
X9434355Y-5055731D01*
X9450779Y-5064510D01*
X9465175Y-5076325D01*
X9476990Y-5090721D01*
X9485769Y-5107145D01*
X9491175Y-5124966D01*
X9493000Y-5143500D01*
X9491175Y-5162034D01*
X9485769Y-5179855D01*
X9476990Y-5196279D01*
X9465175Y-5210675D01*
X9450779Y-5222490D01*
X9434355Y-5231269D01*
X9416534Y-5236675D01*
X9398000Y-5238500D01*
X9379466Y-5236675D01*
X9361645Y-5231269D01*
X9345221Y-5222490D01*
X9330825Y-5210675D01*
X9319010Y-5196279D01*
X9310231Y-5179855D01*
X9304825Y-5162034D01*
X9303000Y-5143500D01*
X9304825Y-5124966D01*
X9310231Y-5107145D01*
X9319010Y-5090721D01*
X9330825Y-5076325D01*
X9345221Y-5064510D01*
X9361645Y-5055731D01*
X9379466Y-5050325D01*
X9398000Y-5048500D01*
X9416534Y-5050325D01*
G37*
G36*
X11180761Y-5053993D02*
G01*
X11185408Y-5053993D01*
X11189420Y-5054846D01*
X11193553Y-5055253D01*
X11198746Y-5056828D01*
X11203811Y-5057905D01*
X11207053Y-5059348D01*
X11210432Y-5060373D01*
X11215802Y-5063244D01*
X11221000Y-5065558D01*
X11223416Y-5067313D01*
X11225988Y-5068688D01*
X11231233Y-5072993D01*
X11236222Y-5076617D01*
X11237841Y-5078416D01*
X11239622Y-5079877D01*
X11244409Y-5085710D01*
X11248811Y-5090599D01*
X11249736Y-5092202D01*
X11250812Y-5093512D01*
X11254791Y-5100956D01*
X11258219Y-5106894D01*
X11258613Y-5108107D01*
X11259127Y-5109068D01*
X11261957Y-5118397D01*
X11264033Y-5124788D01*
X11264106Y-5125483D01*
X11264247Y-5125947D01*
X11265615Y-5139839D01*
X11266000Y-5143500D01*
X11265615Y-5147162D01*
X11264247Y-5161053D01*
X11264106Y-5161516D01*
X11264033Y-5162212D01*
X11261956Y-5168604D01*
X11259127Y-5177932D01*
X11258613Y-5178892D01*
X11258219Y-5180106D01*
X11254790Y-5186045D01*
X11250812Y-5193488D01*
X11249737Y-5194798D01*
X11248811Y-5196401D01*
X11244408Y-5201291D01*
X11239622Y-5207123D01*
X11237841Y-5208584D01*
X11236222Y-5210383D01*
X11231232Y-5214008D01*
X11225988Y-5218312D01*
X11223417Y-5219686D01*
X11221000Y-5221442D01*
X11215801Y-5223757D01*
X11210432Y-5226627D01*
X11207053Y-5227652D01*
X11203811Y-5229095D01*
X11198745Y-5230172D01*
X11193553Y-5231747D01*
X11189421Y-5232154D01*
X11185408Y-5233007D01*
X11180760Y-5233007D01*
X11176000Y-5233476D01*
X11171240Y-5233007D01*
X11166592Y-5233007D01*
X11162579Y-5232154D01*
X11158447Y-5231747D01*
X11153255Y-5230172D01*
X11148189Y-5229095D01*
X11144947Y-5227652D01*
X11141568Y-5226627D01*
X11136198Y-5223757D01*
X11131000Y-5221442D01*
X11128583Y-5219686D01*
X11126012Y-5218312D01*
X11120767Y-5214007D01*
X11115778Y-5210383D01*
X11114159Y-5208584D01*
X11112377Y-5207123D01*
X11107591Y-5201290D01*
X11103189Y-5196401D01*
X11102263Y-5194799D01*
X11101188Y-5193488D01*
X11097209Y-5186043D01*
X11093781Y-5180106D01*
X11093387Y-5178893D01*
X11092873Y-5177932D01*
X11090042Y-5168600D01*
X11087967Y-5162212D01*
X11087894Y-5161517D01*
X11087753Y-5161053D01*
X11086383Y-5147147D01*
X11086000Y-5143500D01*
X11086383Y-5139854D01*
X11087753Y-5125947D01*
X11087894Y-5125483D01*
X11087967Y-5124788D01*
X11090042Y-5118402D01*
X11092873Y-5109068D01*
X11093387Y-5108107D01*
X11093781Y-5106894D01*
X11097208Y-5100958D01*
X11101188Y-5093512D01*
X11102264Y-5092201D01*
X11103189Y-5090599D01*
X11107590Y-5085711D01*
X11112377Y-5079877D01*
X11114159Y-5078415D01*
X11115778Y-5076617D01*
X11120766Y-5072993D01*
X11126012Y-5068688D01*
X11128584Y-5067313D01*
X11131000Y-5065558D01*
X11136197Y-5063244D01*
X11141568Y-5060373D01*
X11144947Y-5059348D01*
X11148189Y-5057905D01*
X11153254Y-5056828D01*
X11158447Y-5055253D01*
X11162580Y-5054846D01*
X11166592Y-5053993D01*
X11171239Y-5053993D01*
X11176000Y-5053524D01*
X11180761Y-5053993D01*
G37*
G36*
X12196761Y-5053993D02*
G01*
X12201408Y-5053993D01*
X12205420Y-5054846D01*
X12209553Y-5055253D01*
X12214746Y-5056828D01*
X12219811Y-5057905D01*
X12223053Y-5059348D01*
X12226432Y-5060373D01*
X12231802Y-5063244D01*
X12237000Y-5065558D01*
X12239416Y-5067313D01*
X12241988Y-5068688D01*
X12247233Y-5072993D01*
X12252222Y-5076617D01*
X12253841Y-5078416D01*
X12255622Y-5079877D01*
X12260409Y-5085710D01*
X12264811Y-5090599D01*
X12265736Y-5092202D01*
X12266812Y-5093512D01*
X12270791Y-5100956D01*
X12274219Y-5106894D01*
X12274613Y-5108107D01*
X12275127Y-5109068D01*
X12277957Y-5118397D01*
X12280033Y-5124788D01*
X12280106Y-5125483D01*
X12280247Y-5125947D01*
X12281615Y-5139839D01*
X12282000Y-5143500D01*
X12281615Y-5147162D01*
X12280247Y-5161053D01*
X12280106Y-5161516D01*
X12280033Y-5162212D01*
X12277956Y-5168604D01*
X12275127Y-5177932D01*
X12274613Y-5178892D01*
X12274219Y-5180106D01*
X12270790Y-5186045D01*
X12266812Y-5193488D01*
X12265737Y-5194798D01*
X12264811Y-5196401D01*
X12260408Y-5201291D01*
X12255622Y-5207123D01*
X12253841Y-5208584D01*
X12252222Y-5210383D01*
X12247232Y-5214008D01*
X12241988Y-5218312D01*
X12239417Y-5219686D01*
X12237000Y-5221442D01*
X12231801Y-5223757D01*
X12226432Y-5226627D01*
X12223053Y-5227652D01*
X12219811Y-5229095D01*
X12214745Y-5230172D01*
X12209553Y-5231747D01*
X12205421Y-5232154D01*
X12201408Y-5233007D01*
X12196760Y-5233007D01*
X12192000Y-5233476D01*
X12187240Y-5233007D01*
X12182592Y-5233007D01*
X12178579Y-5232154D01*
X12174447Y-5231747D01*
X12169255Y-5230172D01*
X12164188Y-5229095D01*
X12160947Y-5227652D01*
X12157568Y-5226627D01*
X12152198Y-5223757D01*
X12147000Y-5221442D01*
X12144583Y-5219686D01*
X12142012Y-5218312D01*
X12136767Y-5214007D01*
X12131778Y-5210383D01*
X12130159Y-5208584D01*
X12128377Y-5207123D01*
X12123591Y-5201290D01*
X12119188Y-5196401D01*
X12118263Y-5194799D01*
X12117188Y-5193488D01*
X12113208Y-5186043D01*
X12109781Y-5180106D01*
X12109387Y-5178893D01*
X12108873Y-5177932D01*
X12106042Y-5168600D01*
X12103967Y-5162212D01*
X12103894Y-5161517D01*
X12103753Y-5161053D01*
X12102383Y-5147147D01*
X12102000Y-5143500D01*
X12102383Y-5139854D01*
X12103753Y-5125947D01*
X12103894Y-5125483D01*
X12103967Y-5124788D01*
X12106042Y-5118402D01*
X12108873Y-5109068D01*
X12109387Y-5108107D01*
X12109781Y-5106894D01*
X12113208Y-5100958D01*
X12117188Y-5093512D01*
X12118264Y-5092201D01*
X12119188Y-5090599D01*
X12123590Y-5085711D01*
X12128377Y-5079877D01*
X12130159Y-5078415D01*
X12131778Y-5076617D01*
X12136766Y-5072993D01*
X12142012Y-5068688D01*
X12144584Y-5067313D01*
X12147000Y-5065558D01*
X12152197Y-5063244D01*
X12157568Y-5060373D01*
X12160947Y-5059348D01*
X12164188Y-5057905D01*
X12169253Y-5056828D01*
X12174447Y-5055253D01*
X12178580Y-5054846D01*
X12182592Y-5053993D01*
X12187239Y-5053993D01*
X12192000Y-5053524D01*
X12196761Y-5053993D01*
G37*
G36*
X7892534Y-4796325D02*
G01*
X7910355Y-4801731D01*
X7926779Y-4810510D01*
X7941175Y-4822325D01*
X7952990Y-4836721D01*
X7961769Y-4853145D01*
X7967175Y-4870966D01*
X7969000Y-4889500D01*
X7967175Y-4908034D01*
X7961769Y-4925855D01*
X7952990Y-4942279D01*
X7941175Y-4956675D01*
X7926779Y-4968490D01*
X7910355Y-4977269D01*
X7892534Y-4982675D01*
X7874000Y-4984500D01*
X7855466Y-4982675D01*
X7837645Y-4977269D01*
X7821221Y-4968490D01*
X7806825Y-4956675D01*
X7795010Y-4942279D01*
X7786231Y-4925855D01*
X7780825Y-4908034D01*
X7779000Y-4889500D01*
X7780825Y-4870966D01*
X7786231Y-4853145D01*
X7795010Y-4836721D01*
X7806825Y-4822325D01*
X7821221Y-4810510D01*
X7837645Y-4801731D01*
X7855466Y-4796325D01*
X7874000Y-4794500D01*
X7892534Y-4796325D01*
G37*
G36*
X9416534Y-4796325D02*
G01*
X9434355Y-4801731D01*
X9450779Y-4810510D01*
X9465175Y-4822325D01*
X9476990Y-4836721D01*
X9485769Y-4853145D01*
X9491175Y-4870966D01*
X9493000Y-4889500D01*
X9491175Y-4908034D01*
X9485769Y-4925855D01*
X9476990Y-4942279D01*
X9465175Y-4956675D01*
X9450779Y-4968490D01*
X9434355Y-4977269D01*
X9416534Y-4982675D01*
X9398000Y-4984500D01*
X9379466Y-4982675D01*
X9361645Y-4977269D01*
X9345221Y-4968490D01*
X9330825Y-4956675D01*
X9319010Y-4942279D01*
X9310231Y-4925855D01*
X9304825Y-4908034D01*
X9303000Y-4889500D01*
X9304825Y-4870966D01*
X9310231Y-4853145D01*
X9319010Y-4836721D01*
X9330825Y-4822325D01*
X9345221Y-4810510D01*
X9361645Y-4801731D01*
X9379466Y-4796325D01*
X9398000Y-4794500D01*
X9416534Y-4796325D01*
G37*
G36*
X7892534Y-4542325D02*
G01*
X7910355Y-4547731D01*
X7926779Y-4556510D01*
X7941175Y-4568325D01*
X7952990Y-4582721D01*
X7961769Y-4599145D01*
X7967175Y-4616966D01*
X7969000Y-4635500D01*
X7967175Y-4654034D01*
X7961769Y-4671855D01*
X7952990Y-4688279D01*
X7941175Y-4702675D01*
X7926779Y-4714490D01*
X7910355Y-4723269D01*
X7892534Y-4728675D01*
X7874000Y-4730500D01*
X7855466Y-4728675D01*
X7837645Y-4723269D01*
X7821221Y-4714490D01*
X7806825Y-4702675D01*
X7795010Y-4688279D01*
X7786231Y-4671855D01*
X7780825Y-4654034D01*
X7779000Y-4635500D01*
X7780825Y-4616966D01*
X7786231Y-4599145D01*
X7795010Y-4582721D01*
X7806825Y-4568325D01*
X7821221Y-4556510D01*
X7837645Y-4547731D01*
X7855466Y-4542325D01*
X7874000Y-4540500D01*
X7892534Y-4542325D01*
G37*
G36*
X9416534Y-4542325D02*
G01*
X9434355Y-4547731D01*
X9450779Y-4556510D01*
X9465175Y-4568325D01*
X9476990Y-4582721D01*
X9485769Y-4599145D01*
X9491175Y-4616966D01*
X9493000Y-4635500D01*
X9491175Y-4654034D01*
X9485769Y-4671855D01*
X9476990Y-4688279D01*
X9465175Y-4702675D01*
X9450779Y-4714490D01*
X9434355Y-4723269D01*
X9416534Y-4728675D01*
X9398000Y-4730500D01*
X9379466Y-4728675D01*
X9361645Y-4723269D01*
X9345221Y-4714490D01*
X9330825Y-4702675D01*
X9319010Y-4688279D01*
X9310231Y-4671855D01*
X9304825Y-4654034D01*
X9303000Y-4635500D01*
X9304825Y-4616966D01*
X9310231Y-4599145D01*
X9319010Y-4582721D01*
X9330825Y-4568325D01*
X9345221Y-4556510D01*
X9361645Y-4547731D01*
X9379466Y-4542325D01*
X9398000Y-4540500D01*
X9416534Y-4542325D01*
G37*
G36*
X10432534Y-4542325D02*
G01*
X10450355Y-4547731D01*
X10466779Y-4556510D01*
X10481175Y-4568325D01*
X10492990Y-4582721D01*
X10501769Y-4599145D01*
X10507175Y-4616966D01*
X10509000Y-4635500D01*
X10507175Y-4654034D01*
X10501769Y-4671855D01*
X10492990Y-4688279D01*
X10481175Y-4702675D01*
X10466779Y-4714490D01*
X10450355Y-4723269D01*
X10432534Y-4728675D01*
X10414000Y-4730500D01*
X10395466Y-4728675D01*
X10377645Y-4723269D01*
X10361221Y-4714490D01*
X10346825Y-4702675D01*
X10335010Y-4688279D01*
X10326231Y-4671855D01*
X10320825Y-4654034D01*
X10319000Y-4635500D01*
X10320825Y-4616966D01*
X10326231Y-4599145D01*
X10335010Y-4582721D01*
X10346825Y-4568325D01*
X10361221Y-4556510D01*
X10377645Y-4547731D01*
X10395466Y-4542325D01*
X10414000Y-4540500D01*
X10432534Y-4542325D01*
G37*
G36*
X10686534Y-4542325D02*
G01*
X10704355Y-4547731D01*
X10720779Y-4556510D01*
X10735175Y-4568325D01*
X10746990Y-4582721D01*
X10755769Y-4599145D01*
X10761175Y-4616966D01*
X10763000Y-4635500D01*
X10761175Y-4654034D01*
X10755769Y-4671855D01*
X10746990Y-4688279D01*
X10735175Y-4702675D01*
X10720779Y-4714490D01*
X10704355Y-4723269D01*
X10686534Y-4728675D01*
X10668000Y-4730500D01*
X10649466Y-4728675D01*
X10631645Y-4723269D01*
X10615221Y-4714490D01*
X10600825Y-4702675D01*
X10589010Y-4688279D01*
X10580231Y-4671855D01*
X10574825Y-4654034D01*
X10573000Y-4635500D01*
X10574825Y-4616966D01*
X10580231Y-4599145D01*
X10589010Y-4582721D01*
X10600825Y-4568325D01*
X10615221Y-4556510D01*
X10631645Y-4547731D01*
X10649466Y-4542325D01*
X10668000Y-4540500D01*
X10686534Y-4542325D01*
G37*
G36*
X7210987Y-4554455D02*
G01*
X7211559Y-4554735D01*
X7211796Y-4554772D01*
X7215599Y-4556710D01*
X7221338Y-4559515D01*
X7229485Y-4567662D01*
X7232291Y-4573402D01*
X7234228Y-4577203D01*
X7234265Y-4577441D01*
X7234545Y-4578013D01*
X7236000Y-4588000D01*
X7236000Y-4683000D01*
X7234545Y-4692987D01*
X7234265Y-4693559D01*
X7234228Y-4693796D01*
X7232293Y-4697594D01*
X7229485Y-4703338D01*
X7221338Y-4711485D01*
X7215595Y-4714292D01*
X7211796Y-4716228D01*
X7211559Y-4716265D01*
X7210987Y-4716545D01*
X7201000Y-4718000D01*
X7151000Y-4718000D01*
X7141013Y-4716545D01*
X7140441Y-4716265D01*
X7140204Y-4716228D01*
X7136403Y-4714291D01*
X7130662Y-4711485D01*
X7122515Y-4703338D01*
X7119710Y-4697600D01*
X7117772Y-4693797D01*
X7117735Y-4693559D01*
X7117455Y-4692987D01*
X7116000Y-4683000D01*
X7116000Y-4588000D01*
X7117455Y-4578013D01*
X7117734Y-4577441D01*
X7117772Y-4577204D01*
X7119711Y-4573399D01*
X7122515Y-4567662D01*
X7130662Y-4559515D01*
X7136397Y-4556712D01*
X7140203Y-4554772D01*
X7140441Y-4554735D01*
X7141013Y-4554455D01*
X7151000Y-4553000D01*
X7201000Y-4553000D01*
X7210987Y-4554455D01*
G37*
G36*
X7400987Y-4554455D02*
G01*
X7401559Y-4554735D01*
X7401796Y-4554772D01*
X7405599Y-4556710D01*
X7411338Y-4559515D01*
X7419485Y-4567662D01*
X7422291Y-4573402D01*
X7424228Y-4577203D01*
X7424265Y-4577441D01*
X7424545Y-4578013D01*
X7426000Y-4588000D01*
X7426000Y-4683000D01*
X7424545Y-4692987D01*
X7424265Y-4693559D01*
X7424228Y-4693796D01*
X7422293Y-4697594D01*
X7419485Y-4703338D01*
X7411338Y-4711485D01*
X7405595Y-4714292D01*
X7401796Y-4716228D01*
X7401559Y-4716265D01*
X7400987Y-4716545D01*
X7391000Y-4718000D01*
X7341000Y-4718000D01*
X7331013Y-4716545D01*
X7330441Y-4716265D01*
X7330204Y-4716228D01*
X7326403Y-4714291D01*
X7320662Y-4711485D01*
X7312515Y-4703338D01*
X7309710Y-4697600D01*
X7307772Y-4693797D01*
X7307735Y-4693559D01*
X7307455Y-4692987D01*
X7306000Y-4683000D01*
X7306000Y-4588000D01*
X7307455Y-4578013D01*
X7307734Y-4577441D01*
X7307772Y-4577204D01*
X7309711Y-4573399D01*
X7312515Y-4567662D01*
X7320662Y-4559515D01*
X7326397Y-4556712D01*
X7330203Y-4554772D01*
X7330441Y-4554735D01*
X7331013Y-4554455D01*
X7341000Y-4553000D01*
X7391000Y-4553000D01*
X7400987Y-4554455D01*
G37*
G36*
X7892534Y-4288325D02*
G01*
X7910355Y-4293731D01*
X7926779Y-4302510D01*
X7941175Y-4314325D01*
X7952990Y-4328721D01*
X7961769Y-4345145D01*
X7967175Y-4362966D01*
X7969000Y-4381500D01*
X7967175Y-4400034D01*
X7961769Y-4417855D01*
X7952990Y-4434279D01*
X7941175Y-4448675D01*
X7926779Y-4460490D01*
X7910355Y-4469269D01*
X7892534Y-4474675D01*
X7874000Y-4476500D01*
X7855466Y-4474675D01*
X7837645Y-4469269D01*
X7821221Y-4460490D01*
X7806825Y-4448675D01*
X7795010Y-4434279D01*
X7786231Y-4417855D01*
X7780825Y-4400034D01*
X7779000Y-4381500D01*
X7780825Y-4362966D01*
X7786231Y-4345145D01*
X7795010Y-4328721D01*
X7806825Y-4314325D01*
X7821221Y-4302510D01*
X7837645Y-4293731D01*
X7855466Y-4288325D01*
X7874000Y-4286500D01*
X7892534Y-4288325D01*
G37*
G36*
X9416534Y-4288325D02*
G01*
X9434355Y-4293731D01*
X9450779Y-4302510D01*
X9465175Y-4314325D01*
X9476990Y-4328721D01*
X9485769Y-4345145D01*
X9491175Y-4362966D01*
X9493000Y-4381500D01*
X9491175Y-4400034D01*
X9485769Y-4417855D01*
X9476990Y-4434279D01*
X9465175Y-4448675D01*
X9450779Y-4460490D01*
X9434355Y-4469269D01*
X9416534Y-4474675D01*
X9398000Y-4476500D01*
X9379466Y-4474675D01*
X9361645Y-4469269D01*
X9345221Y-4460490D01*
X9330825Y-4448675D01*
X9319010Y-4434279D01*
X9310231Y-4417855D01*
X9304825Y-4400034D01*
X9303000Y-4381500D01*
X9304825Y-4362966D01*
X9310231Y-4345145D01*
X9319010Y-4328721D01*
X9330825Y-4314325D01*
X9345221Y-4302510D01*
X9361645Y-4293731D01*
X9379466Y-4288325D01*
X9398000Y-4286500D01*
X9416534Y-4288325D01*
G37*
G36*
X10432534Y-4288325D02*
G01*
X10450355Y-4293731D01*
X10466779Y-4302510D01*
X10481175Y-4314325D01*
X10492990Y-4328721D01*
X10501769Y-4345145D01*
X10507175Y-4362966D01*
X10509000Y-4381500D01*
X10507175Y-4400034D01*
X10501769Y-4417855D01*
X10492990Y-4434279D01*
X10481175Y-4448675D01*
X10466779Y-4460490D01*
X10450355Y-4469269D01*
X10432534Y-4474675D01*
X10414000Y-4476500D01*
X10395466Y-4474675D01*
X10377645Y-4469269D01*
X10361221Y-4460490D01*
X10346825Y-4448675D01*
X10335010Y-4434279D01*
X10326231Y-4417855D01*
X10320825Y-4400034D01*
X10319000Y-4381500D01*
X10320825Y-4362966D01*
X10326231Y-4345145D01*
X10335010Y-4328721D01*
X10346825Y-4314325D01*
X10361221Y-4302510D01*
X10377645Y-4293731D01*
X10395466Y-4288325D01*
X10414000Y-4286500D01*
X10432534Y-4288325D01*
G37*
G36*
X10686534Y-4288325D02*
G01*
X10704355Y-4293731D01*
X10720779Y-4302510D01*
X10735175Y-4314325D01*
X10746990Y-4328721D01*
X10755769Y-4345145D01*
X10761175Y-4362966D01*
X10763000Y-4381500D01*
X10761175Y-4400034D01*
X10755769Y-4417855D01*
X10746990Y-4434279D01*
X10735175Y-4448675D01*
X10720779Y-4460490D01*
X10704355Y-4469269D01*
X10686534Y-4474675D01*
X10668000Y-4476500D01*
X10649466Y-4474675D01*
X10631645Y-4469269D01*
X10615221Y-4460490D01*
X10600825Y-4448675D01*
X10589010Y-4434279D01*
X10580231Y-4417855D01*
X10574825Y-4400034D01*
X10573000Y-4381500D01*
X10574825Y-4362966D01*
X10580231Y-4345145D01*
X10589010Y-4328721D01*
X10600825Y-4314325D01*
X10615221Y-4302510D01*
X10631645Y-4293731D01*
X10649466Y-4288325D01*
X10668000Y-4286500D01*
X10686534Y-4288325D01*
G37*
G36*
X11956534Y-4288325D02*
G01*
X11974355Y-4293731D01*
X11990779Y-4302510D01*
X12005175Y-4314325D01*
X12016990Y-4328721D01*
X12025769Y-4345145D01*
X12031175Y-4362966D01*
X12033000Y-4381500D01*
X12031175Y-4400034D01*
X12025769Y-4417855D01*
X12016990Y-4434279D01*
X12005175Y-4448675D01*
X11990779Y-4460490D01*
X11974355Y-4469269D01*
X11956534Y-4474675D01*
X11938000Y-4476500D01*
X11919466Y-4474675D01*
X11901645Y-4469269D01*
X11885221Y-4460490D01*
X11870825Y-4448675D01*
X11859010Y-4434279D01*
X11850231Y-4417855D01*
X11844825Y-4400034D01*
X11843000Y-4381500D01*
X11844825Y-4362966D01*
X11850231Y-4345145D01*
X11859010Y-4328721D01*
X11870825Y-4314325D01*
X11885221Y-4302510D01*
X11901645Y-4293731D01*
X11919466Y-4288325D01*
X11938000Y-4286500D01*
X11956534Y-4288325D01*
G37*
G36*
X12210534Y-4288325D02*
G01*
X12228355Y-4293731D01*
X12244779Y-4302510D01*
X12259175Y-4314325D01*
X12270990Y-4328721D01*
X12279769Y-4345145D01*
X12285175Y-4362966D01*
X12287000Y-4381500D01*
X12285175Y-4400034D01*
X12279769Y-4417855D01*
X12270990Y-4434279D01*
X12259175Y-4448675D01*
X12244779Y-4460490D01*
X12228355Y-4469269D01*
X12210534Y-4474675D01*
X12192000Y-4476500D01*
X12173466Y-4474675D01*
X12155645Y-4469269D01*
X12139221Y-4460490D01*
X12124825Y-4448675D01*
X12113010Y-4434279D01*
X12104231Y-4417855D01*
X12098825Y-4400034D01*
X12097000Y-4381500D01*
X12098825Y-4362966D01*
X12104231Y-4345145D01*
X12113010Y-4328721D01*
X12124825Y-4314325D01*
X12139221Y-4302510D01*
X12155645Y-4293731D01*
X12173466Y-4288325D01*
X12192000Y-4286500D01*
X12210534Y-4288325D01*
G37*
G36*
X7892534Y-4034325D02*
G01*
X7910355Y-4039731D01*
X7926779Y-4048510D01*
X7941175Y-4060325D01*
X7952990Y-4074721D01*
X7961769Y-4091145D01*
X7967175Y-4108966D01*
X7969000Y-4127500D01*
X7967175Y-4146034D01*
X7961769Y-4163855D01*
X7952990Y-4180279D01*
X7941175Y-4194675D01*
X7926779Y-4206490D01*
X7910355Y-4215269D01*
X7892534Y-4220675D01*
X7874000Y-4222500D01*
X7855466Y-4220675D01*
X7837645Y-4215269D01*
X7821221Y-4206490D01*
X7806825Y-4194675D01*
X7795010Y-4180279D01*
X7786231Y-4163855D01*
X7780825Y-4146034D01*
X7779000Y-4127500D01*
X7780825Y-4108966D01*
X7786231Y-4091145D01*
X7795010Y-4074721D01*
X7806825Y-4060325D01*
X7821221Y-4048510D01*
X7837645Y-4039731D01*
X7855466Y-4034325D01*
X7874000Y-4032500D01*
X7892534Y-4034325D01*
G37*
G36*
X9416534Y-4034325D02*
G01*
X9434355Y-4039731D01*
X9450779Y-4048510D01*
X9465175Y-4060325D01*
X9476990Y-4074721D01*
X9485769Y-4091145D01*
X9491175Y-4108966D01*
X9493000Y-4127500D01*
X9491175Y-4146034D01*
X9485769Y-4163855D01*
X9476990Y-4180279D01*
X9465175Y-4194675D01*
X9450779Y-4206490D01*
X9434355Y-4215269D01*
X9416534Y-4220675D01*
X9398000Y-4222500D01*
X9379466Y-4220675D01*
X9361645Y-4215269D01*
X9345221Y-4206490D01*
X9330825Y-4194675D01*
X9319010Y-4180279D01*
X9310231Y-4163855D01*
X9304825Y-4146034D01*
X9303000Y-4127500D01*
X9304825Y-4108966D01*
X9310231Y-4091145D01*
X9319010Y-4074721D01*
X9330825Y-4060325D01*
X9345221Y-4048510D01*
X9361645Y-4039731D01*
X9379466Y-4034325D01*
X9398000Y-4032500D01*
X9416534Y-4034325D01*
G37*
G36*
X10432534Y-4034325D02*
G01*
X10450355Y-4039731D01*
X10466779Y-4048510D01*
X10481175Y-4060325D01*
X10492990Y-4074721D01*
X10501769Y-4091145D01*
X10507175Y-4108966D01*
X10509000Y-4127500D01*
X10507175Y-4146034D01*
X10501769Y-4163855D01*
X10492990Y-4180279D01*
X10481175Y-4194675D01*
X10466779Y-4206490D01*
X10450355Y-4215269D01*
X10432534Y-4220675D01*
X10414000Y-4222500D01*
X10395466Y-4220675D01*
X10377645Y-4215269D01*
X10361221Y-4206490D01*
X10346825Y-4194675D01*
X10335010Y-4180279D01*
X10326231Y-4163855D01*
X10320825Y-4146034D01*
X10319000Y-4127500D01*
X10320825Y-4108966D01*
X10326231Y-4091145D01*
X10335010Y-4074721D01*
X10346825Y-4060325D01*
X10361221Y-4048510D01*
X10377645Y-4039731D01*
X10395466Y-4034325D01*
X10414000Y-4032500D01*
X10432534Y-4034325D01*
G37*
G36*
X10686534Y-4034325D02*
G01*
X10704355Y-4039731D01*
X10720779Y-4048510D01*
X10735175Y-4060325D01*
X10746990Y-4074721D01*
X10755769Y-4091145D01*
X10761175Y-4108966D01*
X10763000Y-4127500D01*
X10761175Y-4146034D01*
X10755769Y-4163855D01*
X10746990Y-4180279D01*
X10735175Y-4194675D01*
X10720779Y-4206490D01*
X10704355Y-4215269D01*
X10686534Y-4220675D01*
X10668000Y-4222500D01*
X10649466Y-4220675D01*
X10631645Y-4215269D01*
X10615221Y-4206490D01*
X10600825Y-4194675D01*
X10589010Y-4180279D01*
X10580231Y-4163855D01*
X10574825Y-4146034D01*
X10573000Y-4127500D01*
X10574825Y-4108966D01*
X10580231Y-4091145D01*
X10589010Y-4074721D01*
X10600825Y-4060325D01*
X10615221Y-4048510D01*
X10631645Y-4039731D01*
X10649466Y-4034325D01*
X10668000Y-4032500D01*
X10686534Y-4034325D01*
G37*
G36*
X11956534Y-4034325D02*
G01*
X11974355Y-4039731D01*
X11990779Y-4048510D01*
X12005175Y-4060325D01*
X12016990Y-4074721D01*
X12025769Y-4091145D01*
X12031175Y-4108966D01*
X12033000Y-4127500D01*
X12031175Y-4146034D01*
X12025769Y-4163855D01*
X12016990Y-4180279D01*
X12005175Y-4194675D01*
X11990779Y-4206490D01*
X11974355Y-4215269D01*
X11956534Y-4220675D01*
X11938000Y-4222500D01*
X11919466Y-4220675D01*
X11901645Y-4215269D01*
X11885221Y-4206490D01*
X11870825Y-4194675D01*
X11859010Y-4180279D01*
X11850231Y-4163855D01*
X11844825Y-4146034D01*
X11843000Y-4127500D01*
X11844825Y-4108966D01*
X11850231Y-4091145D01*
X11859010Y-4074721D01*
X11870825Y-4060325D01*
X11885221Y-4048510D01*
X11901645Y-4039731D01*
X11919466Y-4034325D01*
X11938000Y-4032500D01*
X11956534Y-4034325D01*
G37*
G36*
X12210534Y-4034325D02*
G01*
X12228355Y-4039731D01*
X12244779Y-4048510D01*
X12259175Y-4060325D01*
X12270990Y-4074721D01*
X12279769Y-4091145D01*
X12285175Y-4108966D01*
X12287000Y-4127500D01*
X12285175Y-4146034D01*
X12279769Y-4163855D01*
X12270990Y-4180279D01*
X12259175Y-4194675D01*
X12244779Y-4206490D01*
X12228355Y-4215269D01*
X12210534Y-4220675D01*
X12192000Y-4222500D01*
X12173466Y-4220675D01*
X12155645Y-4215269D01*
X12139221Y-4206490D01*
X12124825Y-4194675D01*
X12113010Y-4180279D01*
X12104231Y-4163855D01*
X12098825Y-4146034D01*
X12097000Y-4127500D01*
X12098825Y-4108966D01*
X12104231Y-4091145D01*
X12113010Y-4074721D01*
X12124825Y-4060325D01*
X12139221Y-4048510D01*
X12155645Y-4039731D01*
X12173466Y-4034325D01*
X12192000Y-4032500D01*
X12210534Y-4034325D01*
G37*
G36*
X5657987Y-3779955D02*
G01*
X5658559Y-3780234D01*
X5658796Y-3780272D01*
X5662599Y-3782210D01*
X5668338Y-3785015D01*
X5676485Y-3793162D01*
X5679291Y-3798902D01*
X5681228Y-3802703D01*
X5681265Y-3802941D01*
X5681545Y-3803513D01*
X5683000Y-3813500D01*
X5683000Y-3933500D01*
X5681545Y-3943487D01*
X5681265Y-3944059D01*
X5681228Y-3944296D01*
X5679293Y-3948094D01*
X5676485Y-3953838D01*
X5668338Y-3961985D01*
X5662595Y-3964792D01*
X5658796Y-3966728D01*
X5658559Y-3966765D01*
X5657987Y-3967045D01*
X5648000Y-3968500D01*
X5528000Y-3968500D01*
X5518013Y-3967045D01*
X5517441Y-3966765D01*
X5517204Y-3966728D01*
X5513404Y-3964791D01*
X5507662Y-3961985D01*
X5499515Y-3953838D01*
X5496710Y-3948100D01*
X5494772Y-3944296D01*
X5494735Y-3944059D01*
X5494455Y-3943487D01*
X5493000Y-3933500D01*
X5493000Y-3813500D01*
X5494455Y-3803513D01*
X5494735Y-3802941D01*
X5494772Y-3802704D01*
X5496711Y-3798899D01*
X5499515Y-3793162D01*
X5507662Y-3785015D01*
X5513397Y-3782212D01*
X5517203Y-3780272D01*
X5517441Y-3780235D01*
X5518013Y-3779955D01*
X5528000Y-3778500D01*
X5648000Y-3778500D01*
X5657987Y-3779955D01*
G37*
G36*
X5860534Y-3780325D02*
G01*
X5878355Y-3785731D01*
X5894779Y-3794510D01*
X5909175Y-3806325D01*
X5920990Y-3820721D01*
X5929769Y-3837145D01*
X5935175Y-3854966D01*
X5937000Y-3873500D01*
X5935175Y-3892034D01*
X5929769Y-3909855D01*
X5920990Y-3926279D01*
X5909175Y-3940675D01*
X5894779Y-3952490D01*
X5878355Y-3961269D01*
X5860534Y-3966675D01*
X5842000Y-3968500D01*
X5823466Y-3966675D01*
X5805645Y-3961269D01*
X5789221Y-3952490D01*
X5774825Y-3940675D01*
X5763010Y-3926279D01*
X5754231Y-3909855D01*
X5748825Y-3892034D01*
X5747000Y-3873500D01*
X5748825Y-3854966D01*
X5754231Y-3837145D01*
X5763010Y-3820721D01*
X5774825Y-3806325D01*
X5789221Y-3794510D01*
X5805645Y-3785731D01*
X5823466Y-3780325D01*
X5842000Y-3778500D01*
X5860534Y-3780325D01*
G37*
G36*
X6114534Y-3780325D02*
G01*
X6132355Y-3785731D01*
X6148779Y-3794510D01*
X6163175Y-3806325D01*
X6174990Y-3820721D01*
X6183769Y-3837145D01*
X6189175Y-3854966D01*
X6191000Y-3873500D01*
X6189175Y-3892034D01*
X6183769Y-3909855D01*
X6174990Y-3926279D01*
X6163175Y-3940675D01*
X6148779Y-3952490D01*
X6132355Y-3961269D01*
X6114534Y-3966675D01*
X6096000Y-3968500D01*
X6077466Y-3966675D01*
X6059645Y-3961269D01*
X6043221Y-3952490D01*
X6028825Y-3940675D01*
X6017010Y-3926279D01*
X6008231Y-3909855D01*
X6002825Y-3892034D01*
X6001000Y-3873500D01*
X6002825Y-3854966D01*
X6008231Y-3837145D01*
X6017010Y-3820721D01*
X6028825Y-3806325D01*
X6043221Y-3794510D01*
X6059645Y-3785731D01*
X6077466Y-3780325D01*
X6096000Y-3778500D01*
X6114534Y-3780325D01*
G37*
G36*
X6368534Y-3780325D02*
G01*
X6386355Y-3785731D01*
X6402779Y-3794510D01*
X6417175Y-3806325D01*
X6428990Y-3820721D01*
X6437769Y-3837145D01*
X6443175Y-3854966D01*
X6445000Y-3873500D01*
X6443175Y-3892034D01*
X6437769Y-3909855D01*
X6428990Y-3926279D01*
X6417175Y-3940675D01*
X6402779Y-3952490D01*
X6386355Y-3961269D01*
X6368534Y-3966675D01*
X6350000Y-3968500D01*
X6331466Y-3966675D01*
X6313645Y-3961269D01*
X6297221Y-3952490D01*
X6282825Y-3940675D01*
X6271010Y-3926279D01*
X6262231Y-3909855D01*
X6256825Y-3892034D01*
X6255000Y-3873500D01*
X6256825Y-3854966D01*
X6262231Y-3837145D01*
X6271010Y-3820721D01*
X6282825Y-3806325D01*
X6297221Y-3794510D01*
X6313645Y-3785731D01*
X6331466Y-3780325D01*
X6350000Y-3778500D01*
X6368534Y-3780325D01*
G37*
G36*
X7892534Y-3780325D02*
G01*
X7910355Y-3785731D01*
X7926779Y-3794510D01*
X7941175Y-3806325D01*
X7952990Y-3820721D01*
X7961769Y-3837145D01*
X7967175Y-3854966D01*
X7969000Y-3873500D01*
X7967175Y-3892034D01*
X7961769Y-3909855D01*
X7952990Y-3926279D01*
X7941175Y-3940675D01*
X7926779Y-3952490D01*
X7910355Y-3961269D01*
X7892534Y-3966675D01*
X7874000Y-3968500D01*
X7855466Y-3966675D01*
X7837645Y-3961269D01*
X7821221Y-3952490D01*
X7806825Y-3940675D01*
X7795010Y-3926279D01*
X7786231Y-3909855D01*
X7780825Y-3892034D01*
X7779000Y-3873500D01*
X7780825Y-3854966D01*
X7786231Y-3837145D01*
X7795010Y-3820721D01*
X7806825Y-3806325D01*
X7821221Y-3794510D01*
X7837645Y-3785731D01*
X7855466Y-3780325D01*
X7874000Y-3778500D01*
X7892534Y-3780325D01*
G37*
G36*
X9416534Y-3780325D02*
G01*
X9434355Y-3785731D01*
X9450779Y-3794510D01*
X9465175Y-3806325D01*
X9476990Y-3820721D01*
X9485769Y-3837145D01*
X9491175Y-3854966D01*
X9493000Y-3873500D01*
X9491175Y-3892034D01*
X9485769Y-3909855D01*
X9476990Y-3926279D01*
X9465175Y-3940675D01*
X9450779Y-3952490D01*
X9434355Y-3961269D01*
X9416534Y-3966675D01*
X9398000Y-3968500D01*
X9379466Y-3966675D01*
X9361645Y-3961269D01*
X9345221Y-3952490D01*
X9330825Y-3940675D01*
X9319010Y-3926279D01*
X9310231Y-3909855D01*
X9304825Y-3892034D01*
X9303000Y-3873500D01*
X9304825Y-3854966D01*
X9310231Y-3837145D01*
X9319010Y-3820721D01*
X9330825Y-3806325D01*
X9345221Y-3794510D01*
X9361645Y-3785731D01*
X9379466Y-3780325D01*
X9398000Y-3778500D01*
X9416534Y-3780325D01*
G37*
G36*
X10483987Y-3779955D02*
G01*
X10484559Y-3780234D01*
X10484796Y-3780272D01*
X10488599Y-3782210D01*
X10494338Y-3785015D01*
X10502485Y-3793162D01*
X10505291Y-3798902D01*
X10507228Y-3802703D01*
X10507265Y-3802941D01*
X10507545Y-3803513D01*
X10509000Y-3813500D01*
X10509000Y-3933500D01*
X10507545Y-3943487D01*
X10507265Y-3944059D01*
X10507228Y-3944296D01*
X10505293Y-3948094D01*
X10502485Y-3953838D01*
X10494338Y-3961985D01*
X10488596Y-3964792D01*
X10484797Y-3966728D01*
X10484559Y-3966765D01*
X10483987Y-3967045D01*
X10474000Y-3968500D01*
X10354000Y-3968500D01*
X10344013Y-3967045D01*
X10343441Y-3966765D01*
X10343204Y-3966728D01*
X10339404Y-3964791D01*
X10333662Y-3961985D01*
X10325515Y-3953838D01*
X10322710Y-3948100D01*
X10320772Y-3944296D01*
X10320735Y-3944059D01*
X10320455Y-3943487D01*
X10319000Y-3933500D01*
X10319000Y-3813500D01*
X10320455Y-3803513D01*
X10320735Y-3802941D01*
X10320772Y-3802704D01*
X10322711Y-3798899D01*
X10325515Y-3793162D01*
X10333662Y-3785015D01*
X10339397Y-3782212D01*
X10343203Y-3780272D01*
X10343441Y-3780235D01*
X10344013Y-3779955D01*
X10354000Y-3778500D01*
X10474000Y-3778500D01*
X10483987Y-3779955D01*
G37*
G36*
X10686534Y-3780325D02*
G01*
X10704355Y-3785731D01*
X10720779Y-3794510D01*
X10735175Y-3806325D01*
X10746990Y-3820721D01*
X10755769Y-3837145D01*
X10761175Y-3854966D01*
X10763000Y-3873500D01*
X10761175Y-3892034D01*
X10755769Y-3909855D01*
X10746990Y-3926279D01*
X10735175Y-3940675D01*
X10720779Y-3952490D01*
X10704355Y-3961269D01*
X10686534Y-3966675D01*
X10668000Y-3968500D01*
X10649466Y-3966675D01*
X10631645Y-3961269D01*
X10615221Y-3952490D01*
X10600825Y-3940675D01*
X10589010Y-3926279D01*
X10580231Y-3909855D01*
X10574825Y-3892034D01*
X10573000Y-3873500D01*
X10574825Y-3854966D01*
X10580231Y-3837145D01*
X10589010Y-3820721D01*
X10600825Y-3806325D01*
X10615221Y-3794510D01*
X10631645Y-3785731D01*
X10649466Y-3780325D01*
X10668000Y-3778500D01*
X10686534Y-3780325D01*
G37*
G36*
X12007987Y-3779955D02*
G01*
X12008559Y-3780234D01*
X12008796Y-3780272D01*
X12012599Y-3782210D01*
X12018338Y-3785015D01*
X12026485Y-3793162D01*
X12029291Y-3798902D01*
X12031228Y-3802703D01*
X12031265Y-3802941D01*
X12031545Y-3803513D01*
X12033000Y-3813500D01*
X12033000Y-3933500D01*
X12031545Y-3943487D01*
X12031265Y-3944059D01*
X12031228Y-3944296D01*
X12029293Y-3948094D01*
X12026485Y-3953838D01*
X12018338Y-3961985D01*
X12012595Y-3964792D01*
X12008796Y-3966728D01*
X12008559Y-3966765D01*
X12007987Y-3967045D01*
X11998000Y-3968500D01*
X11878000Y-3968500D01*
X11868013Y-3967045D01*
X11867441Y-3966765D01*
X11867204Y-3966728D01*
X11863403Y-3964791D01*
X11857662Y-3961985D01*
X11849515Y-3953838D01*
X11846710Y-3948100D01*
X11844772Y-3944296D01*
X11844735Y-3944059D01*
X11844455Y-3943487D01*
X11843000Y-3933500D01*
X11843000Y-3813500D01*
X11844455Y-3803513D01*
X11844734Y-3802941D01*
X11844772Y-3802704D01*
X11846711Y-3798899D01*
X11849515Y-3793162D01*
X11857662Y-3785015D01*
X11863397Y-3782212D01*
X11867203Y-3780272D01*
X11867441Y-3780235D01*
X11868013Y-3779955D01*
X11878000Y-3778500D01*
X11998000Y-3778500D01*
X12007987Y-3779955D01*
G37*
G36*
X12210534Y-3780325D02*
G01*
X12228355Y-3785731D01*
X12244779Y-3794510D01*
X12259175Y-3806325D01*
X12270990Y-3820721D01*
X12279769Y-3837145D01*
X12285175Y-3854966D01*
X12287000Y-3873500D01*
X12285175Y-3892034D01*
X12279769Y-3909855D01*
X12270990Y-3926279D01*
X12259175Y-3940675D01*
X12244779Y-3952490D01*
X12228355Y-3961269D01*
X12210534Y-3966675D01*
X12192000Y-3968500D01*
X12173466Y-3966675D01*
X12155645Y-3961269D01*
X12139221Y-3952490D01*
X12124825Y-3940675D01*
X12113010Y-3926279D01*
X12104231Y-3909855D01*
X12098825Y-3892034D01*
X12097000Y-3873500D01*
X12098825Y-3854966D01*
X12104231Y-3837145D01*
X12113010Y-3820721D01*
X12124825Y-3806325D01*
X12139221Y-3794510D01*
X12155645Y-3785731D01*
X12173466Y-3780325D01*
X12192000Y-3778500D01*
X12210534Y-3780325D01*
G37*
G36*
X7210987Y-3792455D02*
G01*
X7211559Y-3792734D01*
X7211796Y-3792772D01*
X7215599Y-3794710D01*
X7221338Y-3797515D01*
X7229485Y-3805662D01*
X7232291Y-3811402D01*
X7234228Y-3815203D01*
X7234265Y-3815441D01*
X7234545Y-3816013D01*
X7236000Y-3826000D01*
X7236000Y-3921000D01*
X7234545Y-3930987D01*
X7234265Y-3931559D01*
X7234228Y-3931796D01*
X7232293Y-3935594D01*
X7229485Y-3941338D01*
X7221338Y-3949485D01*
X7215595Y-3952292D01*
X7211796Y-3954228D01*
X7211559Y-3954265D01*
X7210987Y-3954545D01*
X7201000Y-3956000D01*
X7151000Y-3956000D01*
X7141013Y-3954545D01*
X7140441Y-3954265D01*
X7140204Y-3954228D01*
X7136403Y-3952291D01*
X7130662Y-3949485D01*
X7122515Y-3941338D01*
X7119710Y-3935600D01*
X7117772Y-3931796D01*
X7117735Y-3931559D01*
X7117455Y-3930987D01*
X7116000Y-3921000D01*
X7116000Y-3826000D01*
X7117455Y-3816013D01*
X7117734Y-3815441D01*
X7117772Y-3815204D01*
X7119711Y-3811399D01*
X7122515Y-3805662D01*
X7130662Y-3797515D01*
X7136397Y-3794712D01*
X7140203Y-3792772D01*
X7140441Y-3792735D01*
X7141013Y-3792455D01*
X7151000Y-3791000D01*
X7201000Y-3791000D01*
X7210987Y-3792455D01*
G37*
G36*
X7400987Y-3792455D02*
G01*
X7401559Y-3792734D01*
X7401796Y-3792772D01*
X7405599Y-3794710D01*
X7411338Y-3797515D01*
X7419485Y-3805662D01*
X7422291Y-3811402D01*
X7424228Y-3815203D01*
X7424265Y-3815441D01*
X7424545Y-3816013D01*
X7426000Y-3826000D01*
X7426000Y-3921000D01*
X7424545Y-3930987D01*
X7424265Y-3931559D01*
X7424228Y-3931796D01*
X7422293Y-3935594D01*
X7419485Y-3941338D01*
X7411338Y-3949485D01*
X7405595Y-3952292D01*
X7401796Y-3954228D01*
X7401559Y-3954265D01*
X7400987Y-3954545D01*
X7391000Y-3956000D01*
X7341000Y-3956000D01*
X7331013Y-3954545D01*
X7330441Y-3954265D01*
X7330204Y-3954228D01*
X7326403Y-3952291D01*
X7320662Y-3949485D01*
X7312515Y-3941338D01*
X7309710Y-3935600D01*
X7307772Y-3931796D01*
X7307735Y-3931559D01*
X7307455Y-3930987D01*
X7306000Y-3921000D01*
X7306000Y-3826000D01*
X7307455Y-3816013D01*
X7307734Y-3815441D01*
X7307772Y-3815204D01*
X7309711Y-3811399D01*
X7312515Y-3805662D01*
X7320662Y-3797515D01*
X7326397Y-3794712D01*
X7330203Y-3792772D01*
X7330441Y-3792735D01*
X7331013Y-3792455D01*
X7341000Y-3791000D01*
X7391000Y-3791000D01*
X7400987Y-3792455D01*
G37*
G36*
X5606534Y-3526325D02*
G01*
X5624355Y-3531731D01*
X5640779Y-3540510D01*
X5655175Y-3552325D01*
X5666990Y-3566721D01*
X5675769Y-3583145D01*
X5681175Y-3600966D01*
X5683000Y-3619500D01*
X5681175Y-3638034D01*
X5675769Y-3655855D01*
X5666990Y-3672279D01*
X5655175Y-3686675D01*
X5640779Y-3698490D01*
X5624355Y-3707269D01*
X5606534Y-3712675D01*
X5588000Y-3714500D01*
X5569466Y-3712675D01*
X5551645Y-3707269D01*
X5535221Y-3698490D01*
X5520825Y-3686675D01*
X5509010Y-3672279D01*
X5500231Y-3655855D01*
X5494825Y-3638034D01*
X5493000Y-3619500D01*
X5494825Y-3600966D01*
X5500231Y-3583145D01*
X5509010Y-3566721D01*
X5520825Y-3552325D01*
X5535221Y-3540510D01*
X5551645Y-3531731D01*
X5569466Y-3526325D01*
X5588000Y-3524500D01*
X5606534Y-3526325D01*
G37*
G36*
X5860534Y-3526325D02*
G01*
X5878355Y-3531731D01*
X5894779Y-3540510D01*
X5909175Y-3552325D01*
X5920990Y-3566721D01*
X5929769Y-3583145D01*
X5935175Y-3600966D01*
X5937000Y-3619500D01*
X5935175Y-3638034D01*
X5929769Y-3655855D01*
X5920990Y-3672279D01*
X5909175Y-3686675D01*
X5894779Y-3698490D01*
X5878355Y-3707269D01*
X5860534Y-3712675D01*
X5842000Y-3714500D01*
X5823466Y-3712675D01*
X5805645Y-3707269D01*
X5789221Y-3698490D01*
X5774825Y-3686675D01*
X5763010Y-3672279D01*
X5754231Y-3655855D01*
X5748825Y-3638034D01*
X5747000Y-3619500D01*
X5748825Y-3600966D01*
X5754231Y-3583145D01*
X5763010Y-3566721D01*
X5774825Y-3552325D01*
X5789221Y-3540510D01*
X5805645Y-3531731D01*
X5823466Y-3526325D01*
X5842000Y-3524500D01*
X5860534Y-3526325D01*
G37*
G36*
X6114534Y-3526325D02*
G01*
X6132355Y-3531731D01*
X6148779Y-3540510D01*
X6163175Y-3552325D01*
X6174990Y-3566721D01*
X6183769Y-3583145D01*
X6189175Y-3600966D01*
X6191000Y-3619500D01*
X6189175Y-3638034D01*
X6183769Y-3655855D01*
X6174990Y-3672279D01*
X6163175Y-3686675D01*
X6148779Y-3698490D01*
X6132355Y-3707269D01*
X6114534Y-3712675D01*
X6096000Y-3714500D01*
X6077466Y-3712675D01*
X6059645Y-3707269D01*
X6043221Y-3698490D01*
X6028825Y-3686675D01*
X6017010Y-3672279D01*
X6008231Y-3655855D01*
X6002825Y-3638034D01*
X6001000Y-3619500D01*
X6002825Y-3600966D01*
X6008231Y-3583145D01*
X6017010Y-3566721D01*
X6028825Y-3552325D01*
X6043221Y-3540510D01*
X6059645Y-3531731D01*
X6077466Y-3526325D01*
X6096000Y-3524500D01*
X6114534Y-3526325D01*
G37*
G36*
X6368534Y-3526325D02*
G01*
X6386355Y-3531731D01*
X6402779Y-3540510D01*
X6417175Y-3552325D01*
X6428990Y-3566721D01*
X6437769Y-3583145D01*
X6443175Y-3600966D01*
X6445000Y-3619500D01*
X6443175Y-3638034D01*
X6437769Y-3655855D01*
X6428990Y-3672279D01*
X6417175Y-3686675D01*
X6402779Y-3698490D01*
X6386355Y-3707269D01*
X6368534Y-3712675D01*
X6350000Y-3714500D01*
X6331466Y-3712675D01*
X6313645Y-3707269D01*
X6297221Y-3698490D01*
X6282825Y-3686675D01*
X6271010Y-3672279D01*
X6262231Y-3655855D01*
X6256825Y-3638034D01*
X6255000Y-3619500D01*
X6256825Y-3600966D01*
X6262231Y-3583145D01*
X6271010Y-3566721D01*
X6282825Y-3552325D01*
X6297221Y-3540510D01*
X6313645Y-3531731D01*
X6331466Y-3526325D01*
X6350000Y-3524500D01*
X6368534Y-3526325D01*
G37*
G36*
X7962827Y-3525261D02*
G01*
X7966071Y-3527429D01*
X7968239Y-3530673D01*
X7969000Y-3534500D01*
X7969000Y-3704500D01*
X7968239Y-3708327D01*
X7966071Y-3711571D01*
X7962827Y-3713739D01*
X7959000Y-3714500D01*
X7789000Y-3714500D01*
X7785173Y-3713739D01*
X7781929Y-3711571D01*
X7779761Y-3708327D01*
X7779000Y-3704500D01*
X7779000Y-3534500D01*
X7779761Y-3530673D01*
X7781929Y-3527429D01*
X7785173Y-3525261D01*
X7789000Y-3524500D01*
X7959000Y-3524500D01*
X7962827Y-3525261D01*
G37*
G36*
X9416534Y-3526325D02*
G01*
X9434355Y-3531731D01*
X9450779Y-3540510D01*
X9465175Y-3552325D01*
X9476990Y-3566721D01*
X9485769Y-3583145D01*
X9491175Y-3600966D01*
X9493000Y-3619500D01*
X9491175Y-3638034D01*
X9485769Y-3655855D01*
X9476990Y-3672279D01*
X9465175Y-3686675D01*
X9450779Y-3698490D01*
X9434355Y-3707269D01*
X9416534Y-3712675D01*
X9398000Y-3714500D01*
X9379466Y-3712675D01*
X9361645Y-3707269D01*
X9345221Y-3698490D01*
X9330825Y-3686675D01*
X9319010Y-3672279D01*
X9310231Y-3655855D01*
X9304825Y-3638034D01*
X9303000Y-3619500D01*
X9304825Y-3600966D01*
X9310231Y-3583145D01*
X9319010Y-3566721D01*
X9330825Y-3552325D01*
X9345221Y-3540510D01*
X9361645Y-3531731D01*
X9379466Y-3526325D01*
X9398000Y-3524500D01*
X9416534Y-3526325D01*
G37*
M02*
